<?xml version="1.0" encoding="UTF-8" standalone="no"?>
<svg
   id="Layer_1"
   data-name="Layer 1"
   width="1100"
   height="300"
   viewBox="-175 -25 1100 300"
   version="1.1"
   sodipodi:docname="scale_1to60_px_is_mm.svg"
   inkscape:version="1.3 (0e150ed6c4, 2023-07-21)"
   xmlns:inkscape="http://www.inkscape.org/namespaces/inkscape"
   xmlns:sodipodi="http://sodipodi.sourceforge.net/DTD/sodipodi-0.dtd"
   xmlns="http://www.w3.org/2000/svg"
   xmlns:svg="http://www.w3.org/2000/svg">
  <sodipodi:namedview
     id="namedview7"
     pagecolor="#ffffff"
     bordercolor="#666666"
     borderopacity="1.0"
     inkscape:showpageshadow="2"
     inkscape:pageopacity="0.0"
     inkscape:pagecheckerboard="0"
     inkscape:deskcolor="#d1d1d1"
     showgrid="false"
     inkscape:zoom="17.406704"
     inkscape:cx="62.992971"
     inkscape:cy="8.6460941"
     inkscape:window-width="3840"
     inkscape:window-height="2081"
     inkscape:window-x="-9"
     inkscape:window-y="-9"
     inkscape:window-maximized="1"
     inkscape:current-layer="Layer_1"
     inkscape:pageshadow="2" />
  <defs
     id="defs1">
    <style
       id="style1">&#10;      .cls-1 {&#10;        fill: #ff1d25;&#10;      }&#10;&#10;      .cls-1, .cls-2 {&#10;        stroke-width: 0px;&#10;      }&#10;&#10;      .cls-2 {&#10;        fill: #231f20;&#10;      }&#10;    </style>
  </defs>
  <g
     id="group_text"
     transform="matrix(0.16667347,0,0,0.16667347,-167.13984,230.72943)"
     inkscape:label="group_text">
    <path
       id="path17"
       d="M 659.90039,-1.1972656 C 656.34888,34.397779 652.79814,69.9929 649.24609,105.58789 c 2.96094,0.37044 5.92188,0.74089 8.88282,1.11133 -4.01315,2.76157 -7.23811,6.61735 -9.33985,11.00586 -1.62009,-15.77608 -3.24045,-31.55213 -4.86133,-47.328127 -15.84043,13.080803 -31.68097,26.161481 -47.52148,39.242187 0.54167,-0.86003 1.08333,-1.72005 1.625,-2.58008 -23.67512,0.61382 -47.35032,1.22418 -71.02539,1.83985 -4.28044,6.98432 -8.55867,13.97 -12.83789,20.95507 -2.03401,-12.32224 -4.06861,-24.64438 -6.10156,-36.966792 -16.62444,2.366365 -33.24387,4.774119 -49.87093,7.118181 -35.29938,3.345731 -70.59897,6.689151 -105.8986,10.032211 -4.33412,13.31832 -8.66797,26.63672 -13.00196,39.95508 -5.18169,-9.3274 -13.43358,-16.6168 -22.58301,-21.93182 -5.92835,-3.49289 -12.31552,-6.11344 -18.78654,-8.41237 -17.76872,-6.56826 -35.69394,-12.70618 -53.71622,-18.54056 -1.558,-0.51043 -3.11599,-1.02085 -4.67399,-1.531269 -5.93554,16.319069 -11.87501,32.636719 -17.8125,48.955079 -3.69767,-8.69336 -9.79548,-16.46959 -17.8058,-21.56723 -8.22533,-5.33518 -18.10164,-7.68146 -27.83308,-7.78184 -9.6488,-0.13886 -19.20463,1.76006 -28.42362,4.48188 -10.17519,2.90115 -20.25415,6.13154 -30.26368,9.55859 -6.65013,-11.89664 -16.65186,-21.96969 -28.750846,-28.30802 -11.930947,-6.336167 -25.700283,-8.914418 -39.135621,-7.904973 -11.43672,0.930088 -22.890564,3.570753 -33.082394,8.967973 -9.0400741,4.75583 -16.91460718,11.93091 -21.8817653,20.9107 -5.1561947,9.16949 -7.1143367,19.90836 -6.4207677,30.34834 0.680127,10.25536 3.3507523,20.6116 9.1780492,29.19264 3.8820971,5.76775 9.1515037,10.56031 15.1753808,14.016 -8.3865944,7.76055 -16.7725111,15.52184 -25.160157,23.28125 2.7997719,4.13286 5.4256722,8.38664 8.3739111,12.41681 7.2860248,9.85466 17.0990969,17.88242 28.3800039,22.72876 12.407561,5.4129 26.26475,6.9413 39.663766,5.57206 12.013501,-1.25104 24.078197,-3.99401 34.761028,-9.79919 8.381332,-4.53415 15.729732,-11.19849 20.407232,-19.55711 2.94251,9.67063 5.88425,19.3415 8.82812,29.01172 21.2668,-1.2958 42.53372,-2.58943 63.80078,-3.88086 -3.48147,-12.3523 -6.96342,-24.70446 -10.44531,-37.05664 4.23647,-1.34126 8.44573,-2.7671 12.66992,-4.14649 -0.20935,-0.70253 0.68523,-0.68131 1.10491,-0.98308 0.63761,-0.29148 1.26819,-0.5978 1.899,-0.90363 -2.20309,6.05777 -4.40828,12.11479 -6.61328,18.17187 19.193,7.59596 38.38599,15.19195 57.58008,22.78516 3.66458,-9.12544 7.32836,-18.25121 10.99218,-27.37696 2.46668,10.17646 4.93278,20.35307 7.40039,30.5293 12.36004,-0.10603 24.72006,-0.21477 37.08008,-0.32227 -0.10564,0.52528 1.08939,0.10582 1.52188,0.24024 20.07343,0 40.14687,0 60.22031,0 3.73949,-12.443 7.47657,-24.88672 11.21484,-37.33008 2.14453,-0.28646 4.28907,-0.57292 6.4336,-0.85937 0.94182,5.53052 1.88299,11.06116 2.82422,16.59179 3.74286,-0.0206 7.49185,0.0407 11.23096,-0.0298 23.26325,-3.48003 46.52706,-6.9564 69.79052,-10.43502 1.69841,11.46877 3.39597,22.93767 5.0957,34.40625 21.16927,0 42.33854,0 63.50782,0 -2.08596,-13.16752 -4.17413,-26.33469 -6.26172,-39.50195 6.87565,6.0039 13.7513,12.00781 20.62695,18.01171 0,3.32487 0,6.64974 0,9.97461 18.62328,-4.71196 37.246,-9.42615 55.86914,-14.13867 9.64651,9.16013 19.29319,18.32008 28.93945,27.48047 14.54124,-14.98022 29.08242,-29.96049 43.62696,-44.9375 -4.21356,-3.92186 -8.4272,-7.84362 -12.64063,-11.76562 10.23577,1.61989 20.47148,3.24007 30.70703,4.86132 0,-3.33007 0,-6.66015 0,-9.99023 12.13529,-15.68825 24.27035,-31.37668 36.40625,-47.06445 -10.67123,-1.38275 -21.34248,-2.76538 -32.01367,-4.14844 5.2565,-5.36958 7.98717,-12.88801 8.09688,-20.34265 0.17483,-7.17024 -2.32664,-14.39952 -7.06172,-19.80969 3.07747,0.38541 6.15495,0.77083 9.23242,1.15624 0.0178,-4.33696 -0.0355,-8.67867 0.0266,-13.01268 4.803,-35.831054 9.60596,-71.662118 14.40898,-107.4931744 -21.30773,-1.9320228 -42.61592,-3.8590416 -63.92383,-5.7890626 -0.39323,3.9440105 -0.78646,7.888021 -1.17969,11.8320314 z M 589.87891,122.10156 c 0.6569,5.69922 1.3138,11.39844 1.9707,17.09766 -2.93346,-2.78595 -5.86847,-5.57027 -8.80078,-8.35742 2.20811,-3.50795 4.41651,-7.01573 6.625,-10.52344 0.0684,0.5944 0.13672,1.1888 0.20508,1.7832 z m -308.38672,48.34766 c 0.82884,0.34299 1.74512,0.71152 2.34179,1.38086 -0.13818,0.36655 -0.11843,1.22174 -0.60156,1.15625 -1.12347,-0.18958 -2.19157,-0.59906 -3.26562,-0.96485 0.21224,-0.63216 0.42448,-1.26432 0.63672,-1.89648 0.29622,0.10807 0.59244,0.21615 0.88867,0.32422 z m -114.26563,2.67187 c 0.38977,0.52197 -0.66854,0.80124 -0.87401,0.74454 -0.48628,-0.68434 0.40455,-0.63781 0.87206,-0.74454 z"
       style="fill:#ffff00" />
    <g
       id="g7"
       inkscape:label="g8">
      <path
         d="M 698.57,99.67 662.35,95.14 671.84,0 711.45,3.58 698.57,99.66 v 0 z"
         id="path8" />
      <circle
         id="bulb-60"
         class="cls-1"
         cx="689.23999"
         cy="20.040001"
         r="5" />
      <circle
         id="bulb-59"
         class="cls-1"
         cx="686.23999"
         cy="48.549999"
         r="5" />
      <circle
         id="bulb-58"
         class="cls-1"
         cx="682.22998"
         cy="77.050003"
         r="5" />
    </g>
    <g
       id="g1">
      <path
         class="cls-2"
         d="m 83.08,155.74 c -8.02,-10.83 -20.9,-15.34 -31.87,-14.12 -6.89,0.77 -10.59,6.04 -9.9,12.28 2.26,20.3 65.36,-7.09 71.63,49.36 2.83,25.46 -11.19,44.87 -49.42,49.12 -26.17,2.91 -47.37,-6.63 -60.56,-26.8 l 22.15,-20.49 c 9.26,11.95 23.57,17.93 36.1,16.54 6.89,-0.77 10.9,-6.08 10.19,-12.49 -2.36,-21.19 -65.09,3.81 -71.06,-49.96 -2.91,-26.17 12.8,-46.13 47.42,-49.98 25.38,-2.82 47.3,8.8 59.15,29.84 l -23.84,16.71 h 0.01 z"
         id="path1" />
      <circle
         id="bulb-1"
         class="cls-1"
         cx="83"
         cy="136"
         r="5" />
      <circle
         id="bulb-2"
         class="cls-1"
         cx="54"
         cy="124"
         r="5" />
      <circle
         id="bulb-3"
         class="cls-1"
         cx="22"
         cy="138"
         r="5" />
      <circle
         id="bulb-4"
         class="cls-1"
         cx="22"
         cy="167"
         r="5" />
      <circle
         id="bulb-5"
         class="cls-1"
         cx="55"
         cy="180"
         r="5" />
      <circle
         id="bulb-6"
         class="cls-1"
         cx="88"
         cy="193"
         r="5" />
      <circle
         id="bulb-7"
         class="cls-1"
         cx="87"
         cy="225"
         r="5" />
      <circle
         id="bulb-8"
         class="cls-1"
         cx="57"
         cy="237"
         r="5" />
      <circle
         id="bulb-9"
         class="cls-1"
         cx="28"
         cy="229"
         r="5" />
    </g>
    <g
       id="g2">
      <path
         class="cls-2"
         d="m 181.76,210.31 c -5.01,1.67 -10.48,3.32 -15.43,4.68 l 9.62,34.14 -39.5,2.4 -30.84,-101.38 c 11.94,-4.46 31.27,-11.11 48.6,-15.87 31.36,-8.62 52,0.8 58.84,25.7 7.07,25.72 -6.64,42.06 -31.3,50.32 h 0.01 z m -18.67,-48.57 c -4.81,1.32 -8.79,3.01 -11.84,4.29 l 7.39,23.12 c 3.85,-1.06 8.32,-2.58 11.4,-3.72 7.38,-2.77 10.9,-7.73 8.78,-15.43 -2,-7.29 -7.89,-10.41 -15.73,-8.25 v 0 z"
         id="path2" />
      <circle
         id="bulb-13"
         class="cls-1"
         cx="126"
         cy="158"
         r="5" />
      <circle
         id="bulb-14"
         class="cls-1"
         cx="154"
         cy="148"
         r="5" />
      <circle
         id="bulb-15"
         class="cls-1"
         cx="187"
         cy="150"
         r="5" />
      <circle
         id="bulb-12"
         class="cls-1"
         cx="134"
         cy="184"
         r="5" />
      <circle
         id="bulb-16"
         class="cls-1"
         cx="196"
         cy="178"
         r="5" />
      <circle
         id="bulb-17"
         class="cls-1"
         cx="174"
         cy="198"
         r="5" />
      <circle
         id="bulb-11"
         class="cls-1"
         cx="142"
         cy="211"
         r="5" />
      <circle
         id="bulb-10"
         class="cls-1"
         cx="149"
         cy="236"
         r="5" />
    </g>
    <g
       id="g3">
      <path
         class="cls-2"
         d="m 275.54,249.14 -10.57,-43.61 c -2.67,-1 -5.7,-2.28 -7.79,-3.21 l -16.14,40.19 -35.62,-14.09 41.42,-113.85 c 12.63,4.1 31.67,10.6 50.78,17.73 29.94,11.17 41.54,31.49 32.56,55.55 -5.64,15.1 -16.04,20.96 -27.56,22.45 l 9.15,38.52 -36.24,0.32 z m 10.08,-89.96 c -3.88,-1.45 -9.05,-3.07 -12.58,-4.24 l -8.08,24.09 c 3.83,1.58 8.32,3.41 12.51,4.82 8.52,2.87 14.51,0.69 17.4,-7.06 2.79,-7.48 -0.44,-14.32 -9.26,-17.62 v 0 z"
         id="path3" />
      <circle
         id="bulb-21"
         class="cls-1"
         cx="259"
         cy="135"
         r="5" />
      <circle
         id="bulb-22"
         class="cls-1"
         cx="286"
         cy="144"
         r="5" />
      <circle
         id="bulb-23"
         class="cls-1"
         cx="311"
         cy="160"
         r="5" />
      <circle
         id="bulb-20"
         class="cls-1"
         cx="248.25999"
         cy="163.11"
         r="5" />
      <circle
         id="bulb-24"
         class="cls-1"
         cx="308"
         cy="188"
         r="5" />
      <circle
         id="bulb-19"
         class="cls-1"
         cx="238"
         cy="192"
         r="5" />
      <circle
         id="bulb-25"
         class="cls-1"
         cx="282"
         cy="206"
         r="5" />
      <circle
         id="bulb-18"
         class="cls-1"
         cx="228"
         cy="220"
         r="5" />
      <circle
         id="bulb-26"
         class="cls-1"
         cx="289"
         cy="234"
         r="5" />
    </g>
    <g
       id="g4">
      <path
         class="cls-2"
         d="m 395.55,227.54 -3.07,-18.02 -25.59,3.42 -10.87,36.2 h -36.37 l 41.62,-127.92 91.79,-8.7 3.74,25.76 -40.25,3.62 2.63,15.63 39.84,-5.6 3.2,23.75 -39.15,5.37 2.7,16.2 40.75,-6.43 3.56,25.58 -74.52,11.14 z m -12.45,-73.49 -9.62,32.94 15.01,-1.84 z"
         id="path4" />
      <circle
         id="bulb-30"
         class="cls-1"
         cx="374"
         cy="135"
         r="5" />
      <circle
         id="bulb-31"
         class="cls-1"
         cx="399"
         cy="132"
         r="5" />
      <circle
         id="bulb-35"
         class="cls-1"
         cx="434"
         cy="128"
         r="5" />
      <circle
         id="bulb-29"
         class="cls-1"
         cx="362"
         cy="170"
         r="5" />
      <circle
         id="bulb-32"
         class="cls-1"
         cx="404"
         cy="170"
         r="5" />
      <circle
         id="bulb-36"
         class="cls-1"
         cx="436"
         cy="167"
         r="5" />
      <circle
         id="bulb-28"
         class="cls-1"
         cx="352"
         cy="203"
         r="5" />
      <circle
         id="bulb-34"
         class="cls-1"
         cx="381"
         cy="199"
         r="5" />
      <circle
         id="bulb-33"
         class="cls-1"
         cx="409"
         cy="206"
         r="5" />
      <circle
         id="bulb-37"
         class="cls-1"
         cx="443"
         cy="207"
         r="5" />
      <circle
         id="bulb-27"
         class="cls-1"
         cx="342"
         cy="233"
         r="5" />
    </g>
    <g
       id="g5">
      <path
         class="cls-2"
         d="m 561.4,236.53 -44.84,-39.15 -3.6,3.46 8.03,50.64 h -39.1 l -20.7,-139.79 36.95,-5.28 9.43,57.16 26.26,-42.86 42.11,-1.1 -33.6,53.38 55.32,54.38 -36.25,9.18 v -0.02 z"
         id="path5" />
      <circle
         id="bulb-38"
         class="cls-1"
         cx="482"
         cy="127"
         r="5" />
      <circle
         id="bulb-43"
         class="cls-1"
         cx="545"
         cy="134"
         r="5" />
      <circle
         id="bulb-39"
         class="cls-1"
         cx="486"
         cy="155"
         r="5" />
      <circle
         id="bulb-44"
         class="cls-1"
         cx="531"
         cy="156"
         r="5" />
      <circle
         id="bulb-40"
         class="cls-1"
         cx="489"
         cy="183"
         r="5" />
      <circle
         id="bulb-45"
         class="cls-1"
         cx="518"
         cy="179"
         r="5" />
      <circle
         id="bulb-41"
         class="cls-1"
         cx="493"
         cy="211"
         r="5" />
      <circle
         id="bulb-46"
         class="cls-1"
         cx="541"
         cy="196"
         r="5" />
      <circle
         id="bulb-42"
         class="cls-1"
         cx="497"
         cy="238"
         r="5" />
      <circle
         id="bulb-47"
         class="cls-1"
         cx="564"
         cy="217"
         r="5" />
    </g>
    <g
       id="g6">
      <path
         class="cls-2"
         d="m 683.91,199.42 -48.42,-7.67 -0.71,4.94 25.92,24.11 -26.83,27.63 -79.68,-75.66 21.78,-32.1 31.58,29.99 -5.75,-49.93 32.48,-26.83 6.45,62.74 69.29,8.98 -26.13,33.79 h 0.02 z"
         id="path6" />
      <circle
         id="bulb-48"
         class="cls-1"
         cx="577"
         cy="170"
         r="5" />
      <circle
         id="bulb-52"
         class="cls-1"
         cx="619"
         cy="125"
         r="5" />
      <circle
         id="bulb-49"
         class="cls-1"
         cx="596"
         cy="188"
         r="5" />
      <circle
         id="bulb-53"
         class="cls-1"
         cx="621"
         cy="148"
         r="5" />
      <circle
         id="bulb-54"
         class="cls-1"
         cx="624"
         cy="174"
         r="5" />
      <circle
         id="bulb-50"
         class="cls-1"
         cx="616.39001"
         cy="207"
         r="5" />
      <circle
         id="bulb-55"
         class="cls-1"
         cx="650"
         cy="176"
         r="5" />
      <circle
         id="bulb-51"
         class="cls-1"
         cx="634"
         cy="224"
         r="5" />
      <circle
         id="bulb-56"
         class="cls-1"
         cx="675"
         cy="180"
         r="5" />
    </g>
    <g
       id="g8"
       inkscape:label="g7">
      <path
         d="m 675.51,148.89 c -11.44,-1.14 -18.77,-8.47 -17.69,-19.37 1.09,-10.89 9.42,-17.21 21.04,-16.05 11.26,1.12 18.5,9.36 17.45,19.89 -1.05,10.53 -9.18,16.69 -20.8,15.53 z"
         id="path7"
         style="fill:#1a1a1a" />
      <circle
         id="bulb-57"
         class="cls-1"
         cx="677.22998"
         cy="132.06"
         r="5" />
    </g>
  </g>
</svg>
