  0
SECTION
  2
HEADER
  9
$ACADVER
  1
AC1014
  9
$HANDSEED
  5
FFFF
  9
$INSUNITS
 70
     0
  9
$MEASUREMENT
 70
     1
  0
ENDSEC
  0
SECTION
  2
TABLES
  0
TABLE
  2
VPORT
  5
8
330
0
100
AcDbSymbolTable
 70
     4
  0
VPORT
  5
2E
330
8
100
AcDbSymbolTableRecord
100
AcDbViewportTableRecord
  2
*ACTIVE
 70
     0
 10
0.0
 20
0.0
 11
1.0
 21
1.0
 12
210.0
 22
148.5
 13
0.0
 23
0.0
 14
10.0
 24
10.0
 15
10.0
 25
10.0
 16
0.0
 26
0.0
 36
1.0
 17
0.0
 27
0.0
 37
0.0
 40
341.0
 41
1.24
 42
50.0
 43
0.0
 44
0.0
 50
0.0
 51
0.0
 71
     0
 72
   100
 73
     1
 74
     3
 75
     0
 76
     0
 77
     0
 78
     0
  0
ENDTAB
  0
TABLE
  2
LTYPE
  5
5
330
0
100
AcDbSymbolTable
 70
     1
  0
LTYPE
  5
14
330
5
100
AcDbSymbolTableRecord
100
AcDbLinetypeTableRecord
  2
BYBLOCK
 70
     0
  3

 72
    65
 73
     0
 40
0.0
  0
LTYPE
  5
15
330
5
100
AcDbSymbolTableRecord
100
AcDbLinetypeTableRecord
  2
BYLAYER
 70
     0
  3

 72
    65
 73
     0
 40
0.0
  0
LTYPE
  5
16
330
5
100
AcDbSymbolTableRecord
100
AcDbLinetypeTableRecord
  2
CONTINUOUS
 70
     0
  3
Solid line
 72
    65
 73
     0
 40
0.0
  0
ENDTAB
  0
TABLE
  2
LAYER
  5
2
100
AcDbSymbolTable
 70
2
  0
LAYER
  5
50
100
AcDbSymbolTableRecord
100
AcDbLayerTableRecord
  2
0
 70
0
  6
CONTINUOUS
  0
LAYER
  5
51
100
AcDbSymbolTableRecord
100
AcDbLayerTableRecord
  2
Sprekk
 70
0
  6
CONTINUOUS
  0
ENDTAB
  0
TABLE
  2
STYLE
  5
3
330
0
100
AcDbSymbolTable
 70
     1
  0
STYLE
  5
11
330
3
100
AcDbSymbolTableRecord
100
AcDbTextStyleTableRecord
  2
STANDARD
 70
     0
 40
0.0
 41
1.0
 50
0.0
 71
     0
 42
2.5
  3
txt
  4

  0
ENDTAB
  0
TABLE
  2
VIEW
  5
6
330
0
100
AcDbSymbolTable
 70
     0
  0
ENDTAB
  0
TABLE
  2
UCS
  5
7
330
0
100
AcDbSymbolTable
 70
     0
  0
ENDTAB
  0
TABLE
  2
APPID
  5
9
330
0
100
AcDbSymbolTable
 70
     2
  0
APPID
  5
12
330
9
100
AcDbSymbolTableRecord
100
AcDbRegAppTableRecord
  2
ACAD
 70
     0
  0
ENDTAB
  0
TABLE
  2
DIMSTYLE
  5
A
330
0
100
AcDbSymbolTable
 70
     1
  0
DIMSTYLE
105
27
330
A
100
AcDbSymbolTableRecord
100
AcDbDimStyleTableRecord
  2
ISO-25
 70
     0
  3

  4

  5

  6

  7

 40
1.0
 41
2.5
 42
0.625
 43
3.75
 44
1.25
 45
0.0
 46
0.0
 47
0.0
 48
0.0
140
2.5
141
2.5
142
0.0
143
0.03937007874016
144
1.0
145
0.0
146
1.0
147
0.625
 71
     0
 72
     0
 73
     0
 74
     0
 75
     0
 76
     0
 77
     1
 78
     8
170
     0
171
     3
172
     1
173
     0
174
     0
175
     0
176
     0
177
     0
178
     0
270
     2
271
     2
272
     2
273
     2
274
     3
340
11
275
     0
280
     0
281
     0
282
     0
283
     0
284
     8
285
     0
286
     0
287
     3
288
     0
  0
ENDTAB
  0
TABLE
  2
BLOCK_RECORD
  5
1
330
0
100
AcDbSymbolTable
 70
     1
  0
BLOCK_RECORD
  5
1F
330
1
100
AcDbSymbolTableRecord
100
AcDbBlockTableRecord
  2
*MODEL_SPACE
  0
BLOCK_RECORD
  5
1B
330
1
100
AcDbSymbolTableRecord
100
AcDbBlockTableRecord
  2
*PAPER_SPACE
  0
ENDTAB
  0
ENDSEC
  0
SECTION
  2
BLOCKS
  0
BLOCK
  5
20
330
1F
100
AcDbEntity
  8
0
100
AcDbBlockBegin
  2
*MODEL_SPACE
 70
     0
 10
0.0
 20
0.0
 30
0.0
  3
*MODEL_SPACE
  1

  0
ENDBLK
  5
21
330
1F
100
AcDbEntity
  8
0
100
AcDbBlockEnd
  0
BLOCK
  5
1C
330
1B
100
AcDbEntity
 67
     1
  8
0
100
AcDbBlockBegin
  2
*PAPER_SPACE
  1

  0
ENDBLK
  5
1D
330
1B
100
AcDbEntity
 67
     1
  8
0
100
AcDbBlockEnd
  0
ENDSEC
  0
SECTION
  2
ENTITIES
  0
SPLINE
  5
100
100
AcDbEntity
  8
0
 62
7
100
AcDbSpline
 70
8
 71
3
 72
8
 73
4
 74
0
 40
0
 40
0
 40
0
 40
0
 40
1
 40
1
 40
1
 40
1
 10
432.400920
 20
221.452770
 30
0.0
 10
431.565890
 20
221.174430
 30
0.0
 10
430.654180
 20
220.899420
 30
0.0
 10
429.829150
 20
220.672740
 30
0.0
  0
LINE
  5
101
100
AcDbEntity
  8
0
 62
7
100
AcDbLine
 10
429.829150
 20
220.672740
 30
0.0
 11
431.432550
 21
214.982510
 31
0.0
  0
LINE
  5
102
100
AcDbEntity
  8
0
 62
7
100
AcDbLine
 10
431.432550
 20
214.982510
 30
0.0
 11
424.848950
 21
214.582490
 31
0.0
  0
LINE
  5
103
100
AcDbEntity
  8
0
 62
7
100
AcDbLine
 10
424.848950
 20
214.582490
 30
0.0
 11
419.708740
 21
231.479850
 31
0.0
  0
SPLINE
  5
104
100
AcDbEntity
  8
0
 62
7
100
AcDbSpline
 70
8
 71
3
 72
8
 73
4
 74
0
 40
0
 40
0
 40
0
 40
0
 40
1
 40
1
 40
1
 40
1
 10
419.708740
 20
231.479850
 30
0.0
 10
421.698820
 20
232.223210
 30
0.0
 10
424.920610
 20
233.331590
 30
0.0
 10
427.809070
 20
234.124960
 30
0.0
  0
SPLINE
  5
105
100
AcDbEntity
  8
0
 62
7
100
AcDbSpline
 70
8
 71
3
 72
8
 73
4
 74
0
 40
0
 40
0
 40
0
 40
0
 40
1
 40
1
 40
1
 40
1
 10
427.809070
 20
234.124960
 30
0.0
 10
433.035950
 20
235.561680
 30
0.0
 10
436.476090
 20
233.991620
 30
0.0
 10
437.616130
 20
229.841450
 30
0.0
  0
SPLINE
  5
106
100
AcDbEntity
  8
0
 62
7
100
AcDbSpline
 70
8
 71
3
 72
8
 73
4
 74
0
 40
0
 40
0
 40
0
 40
0
 40
1
 40
1
 40
1
 40
1
 10
437.616130
 20
229.841450
 30
0.0
 10
438.794510
 20
225.554610
 30
0.0
 10
436.509420
 20
222.831160
 30
0.0
 10
432.399250
 20
221.454440
 30
0.0
  0
LINE
  5
107
100
AcDbEntity
  8
0
 62
7
100
AcDbLine
 10
432.399250
 20
221.454440
 30
0.0
 11
432.400920
 21
221.452770
 31
0.0
  0
SPLINE
  5
108
100
AcDbEntity
  8
0
 62
7
100
AcDbSpline
 70
8
 71
3
 72
8
 73
4
 74
0
 40
0
 40
0
 40
0
 40
0
 40
1
 40
1
 40
1
 40
1
 10
429.289130
 20
229.548100
 30
0.0
 10
428.487430
 20
229.328090
 30
0.0
 10
427.824070
 20
229.046420
 30
0.0
 10
427.315710
 20
228.833070
 30
0.0
  0
LINE
  5
109
100
AcDbEntity
  8
0
 62
7
100
AcDbLine
 10
427.315710
 20
228.833070
 30
0.0
 11
428.547430
 21
224.979580
 31
0.0
  0
SPLINE
  5
10a
100
AcDbEntity
  8
0
 62
7
100
AcDbSpline
 70
8
 71
3
 72
8
 73
4
 74
0
 40
0
 40
0
 40
0
 40
0
 40
1
 40
1
 40
1
 40
1
 10
428.547430
 20
224.979580
 30
0.0
 10
429.189120
 20
225.156260
 30
0.0
 10
429.934150
 20
225.409600
 30
0.0
 10
430.447510
 20
225.599610
 30
0.0
  0
SPLINE
  5
10b
100
AcDbEntity
  8
0
 62
7
100
AcDbSpline
 70
8
 71
3
 72
8
 73
4
 74
0
 40
0
 40
0
 40
0
 40
0
 40
1
 40
1
 40
1
 40
1
 10
430.447510
 20
225.599610
 30
0.0
 10
431.677560
 20
226.061290
 30
0.0
 10
432.264250
 20
226.887990
 30
0.0
 10
431.910900
 20
228.171380
 30
0.0
  0
SPLINE
  5
10c
100
AcDbEntity
  8
0
 62
7
100
AcDbSpline
 70
8
 71
3
 72
8
 73
4
 74
0
 40
0
 40
0
 40
0
 40
0
 40
1
 40
1
 40
1
 40
1
 10
431.910900
 20
228.171380
 30
0.0
 10
431.577550
 20
229.386430
 30
0.0
 10
430.595850
 20
229.906450
 30
0.0
 10
429.289130
 20
229.546440
 30
0.0
  0
LINE
  5
10d
100
AcDbEntity
  8
0
 62
7
100
AcDbLine
 10
429.289130
 20
229.546440
 30
0.0
 11
429.289130
 21
229.548100
 31
0.0
  0
LINE
  5
10e
100
AcDbEntity
  8
0
 62
7
100
AcDbLine
 10
448.029890
 20
214.980840
 30
0.0
 11
446.268150
 21
222.249470
 31
0.0
  0
SPLINE
  5
10f
100
AcDbEntity
  8
0
 62
7
100
AcDbSpline
 70
8
 71
3
 72
8
 73
4
 74
0
 40
0
 40
0
 40
0
 40
0
 40
1
 40
1
 40
1
 40
1
 10
446.268150
 20
222.249470
 30
0.0
 10
445.823130
 20
222.416140
 30
0.0
 10
445.318110
 20
222.629490
 30
0.0
 10
444.969770
 20
222.784490
 30
0.0
  0
LINE
  5
110
100
AcDbEntity
  8
0
 62
7
100
AcDbLine
 10
444.969770
 20
222.784490
 30
0.0
 11
442.279660
 21
216.085890
 31
0.0
  0
LINE
  5
111
100
AcDbEntity
  8
0
 62
7
100
AcDbLine
 10
442.279660
 20
216.085890
 30
0.0
 11
436.342750
 21
218.434320
 31
0.0
  0
LINE
  5
112
100
AcDbEntity
  8
0
 62
7
100
AcDbLine
 10
436.342750
 20
218.434320
 30
0.0
 11
443.246360
 21
237.410090
 31
0.0
  0
SPLINE
  5
113
100
AcDbEntity
  8
0
 62
7
100
AcDbSpline
 70
8
 71
3
 72
8
 73
4
 74
0
 40
0
 40
0
 40
0
 40
0
 40
1
 40
1
 40
1
 40
1
 10
443.246360
 20
237.410090
 30
0.0
 10
445.351450
 20
236.726730
 30
0.0
 10
448.524910
 20
235.643350
 30
0.0
 10
451.710040
 20
234.454970
 30
0.0
  0
SPLINE
  5
114
100
AcDbEntity
  8
0
 62
7
100
AcDbSpline
 70
8
 71
3
 72
8
 73
4
 74
0
 40
0
 40
0
 40
0
 40
0
 40
1
 40
1
 40
1
 40
1
 10
451.710040
 20
234.454970
 30
0.0
 10
456.700250
 20
232.593230
 30
0.0
 10
458.633660
 20
229.206420
 30
0.0
 10
457.136930
 20
225.196260
 30
0.0
  0
SPLINE
  5
115
100
AcDbEntity
  8
0
 62
7
100
AcDbSpline
 70
8
 71
3
 72
8
 73
4
 74
0
 40
0
 40
0
 40
0
 40
0
 40
1
 40
1
 40
1
 40
1
 10
457.136930
 20
225.196260
 30
0.0
 10
456.196890
 20
222.679490
 30
0.0
 10
454.463490
 20
221.702780
 30
0.0
 10
452.543410
 20
221.454440
 30
0.0
  0
LINE
  5
116
100
AcDbEntity
  8
0
 62
7
100
AcDbLine
 10
452.543410
 20
221.454440
 30
0.0
 11
454.068470
 21
215.034180
 31
0.0
  0
LINE
  5
117
100
AcDbEntity
  8
0
 62
7
100
AcDbLine
 10
454.068470
 20
215.034180
 30
0.0
 11
448.028220
 21
214.980880
 31
0.0
  0
LINE
  5
118
100
AcDbEntity
  8
0
 62
7
100
AcDbLine
 10
448.028220
 20
214.980880
 30
0.0
 11
448.029890
 21
214.980840
 31
0.0
  0
SPLINE
  5
119
100
AcDbEntity
  8
0
 62
7
100
AcDbSpline
 70
8
 71
3
 72
8
 73
4
 74
0
 40
0
 40
0
 40
0
 40
0
 40
1
 40
1
 40
1
 40
1
 10
449.709960
 20
229.974790
 30
0.0
 10
449.063270
 20
230.216460
 30
0.0
 10
448.201570
 20
230.486470
 30
0.0
 10
447.613210
 20
230.681480
 30
0.0
  0
LINE
  5
11a
100
AcDbEntity
  8
0
 62
7
100
AcDbLine
 10
447.613210
 20
230.681480
 30
0.0
 11
446.266490
 21
226.666320
 31
0.0
  0
SPLINE
  5
11b
100
AcDbEntity
  8
0
 62
7
100
AcDbSpline
 70
8
 71
3
 72
8
 73
4
 74
0
 40
0
 40
0
 40
0
 40
0
 40
1
 40
1
 40
1
 40
1
 10
446.266490
 20
226.666320
 30
0.0
 10
446.904850
 20
226.402970
 30
0.0
 10
447.653210
 20
226.097960
 30
0.0
 10
448.351570
 20
225.862950
 30
0.0
  0
SPLINE
  5
11c
100
AcDbEntity
  8
0
 62
7
100
AcDbSpline
 70
8
 71
3
 72
8
 73
4
 74
0
 40
0
 40
0
 40
0
 40
0
 40
1
 40
1
 40
1
 40
1
 10
448.351570
 20
225.862950
 30
0.0
 10
449.771630
 20
225.384600
 30
0.0
 10
450.770000
 20
225.747950
 30
0.0
 10
451.251690
 20
227.039670
 30
0.0
  0
SPLINE
  5
11d
100
AcDbEntity
  8
0
 62
7
100
AcDbSpline
 70
8
 71
3
 72
8
 73
4
 74
0
 40
0
 40
0
 40
0
 40
0
 40
1
 40
1
 40
1
 40
1
 10
451.251690
 20
227.039670
 30
0.0
 10
451.716710
 20
228.286380
 30
0.0
 10
451.178390
 20
229.426430
 30
0.0
 10
449.708290
 20
229.976450
 30
0.0
  0
LINE
  5
11e
100
AcDbEntity
  8
0
 62
7
100
AcDbLine
 10
449.708290
 20
229.976450
 30
0.0
 11
449.709960
 21
229.974790
 31
0.0
  0
LINE
  5
11f
100
AcDbEntity
  8
0
 62
7
100
AcDbLine
 10
468.032370
 20
218.580990
 30
0.0
 11
467.520690
 21
221.584440
 31
0.0
  0
LINE
  5
120
100
AcDbEntity
  8
0
 62
7
100
AcDbLine
 10
467.520690
 20
221.584440
 30
0.0
 11
463.255510
 21
221.014420
 31
0.0
  0
LINE
  5
121
100
AcDbEntity
  8
0
 62
7
100
AcDbLine
 10
463.255510
 20
221.014420
 30
0.0
 11
461.443770
 21
214.980840
 31
0.0
  0
LINE
  5
122
100
AcDbEntity
  8
0
 62
7
100
AcDbLine
 10
461.443770
 20
214.980840
 30
0.0
 11
455.381860
 21
214.980840
 31
0.0
  0
LINE
  5
123
100
AcDbEntity
  8
0
 62
7
100
AcDbLine
 10
455.381860
 20
214.980840
 30
0.0
 11
462.318810
 21
236.301710
 31
0.0
  0
LINE
  5
124
100
AcDbEntity
  8
0
 62
7
100
AcDbLine
 10
462.318810
 20
236.301710
 30
0.0
 11
477.617770
 21
237.751770
 31
0.0
  0
LINE
  5
125
100
AcDbEntity
  8
0
 62
7
100
AcDbLine
 10
477.617770
 20
237.751770
 30
0.0
 11
478.241130
 21
233.458260
 31
0.0
  0
LINE
  5
126
100
AcDbEntity
  8
0
 62
7
100
AcDbLine
 10
478.241130
 20
233.458260
 30
0.0
 11
471.532520
 21
232.854900
 31
0.0
  0
LINE
  5
127
100
AcDbEntity
  8
0
 62
7
100
AcDbLine
 10
471.532520
 20
232.854900
 30
0.0
 11
471.970870
 21
230.249800
 31
0.0
  0
LINE
  5
128
100
AcDbEntity
  8
0
 62
7
100
AcDbLine
 10
471.970870
 20
230.249800
 30
0.0
 11
478.611140
 21
231.183170
 31
0.0
  0
LINE
  5
129
100
AcDbEntity
  8
0
 62
7
100
AcDbLine
 10
478.611140
 20
231.183170
 30
0.0
 11
479.144500
 21
227.224670
 31
0.0
  0
LINE
  5
12a
100
AcDbEntity
  8
0
 62
7
100
AcDbLine
 10
479.144500
 20
227.224670
 30
0.0
 11
472.619230
 21
226.329640
 31
0.0
  0
LINE
  5
12b
100
AcDbEntity
  8
0
 62
7
100
AcDbLine
 10
472.619230
 20
226.329640
 30
0.0
 11
473.069250
 21
223.629530
 31
0.0
  0
LINE
  5
12c
100
AcDbEntity
  8
0
 62
7
100
AcDbLine
 10
473.069250
 20
223.629530
 30
0.0
 11
479.861190
 21
224.701240
 31
0.0
  0
LINE
  5
12d
100
AcDbEntity
  8
0
 62
7
100
AcDbLine
 10
479.861190
 20
224.701240
 30
0.0
 11
480.454550
 21
220.437730
 31
0.0
  0
LINE
  5
12e
100
AcDbEntity
  8
0
 62
7
100
AcDbLine
 10
480.454550
 20
220.437730
 30
0.0
 11
468.034040
 21
218.580990
 31
0.0
  0
LINE
  5
12f
100
AcDbEntity
  8
0
 62
7
100
AcDbLine
 10
468.034040
 20
218.580990
 30
0.0
 11
468.032370
 21
218.580990
 31
0.0
  0
LINE
  5
130
100
AcDbEntity
  8
0
 62
7
100
AcDbLine
 10
465.957290
 20
230.829820
 30
0.0
 11
464.353890
 21
225.339600
 31
0.0
  0
LINE
  5
131
100
AcDbEntity
  8
0
 62
7
100
AcDbLine
 10
464.353890
 20
225.339600
 30
0.0
 11
466.855660
 21
225.646280
 31
0.0
  0
LINE
  5
132
100
AcDbEntity
  8
0
 62
7
100
AcDbLine
 10
466.855660
 20
225.646280
 30
0.0
 11
465.957290
 21
230.829820
 31
0.0
  0
LINE
  5
133
100
AcDbEntity
  8
0
 62
7
100
AcDbLine
 10
495.676840
 20
217.082590
 30
0.0
 11
488.203200
 21
223.607860
 31
0.0
  0
LINE
  5
134
100
AcDbEntity
  8
0
 62
7
100
AcDbLine
 10
488.203200
 20
223.607860
 30
0.0
 11
487.603170
 21
223.031170
 31
0.0
  0
LINE
  5
135
100
AcDbEntity
  8
0
 62
7
100
AcDbLine
 10
487.603170
 20
223.031170
 30
0.0
 11
488.941560
 21
214.590820
 31
0.0
  0
LINE
  5
136
100
AcDbEntity
  8
0
 62
7
100
AcDbLine
 10
488.941560
 20
214.590820
 30
0.0
 11
482.424630
 21
214.590820
 31
0.0
  0
LINE
  5
137
100
AcDbEntity
  8
0
 62
7
100
AcDbLine
 10
482.424630
 20
214.590820
 30
0.0
 11
478.974490
 21
237.890110
 31
0.0
  0
LINE
  5
138
100
AcDbEntity
  8
0
 62
7
100
AcDbLine
 10
478.974490
 20
237.890110
 30
0.0
 11
485.133070
 21
238.770150
 31
0.0
  0
LINE
  5
139
100
AcDbEntity
  8
0
 62
7
100
AcDbLine
 10
485.133070
 20
238.770150
 30
0.0
 11
486.704800
 21
229.243090
 31
0.0
  0
LINE
  5
13a
100
AcDbEntity
  8
0
 62
7
100
AcDbLine
 10
486.704800
 20
229.243090
 30
0.0
 11
491.081650
 21
236.386710
 31
0.0
  0
LINE
  5
13b
100
AcDbEntity
  8
0
 62
7
100
AcDbLine
 10
491.081650
 20
236.386710
 30
0.0
 11
498.100270
 21
236.570060
 31
0.0
  0
LINE
  5
13c
100
AcDbEntity
  8
0
 62
7
100
AcDbLine
 10
498.100270
 20
236.570060
 30
0.0
 11
492.500040
 21
227.673030
 31
0.0
  0
LINE
  5
13d
100
AcDbEntity
  8
0
 62
7
100
AcDbLine
 10
492.500040
 20
227.673030
 30
0.0
 11
501.720420
 21
218.609320
 31
0.0
  0
LINE
  5
13e
100
AcDbEntity
  8
0
 62
7
100
AcDbLine
 10
501.720420
 20
218.609320
 30
0.0
 11
495.678500
 21
217.079260
 31
0.0
  0
LINE
  5
13f
100
AcDbEntity
  8
0
 62
7
100
AcDbLine
 10
495.678500
 20
217.079260
 30
0.0
 11
495.676840
 21
217.082590
 31
0.0
  0
SPLINE
  5
140
100
AcDbEntity
  8
0
 62
7
100
AcDbSpline
 70
8
 71
3
 72
8
 73
4
 74
0
 40
0
 40
0
 40
0
 40
0
 40
1
 40
1
 40
1
 40
1
 10
514.694280
 20
231.691520
 30
0.0
 10
512.787540
 20
231.881530
 30
0.0
 10
511.565820
 20
233.103250
 30
0.0
 10
511.745830
 20
234.919990
 30
0.0
  0
SPLINE
  5
141
100
AcDbEntity
  8
0
 62
7
100
AcDbSpline
 70
8
 71
3
 72
8
 73
4
 74
0
 40
0
 40
0
 40
0
 40
0
 40
1
 40
1
 40
1
 40
1
 10
511.745830
 20
234.919990
 30
0.0
 10
511.927500
 20
236.735060
 30
0.0
 10
513.315890
 20
237.788440
 30
0.0
 10
515.252640
 20
237.595100
 30
0.0
  0
SPLINE
  5
142
100
AcDbEntity
  8
0
 62
7
100
AcDbSpline
 70
8
 71
3
 72
8
 73
4
 74
0
 40
0
 40
0
 40
0
 40
0
 40
1
 40
1
 40
1
 40
1
 10
515.252640
 20
237.595100
 30
0.0
 10
517.129380
 20
237.408420
 30
0.0
 10
518.336100
 20
236.035030
 30
0.0
 10
518.161090
 20
234.279960
 30
0.0
  0
SPLINE
  5
143
100
AcDbEntity
  8
0
 62
7
100
AcDbSpline
 70
8
 71
3
 72
8
 73
4
 74
0
 40
0
 40
0
 40
0
 40
0
 40
1
 40
1
 40
1
 40
1
 10
518.161090
 20
234.279960
 30
0.0
 10
517.986080
 20
232.524890
 30
0.0
 10
516.631030
 20
231.498180
 30
0.0
 10
514.694280
 20
231.691520
 30
0.0
  0
LINE
  5
144
100
AcDbEntity
  8
0
 62
7
100
AcDbLine
 10
514.694280
 20
231.691520
 30
0.0
 11
514.694280
 21
231.691520
 31
0.0
  0
LINE
  5
145
100
AcDbEntity
  8
0
 62
7
100
AcDbLine
 10
518.537770
 20
239.895190
 30
0.0
 11
512.500860
 21
240.650220
 31
0.0
  0
LINE
  5
146
100
AcDbEntity
  8
0
 62
7
100
AcDbLine
 10
512.500860
 20
240.650220
 30
0.0
 11
514.082590
 21
256.505870
 31
0.0
  0
LINE
  5
147
100
AcDbEntity
  8
0
 62
7
100
AcDbLine
 10
514.082590
 20
256.505870
 30
0.0
 11
520.684520
 21
255.909180
 31
0.0
  0
LINE
  5
148
100
AcDbEntity
  8
0
 62
7
100
AcDbLine
 10
520.684520
 20
255.909180
 30
0.0
 11
518.537770
 21
239.895190
 31
0.0
  0
SPLINE
  5
149
100
AcDbEntity
  8
0
 62
7
100
AcDbSpline
 70
8
 71
3
 72
8
 73
4
 74
0
 40
0
 40
0
 40
0
 40
0
 40
1
 40
1
 40
1
 40
1
 10
415.951920
 20
230.548140
 30
0.0
 10
414.615190
 20
232.353220
 30
0.0
 10
412.468440
 20
233.104910
 30
0.0
 10
410.640030
 20
232.901570
 30
0.0
  0
SPLINE
  5
14a
100
AcDbEntity
  8
0
 62
7
100
AcDbSpline
 70
8
 71
3
 72
8
 73
4
 74
0
 40
0
 40
0
 40
0
 40
0
 40
1
 40
1
 40
1
 40
1
 10
410.640030
 20
232.901570
 30
0.0
 10
409.491650
 20
232.773230
 30
0.0
 10
408.874960
 20
231.894860
 30
0.0
 10
408.989960
 20
230.854820
 30
0.0
  0
SPLINE
  5
14b
100
AcDbEntity
  8
0
 62
7
100
AcDbSpline
 70
8
 71
3
 72
8
 73
4
 74
0
 40
0
 40
0
 40
0
 40
0
 40
1
 40
1
 40
1
 40
1
 10
408.989960
 20
230.854820
 30
0.0
 10
409.366650
 20
227.471350
 30
0.0
 10
419.883740
 20
232.036540
 30
0.0
 10
420.928790
 20
222.627820
 30
0.0
  0
SPLINE
  5
14c
100
AcDbEntity
  8
0
 62
7
100
AcDbSpline
 70
8
 71
3
 72
8
 73
4
 74
0
 40
0
 40
0
 40
0
 40
0
 40
1
 40
1
 40
1
 40
1
 10
420.928790
 20
222.627820
 30
0.0
 10
421.400470
 20
218.384310
 30
0.0
 10
419.063710
 20
215.149180
 30
0.0
 10
412.691780
 20
214.440820
 30
0.0
  0
SPLINE
  5
14d
100
AcDbEntity
  8
0
 62
7
100
AcDbSpline
 70
8
 71
3
 72
8
 73
4
 74
0
 40
0
 40
0
 40
0
 40
0
 40
1
 40
1
 40
1
 40
1
 10
412.691780
 20
214.440820
 30
0.0
 10
408.329940
 20
213.955800
 30
0.0
 10
404.796460
 20
215.545860
 30
0.0
 10
402.598040
 20
218.907670
 30
0.0
  0
LINE
  5
14e
100
AcDbEntity
  8
0
 62
7
100
AcDbLine
 10
402.598040
 20
218.907670
 30
0.0
 11
406.289850
 21
222.322810
 31
0.0
  0
SPLINE
  5
14f
100
AcDbEntity
  8
0
 62
7
100
AcDbSpline
 70
8
 71
3
 72
8
 73
4
 74
0
 40
0
 40
0
 40
0
 40
0
 40
1
 40
1
 40
1
 40
1
 10
406.289850
 20
222.322810
 30
0.0
 10
407.833250
 20
220.331060
 30
0.0
 10
410.218350
 20
219.334350
 30
0.0
 10
412.306770
 20
219.566030
 30
0.0
  0
SPLINE
  5
150
100
AcDbEntity
  8
0
 62
7
100
AcDbSpline
 70
8
 71
3
 72
8
 73
4
 74
0
 40
0
 40
0
 40
0
 40
0
 40
1
 40
1
 40
1
 40
1
 10
412.306770
 20
219.566030
 30
0.0
 10
413.455150
 20
219.694370
 30
0.0
 10
414.123510
 20
220.579400
 30
0.0
 10
414.005170
 20
221.647780
 30
0.0
  0
SPLINE
  5
151
100
AcDbEntity
  8
0
 62
7
100
AcDbSpline
 70
8
 71
3
 72
8
 73
4
 74
0
 40
0
 40
0
 40
0
 40
0
 40
1
 40
1
 40
1
 40
1
 10
414.005170
 20
221.647780
 30
0.0
 10
413.611820
 20
225.179590
 30
0.0
 10
403.156390
 20
221.012750
 30
0.0
 10
402.161350
 20
229.974790
 30
0.0
  0
SPLINE
  5
152
100
AcDbEntity
  8
0
 62
7
100
AcDbSpline
 70
8
 71
3
 72
8
 73
4
 74
0
 40
0
 40
0
 40
0
 40
0
 40
1
 40
1
 40
1
 40
1
 10
402.161350
 20
229.974790
 30
0.0
 10
401.676330
 20
234.336630
 30
0.0
 10
404.294770
 20
237.663430
 30
0.0
 10
410.065010
 20
238.305130
 30
0.0
  0
SPLINE
  5
153
100
AcDbEntity
  8
0
 62
7
100
AcDbSpline
 70
8
 71
3
 72
8
 73
4
 74
0
 40
0
 40
0
 40
0
 40
0
 40
1
 40
1
 40
1
 40
1
 10
410.065010
 20
238.305130
 30
0.0
 10
414.295180
 20
238.775150
 30
0.0
 10
417.948660
 20
236.838400
 30
0.0
 10
419.923740
 20
233.331590
 30
0.0
  0
LINE
  5
154
100
AcDbEntity
  8
0
 62
7
100
AcDbLine
 10
419.923740
 20
233.331590
 30
0.0
 11
415.950250
 21
230.546480
 31
0.0
  0
LINE
  5
155
100
AcDbEntity
  8
0
 62
7
100
AcDbLine
 10
415.950250
 20
230.546480
 30
0.0
 11
415.951920
 21
230.548140
 31
0.0
  0
LINE
  5
156
100
AcDbEntity
  8
0
 62
7
100
AcDbLine
 10
516.094340
 20
223.267850
 30
0.0
 11
508.024010
 21
224.546230
 31
0.0
  0
LINE
  5
157
100
AcDbEntity
  8
0
 62
7
100
AcDbLine
 10
508.024010
 20
224.546230
 30
0.0
 11
507.905670
 21
223.722860
 31
0.0
  0
LINE
  5
158
100
AcDbEntity
  8
0
 62
7
100
AcDbLine
 10
507.905670
 20
223.722860
 30
0.0
 11
512.225850
 21
219.704370
 31
0.0
  0
LINE
  5
159
100
AcDbEntity
  8
0
 62
7
100
AcDbLine
 10
512.225850
 20
219.704370
 30
0.0
 11
507.754000
 21
215.099180
 31
0.0
  0
LINE
  5
15a
100
AcDbEntity
  8
0
 62
7
100
AcDbLine
 10
507.754000
 20
215.099180
 30
0.0
 11
494.473450
 21
227.709690
 31
0.0
  0
LINE
  5
15b
100
AcDbEntity
  8
0
 62
7
100
AcDbLine
 10
494.473450
 20
227.709690
 30
0.0
 11
498.103600
 21
233.059910
 31
0.0
  0
LINE
  5
15c
100
AcDbEntity
  8
0
 62
7
100
AcDbLine
 10
498.103600
 20
233.059910
 30
0.0
 11
503.367150
 21
228.061370
 31
0.0
  0
LINE
  5
15d
100
AcDbEntity
  8
0
 62
7
100
AcDbLine
 10
503.367150
 20
228.061370
 30
0.0
 11
502.408780
 21
236.383380
 31
0.0
  0
LINE
  5
15e
100
AcDbEntity
  8
0
 62
7
100
AcDbLine
 10
502.408780
 20
236.383380
 30
0.0
 11
507.822330
 21
240.855230
 31
0.0
  0
LINE
  5
15f
100
AcDbEntity
  8
0
 62
7
100
AcDbLine
 10
507.822330
 20
240.855230
 30
0.0
 11
508.897380
 21
230.398140
 31
0.0
  0
LINE
  5
160
100
AcDbEntity
  8
0
 62
7
100
AcDbLine
 10
508.897380
 20
230.398140
 30
0.0
 11
520.446180
 21
228.901410
 31
0.0
  0
LINE
  5
161
100
AcDbEntity
  8
0
 62
7
100
AcDbLine
 10
520.446180
 20
228.901410
 30
0.0
 11
516.091000
 21
223.269510
 31
0.0
  0
LINE
  5
162
100
AcDbEntity
  8
0
 62
7
100
AcDbLine
 10
516.091000
 20
223.269510
 30
0.0
 11
516.094340
 21
223.267850
 31
0.0
  0
LINE
  5
163
100
AcDbEntity
  8
Sprekk
 62
7
100
AcDbLine
 10
429.939155
 20
215.004174
 30
0.0
 11
429.105788
 21
216.004214
 31
0.0
  0
LINE
  5
164
100
AcDbEntity
  8
Sprekk
 62
7
100
AcDbLine
 10
429.105788
 20
216.004214
 30
0.0
 11
429.105788
 21
217.170929
 31
0.0
  0
LINE
  5
165
100
AcDbEntity
  8
Sprekk
 62
7
100
AcDbLine
 10
429.105788
 20
217.170929
 30
0.0
 11
428.939114
 21
217.504276
 31
0.0
  0
LINE
  5
166
100
AcDbEntity
  8
Sprekk
 62
7
100
AcDbLine
 10
428.939114
 20
217.504276
 30
0.0
 11
428.660770
 21
217.504276
 31
0.0
  0
LINE
  5
167
100
AcDbEntity
  8
Sprekk
 62
7
100
AcDbLine
 10
428.660770
 20
217.504276
 30
0.0
 11
428.605767
 21
218.670990
 31
0.0
  0
LINE
  5
168
100
AcDbEntity
  8
Sprekk
 62
7
100
AcDbLine
 10
428.605767
 20
218.670990
 30
0.0
 11
428.272420
 21
219.171010
 31
0.0
  0
LINE
  5
169
100
AcDbEntity
  8
Sprekk
 62
7
100
AcDbLine
 10
428.272420
 20
219.171010
 30
0.0
 11
427.772400
 21
219.504357
 31
0.0
  0
LINE
  5
16a
100
AcDbEntity
  8
Sprekk
 62
7
100
AcDbLine
 10
427.772400
 20
219.504357
 30
0.0
 11
427.939073
 21
220.837745
 31
0.0
  0
LINE
  5
16b
100
AcDbEntity
  8
Sprekk
 62
7
100
AcDbLine
 10
427.939073
 20
220.837745
 30
0.0
 11
427.439053
 21
221.004419
 31
0.0
  0
LINE
  5
16c
100
AcDbEntity
  8
Sprekk
 62
7
100
AcDbLine
 10
427.439053
 20
221.004419
 30
0.0
 11
427.315715
 21
221.566108
 31
0.0
  0
LINE
  5
16d
100
AcDbEntity
  8
Sprekk
 62
7
100
AcDbLine
 10
427.315715
 20
221.566108
 30
0.0
 11
426.939033
 21
221.671112
 31
0.0
  0
LINE
  5
16e
100
AcDbEntity
  8
Sprekk
 62
7
100
AcDbLine
 10
426.939033
 20
221.671112
 30
0.0
 11
426.772359
 21
222.337806
 31
0.0
  0
LINE
  5
16f
100
AcDbEntity
  8
Sprekk
 62
7
100
AcDbLine
 10
426.772359
 20
222.337806
 30
0.0
 11
426.242338
 21
222.337806
 31
0.0
  0
LINE
  5
170
100
AcDbEntity
  8
Sprekk
 62
7
100
AcDbLine
 10
426.242338
 20
222.337806
 30
0.0
 11
425.993994
 21
222.004459
 31
0.0
  0
LINE
  5
171
100
AcDbEntity
  8
Sprekk
 62
7
100
AcDbLine
 10
425.993994
 20
222.004459
 30
0.0
 11
425.475640
 21
222.004459
 31
0.0
  0
LINE
  5
172
100
AcDbEntity
  8
Sprekk
 62
7
100
AcDbLine
 10
425.475640
 20
222.004459
 30
0.0
 11
425.105624
 21
221.837786
 31
0.0
  0
LINE
  5
173
100
AcDbEntity
  8
Sprekk
 62
7
100
AcDbLine
 10
425.105624
 20
221.837786
 30
0.0
 11
424.932284
 21
222.004459
 31
0.0
  0
LINE
  5
174
100
AcDbEntity
  8
Sprekk
 62
7
100
AcDbLine
 10
424.932284
 20
222.004459
 30
0.0
 11
424.605604
 21
221.671112
 31
0.0
  0
LINE
  5
175
100
AcDbEntity
  8
Sprekk
 62
7
100
AcDbLine
 10
424.605604
 20
221.671112
 30
0.0
 11
424.272257
 21
221.837786
 31
0.0
  0
LINE
  5
176
100
AcDbEntity
  8
Sprekk
 62
7
100
AcDbLine
 10
424.272257
 20
221.837786
 30
0.0
 11
423.870574
 21
222.004459
 31
0.0
  0
LINE
  5
177
100
AcDbEntity
  8
Sprekk
 62
7
100
AcDbLine
 10
423.870574
 20
222.004459
 30
0.0
 11
423.698900
 21
222.004459
 31
0.0
  0
LINE
  5
178
100
AcDbEntity
  8
Sprekk
 62
7
100
AcDbLine
 10
423.698900
 20
222.004459
 30
0.0
 11
423.105543
 21
221.837786
 31
0.0
  0
LINE
  5
179
100
AcDbEntity
  8
Sprekk
 62
7
100
AcDbLine
 10
423.105543
 20
221.837786
 30
0.0
 11
422.287176
 21
222.337806
 31
0.0
  0
LINE
  5
17a
100
AcDbEntity
  8
Sprekk
 62
7
100
AcDbLine
 10
422.287176
 20
222.337806
 30
0.0
 11
421.945495
 21
223.417850
 31
0.0
  0
LINE
  5
17b
100
AcDbEntity
  8
Sprekk
 62
7
100
AcDbLine
 10
421.945495
 20
223.417850
 30
0.0
 11
422.772196
 21
222.837827
 31
0.0
  0
LINE
  5
17c
100
AcDbEntity
  8
Sprekk
 62
7
100
AcDbLine
 10
422.772196
 20
222.837827
 30
0.0
 11
423.105543
 21
222.671153
 31
0.0
  0
LINE
  5
17d
100
AcDbEntity
  8
Sprekk
 62
7
100
AcDbLine
 10
423.105543
 20
222.671153
 30
0.0
 11
423.772237
 21
222.837827
 31
0.0
  0
LINE
  5
17e
100
AcDbEntity
  8
Sprekk
 62
7
100
AcDbLine
 10
423.772237
 20
222.837827
 30
0.0
 11
424.105584
 21
222.504480
 31
0.0
  0
LINE
  5
17f
100
AcDbEntity
  8
Sprekk
 62
7
100
AcDbLine
 10
424.105584
 20
222.504480
 30
0.0
 11
425.272298
 21
222.837827
 31
0.0
  0
LINE
  5
180
100
AcDbEntity
  8
Sprekk
 62
7
100
AcDbLine
 10
425.272298
 20
222.837827
 30
0.0
 11
425.605645
 21
222.671153
 31
0.0
  0
LINE
  5
181
100
AcDbEntity
  8
Sprekk
 62
7
100
AcDbLine
 10
425.605645
 20
222.671153
 30
0.0
 11
426.272339
 21
223.337847
 31
0.0
  0
LINE
  5
182
100
AcDbEntity
  8
Sprekk
 62
7
100
AcDbLine
 10
426.272339
 20
223.337847
 30
0.0
 11
426.605686
 21
223.337847
 31
0.0
  0
LINE
  5
183
100
AcDbEntity
  8
Sprekk
 62
7
100
AcDbLine
 10
426.605686
 20
223.337847
 30
0.0
 11
427.080705
 21
223.944539
 31
0.0
  0
LINE
  5
184
100
AcDbEntity
  8
Sprekk
 62
7
100
AcDbLine
 10
427.080705
 20
223.944539
 30
0.0
 11
427.032370
 21
224.312887
 31
0.0
  0
LINE
  5
185
100
AcDbEntity
  8
Sprekk
 62
7
100
AcDbLine
 10
427.032370
 20
224.312887
 30
0.0
 11
426.710690
 21
224.312887
 31
0.0
  0
LINE
  5
186
100
AcDbEntity
  8
Sprekk
 62
7
100
AcDbLine
 10
426.710690
 20
224.312887
 30
0.0
 11
426.685689
 21
224.992915
 31
0.0
  0
LINE
  5
187
100
AcDbEntity
  8
Sprekk
 62
7
100
AcDbLine
 10
426.685689
 20
224.992915
 30
0.0
 11
426.772359
 21
225.337929
 31
0.0
  0
LINE
  5
188
100
AcDbEntity
  8
Sprekk
 62
7
100
AcDbLine
 10
426.772359
 20
225.337929
 30
0.0
 11
426.637354
 21
225.699610
 31
0.0
  0
LINE
  5
189
100
AcDbEntity
  8
Sprekk
 62
7
100
AcDbLine
 10
426.637354
 20
225.699610
 30
0.0
 11
426.605686
 21
226.337970
 31
0.0
  0
LINE
  5
18a
100
AcDbEntity
  8
Sprekk
 62
7
100
AcDbLine
 10
426.605686
 20
226.337970
 30
0.0
 11
426.772359
 21
226.004623
 31
0.0
  0
LINE
  5
18b
100
AcDbEntity
  8
Sprekk
 62
7
100
AcDbLine
 10
426.772359
 20
226.004623
 30
0.0
 11
427.155708
 21
225.529603
 31
0.0
  0
LINE
  5
18c
100
AcDbEntity
  8
Sprekk
 62
7
100
AcDbLine
 10
427.155708
 20
225.529603
 30
0.0
 11
426.939033
 21
225.171255
 31
0.0
  0
LINE
  5
18d
100
AcDbEntity
  8
Sprekk
 62
7
100
AcDbLine
 10
426.939033
 20
225.171255
 30
0.0
 11
426.939033
 21
224.837908
 31
0.0
  0
LINE
  5
18e
100
AcDbEntity
  8
Sprekk
 62
7
100
AcDbLine
 10
426.939033
 20
224.837908
 30
0.0
 11
427.315715
 21
224.992915
 31
0.0
  0
LINE
  5
18f
100
AcDbEntity
  8
Sprekk
 62
7
100
AcDbLine
 10
427.315715
 20
224.992915
 30
0.0
 11
427.605726
 21
224.671235
 31
0.0
  0
LINE
  5
190
100
AcDbEntity
  8
Sprekk
 62
7
100
AcDbLine
 10
427.605726
 20
224.671235
 30
0.0
 11
427.450720
 21
224.312887
 31
0.0
  0
LINE
  5
191
100
AcDbEntity
  8
Sprekk
 62
7
100
AcDbLine
 10
427.450720
 20
224.312887
 30
0.0
 11
427.525723
 21
223.944539
 31
0.0
  0
LINE
  5
192
100
AcDbEntity
  8
Sprekk
 62
7
100
AcDbLine
 10
427.525723
 20
223.944539
 30
0.0
 11
427.315715
 21
223.641193
 31
0.0
  0
LINE
  5
193
100
AcDbEntity
  8
Sprekk
 62
7
100
AcDbLine
 10
427.315715
 20
223.641193
 30
0.0
 11
427.105706
 21
223.171174
 31
0.0
  0
LINE
  5
194
100
AcDbEntity
  8
Sprekk
 62
7
100
AcDbLine
 10
427.105706
 20
223.171174
 30
0.0
 11
427.105706
 21
222.671153
 31
0.0
  0
LINE
  5
195
100
AcDbEntity
  8
Sprekk
 62
7
100
AcDbLine
 10
427.105706
 20
222.671153
 30
0.0
 11
427.315715
 21
222.356140
 31
0.0
  0
LINE
  5
196
100
AcDbEntity
  8
Sprekk
 62
7
100
AcDbLine
 10
427.315715
 20
222.356140
 30
0.0
 11
427.605726
 21
222.337806
 31
0.0
  0
LINE
  5
197
100
AcDbEntity
  8
Sprekk
 62
7
100
AcDbLine
 10
427.605726
 20
222.337806
 30
0.0
 11
428.105747
 21
221.504439
 31
0.0
  0
LINE
  5
198
100
AcDbEntity
  8
Sprekk
 62
7
100
AcDbLine
 10
428.105747
 20
221.504439
 30
0.0
 11
428.439094
 21
221.337766
 31
0.0
  0
LINE
  5
199
100
AcDbEntity
  8
Sprekk
 62
7
100
AcDbLine
 10
428.439094
 20
221.337766
 30
0.0
 11
428.562432
 21
220.126049
 31
0.0
  0
LINE
  5
19a
100
AcDbEntity
  8
Sprekk
 62
7
100
AcDbLine
 10
428.562432
 20
220.126049
 30
0.0
 11
428.939114
 21
219.671031
 31
0.0
  0
LINE
  5
19b
100
AcDbEntity
  8
Sprekk
 62
7
100
AcDbLine
 10
428.939114
 20
219.671031
 30
0.0
 11
428.939114
 21
219.004337
 31
0.0
  0
LINE
  5
19c
100
AcDbEntity
  8
Sprekk
 62
7
100
AcDbLine
 10
428.939114
 20
219.004337
 30
0.0
 11
429.662477
 21
218.627655
 31
0.0
  0
LINE
  5
19d
100
AcDbEntity
  8
Sprekk
 62
7
100
AcDbLine
 10
429.662477
 20
218.627655
 30
0.0
 11
429.662477
 21
218.257640
 31
0.0
  0
LINE
  5
19e
100
AcDbEntity
  8
Sprekk
 62
7
100
AcDbLine
 10
429.662477
 20
218.257640
 30
0.0
 11
429.939155
 21
217.837623
 31
0.0
  0
LINE
  5
19f
100
AcDbEntity
  8
Sprekk
 62
7
100
AcDbLine
 10
429.939155
 20
217.837623
 30
0.0
 11
429.772482
 21
216.670908
 31
0.0
  0
LINE
  5
1a0
100
AcDbEntity
  8
Sprekk
 62
7
100
AcDbLine
 10
429.772482
 20
216.670908
 30
0.0
 11
429.939155
 21
216.337561
 31
0.0
  0
LINE
  5
1a1
100
AcDbEntity
  8
Sprekk
 62
7
100
AcDbLine
 10
429.939155
 20
216.337561
 30
0.0
 11
430.605849
 21
215.837541
 31
0.0
  0
LINE
  5
1a2
100
AcDbEntity
  8
Sprekk
 62
7
100
AcDbLine
 10
430.605849
 20
215.837541
 30
0.0
 11
430.939196
 21
215.504194
 31
0.0
  0
LINE
  5
1a3
100
AcDbEntity
  8
Sprekk
 62
7
100
AcDbLine
 10
430.939196
 20
215.504194
 30
0.0
 11
431.427549
 21
213.914129
 31
0.0
  0
LINE
  5
1a4
100
AcDbEntity
  8
Sprekk
 62
7
100
AcDbLine
 10
431.427549
 20
213.914129
 30
0.0
 11
430.094161
 21
213.914129
 31
0.0
  0
LINE
  5
1a5
100
AcDbEntity
  8
Sprekk
 62
7
100
AcDbLine
 10
430.094161
 20
213.914129
 30
0.0
 11
429.939155
 21
215.004174
 31
0.0
  0
LINE
  5
1a6
100
AcDbEntity
  8
Sprekk
 62
7
100
AcDbLine
 10
419.772073
 20
223.337847
 30
0.0
 11
419.605400
 21
224.171215
 31
0.0
  0
LINE
  5
1a7
100
AcDbEntity
  8
Sprekk
 62
7
100
AcDbLine
 10
419.605400
 20
224.171215
 30
0.0
 11
419.605400
 21
224.689569
 31
0.0
  0
LINE
  5
1a8
100
AcDbEntity
  8
Sprekk
 62
7
100
AcDbLine
 10
419.605400
 20
224.689569
 30
0.0
 11
418.772033
 21
225.171255
 31
0.0
  0
LINE
  5
1a9
100
AcDbEntity
  8
Sprekk
 62
7
100
AcDbLine
 10
418.772033
 20
225.171255
 30
0.0
 11
418.142007
 21
226.004623
 31
0.0
  0
LINE
  5
1aa
100
AcDbEntity
  8
Sprekk
 62
7
100
AcDbLine
 10
418.142007
 20
226.004623
 30
0.0
 11
417.105298
 21
225.837949
 31
0.0
  0
LINE
  5
1ab
100
AcDbEntity
  8
Sprekk
 62
7
100
AcDbLine
 10
417.105298
 20
225.837949
 30
0.0
 11
417.105298
 21
226.319636
 31
0.0
  0
LINE
  5
1ac
100
AcDbEntity
  8
Sprekk
 62
7
100
AcDbLine
 10
417.105298
 20
226.319636
 30
0.0
 11
416.438604
 21
226.837990
 31
0.0
  0
LINE
  5
1ad
100
AcDbEntity
  8
Sprekk
 62
7
100
AcDbLine
 10
416.438604
 20
226.837990
 30
0.0
 11
415.771910
 21
227.504684
 31
0.0
  0
LINE
  5
1ae
100
AcDbEntity
  8
Sprekk
 62
7
100
AcDbLine
 10
415.771910
 20
227.504684
 30
0.0
 11
414.605196
 21
227.171337
 31
0.0
  0
LINE
  5
1af
100
AcDbEntity
  8
Sprekk
 62
7
100
AcDbLine
 10
414.605196
 20
227.171337
 30
0.0
 11
413.771828
 21
227.338010
 31
0.0
  0
LINE
  5
1b0
100
AcDbEntity
  8
Sprekk
 62
7
100
AcDbLine
 10
413.771828
 20
227.338010
 30
0.0
 11
413.438482
 21
227.171337
 31
0.0
  0
LINE
  5
1b1
100
AcDbEntity
  8
Sprekk
 62
7
100
AcDbLine
 10
413.438482
 20
227.171337
 30
0.0
 11
412.938461
 21
227.838031
 31
0.0
  0
LINE
  5
1b2
100
AcDbEntity
  8
Sprekk
 62
7
100
AcDbLine
 10
412.938461
 20
227.838031
 30
0.0
 11
412.265100
 21
227.838031
 31
0.0
  0
LINE
  5
1b3
100
AcDbEntity
  8
Sprekk
 62
7
100
AcDbLine
 10
412.265100
 20
227.838031
 30
0.0
 11
412.105094
 21
227.504684
 31
0.0
  0
LINE
  5
1b4
100
AcDbEntity
  8
Sprekk
 62
7
100
AcDbLine
 10
412.105094
 20
227.504684
 30
0.0
 11
411.746746
 21
227.838031
 31
0.0
  0
LINE
  5
1b5
100
AcDbEntity
  8
Sprekk
 62
7
100
AcDbLine
 10
411.746746
 20
227.838031
 30
0.0
 11
411.438400
 21
227.671357
 31
0.0
  0
LINE
  5
1b6
100
AcDbEntity
  8
Sprekk
 62
7
100
AcDbLine
 10
411.438400
 20
227.671357
 30
0.0
 11
411.228391
 21
227.838031
 31
0.0
  0
LINE
  5
1b7
100
AcDbEntity
  8
Sprekk
 62
7
100
AcDbLine
 10
411.228391
 20
227.838031
 30
0.0
 11
410.783373
 21
227.838031
 31
0.0
  0
LINE
  5
1b8
100
AcDbEntity
  8
Sprekk
 62
7
100
AcDbLine
 10
410.783373
 20
227.838031
 30
0.0
 11
410.605033
 21
228.171378
 31
0.0
  0
LINE
  5
1b9
100
AcDbEntity
  8
Sprekk
 62
7
100
AcDbLine
 10
410.605033
 20
228.171378
 30
0.0
 11
409.438318
 21
228.004704
 31
0.0
  0
LINE
  5
1ba
100
AcDbEntity
  8
Sprekk
 62
7
100
AcDbLine
 10
409.438318
 20
228.004704
 30
0.0
 11
408.938298
 21
228.338051
 31
0.0
  0
LINE
  5
1bb
100
AcDbEntity
  8
Sprekk
 62
7
100
AcDbLine
 10
408.938298
 20
228.338051
 30
0.0
 11
409.271645
 21
227.671357
 31
0.0
  0
LINE
  5
1bc
100
AcDbEntity
  8
Sprekk
 62
7
100
AcDbLine
 10
409.271645
 20
227.671357
 30
0.0
 11
410.105012
 21
227.671357
 31
0.0
  0
LINE
  5
1bd
100
AcDbEntity
  8
Sprekk
 62
7
100
AcDbLine
 10
410.105012
 20
227.671357
 30
0.0
 11
410.438359
 21
227.838031
 31
0.0
  0
LINE
  5
1be
100
AcDbEntity
  8
Sprekk
 62
7
100
AcDbLine
 10
410.438359
 20
227.838031
 30
0.0
 11
410.605033
 21
227.504684
 31
0.0
  0
LINE
  5
1bf
100
AcDbEntity
  8
Sprekk
 62
7
100
AcDbLine
 10
410.605033
 20
227.504684
 30
0.0
 11
411.105053
 21
227.504684
 31
0.0
  0
LINE
  5
1c0
100
AcDbEntity
  8
Sprekk
 62
7
100
AcDbLine
 10
411.105053
 20
227.504684
 30
0.0
 11
411.546738
 21
227.356345
 31
0.0
  0
LINE
  5
1c1
100
AcDbEntity
  8
Sprekk
 62
7
100
AcDbLine
 10
411.546738
 20
227.356345
 30
0.0
 11
411.771747
 21
227.004663
 31
0.0
  0
LINE
  5
1c2
100
AcDbEntity
  8
Sprekk
 62
7
100
AcDbLine
 10
411.771747
 20
227.004663
 30
0.0
 11
412.271767
 21
227.171337
 31
0.0
  0
LINE
  5
1c3
100
AcDbEntity
  8
Sprekk
 62
7
100
AcDbLine
 10
412.271767
 20
227.171337
 30
0.0
 11
412.605114
 21
227.004663
 31
0.0
  0
LINE
  5
1c4
100
AcDbEntity
  8
Sprekk
 62
7
100
AcDbLine
 10
412.605114
 20
227.004663
 30
0.0
 11
413.271808
 21
226.671317
 31
0.0
  0
LINE
  5
1c5
100
AcDbEntity
  8
Sprekk
 62
7
100
AcDbLine
 10
413.271808
 20
226.671317
 30
0.0
 11
413.500151
 21
226.319636
 31
0.0
  0
LINE
  5
1c6
100
AcDbEntity
  8
Sprekk
 62
7
100
AcDbLine
 10
413.500151
 20
226.319636
 30
0.0
 11
413.605155
 21
226.171296
 31
0.0
  0
LINE
  5
1c7
100
AcDbEntity
  8
Sprekk
 62
7
100
AcDbLine
 10
413.605155
 20
226.171296
 30
0.0
 11
414.018505
 21
226.319636
 31
0.0
  0
LINE
  5
1c8
100
AcDbEntity
  8
Sprekk
 62
7
100
AcDbLine
 10
414.018505
 20
226.319636
 30
0.0
 11
414.605196
 21
226.504643
 31
0.0
  0
LINE
  5
1c9
100
AcDbEntity
  8
Sprekk
 62
7
100
AcDbLine
 10
414.605196
 20
226.504643
 30
0.0
 11
415.271890
 21
226.671317
 31
0.0
  0
LINE
  5
1ca
100
AcDbEntity
  8
Sprekk
 62
7
100
AcDbLine
 10
415.271890
 20
226.671317
 30
0.0
 11
415.938584
 21
225.837949
 31
0.0
  0
LINE
  5
1cb
100
AcDbEntity
  8
Sprekk
 62
7
100
AcDbLine
 10
415.938584
 20
225.837949
 30
0.0
 11
416.271931
 21
225.671276
 31
0.0
  0
LINE
  5
1cc
100
AcDbEntity
  8
Sprekk
 62
7
100
AcDbLine
 10
416.271931
 20
225.671276
 30
0.0
 11
416.438604
 21
225.171255
 31
0.0
  0
LINE
  5
1cd
100
AcDbEntity
  8
Sprekk
 62
7
100
AcDbLine
 10
416.438604
 20
225.171255
 30
0.0
 11
415.938584
 21
224.837908
 31
0.0
  0
LINE
  5
1ce
100
AcDbEntity
  8
Sprekk
 62
7
100
AcDbLine
 10
415.938584
 20
224.837908
 30
0.0
 11
415.938584
 21
224.504561
 31
0.0
  0
LINE
  5
1cf
100
AcDbEntity
  8
Sprekk
 62
7
100
AcDbLine
 10
415.938584
 20
224.504561
 30
0.0
 11
415.271890
 21
223.837868
 31
0.0
  0
LINE
  5
1d0
100
AcDbEntity
  8
Sprekk
 62
7
100
AcDbLine
 10
415.271890
 20
223.837868
 30
0.0
 11
415.746909
 21
223.979540
 31
0.0
  0
LINE
  5
1d1
100
AcDbEntity
  8
Sprekk
 62
7
100
AcDbLine
 10
415.746909
 20
223.979540
 30
0.0
 11
416.271931
 21
224.337888
 31
0.0
  0
LINE
  5
1d2
100
AcDbEntity
  8
Sprekk
 62
7
100
AcDbLine
 10
416.271931
 20
224.337888
 30
0.0
 11
416.605277
 21
224.671235
 31
0.0
  0
LINE
  5
1d3
100
AcDbEntity
  8
Sprekk
 62
7
100
AcDbLine
 10
416.605277
 20
224.671235
 30
0.0
 11
416.938624
 21
225.004582
 31
0.0
  0
LINE
  5
1d4
100
AcDbEntity
  8
Sprekk
 62
7
100
AcDbLine
 10
416.938624
 20
225.004582
 30
0.0
 11
417.450312
 21
225.366263
 31
0.0
  0
LINE
  5
1d5
100
AcDbEntity
  8
Sprekk
 62
7
100
AcDbLine
 10
417.450312
 20
225.366263
 30
0.0
 11
418.105339
 21
225.171255
 31
0.0
  0
LINE
  5
1d6
100
AcDbEntity
  8
Sprekk
 62
7
100
AcDbLine
 10
418.105339
 20
225.171255
 30
0.0
 11
418.272012
 21
224.671235
 31
0.0
  0
LINE
  5
1d7
100
AcDbEntity
  8
Sprekk
 62
7
100
AcDbLine
 10
418.272012
 20
224.671235
 30
0.0
 11
418.605359
 21
223.837868
 31
0.0
  0
LINE
  5
1d8
100
AcDbEntity
  8
Sprekk
 62
7
100
AcDbLine
 10
418.605359
 20
223.837868
 30
0.0
 11
418.957040
 21
223.611192
 31
0.0
  0
LINE
  5
1d9
100
AcDbEntity
  8
Sprekk
 62
7
100
AcDbLine
 10
418.957040
 20
223.611192
 30
0.0
 11
419.105380
 21
223.004500
 31
0.0
  0
LINE
  5
1da
100
AcDbEntity
  8
Sprekk
 62
7
100
AcDbLine
 10
419.105380
 20
223.004500
 30
0.0
 11
419.272053
 21
222.504480
 31
0.0
  0
LINE
  5
1db
100
AcDbEntity
  8
Sprekk
 62
7
100
AcDbLine
 10
419.272053
 20
222.504480
 30
0.0
 11
419.550398
 21
222.504480
 31
0.0
  0
LINE
  5
1dc
100
AcDbEntity
  8
Sprekk
 62
7
100
AcDbLine
 10
419.550398
 20
222.504480
 30
0.0
 11
420.105420
 21
222.671153
 31
0.0
  0
LINE
  5
1dd
100
AcDbEntity
  8
Sprekk
 62
7
100
AcDbLine
 10
420.105420
 20
222.671153
 30
0.0
 11
420.612108
 21
222.714488
 31
0.0
  0
LINE
  5
1de
100
AcDbEntity
  8
Sprekk
 62
7
100
AcDbLine
 10
420.612108
 20
222.714488
 30
0.0
 11
421.105461
 21
222.671153
 31
0.0
  0
LINE
  5
1df
100
AcDbEntity
  8
Sprekk
 62
7
100
AcDbLine
 10
421.105461
 20
222.671153
 30
0.0
 11
421.105461
 21
223.611192
 31
0.0
  0
LINE
  5
1e0
100
AcDbEntity
  8
Sprekk
 62
7
100
AcDbLine
 10
421.105461
 20
223.611192
 30
0.0
 11
420.612108
 21
223.611192
 31
0.0
  0
LINE
  5
1e1
100
AcDbEntity
  8
Sprekk
 62
7
100
AcDbLine
 10
420.612108
 20
223.611192
 30
0.0
 11
419.772073
 21
223.337847
 31
0.0
  0
LINE
  5
1e2
100
AcDbEntity
  8
Sprekk
 62
7
100
AcDbLine
 10
448.841593
 20
216.059217
 30
0.0
 11
449.606625
 21
216.337561
 31
0.0
  0
LINE
  5
1e3
100
AcDbEntity
  8
Sprekk
 62
7
100
AcDbLine
 10
449.606625
 20
216.337561
 30
0.0
 11
449.939971
 21
217.170929
 31
0.0
  0
LINE
  5
1e4
100
AcDbEntity
  8
Sprekk
 62
7
100
AcDbLine
 10
449.939971
 20
217.170929
 30
0.0
 11
450.273318
 21
217.670949
 31
0.0
  0
LINE
  5
1e5
100
AcDbEntity
  8
Sprekk
 62
7
100
AcDbLine
 10
450.273318
 20
217.670949
 30
0.0
 11
450.106645
 21
218.337643
 31
0.0
  0
LINE
  5
1e6
100
AcDbEntity
  8
Sprekk
 62
7
100
AcDbLine
 10
450.106645
 20
218.337643
 30
0.0
 11
450.606665
 21
219.004337
 31
0.0
  0
LINE
  5
1e7
100
AcDbEntity
  8
Sprekk
 62
7
100
AcDbLine
 10
450.606665
 20
219.004337
 30
0.0
 11
450.606665
 21
219.961043
 31
0.0
  0
LINE
  5
1e8
100
AcDbEntity
  8
Sprekk
 62
7
100
AcDbLine
 10
450.606665
 20
219.961043
 30
0.0
 11
450.773339
 21
219.171010
 31
0.0
  0
LINE
  5
1e9
100
AcDbEntity
  8
Sprekk
 62
7
100
AcDbLine
 10
450.773339
 20
219.171010
 30
0.0
 11
450.773339
 21
218.602654
 31
0.0
  0
LINE
  5
1ea
100
AcDbEntity
  8
Sprekk
 62
7
100
AcDbLine
 10
450.773339
 20
218.602654
 30
0.0
 11
450.439992
 21
218.337643
 31
0.0
  0
LINE
  5
1eb
100
AcDbEntity
  8
Sprekk
 62
7
100
AcDbLine
 10
450.439992
 20
218.337643
 30
0.0
 11
450.606665
 21
218.004296
 31
0.0
  0
LINE
  5
1ec
100
AcDbEntity
  8
Sprekk
 62
7
100
AcDbLine
 10
450.606665
 20
218.004296
 30
0.0
 11
450.439992
 21
217.170929
 31
0.0
  0
LINE
  5
1ed
100
AcDbEntity
  8
Sprekk
 62
7
100
AcDbLine
 10
450.439992
 20
217.170929
 30
0.0
 11
450.106645
 21
216.504235
 31
0.0
  0
LINE
  5
1ee
100
AcDbEntity
  8
Sprekk
 62
7
100
AcDbLine
 10
450.106645
 20
216.504235
 30
0.0
 11
451.106686
 21
216.504235
 31
0.0
  0
LINE
  5
1ef
100
AcDbEntity
  8
Sprekk
 62
7
100
AcDbLine
 10
451.106686
 20
216.504235
 30
0.0
 11
451.106686
 21
216.837582
 31
0.0
  0
LINE
  5
1f0
100
AcDbEntity
  8
Sprekk
 62
7
100
AcDbLine
 10
451.106686
 20
216.837582
 30
0.0
 11
451.416698
 21
217.122593
 31
0.0
  0
LINE
  5
1f1
100
AcDbEntity
  8
Sprekk
 62
7
100
AcDbLine
 10
451.416698
 20
217.122593
 30
0.0
 11
451.773380
 21
217.170929
 31
0.0
  0
LINE
  5
1f2
100
AcDbEntity
  8
Sprekk
 62
7
100
AcDbLine
 10
451.773380
 20
217.170929
 30
0.0
 11
452.273400
 21
217.670949
 31
0.0
  0
LINE
  5
1f3
100
AcDbEntity
  8
Sprekk
 62
7
100
AcDbLine
 10
452.273400
 20
217.670949
 30
0.0
 11
452.606747
 21
217.504276
 31
0.0
  0
LINE
  5
1f4
100
AcDbEntity
  8
Sprekk
 62
7
100
AcDbLine
 10
452.606747
 20
217.504276
 30
0.0
 11
453.106767
 21
218.170970
 31
0.0
  0
LINE
  5
1f5
100
AcDbEntity
  8
Sprekk
 62
7
100
AcDbLine
 10
453.106767
 20
218.170970
 30
0.0
 11
453.773461
 21
218.670990
 31
0.0
  0
LINE
  5
1f6
100
AcDbEntity
  8
Sprekk
 62
7
100
AcDbLine
 10
453.773461
 20
218.670990
 30
0.0
 11
453.773461
 21
217.442607
 31
0.0
  0
LINE
  5
1f7
100
AcDbEntity
  8
Sprekk
 62
7
100
AcDbLine
 10
453.773461
 20
217.442607
 30
0.0
 11
453.273441
 21
217.337602
 31
0.0
  0
LINE
  5
1f8
100
AcDbEntity
  8
Sprekk
 62
7
100
AcDbLine
 10
453.273441
 20
217.337602
 30
0.0
 11
452.940094
 21
216.837582
 31
0.0
  0
LINE
  5
1f9
100
AcDbEntity
  8
Sprekk
 62
7
100
AcDbLine
 10
452.940094
 20
216.837582
 30
0.0
 11
452.773420
 21
216.170888
 31
0.0
  0
LINE
  5
1fa
100
AcDbEntity
  8
Sprekk
 62
7
100
AcDbLine
 10
452.773420
 20
216.170888
 30
0.0
 11
452.440074
 21
216.004214
 31
0.0
  0
LINE
  5
1fb
100
AcDbEntity
  8
Sprekk
 62
7
100
AcDbLine
 10
452.440074
 20
216.004214
 30
0.0
 11
452.106727
 21
216.170888
 31
0.0
  0
LINE
  5
1fc
100
AcDbEntity
  8
Sprekk
 62
7
100
AcDbLine
 10
452.106727
 20
216.170888
 30
0.0
 11
451.773380
 21
216.504235
 31
0.0
  0
LINE
  5
1fd
100
AcDbEntity
  8
Sprekk
 62
7
100
AcDbLine
 10
451.773380
 20
216.504235
 30
0.0
 11
451.416698
 21
216.010881
 31
0.0
  0
LINE
  5
1fe
100
AcDbEntity
  8
Sprekk
 62
7
100
AcDbLine
 10
451.416698
 20
216.010881
 30
0.0
 11
451.106686
 21
215.837541
 31
0.0
  0
LINE
  5
1ff
100
AcDbEntity
  8
Sprekk
 62
7
100
AcDbLine
 10
451.106686
 20
215.837541
 30
0.0
 11
450.606665
 21
215.837541
 31
0.0
  0
LINE
  5
200
100
AcDbEntity
  8
Sprekk
 62
7
100
AcDbLine
 10
450.606665
 20
215.837541
 30
0.0
 11
450.439992
 21
215.504194
 31
0.0
  0
LINE
  5
201
100
AcDbEntity
  8
Sprekk
 62
7
100
AcDbLine
 10
450.439992
 20
215.504194
 30
0.0
 11
449.773298
 21
215.504194
 31
0.0
  0
LINE
  5
202
100
AcDbEntity
  8
Sprekk
 62
7
100
AcDbLine
 10
449.773298
 20
215.504194
 30
0.0
 11
448.773257
 21
215.170847
 31
0.0
  0
LINE
  5
203
100
AcDbEntity
  8
Sprekk
 62
7
100
AcDbLine
 10
448.773257
 20
215.170847
 30
0.0
 11
447.773216
 21
214.670827
 31
0.0
  0
LINE
  5
204
100
AcDbEntity
  8
Sprekk
 62
7
100
AcDbLine
 10
447.773216
 20
214.670827
 30
0.0
 11
447.606543
 21
215.670868
 31
0.0
  0
LINE
  5
205
100
AcDbEntity
  8
Sprekk
 62
7
100
AcDbLine
 10
447.606543
 20
215.670868
 30
0.0
 11
448.841593
 21
216.059217
 31
0.0
  0
LINE
  5
206
100
AcDbEntity
  8
Sprekk
 62
7
100
AcDbLine
 10
457.606951
 20
220.337725
 30
0.0
 11
458.273645
 21
220.671072
 31
0.0
  0
LINE
  5
207
100
AcDbEntity
  8
Sprekk
 62
7
100
AcDbLine
 10
458.273645
 20
220.671072
 30
0.0
 11
458.681995
 21
220.671072
 31
0.0
  0
LINE
  5
208
100
AcDbEntity
  8
Sprekk
 62
7
100
AcDbLine
 10
458.681995
 20
220.671072
 30
0.0
 11
459.273686
 21
221.504439
 31
0.0
  0
LINE
  5
209
100
AcDbEntity
  8
Sprekk
 62
7
100
AcDbLine
 10
459.273686
 20
221.504439
 30
0.0
 11
459.773706
 21
221.004419
 31
0.0
  0
LINE
  5
20a
100
AcDbEntity
  8
Sprekk
 62
7
100
AcDbLine
 10
459.773706
 20
221.004419
 30
0.0
 11
460.273727
 21
221.171092
 31
0.0
  0
LINE
  5
20b
100
AcDbEntity
  8
Sprekk
 62
7
100
AcDbLine
 10
460.273727
 20
221.171092
 30
0.0
 11
460.773747
 21
221.337766
 31
0.0
  0
LINE
  5
20c
100
AcDbEntity
  8
Sprekk
 62
7
100
AcDbLine
 10
460.773747
 20
221.337766
 30
0.0
 11
461.107094
 21
221.337766
 31
0.0
  0
LINE
  5
20d
100
AcDbEntity
  8
Sprekk
 62
7
100
AcDbLine
 10
461.107094
 20
221.337766
 30
0.0
 11
461.273767
 21
221.837786
 31
0.0
  0
LINE
  5
20e
100
AcDbEntity
  8
Sprekk
 62
7
100
AcDbLine
 10
461.273767
 20
221.837786
 30
0.0
 11
461.773788
 21
222.171133
 31
0.0
  0
LINE
  5
20f
100
AcDbEntity
  8
Sprekk
 62
7
100
AcDbLine
 10
461.773788
 20
222.171133
 30
0.0
 11
461.940461
 21
221.837786
 31
0.0
  0
LINE
  5
210
100
AcDbEntity
  8
Sprekk
 62
7
100
AcDbLine
 10
461.940461
 20
221.837786
 30
0.0
 11
462.440482
 21
221.837786
 31
0.0
  0
LINE
  5
211
100
AcDbEntity
  8
Sprekk
 62
7
100
AcDbLine
 10
462.440482
 20
221.837786
 30
0.0
 11
463.107176
 21
223.004500
 31
0.0
  0
LINE
  5
212
100
AcDbEntity
  8
Sprekk
 62
7
100
AcDbLine
 10
463.107176
 20
223.004500
 30
0.0
 11
463.570528
 21
223.004500
 31
0.0
  0
LINE
  5
213
100
AcDbEntity
  8
Sprekk
 62
7
100
AcDbLine
 10
463.570528
 20
223.004500
 30
0.0
 11
463.940543
 21
223.171174
 31
0.0
  0
LINE
  5
214
100
AcDbEntity
  8
Sprekk
 62
7
100
AcDbLine
 10
463.940543
 20
223.171174
 30
0.0
 11
464.107216
 21
223.671194
 31
0.0
  0
LINE
  5
215
100
AcDbEntity
  8
Sprekk
 62
7
100
AcDbLine
 10
464.107216
 20
223.671194
 30
0.0
 11
465.273931
 21
223.837868
 31
0.0
  0
LINE
  5
216
100
AcDbEntity
  8
Sprekk
 62
7
100
AcDbLine
 10
465.273931
 20
223.837868
 30
0.0
 11
465.940625
 21
224.171215
 31
0.0
  0
LINE
  5
217
100
AcDbEntity
  8
Sprekk
 62
7
100
AcDbLine
 10
465.940625
 20
224.171215
 30
0.0
 11
466.107298
 21
224.671235
 31
0.0
  0
LINE
  5
218
100
AcDbEntity
  8
Sprekk
 62
7
100
AcDbLine
 10
466.107298
 20
224.671235
 30
0.0
 11
466.310640
 21
224.671235
 31
0.0
  0
LINE
  5
219
100
AcDbEntity
  8
Sprekk
 62
7
100
AcDbLine
 10
466.310640
 20
224.671235
 30
0.0
 11
466.458979
 21
225.174589
 31
0.0
  0
LINE
  5
21a
100
AcDbEntity
  8
Sprekk
 62
7
100
AcDbLine
 10
466.458979
 20
225.174589
 30
0.0
 11
466.773992
 21
225.337929
 31
0.0
  0
LINE
  5
21b
100
AcDbEntity
  8
Sprekk
 62
7
100
AcDbLine
 10
466.773992
 20
225.337929
 30
0.0
 11
467.022335
 21
225.481268
 31
0.0
  0
LINE
  5
21c
100
AcDbEntity
  8
Sprekk
 62
7
100
AcDbLine
 10
467.022335
 20
225.481268
 30
0.0
 11
467.022335
 21
225.844616
 31
0.0
  0
LINE
  5
21d
100
AcDbEntity
  8
Sprekk
 62
7
100
AcDbLine
 10
467.022335
 20
225.844616
 30
0.0
 11
467.224010
 21
226.029624
 31
0.0
  0
LINE
  5
21e
100
AcDbEntity
  8
Sprekk
 62
7
100
AcDbLine
 10
467.224010
 20
226.029624
 30
0.0
 11
467.224010
 21
226.412973
 31
0.0
  0
LINE
  5
21f
100
AcDbEntity
  8
Sprekk
 62
7
100
AcDbLine
 10
467.224010
 20
226.412973
 30
0.0
 11
467.607359
 21
226.837990
 31
0.0
  0
LINE
  5
220
100
AcDbEntity
  8
Sprekk
 62
7
100
AcDbLine
 10
467.607359
 20
226.837990
 30
0.0
 11
467.440686
 21
227.504684
 31
0.0
  0
LINE
  5
221
100
AcDbEntity
  8
Sprekk
 62
7
100
AcDbLine
 10
467.440686
 20
227.504684
 30
0.0
 11
467.774033
 21
227.838031
 31
0.0
  0
LINE
  5
222
100
AcDbEntity
  8
Sprekk
 62
7
100
AcDbLine
 10
467.774033
 20
227.838031
 30
0.0
 11
467.940706
 21
228.504725
 31
0.0
  0
LINE
  5
223
100
AcDbEntity
  8
Sprekk
 62
7
100
AcDbLine
 10
467.940706
 20
228.504725
 30
0.0
 11
468.440727
 21
228.838072
 31
0.0
  0
LINE
  5
224
100
AcDbEntity
  8
Sprekk
 62
7
100
AcDbLine
 10
468.440727
 20
228.838072
 30
0.0
 11
468.440727
 21
229.153085
 31
0.0
  0
LINE
  5
225
100
AcDbEntity
  8
Sprekk
 62
7
100
AcDbLine
 10
468.440727
 20
229.153085
 30
0.0
 11
467.940706
 21
229.671439
 31
0.0
  0
LINE
  5
226
100
AcDbEntity
  8
Sprekk
 62
7
100
AcDbLine
 10
467.940706
 20
229.671439
 30
0.0
 11
469.107421
 21
230.338133
 31
0.0
  0
LINE
  5
227
100
AcDbEntity
  8
Sprekk
 62
7
100
AcDbLine
 10
469.107421
 20
230.338133
 30
0.0
 11
469.607441
 21
231.004827
 31
0.0
  0
LINE
  5
228
100
AcDbEntity
  8
Sprekk
 62
7
100
AcDbLine
 10
469.607441
 20
231.004827
 30
0.0
 11
469.440767
 21
231.338174
 31
0.0
  0
LINE
  5
229
100
AcDbEntity
  8
Sprekk
 62
7
100
AcDbLine
 10
469.440767
 20
231.338174
 30
0.0
 11
469.440767
 21
232.004868
 31
0.0
  0
LINE
  5
22a
100
AcDbEntity
  8
Sprekk
 62
7
100
AcDbLine
 10
469.440767
 20
232.004868
 30
0.0
 11
469.107421
 21
232.171541
 31
0.0
  0
LINE
  5
22b
100
AcDbEntity
  8
Sprekk
 62
7
100
AcDbLine
 10
469.107421
 20
232.171541
 30
0.0
 11
469.107421
 21
232.671561
 31
0.0
  0
LINE
  5
22c
100
AcDbEntity
  8
Sprekk
 62
7
100
AcDbLine
 10
469.107421
 20
232.671561
 30
0.0
 11
468.940747
 21
232.838235
 31
0.0
  0
LINE
  5
22d
100
AcDbEntity
  8
Sprekk
 62
7
100
AcDbLine
 10
468.940747
 20
232.838235
 30
0.0
 11
468.940747
 21
233.171582
 31
0.0
  0
LINE
  5
22e
100
AcDbEntity
  8
Sprekk
 62
7
100
AcDbLine
 10
468.940747
 20
233.171582
 30
0.0
 11
468.940747
 21
233.504929
 31
0.0
  0
LINE
  5
22f
100
AcDbEntity
  8
Sprekk
 62
7
100
AcDbLine
 10
468.940747
 20
233.504929
 30
0.0
 11
469.107421
 21
233.338255
 31
0.0
  0
LINE
  5
230
100
AcDbEntity
  8
Sprekk
 62
7
100
AcDbLine
 10
469.107421
 20
233.338255
 30
0.0
 11
469.107421
 21
233.004908
 31
0.0
  0
LINE
  5
231
100
AcDbEntity
  8
Sprekk
 62
7
100
AcDbLine
 10
469.107421
 20
233.004908
 30
0.0
 11
469.274094
 21
232.838235
 31
0.0
  0
LINE
  5
232
100
AcDbEntity
  8
Sprekk
 62
7
100
AcDbLine
 10
469.274094
 20
232.838235
 30
0.0
 11
469.440767
 21
232.338215
 31
0.0
  0
LINE
  5
233
100
AcDbEntity
  8
Sprekk
 62
7
100
AcDbLine
 10
469.440767
 20
232.338215
 30
0.0
 11
469.940788
 21
232.171541
 31
0.0
  0
LINE
  5
234
100
AcDbEntity
  8
Sprekk
 62
7
100
AcDbLine
 10
469.940788
 20
232.171541
 30
0.0
 11
470.107461
 21
231.838194
 31
0.0
  0
LINE
  5
235
100
AcDbEntity
  8
Sprekk
 62
7
100
AcDbLine
 10
470.107461
 20
231.838194
 30
0.0
 11
470.607482
 21
232.004868
 31
0.0
  0
LINE
  5
236
100
AcDbEntity
  8
Sprekk
 62
7
100
AcDbLine
 10
470.607482
 20
232.004868
 30
0.0
 11
470.940829
 21
232.004868
 31
0.0
  0
LINE
  5
237
100
AcDbEntity
  8
Sprekk
 62
7
100
AcDbLine
 10
470.940829
 20
232.004868
 30
0.0
 11
471.107502
 21
231.838194
 31
0.0
  0
LINE
  5
238
100
AcDbEntity
  8
Sprekk
 62
7
100
AcDbLine
 10
471.107502
 20
231.838194
 30
0.0
 11
470.774155
 21
231.838194
 31
0.0
  0
LINE
  5
239
100
AcDbEntity
  8
Sprekk
 62
7
100
AcDbLine
 10
470.774155
 20
231.838194
 30
0.0
 11
470.440808
 21
231.671521
 31
0.0
  0
LINE
  5
23a
100
AcDbEntity
  8
Sprekk
 62
7
100
AcDbLine
 10
470.440808
 20
231.671521
 30
0.0
 11
470.107461
 21
231.504847
 31
0.0
  0
LINE
  5
23b
100
AcDbEntity
  8
Sprekk
 62
7
100
AcDbLine
 10
470.107461
 20
231.504847
 30
0.0
 11
469.940788
 21
231.171500
 31
0.0
  0
LINE
  5
23c
100
AcDbEntity
  8
Sprekk
 62
7
100
AcDbLine
 10
469.940788
 20
231.171500
 30
0.0
 11
469.890786
 21
230.664813
 31
0.0
  0
LINE
  5
23d
100
AcDbEntity
  8
Sprekk
 62
7
100
AcDbLine
 10
469.890786
 20
230.664813
 30
0.0
 11
469.774114
 21
230.338133
 31
0.0
  0
LINE
  5
23e
100
AcDbEntity
  8
Sprekk
 62
7
100
AcDbLine
 10
469.774114
 20
230.338133
 30
0.0
 11
469.274094
 21
229.838112
 31
0.0
  0
LINE
  5
23f
100
AcDbEntity
  8
Sprekk
 62
7
100
AcDbLine
 10
469.274094
 20
229.838112
 30
0.0
 11
468.829076
 21
229.726441
 31
0.0
  0
LINE
  5
240
100
AcDbEntity
  8
Sprekk
 62
7
100
AcDbLine
 10
468.829076
 20
229.726441
 30
0.0
 11
468.607400
 21
229.671439
 31
0.0
  0
LINE
  5
241
100
AcDbEntity
  8
Sprekk
 62
7
100
AcDbLine
 10
468.607400
 20
229.671439
 30
0.0
 11
468.774074
 21
229.338092
 31
0.0
  0
LINE
  5
242
100
AcDbEntity
  8
Sprekk
 62
7
100
AcDbLine
 10
468.774074
 20
229.338092
 30
0.0
 11
468.940747
 21
229.171419
 31
0.0
  0
LINE
  5
243
100
AcDbEntity
  8
Sprekk
 62
7
100
AcDbLine
 10
468.940747
 20
229.171419
 30
0.0
 11
468.774074
 21
229.004745
 31
0.0
  0
LINE
  5
244
100
AcDbEntity
  8
Sprekk
 62
7
100
AcDbLine
 10
468.774074
 20
229.004745
 30
0.0
 11
468.774074
 21
228.671398
 31
0.0
  0
LINE
  5
245
100
AcDbEntity
  8
Sprekk
 62
7
100
AcDbLine
 10
468.774074
 20
228.671398
 30
0.0
 11
468.440727
 21
228.171378
 31
0.0
  0
LINE
  5
246
100
AcDbEntity
  8
Sprekk
 62
7
100
AcDbLine
 10
468.440727
 20
228.171378
 30
0.0
 11
468.274053
 21
227.671357
 31
0.0
  0
LINE
  5
247
100
AcDbEntity
  8
Sprekk
 62
7
100
AcDbLine
 10
468.274053
 20
227.671357
 30
0.0
 11
468.082379
 21
227.424681
 31
0.0
  0
LINE
  5
248
100
AcDbEntity
  8
Sprekk
 62
7
100
AcDbLine
 10
468.082379
 20
227.424681
 30
0.0
 11
468.440727
 21
227.004663
 31
0.0
  0
LINE
  5
249
100
AcDbEntity
  8
Sprekk
 62
7
100
AcDbLine
 10
468.440727
 20
227.004663
 30
0.0
 11
468.385724
 21
226.754653
 31
0.0
  0
LINE
  5
24a
100
AcDbEntity
  8
Sprekk
 62
7
100
AcDbLine
 10
468.385724
 20
226.754653
 30
0.0
 11
468.082379
 21
226.461308
 31
0.0
  0
LINE
  5
24b
100
AcDbEntity
  8
Sprekk
 62
7
100
AcDbLine
 10
468.082379
 20
226.461308
 30
0.0
 11
468.082379
 21
226.029624
 31
0.0
  0
LINE
  5
24c
100
AcDbEntity
  8
Sprekk
 62
7
100
AcDbLine
 10
468.082379
 20
226.029624
 30
0.0
 11
468.082379
 21
225.671276
 31
0.0
  0
LINE
  5
24d
100
AcDbEntity
  8
Sprekk
 62
7
100
AcDbLine
 10
468.082379
 20
225.671276
 30
0.0
 11
467.774033
 21
225.671276
 31
0.0
  0
LINE
  5
24e
100
AcDbEntity
  8
Sprekk
 62
7
100
AcDbLine
 10
467.774033
 20
225.671276
 30
0.0
 11
467.774033
 21
225.337929
 31
0.0
  0
LINE
  5
24f
100
AcDbEntity
  8
Sprekk
 62
7
100
AcDbLine
 10
467.774033
 20
225.337929
 30
0.0
 11
467.817368
 21
225.174589
 31
0.0
  0
LINE
  5
250
100
AcDbEntity
  8
Sprekk
 62
7
100
AcDbLine
 10
467.817368
 20
225.174589
 30
0.0
 11
467.107339
 21
224.837908
 31
0.0
  0
LINE
  5
251
100
AcDbEntity
  8
Sprekk
 62
7
100
AcDbLine
 10
467.107339
 20
224.837908
 30
0.0
 11
467.022335
 21
224.584565
 31
0.0
  0
LINE
  5
252
100
AcDbEntity
  8
Sprekk
 62
7
100
AcDbLine
 10
467.022335
 20
224.584565
 30
0.0
 11
467.774033
 21
224.504561
 31
0.0
  0
LINE
  5
253
100
AcDbEntity
  8
Sprekk
 62
7
100
AcDbLine
 10
467.774033
 20
224.504561
 30
0.0
 11
468.082379
 21
224.436225
 31
0.0
  0
LINE
  5
254
100
AcDbEntity
  8
Sprekk
 62
7
100
AcDbLine
 10
468.082379
 20
224.436225
 30
0.0
 11
468.274053
 21
223.837868
 31
0.0
  0
LINE
  5
255
100
AcDbEntity
  8
Sprekk
 62
7
100
AcDbLine
 10
468.274053
 20
223.837868
 30
0.0
 11
468.274053
 21
223.671194
 31
0.0
  0
LINE
  5
256
100
AcDbEntity
  8
Sprekk
 62
7
100
AcDbLine
 10
468.274053
 20
223.671194
 30
0.0
 11
468.607400
 21
223.337847
 31
0.0
  0
LINE
  5
257
100
AcDbEntity
  8
Sprekk
 62
7
100
AcDbLine
 10
468.607400
 20
223.337847
 30
0.0
 11
469.107421
 21
223.004500
 31
0.0
  0
LINE
  5
258
100
AcDbEntity
  8
Sprekk
 62
7
100
AcDbLine
 10
469.107421
 20
223.004500
 30
0.0
 11
469.440767
 21
222.837827
 31
0.0
  0
LINE
  5
259
100
AcDbEntity
  8
Sprekk
 62
7
100
AcDbLine
 10
469.440767
 20
222.837827
 30
0.0
 11
469.607441
 21
222.004459
 31
0.0
  0
LINE
  5
25a
100
AcDbEntity
  8
Sprekk
 62
7
100
AcDbLine
 10
469.607441
 20
222.004459
 30
0.0
 11
469.274094
 21
222.671153
 31
0.0
  0
LINE
  5
25b
100
AcDbEntity
  8
Sprekk
 62
7
100
AcDbLine
 10
469.274094
 20
222.671153
 30
0.0
 11
468.774074
 21
222.837827
 31
0.0
  0
LINE
  5
25c
100
AcDbEntity
  8
Sprekk
 62
7
100
AcDbLine
 10
468.774074
 20
222.837827
 30
0.0
 11
468.274053
 21
223.004500
 31
0.0
  0
LINE
  5
25d
100
AcDbEntity
  8
Sprekk
 62
7
100
AcDbLine
 10
468.274053
 20
223.004500
 30
0.0
 11
467.940706
 21
223.337847
 31
0.0
  0
LINE
  5
25e
100
AcDbEntity
  8
Sprekk
 62
7
100
AcDbLine
 10
467.940706
 20
223.337847
 30
0.0
 11
467.774033
 21
223.837868
 31
0.0
  0
LINE
  5
25f
100
AcDbEntity
  8
Sprekk
 62
7
100
AcDbLine
 10
467.774033
 20
223.837868
 30
0.0
 11
467.440686
 21
224.171215
 31
0.0
  0
LINE
  5
260
100
AcDbEntity
  8
Sprekk
 62
7
100
AcDbLine
 10
467.440686
 20
224.171215
 30
0.0
 11
467.022335
 21
224.189549
 31
0.0
  0
LINE
  5
261
100
AcDbEntity
  8
Sprekk
 62
7
100
AcDbLine
 10
467.022335
 20
224.189549
 30
0.0
 11
466.607318
 21
224.171215
 31
0.0
  0
LINE
  5
262
100
AcDbEntity
  8
Sprekk
 62
7
100
AcDbLine
 10
466.607318
 20
224.171215
 30
0.0
 11
466.440645
 21
223.837868
 31
0.0
  0
LINE
  5
263
100
AcDbEntity
  8
Sprekk
 62
7
100
AcDbLine
 10
466.440645
 20
223.837868
 30
0.0
 11
466.440645
 21
223.504521
 31
0.0
  0
LINE
  5
264
100
AcDbEntity
  8
Sprekk
 62
7
100
AcDbLine
 10
466.440645
 20
223.504521
 30
0.0
 11
465.770618
 21
223.399516
 31
0.0
  0
LINE
  5
265
100
AcDbEntity
  8
Sprekk
 62
7
100
AcDbLine
 10
465.770618
 20
223.399516
 30
0.0
 11
465.440604
 21
223.171174
 31
0.0
  0
LINE
  5
266
100
AcDbEntity
  8
Sprekk
 62
7
100
AcDbLine
 10
465.440604
 20
223.171174
 30
0.0
 11
465.273931
 21
223.504521
 31
0.0
  0
LINE
  5
267
100
AcDbEntity
  8
Sprekk
 62
7
100
AcDbLine
 10
465.273931
 20
223.504521
 30
0.0
 11
464.940584
 21
223.171174
 31
0.0
  0
LINE
  5
268
100
AcDbEntity
  8
Sprekk
 62
7
100
AcDbLine
 10
464.940584
 20
223.171174
 30
0.0
 11
464.607237
 21
223.171174
 31
0.0
  0
LINE
  5
269
100
AcDbEntity
  8
Sprekk
 62
7
100
AcDbLine
 10
464.607237
 20
223.171174
 30
0.0
 11
464.773910
 21
222.837827
 31
0.0
  0
LINE
  5
26a
100
AcDbEntity
  8
Sprekk
 62
7
100
AcDbLine
 10
464.773910
 20
222.837827
 30
0.0
 11
464.440563
 21
222.671153
 31
0.0
  0
LINE
  5
26b
100
AcDbEntity
  8
Sprekk
 62
7
100
AcDbLine
 10
464.440563
 20
222.671153
 30
0.0
 11
464.285557
 21
222.504480
 31
0.0
  0
LINE
  5
26c
100
AcDbEntity
  8
Sprekk
 62
7
100
AcDbLine
 10
464.285557
 20
222.504480
 30
0.0
 11
464.273890
 21
222.171133
 31
0.0
  0
LINE
  5
26d
100
AcDbEntity
  8
Sprekk
 62
7
100
AcDbLine
 10
464.273890
 20
222.171133
 30
0.0
 11
463.940543
 21
222.171133
 31
0.0
  0
LINE
  5
26e
100
AcDbEntity
  8
Sprekk
 62
7
100
AcDbLine
 10
463.940543
 20
222.171133
 30
0.0
 11
463.440523
 21
222.004459
 31
0.0
  0
LINE
  5
26f
100
AcDbEntity
  8
Sprekk
 62
7
100
AcDbLine
 10
463.440523
 20
222.004459
 30
0.0
 11
463.440523
 21
221.837786
 31
0.0
  0
LINE
  5
270
100
AcDbEntity
  8
Sprekk
 62
7
100
AcDbLine
 10
463.440523
 20
221.837786
 30
0.0
 11
463.607196
 21
221.671112
 31
0.0
  0
LINE
  5
271
100
AcDbEntity
  8
Sprekk
 62
7
100
AcDbLine
 10
463.607196
 20
221.671112
 30
0.0
 11
463.273849
 21
221.337766
 31
0.0
  0
LINE
  5
272
100
AcDbEntity
  8
Sprekk
 62
7
100
AcDbLine
 10
463.273849
 20
221.337766
 30
0.0
 11
462.940502
 21
221.171092
 31
0.0
  0
LINE
  5
273
100
AcDbEntity
  8
Sprekk
 62
7
100
AcDbLine
 10
462.940502
 20
221.171092
 30
0.0
 11
462.440482
 21
221.171092
 31
0.0
  0
LINE
  5
274
100
AcDbEntity
  8
Sprekk
 62
7
100
AcDbLine
 10
462.440482
 20
221.171092
 30
0.0
 11
461.607114
 21
220.671072
 31
0.0
  0
LINE
  5
275
100
AcDbEntity
  8
Sprekk
 62
7
100
AcDbLine
 10
461.607114
 20
220.671072
 30
0.0
 11
460.940420
 21
220.504398
 31
0.0
  0
LINE
  5
276
100
AcDbEntity
  8
Sprekk
 62
7
100
AcDbLine
 10
460.940420
 20
220.504398
 30
0.0
 11
460.607074
 21
220.004378
 31
0.0
  0
LINE
  5
277
100
AcDbEntity
  8
Sprekk
 62
7
100
AcDbLine
 10
460.607074
 20
220.004378
 30
0.0
 11
460.107053
 21
220.337725
 31
0.0
  0
LINE
  5
278
100
AcDbEntity
  8
Sprekk
 62
7
100
AcDbLine
 10
460.107053
 20
220.337725
 30
0.0
 11
459.773706
 21
220.504398
 31
0.0
  0
LINE
  5
279
100
AcDbEntity
  8
Sprekk
 62
7
100
AcDbLine
 10
459.773706
 20
220.504398
 30
0.0
 11
459.913712
 21
220.164384
 31
0.0
  0
LINE
  5
27a
100
AcDbEntity
  8
Sprekk
 62
7
100
AcDbLine
 10
459.913712
 20
220.164384
 30
0.0
 11
459.440359
 21
220.337725
 31
0.0
  0
LINE
  5
27b
100
AcDbEntity
  8
Sprekk
 62
7
100
AcDbLine
 10
459.440359
 20
220.337725
 30
0.0
 11
459.273686
 21
220.004378
 31
0.0
  0
LINE
  5
27c
100
AcDbEntity
  8
Sprekk
 62
7
100
AcDbLine
 10
459.273686
 20
220.004378
 30
0.0
 11
459.273686
 21
219.794369
 31
0.0
  0
LINE
  5
27d
100
AcDbEntity
  8
Sprekk
 62
7
100
AcDbLine
 10
459.273686
 20
219.794369
 30
0.0
 11
458.606992
 21
219.504357
 31
0.0
  0
LINE
  5
27e
100
AcDbEntity
  8
Sprekk
 62
7
100
AcDbLine
 10
458.606992
 20
219.504357
 30
0.0
 11
458.106971
 21
219.337684
 31
0.0
  0
LINE
  5
27f
100
AcDbEntity
  8
Sprekk
 62
7
100
AcDbLine
 10
458.106971
 20
219.337684
 30
0.0
 11
457.800292
 21
219.079340
 31
0.0
  0
LINE
  5
280
100
AcDbEntity
  8
Sprekk
 62
7
100
AcDbLine
 10
457.800292
 20
219.079340
 30
0.0
 11
456.853587
 21
218.807662
 31
0.0
  0
LINE
  5
281
100
AcDbEntity
  8
Sprekk
 62
7
100
AcDbLine
 10
456.853587
 20
218.807662
 30
0.0
 11
456.273563
 21
218.504317
 31
0.0
  0
LINE
  5
282
100
AcDbEntity
  8
Sprekk
 62
7
100
AcDbLine
 10
456.273563
 20
218.504317
 30
0.0
 11
456.940257
 21
220.004378
 31
0.0
  0
LINE
  5
283
100
AcDbEntity
  8
Sprekk
 62
7
100
AcDbLine
 10
456.940257
 20
220.004378
 30
0.0
 11
457.606951
 21
220.337725
 31
0.0
  0
LINE
  5
284
100
AcDbEntity
  8
Sprekk
 62
7
100
AcDbLine
 10
505.108890
 20
219.004337
 30
0.0
 11
505.725582
 21
219.931041
 31
0.0
  0
LINE
  5
285
100
AcDbEntity
  8
Sprekk
 62
7
100
AcDbLine
 10
505.725582
 20
219.931041
 30
0.0
 11
505.942257
 21
220.504398
 31
0.0
  0
LINE
  5
286
100
AcDbEntity
  8
Sprekk
 62
7
100
AcDbLine
 10
505.942257
 20
220.504398
 30
0.0
 11
505.775584
 21
221.171092
 31
0.0
  0
LINE
  5
287
100
AcDbEntity
  8
Sprekk
 62
7
100
AcDbLine
 10
505.775584
 20
221.171092
 30
0.0
 11
505.442237
 21
221.837786
 31
0.0
  0
LINE
  5
288
100
AcDbEntity
  8
Sprekk
 62
7
100
AcDbLine
 10
505.442237
 20
221.837786
 30
0.0
 11
505.453904
 21
222.671153
 31
0.0
  0
LINE
  5
289
100
AcDbEntity
  8
Sprekk
 62
7
100
AcDbLine
 10
505.453904
 20
222.671153
 30
0.0
 11
505.608910
 21
223.171174
 31
0.0
  0
LINE
  5
28a
100
AcDbEntity
  8
Sprekk
 62
7
100
AcDbLine
 10
505.608910
 20
223.171174
 30
0.0
 11
504.942217
 21
223.671194
 31
0.0
  0
LINE
  5
28b
100
AcDbEntity
  8
Sprekk
 62
7
100
AcDbLine
 10
504.942217
 20
223.671194
 30
0.0
 11
504.442196
 21
224.084544
 31
0.0
  0
LINE
  5
28c
100
AcDbEntity
  8
Sprekk
 62
7
100
AcDbLine
 10
504.442196
 20
224.084544
 30
0.0
 11
504.275523
 21
224.837908
 31
0.0
  0
LINE
  5
28d
100
AcDbEntity
  8
Sprekk
 62
7
100
AcDbLine
 10
504.275523
 20
224.837908
 30
0.0
 11
503.608829
 21
225.171255
 31
0.0
  0
LINE
  5
28e
100
AcDbEntity
  8
Sprekk
 62
7
100
AcDbLine
 10
503.608829
 20
225.171255
 30
0.0
 11
503.442155
 21
225.504602
 31
0.0
  0
LINE
  5
28f
100
AcDbEntity
  8
Sprekk
 62
7
100
AcDbLine
 10
503.442155
 20
225.504602
 30
0.0
 11
503.608829
 21
225.837949
 31
0.0
  0
LINE
  5
290
100
AcDbEntity
  8
Sprekk
 62
7
100
AcDbLine
 10
503.608829
 20
225.837949
 30
0.0
 11
503.442155
 21
226.456308
 31
0.0
  0
LINE
  5
291
100
AcDbEntity
  8
Sprekk
 62
7
100
AcDbLine
 10
503.442155
 20
226.456308
 30
0.0
 11
503.275482
 21
227.004663
 31
0.0
  0
LINE
  5
292
100
AcDbEntity
  8
Sprekk
 62
7
100
AcDbLine
 10
503.275482
 20
227.004663
 30
0.0
 11
503.800503
 21
227.004663
 31
0.0
  0
LINE
  5
293
100
AcDbEntity
  8
Sprekk
 62
7
100
AcDbLine
 10
503.800503
 20
227.004663
 30
0.0
 11
504.293857
 21
227.004663
 31
0.0
  0
LINE
  5
294
100
AcDbEntity
  8
Sprekk
 62
7
100
AcDbLine
 10
504.293857
 20
227.004663
 30
0.0
 11
504.942217
 21
227.171337
 31
0.0
  0
LINE
  5
295
100
AcDbEntity
  8
Sprekk
 62
7
100
AcDbLine
 10
504.942217
 20
227.171337
 30
0.0
 11
505.478905
 21
227.171337
 31
0.0
  0
LINE
  5
296
100
AcDbEntity
  8
Sprekk
 62
7
100
AcDbLine
 10
505.478905
 20
227.171337
 30
0.0
 11
505.942257
 21
227.393013
 31
0.0
  0
LINE
  5
297
100
AcDbEntity
  8
Sprekk
 62
7
100
AcDbLine
 10
505.942257
 20
227.393013
 30
0.0
 11
506.640619
 21
227.393013
 31
0.0
  0
LINE
  5
298
100
AcDbEntity
  8
Sprekk
 62
7
100
AcDbLine
 10
506.640619
 20
227.393013
 30
0.0
 11
507.010634
 21
227.393013
 31
0.0
  0
LINE
  5
299
100
AcDbEntity
  8
Sprekk
 62
7
100
AcDbLine
 10
507.010634
 20
227.393013
 30
0.0
 11
507.307313
 21
227.393013
 31
0.0
  0
LINE
  5
29a
100
AcDbEntity
  8
Sprekk
 62
7
100
AcDbLine
 10
507.307313
 20
227.393013
 30
0.0
 11
507.775666
 21
227.838031
 31
0.0
  0
LINE
  5
29b
100
AcDbEntity
  8
Sprekk
 62
7
100
AcDbLine
 10
507.775666
 20
227.838031
 30
0.0
 11
508.145681
 21
227.838031
 31
0.0
  0
LINE
  5
29c
100
AcDbEntity
  8
Sprekk
 62
7
100
AcDbLine
 10
508.145681
 20
227.838031
 30
0.0
 11
508.540697
 21
227.976370
 31
0.0
  0
LINE
  5
29d
100
AcDbEntity
  8
Sprekk
 62
7
100
AcDbLine
 10
508.540697
 20
227.976370
 30
0.0
 11
508.540697
 21
228.159711
 31
0.0
  0
LINE
  5
29e
100
AcDbEntity
  8
Sprekk
 62
7
100
AcDbLine
 10
508.540697
 20
228.159711
 30
0.0
 11
508.275686
 21
228.504725
 31
0.0
  0
LINE
  5
29f
100
AcDbEntity
  8
Sprekk
 62
7
100
AcDbLine
 10
508.275686
 20
228.504725
 30
0.0
 11
507.775666
 21
228.671398
 31
0.0
  0
LINE
  5
2a0
100
AcDbEntity
  8
Sprekk
 62
7
100
AcDbLine
 10
507.775666
 20
228.671398
 30
0.0
 11
507.275645
 21
229.004745
 31
0.0
  0
LINE
  5
2a1
100
AcDbEntity
  8
Sprekk
 62
7
100
AcDbLine
 10
507.275645
 20
229.004745
 30
0.0
 11
507.462319
 21
229.344759
 31
0.0
  0
LINE
  5
2a2
100
AcDbEntity
  8
Sprekk
 62
7
100
AcDbLine
 10
507.462319
 20
229.344759
 30
0.0
 11
507.108972
 21
229.838112
 31
0.0
  0
LINE
  5
2a3
100
AcDbEntity
  8
Sprekk
 62
7
100
AcDbLine
 10
507.108972
 20
229.838112
 30
0.0
 11
507.108972
 21
230.171459
 31
0.0
  0
LINE
  5
2a4
100
AcDbEntity
  8
Sprekk
 62
7
100
AcDbLine
 10
507.108972
 20
230.171459
 30
0.0
 11
506.442278
 21
230.504806
 31
0.0
  0
LINE
  5
2a5
100
AcDbEntity
  8
Sprekk
 62
7
100
AcDbLine
 10
506.442278
 20
230.504806
 30
0.0
 11
506.942298
 21
230.671480
 31
0.0
  0
LINE
  5
2a6
100
AcDbEntity
  8
Sprekk
 62
7
100
AcDbLine
 10
506.942298
 20
230.671480
 30
0.0
 11
507.275645
 21
230.504806
 31
0.0
  0
LINE
  5
2a7
100
AcDbEntity
  8
Sprekk
 62
7
100
AcDbLine
 10
507.275645
 20
230.504806
 30
0.0
 11
507.462319
 21
230.109790
 31
0.0
  0
LINE
  5
2a8
100
AcDbEntity
  8
Sprekk
 62
7
100
AcDbLine
 10
507.462319
 20
230.109790
 30
0.0
 11
507.380649
 21
229.893115
 31
0.0
  0
LINE
  5
2a9
100
AcDbEntity
  8
Sprekk
 62
7
100
AcDbLine
 10
507.380649
 20
229.893115
 30
0.0
 11
507.608992
 21
229.504766
 31
0.0
  0
LINE
  5
2aa
100
AcDbEntity
  8
Sprekk
 62
7
100
AcDbLine
 10
507.608992
 20
229.504766
 30
0.0
 11
507.942339
 21
229.171419
 31
0.0
  0
LINE
  5
2ab
100
AcDbEntity
  8
Sprekk
 62
7
100
AcDbLine
 10
507.942339
 20
229.171419
 30
0.0
 11
508.609033
 21
228.838072
 31
0.0
  0
LINE
  5
2ac
100
AcDbEntity
  8
Sprekk
 62
7
100
AcDbLine
 10
508.609033
 20
228.838072
 30
0.0
 11
508.942380
 21
228.671398
 31
0.0
  0
LINE
  5
2ad
100
AcDbEntity
  8
Sprekk
 62
7
100
AcDbLine
 10
508.942380
 20
228.671398
 30
0.0
 11
509.275727
 21
228.671398
 31
0.0
  0
LINE
  5
2ae
100
AcDbEntity
  8
Sprekk
 62
7
100
AcDbLine
 10
509.275727
 20
228.671398
 30
0.0
 11
509.775747
 21
228.838072
 31
0.0
  0
LINE
  5
2af
100
AcDbEntity
  8
Sprekk
 62
7
100
AcDbLine
 10
509.775747
 20
228.838072
 30
0.0
 11
509.942421
 21
229.171419
 31
0.0
  0
LINE
  5
2b0
100
AcDbEntity
  8
Sprekk
 62
7
100
AcDbLine
 10
509.942421
 20
229.171419
 30
0.0
 11
510.109094
 21
229.671439
 31
0.0
  0
LINE
  5
2b1
100
AcDbEntity
  8
Sprekk
 62
7
100
AcDbLine
 10
510.109094
 20
229.671439
 30
0.0
 11
510.492443
 21
229.893115
 31
0.0
  0
LINE
  5
2b2
100
AcDbEntity
  8
Sprekk
 62
7
100
AcDbLine
 10
510.492443
 20
229.893115
 30
0.0
 11
510.942461
 21
230.004786
 31
0.0
  0
LINE
  5
2b3
100
AcDbEntity
  8
Sprekk
 62
7
100
AcDbLine
 10
510.942461
 20
230.004786
 30
0.0
 11
511.355812
 21
230.109790
 31
0.0
  0
LINE
  5
2b4
100
AcDbEntity
  8
Sprekk
 62
7
100
AcDbLine
 10
511.355812
 20
230.109790
 30
0.0
 11
511.942502
 21
230.338133
 31
0.0
  0
LINE
  5
2b5
100
AcDbEntity
  8
Sprekk
 62
7
100
AcDbLine
 10
511.942502
 20
230.338133
 30
0.0
 11
512.442523
 21
230.671480
 31
0.0
  0
LINE
  5
2b6
100
AcDbEntity
  8
Sprekk
 62
7
100
AcDbLine
 10
512.442523
 20
230.671480
 30
0.0
 11
513.109217
 21
230.671480
 31
0.0
  0
LINE
  5
2b7
100
AcDbEntity
  8
Sprekk
 62
7
100
AcDbLine
 10
513.109217
 20
230.671480
 30
0.0
 11
512.609196
 21
230.171459
 31
0.0
  0
LINE
  5
2b8
100
AcDbEntity
  8
Sprekk
 62
7
100
AcDbLine
 10
512.609196
 20
230.171459
 30
0.0
 11
512.344185
 21
229.893115
 31
0.0
  0
LINE
  5
2b9
100
AcDbEntity
  8
Sprekk
 62
7
100
AcDbLine
 10
512.344185
 20
229.893115
 30
0.0
 11
511.874166
 21
229.893115
 31
0.0
  0
LINE
  5
2ba
100
AcDbEntity
  8
Sprekk
 62
7
100
AcDbLine
 10
511.874166
 20
229.893115
 30
0.0
 11
511.442482
 21
229.671439
 31
0.0
  0
LINE
  5
2bb
100
AcDbEntity
  8
Sprekk
 62
7
100
AcDbLine
 10
511.442482
 20
229.671439
 30
0.0
 11
510.942461
 21
229.504766
 31
0.0
  0
LINE
  5
2bc
100
AcDbEntity
  8
Sprekk
 62
7
100
AcDbLine
 10
510.942461
 20
229.504766
 30
0.0
 11
510.609115
 21
229.338092
 31
0.0
  0
LINE
  5
2bd
100
AcDbEntity
  8
Sprekk
 62
7
100
AcDbLine
 10
510.609115
 20
229.338092
 30
0.0
 11
510.775788
 21
228.838072
 31
0.0
  0
LINE
  5
2be
100
AcDbEntity
  8
Sprekk
 62
7
100
AcDbLine
 10
510.775788
 20
228.838072
 30
0.0
 11
510.275768
 21
229.004745
 31
0.0
  0
LINE
  5
2bf
100
AcDbEntity
  8
Sprekk
 62
7
100
AcDbLine
 10
510.275768
 20
229.004745
 30
0.0
 11
510.109094
 21
228.671398
 31
0.0
  0
LINE
  5
2c0
100
AcDbEntity
  8
Sprekk
 62
7
100
AcDbLine
 10
510.109094
 20
228.671398
 30
0.0
 11
509.775747
 21
228.338051
 31
0.0
  0
LINE
  5
2c1
100
AcDbEntity
  8
Sprekk
 62
7
100
AcDbLine
 10
509.775747
 20
228.338051
 30
0.0
 11
509.442400
 21
228.338051
 31
0.0
  0
LINE
  5
2c2
100
AcDbEntity
  8
Sprekk
 62
7
100
AcDbLine
 10
509.442400
 20
228.338051
 30
0.0
 11
509.109053
 21
227.838031
 31
0.0
  0
LINE
  5
2c3
100
AcDbEntity
  8
Sprekk
 62
7
100
AcDbLine
 10
509.109053
 20
227.838031
 30
0.0
 11
508.775706
 21
227.671357
 31
0.0
  0
LINE
  5
2c4
100
AcDbEntity
  8
Sprekk
 62
7
100
AcDbLine
 10
508.775706
 20
227.671357
 30
0.0
 11
508.275686
 21
227.504684
 31
0.0
  0
LINE
  5
2c5
100
AcDbEntity
  8
Sprekk
 62
7
100
AcDbLine
 10
508.275686
 20
227.504684
 30
0.0
 11
508.442359
 21
227.171337
 31
0.0
  0
LINE
  5
2c6
100
AcDbEntity
  8
Sprekk
 62
7
100
AcDbLine
 10
508.442359
 20
227.171337
 30
0.0
 11
507.995675
 21
227.073000
 31
0.0
  0
LINE
  5
2c7
100
AcDbEntity
  8
Sprekk
 62
7
100
AcDbLine
 10
507.995675
 20
227.073000
 30
0.0
 11
507.275645
 21
227.004663
 31
0.0
  0
LINE
  5
2c8
100
AcDbEntity
  8
Sprekk
 62
7
100
AcDbLine
 10
507.275645
 20
227.004663
 30
0.0
 11
506.775625
 21
226.837990
 31
0.0
  0
LINE
  5
2c9
100
AcDbEntity
  8
Sprekk
 62
7
100
AcDbLine
 10
506.775625
 20
226.837990
 30
0.0
 11
506.072263
 21
226.681317
 31
0.0
  0
LINE
  5
2ca
100
AcDbEntity
  8
Sprekk
 62
7
100
AcDbLine
 10
506.072263
 20
226.681317
 30
0.0
 11
505.750583
 21
226.681317
 31
0.0
  0
LINE
  5
2cb
100
AcDbEntity
  8
Sprekk
 62
7
100
AcDbLine
 10
505.750583
 20
226.681317
 30
0.0
 11
505.405569
 21
226.681317
 31
0.0
  0
LINE
  5
2cc
100
AcDbEntity
  8
Sprekk
 62
7
100
AcDbLine
 10
505.405569
 20
226.681317
 30
0.0
 11
504.887214
 21
226.681317
 31
0.0
  0
LINE
  5
2cd
100
AcDbEntity
  8
Sprekk
 62
7
100
AcDbLine
 10
504.887214
 20
226.681317
 30
0.0
 11
504.442196
 21
226.337970
 31
0.0
  0
LINE
  5
2ce
100
AcDbEntity
  8
Sprekk
 62
7
100
AcDbLine
 10
504.442196
 20
226.337970
 30
0.0
 11
504.108849
 21
226.504643
 31
0.0
  0
LINE
  5
2cf
100
AcDbEntity
  8
Sprekk
 62
7
100
AcDbLine
 10
504.108849
 20
226.504643
 30
0.0
 11
504.108849
 21
226.004623
 31
0.0
  0
LINE
  5
2d0
100
AcDbEntity
  8
Sprekk
 62
7
100
AcDbLine
 10
504.108849
 20
226.004623
 30
0.0
 11
504.275523
 21
225.504602
 31
0.0
  0
LINE
  5
2d1
100
AcDbEntity
  8
Sprekk
 62
7
100
AcDbLine
 10
504.275523
 20
225.504602
 30
0.0
 11
504.775543
 21
225.337929
 31
0.0
  0
LINE
  5
2d2
100
AcDbEntity
  8
Sprekk
 62
7
100
AcDbLine
 10
504.775543
 20
225.337929
 30
0.0
 11
505.108890
 21
224.837908
 31
0.0
  0
LINE
  5
2d3
100
AcDbEntity
  8
Sprekk
 62
7
100
AcDbLine
 10
505.108890
 20
224.837908
 30
0.0
 11
505.380568
 21
224.421225
 31
0.0
  0
LINE
  5
2d4
100
AcDbEntity
  8
Sprekk
 62
7
100
AcDbLine
 10
505.380568
 20
224.421225
 30
0.0
 11
505.775584
 21
223.837868
 31
0.0
  0
LINE
  5
2d5
100
AcDbEntity
  8
Sprekk
 62
7
100
AcDbLine
 10
505.775584
 20
223.837868
 30
0.0
 11
506.275604
 21
223.504521
 31
0.0
  0
LINE
  5
2d6
100
AcDbEntity
  8
Sprekk
 62
7
100
AcDbLine
 10
506.275604
 20
223.504521
 30
0.0
 11
506.442278
 21
223.171174
 31
0.0
  0
LINE
  5
2d7
100
AcDbEntity
  8
Sprekk
 62
7
100
AcDbLine
 10
506.442278
 20
223.171174
 30
0.0
 11
506.492280
 21
222.671153
 31
0.0
  0
LINE
  5
2d8
100
AcDbEntity
  8
Sprekk
 62
7
100
AcDbLine
 10
506.492280
 20
222.671153
 30
0.0
 11
506.608951
 21
222.171133
 31
0.0
  0
LINE
  5
2d9
100
AcDbEntity
  8
Sprekk
 62
7
100
AcDbLine
 10
506.608951
 20
222.171133
 30
0.0
 11
506.942298
 21
221.337766
 31
0.0
  0
LINE
  5
2da
100
AcDbEntity
  8
Sprekk
 62
7
100
AcDbLine
 10
506.942298
 20
221.337766
 30
0.0
 11
507.108972
 21
220.504398
 31
0.0
  0
LINE
  5
2db
100
AcDbEntity
  8
Sprekk
 62
7
100
AcDbLine
 10
507.108972
 20
220.504398
 30
0.0
 11
507.158974
 21
219.976043
 31
0.0
  0
LINE
  5
2dc
100
AcDbEntity
  8
Sprekk
 62
7
100
AcDbLine
 10
507.158974
 20
219.976043
 30
0.0
 11
506.942298
 21
219.671031
 31
0.0
  0
LINE
  5
2dd
100
AcDbEntity
  8
Sprekk
 62
7
100
AcDbLine
 10
506.942298
 20
219.671031
 30
0.0
 11
506.942298
 21
219.171010
 31
0.0
  0
LINE
  5
2de
100
AcDbEntity
  8
Sprekk
 62
7
100
AcDbLine
 10
506.942298
 20
219.171010
 30
0.0
 11
506.608951
 21
218.837663
 31
0.0
  0
LINE
  5
2df
100
AcDbEntity
  8
Sprekk
 62
7
100
AcDbLine
 10
506.608951
 20
218.837663
 30
0.0
 11
506.608951
 21
218.337643
 31
0.0
  0
LINE
  5
2e0
100
AcDbEntity
  8
Sprekk
 62
7
100
AcDbLine
 10
506.608951
 20
218.337643
 30
0.0
 11
506.442278
 21
217.837623
 31
0.0
  0
LINE
  5
2e1
100
AcDbEntity
  8
Sprekk
 62
7
100
AcDbLine
 10
506.442278
 20
217.837623
 30
0.0
 11
506.108931
 21
217.337602
 31
0.0
  0
LINE
  5
2e2
100
AcDbEntity
  8
Sprekk
 62
7
100
AcDbLine
 10
506.108931
 20
217.337602
 30
0.0
 11
505.608910
 21
216.837582
 31
0.0
  0
LINE
  5
2e3
100
AcDbEntity
  8
Sprekk
 62
7
100
AcDbLine
 10
505.608910
 20
216.837582
 30
0.0
 11
504.442196
 21
218.170970
 31
0.0
  0
LINE
  5
2e4
100
AcDbEntity
  8
Sprekk
 62
7
100
AcDbLine
 10
504.442196
 20
218.170970
 30
0.0
 11
505.108890
 21
219.004337
 31
0.0
  0
LINE
  5
2e5
100
AcDbEntity
  8
Sprekk
 62
7
100
AcDbLine
 10
512.609190
 20
232.504890
 30
0.0
 11
512.775870
 21
233.338260
 31
0.0
  0
LINE
  5
2e6
100
AcDbEntity
  8
Sprekk
 62
7
100
AcDbLine
 10
512.775870
 20
233.338260
 30
0.0
 11
513.275890
 21
233.838280
 31
0.0
  0
LINE
  5
2e7
100
AcDbEntity
  8
Sprekk
 62
7
100
AcDbLine
 10
513.275890
 20
233.838280
 30
0.0
 11
513.275890
 21
235.098330
 31
0.0
  0
LINE
  5
2e8
100
AcDbEntity
  8
Sprekk
 62
7
100
AcDbLine
 10
513.275890
 20
235.098330
 30
0.0
 11
513.942580
 21
235.505010
 31
0.0
  0
LINE
  5
2e9
100
AcDbEntity
  8
Sprekk
 62
7
100
AcDbLine
 10
513.942580
 20
235.505010
 30
0.0
 11
514.275930
 21
236.171710
 31
0.0
  0
LINE
  5
2ea
100
AcDbEntity
  8
Sprekk
 62
7
100
AcDbLine
 10
514.275930
 20
236.171710
 30
0.0
 11
514.775950
 21
236.671730
 31
0.0
  0
LINE
  5
2eb
100
AcDbEntity
  8
Sprekk
 62
7
100
AcDbLine
 10
514.775950
 20
236.671730
 30
0.0
 11
514.442600
 21
237.005070
 31
0.0
  0
LINE
  5
2ec
100
AcDbEntity
  8
Sprekk
 62
7
100
AcDbLine
 10
514.442600
 20
237.005070
 30
0.0
 11
514.590940
 21
237.616760
 31
0.0
  0
LINE
  5
2ed
100
AcDbEntity
  8
Sprekk
 62
7
100
AcDbLine
 10
514.590940
 20
237.616760
 30
0.0
 11
515.442640
 21
237.838440
 31
0.0
  0
LINE
  5
2ee
100
AcDbEntity
  8
Sprekk
 62
7
100
AcDbLine
 10
515.442640
 20
237.838440
 30
0.0
 11
515.109300
 21
237.338420
 31
0.0
  0
LINE
  5
2ef
100
AcDbEntity
  8
Sprekk
 62
7
100
AcDbLine
 10
515.109300
 20
237.338420
 30
0.0
 11
515.109300
 21
237.005070
 31
0.0
  0
LINE
  5
2f0
100
AcDbEntity
  8
Sprekk
 62
7
100
AcDbLine
 10
515.109300
 20
237.005070
 30
0.0
 11
515.275970
 21
236.505050
 31
0.0
  0
LINE
  5
2f1
100
AcDbEntity
  8
Sprekk
 62
7
100
AcDbLine
 10
515.275970
 20
236.505050
 30
0.0
 11
514.609280
 21
236.171710
 31
0.0
  0
LINE
  5
2f2
100
AcDbEntity
  8
Sprekk
 62
7
100
AcDbLine
 10
514.609280
 20
236.171710
 30
0.0
 11
514.775950
 21
235.671690
 31
0.0
  0
LINE
  5
2f3
100
AcDbEntity
  8
Sprekk
 62
7
100
AcDbLine
 10
514.775950
 20
235.671690
 30
0.0
 11
514.609280
 21
235.671690
 31
0.0
  0
LINE
  5
2f4
100
AcDbEntity
  8
Sprekk
 62
7
100
AcDbLine
 10
514.609280
 20
235.671690
 30
0.0
 11
514.442600
 21
235.338340
 31
0.0
  0
LINE
  5
2f5
100
AcDbEntity
  8
Sprekk
 62
7
100
AcDbLine
 10
514.442600
 20
235.338340
 30
0.0
 11
514.077590
 21
234.973320
 31
0.0
  0
LINE
  5
2f6
100
AcDbEntity
  8
Sprekk
 62
7
100
AcDbLine
 10
514.077590
 20
234.973320
 30
0.0
 11
513.552570
 21
234.973320
 31
0.0
  0
LINE
  5
2f7
100
AcDbEntity
  8
Sprekk
 62
7
100
AcDbLine
 10
513.552570
 20
234.973320
 30
0.0
 11
513.774240
 21
234.504970
 31
0.0
  0
LINE
  5
2f8
100
AcDbEntity
  8
Sprekk
 62
7
100
AcDbLine
 10
513.774240
 20
234.504970
 30
0.0
 11
513.774240
 21
234.004950
 31
0.0
  0
LINE
  5
2f9
100
AcDbEntity
  8
Sprekk
 62
7
100
AcDbLine
 10
513.774240
 20
234.004950
 30
0.0
 11
513.607570
 21
233.504930
 31
0.0
  0
LINE
  5
2fa
100
AcDbEntity
  8
Sprekk
 62
7
100
AcDbLine
 10
513.607570
 20
233.504930
 30
0.0
 11
513.107550
 21
233.171580
 31
0.0
  0
LINE
  5
2fb
100
AcDbEntity
  8
Sprekk
 62
7
100
AcDbLine
 10
513.107550
 20
233.171580
 30
0.0
 11
513.440900
 21
232.838240
 31
0.0
  0
LINE
  5
2fc
100
AcDbEntity
  8
Sprekk
 62
7
100
AcDbLine
 10
513.440900
 20
232.838240
 30
0.0
 11
513.107550
 21
232.504890
 31
0.0
  0
SPLINE
  5
2fd
100
AcDbEntity
  8
Sprekk
 62
7
100
AcDbSpline
 70
8
 71
3
 72
8
 73
4
 74
0
 40
0
 40
0
 40
0
 40
0
 40
1
 40
1
 40
1
 40
1
 10
513.107550
 20
232.504890
 30
0.0
 10
513.107550
 20
232.504890
 30
0.0
 10
513.050850
 20
231.943200
 30
0.0
 10
513.107550
 20
232.004870
 30
0.0
  0
SPLINE
  5
2fe
100
AcDbEntity
  8
Sprekk
 62
7
100
AcDbSpline
 70
8
 71
3
 72
8
 73
4
 74
0
 40
0
 40
0
 40
0
 40
0
 40
1
 40
1
 40
1
 40
1
 10
513.107550
 20
232.004870
 30
0.0
 10
513.164250
 20
232.066570
 30
0.0
 10
512.607530
 20
232.504890
 30
0.0
 10
512.607530
 20
232.504890
 30
0.0
  0
LINE
  5
2ff
100
AcDbEntity
  8
Sprekk
 62
7
100
AcDbLine
 10
512.607530
 20
232.504890
 30
0.0
 11
512.609190
 21
232.504890
 31
0.0
  0
LINE
  5
300
100
AcDbEntity
  8
Sprekk
 62
7
100
AcDbLine
 10
514.954292
 20
241.098572
 30
0.0
 11
515.275972
 21
242.171949
 31
0.0
  0
LINE
  5
301
100
AcDbEntity
  8
Sprekk
 62
7
100
AcDbLine
 10
515.275972
 20
242.171949
 30
0.0
 11
515.942666
 21
242.838643
 31
0.0
  0
LINE
  5
302
100
AcDbEntity
  8
Sprekk
 62
7
100
AcDbLine
 10
515.942666
 20
242.838643
 30
0.0
 11
515.942666
 21
243.838684
 31
0.0
  0
LINE
  5
303
100
AcDbEntity
  8
Sprekk
 62
7
100
AcDbLine
 10
515.942666
 20
243.838684
 30
0.0
 11
515.609319
 21
244.338704
 31
0.0
  0
LINE
  5
304
100
AcDbEntity
  8
Sprekk
 62
7
100
AcDbLine
 10
515.609319
 20
244.338704
 30
0.0
 11
515.359308
 21
245.123736
 31
0.0
  0
LINE
  5
305
100
AcDbEntity
  8
Sprekk
 62
7
100
AcDbLine
 10
515.359308
 20
245.123736
 30
0.0
 11
515.109298
 21
245.838766
 31
0.0
  0
LINE
  5
306
100
AcDbEntity
  8
Sprekk
 62
7
100
AcDbLine
 10
515.109298
 20
245.838766
 30
0.0
 11
514.775951
 21
246.653799
 31
0.0
  0
LINE
  5
307
100
AcDbEntity
  8
Sprekk
 62
7
100
AcDbLine
 10
514.775951
 20
246.653799
 30
0.0
 11
514.079256
 21
246.653799
 31
0.0
  0
LINE
  5
308
100
AcDbEntity
  8
Sprekk
 62
7
100
AcDbLine
 10
514.079256
 20
246.653799
 30
0.0
 11
514.442604
 21
247.338827
 31
0.0
  0
LINE
  5
309
100
AcDbEntity
  8
Sprekk
 62
7
100
AcDbLine
 10
514.442604
 20
247.338827
 30
0.0
 11
514.442604
 21
248.338868
 31
0.0
  0
LINE
  5
30a
100
AcDbEntity
  8
Sprekk
 62
7
100
AcDbLine
 10
514.442604
 20
248.338868
 30
0.0
 11
514.609278
 21
249.172235
 31
0.0
  0
LINE
  5
30b
100
AcDbEntity
  8
Sprekk
 62
7
100
AcDbLine
 10
514.609278
 20
249.172235
 30
0.0
 11
515.109298
 21
249.505582
 31
0.0
  0
LINE
  5
30c
100
AcDbEntity
  8
Sprekk
 62
7
100
AcDbLine
 10
515.109298
 20
249.505582
 30
0.0
 11
515.109298
 21
250.505623
 31
0.0
  0
LINE
  5
30d
100
AcDbEntity
  8
Sprekk
 62
7
100
AcDbLine
 10
515.109298
 20
250.505623
 30
0.0
 11
515.627653
 21
250.505623
 31
0.0
  0
LINE
  5
30e
100
AcDbEntity
  8
Sprekk
 62
7
100
AcDbLine
 10
515.627653
 20
250.505623
 30
0.0
 11
515.942666
 21
251.493996
 31
0.0
  0
LINE
  5
30f
100
AcDbEntity
  8
Sprekk
 62
7
100
AcDbLine
 10
515.942666
 20
251.493996
 30
0.0
 11
515.609319
 21
252.005684
 31
0.0
  0
LINE
  5
310
100
AcDbEntity
  8
Sprekk
 62
7
100
AcDbLine
 10
515.609319
 20
252.005684
 30
0.0
 11
516.442686
 21
252.339031
 31
0.0
  0
LINE
  5
311
100
AcDbEntity
  8
Sprekk
 62
7
100
AcDbLine
 10
516.442686
 20
252.339031
 30
0.0
 11
516.442686
 21
253.419075
 31
0.0
  0
LINE
  5
312
100
AcDbEntity
  8
Sprekk
 62
7
100
AcDbLine
 10
516.442686
 20
253.419075
 30
0.0
 11
516.942706
 21
253.505745
 31
0.0
  0
LINE
  5
313
100
AcDbEntity
  8
Sprekk
 62
7
100
AcDbLine
 10
516.942706
 20
253.505745
 30
0.0
 11
517.442727
 21
254.672460
 31
0.0
  0
LINE
  5
314
100
AcDbEntity
  8
Sprekk
 62
7
100
AcDbLine
 10
517.442727
 20
254.672460
 30
0.0
 11
516.942706
 21
255.339153
 31
0.0
  0
LINE
  5
315
100
AcDbEntity
  8
Sprekk
 62
7
100
AcDbLine
 10
516.942706
 20
255.339153
 30
0.0
 11
517.609400
 21
255.005806
 31
0.0
  0
LINE
  5
316
100
AcDbEntity
  8
Sprekk
 62
7
100
AcDbLine
 10
517.609400
 20
255.005806
 30
0.0
 11
517.776074
 21
254.505786
 31
0.0
  0
LINE
  5
317
100
AcDbEntity
  8
Sprekk
 62
7
100
AcDbLine
 10
517.776074
 20
254.505786
 30
0.0
 11
517.609400
 21
254.172439
 31
0.0
  0
LINE
  5
318
100
AcDbEntity
  8
Sprekk
 62
7
100
AcDbLine
 10
517.609400
 20
254.172439
 30
0.0
 11
517.276053
 21
253.505745
 31
0.0
  0
LINE
  5
319
100
AcDbEntity
  8
Sprekk
 62
7
100
AcDbLine
 10
517.276053
 20
253.505745
 30
0.0
 11
516.942706
 21
253.172398
 31
0.0
  0
LINE
  5
31a
100
AcDbEntity
  8
Sprekk
 62
7
100
AcDbLine
 10
516.942706
 20
253.172398
 30
0.0
 11
516.776033
 21
253.005725
 31
0.0
  0
LINE
  5
31b
100
AcDbEntity
  8
Sprekk
 62
7
100
AcDbLine
 10
516.776033
 20
253.005725
 30
0.0
 11
517.109380
 21
252.672378
 31
0.0
  0
LINE
  5
31c
100
AcDbEntity
  8
Sprekk
 62
7
100
AcDbLine
 10
517.109380
 20
252.672378
 30
0.0
 11
517.776074
 21
252.852385
 31
0.0
  0
LINE
  5
31d
100
AcDbEntity
  8
Sprekk
 62
7
100
AcDbLine
 10
517.776074
 20
252.852385
 30
0.0
 11
518.442768
 21
252.839051
 31
0.0
  0
LINE
  5
31e
100
AcDbEntity
  8
Sprekk
 62
7
100
AcDbLine
 10
518.442768
 20
252.839051
 30
0.0
 11
518.942788
 21
252.839051
 31
0.0
  0
LINE
  5
31f
100
AcDbEntity
  8
Sprekk
 62
7
100
AcDbLine
 10
518.942788
 20
252.839051
 30
0.0
 11
519.609482
 21
253.005725
 31
0.0
  0
LINE
  5
320
100
AcDbEntity
  8
Sprekk
 62
7
100
AcDbLine
 10
519.609482
 20
253.005725
 30
0.0
 11
519.776155
 21
253.505745
 31
0.0
  0
LINE
  5
321
100
AcDbEntity
  8
Sprekk
 62
7
100
AcDbLine
 10
519.776155
 20
253.505745
 30
0.0
 11
520.109502
 21
253.339072
 31
0.0
  0
LINE
  5
322
100
AcDbEntity
  8
Sprekk
 62
7
100
AcDbLine
 10
520.109502
 20
253.339072
 30
0.0
 11
520.449516
 21
253.419075
 31
0.0
  0
LINE
  5
323
100
AcDbEntity
  8
Sprekk
 62
7
100
AcDbLine
 10
520.449516
 20
253.419075
 30
0.0
 11
520.449516
 21
252.752381
 31
0.0
  0
LINE
  5
324
100
AcDbEntity
  8
Sprekk
 62
7
100
AcDbLine
 10
520.449516
 20
252.752381
 30
0.0
 11
519.942829
 21
253.005725
 31
0.0
  0
LINE
  5
325
100
AcDbEntity
  8
Sprekk
 62
7
100
AcDbLine
 10
519.942829
 20
253.005725
 30
0.0
 11
519.942829
 21
252.672378
 31
0.0
  0
LINE
  5
326
100
AcDbEntity
  8
Sprekk
 62
7
100
AcDbLine
 10
519.942829
 20
252.672378
 30
0.0
 11
519.609482
 21
252.505704
 31
0.0
  0
LINE
  5
327
100
AcDbEntity
  8
Sprekk
 62
7
100
AcDbLine
 10
519.609482
 20
252.505704
 30
0.0
 11
519.109462
 21
252.505704
 31
0.0
  0
LINE
  5
328
100
AcDbEntity
  8
Sprekk
 62
7
100
AcDbLine
 10
519.109462
 20
252.505704
 30
0.0
 11
518.776115
 21
252.172357
 31
0.0
  0
LINE
  5
329
100
AcDbEntity
  8
Sprekk
 62
7
100
AcDbLine
 10
518.776115
 20
252.172357
 30
0.0
 11
518.276094
 21
252.505704
 31
0.0
  0
LINE
  5
32a
100
AcDbEntity
  8
Sprekk
 62
7
100
AcDbLine
 10
518.276094
 20
252.505704
 30
0.0
 11
517.942747
 21
252.172357
 31
0.0
  0
LINE
  5
32b
100
AcDbEntity
  8
Sprekk
 62
7
100
AcDbLine
 10
517.942747
 20
252.172357
 30
0.0
 11
517.442727
 21
252.172357
 31
0.0
  0
LINE
  5
32c
100
AcDbEntity
  8
Sprekk
 62
7
100
AcDbLine
 10
517.442727
 20
252.172357
 30
0.0
 11
516.942706
 21
252.339031
 31
0.0
  0
LINE
  5
32d
100
AcDbEntity
  8
Sprekk
 62
7
100
AcDbLine
 10
516.942706
 20
252.339031
 30
0.0
 11
516.942706
 21
252.005684
 31
0.0
  0
LINE
  5
32e
100
AcDbEntity
  8
Sprekk
 62
7
100
AcDbLine
 10
516.942706
 20
252.005684
 30
0.0
 11
516.276013
 21
251.839011
 31
0.0
  0
LINE
  5
32f
100
AcDbEntity
  8
Sprekk
 62
7
100
AcDbLine
 10
516.276013
 20
251.839011
 30
0.0
 11
516.276013
 21
251.338990
 31
0.0
  0
LINE
  5
330
100
AcDbEntity
  8
Sprekk
 62
7
100
AcDbLine
 10
516.276013
 20
251.338990
 30
0.0
 11
516.442686
 21
250.838970
 31
0.0
  0
LINE
  5
331
100
AcDbEntity
  8
Sprekk
 62
7
100
AcDbLine
 10
516.442686
 20
250.838970
 30
0.0
 11
516.109339
 21
250.672296
 31
0.0
  0
LINE
  5
332
100
AcDbEntity
  8
Sprekk
 62
7
100
AcDbLine
 10
516.109339
 20
250.672296
 30
0.0
 11
515.942666
 21
249.838929
 31
0.0
  0
LINE
  5
333
100
AcDbEntity
  8
Sprekk
 62
7
100
AcDbLine
 10
515.942666
 20
249.838929
 30
0.0
 11
515.609319
 21
249.838929
 31
0.0
  0
LINE
  5
334
100
AcDbEntity
  8
Sprekk
 62
7
100
AcDbLine
 10
515.609319
 20
249.838929
 30
0.0
 11
515.609319
 21
249.172235
 31
0.0
  0
LINE
  5
335
100
AcDbEntity
  8
Sprekk
 62
7
100
AcDbLine
 10
515.609319
 20
249.172235
 30
0.0
 11
515.275972
 21
249.005562
 31
0.0
  0
LINE
  5
336
100
AcDbEntity
  8
Sprekk
 62
7
100
AcDbLine
 10
515.275972
 20
249.005562
 30
0.0
 11
514.954292
 21
248.357202
 31
0.0
  0
LINE
  5
337
100
AcDbEntity
  8
Sprekk
 62
7
100
AcDbLine
 10
514.954292
 20
248.357202
 30
0.0
 11
515.275972
 21
248.005521
 31
0.0
  0
LINE
  5
338
100
AcDbEntity
  8
Sprekk
 62
7
100
AcDbLine
 10
515.275972
 20
248.005521
 30
0.0
 11
514.954292
 21
247.567169
 31
0.0
  0
LINE
  5
339
100
AcDbEntity
  8
Sprekk
 62
7
100
AcDbLine
 10
514.954292
 20
247.567169
 30
0.0
 11
515.109298
 21
247.005480
 31
0.0
  0
LINE
  5
33a
100
AcDbEntity
  8
Sprekk
 62
7
100
AcDbLine
 10
515.109298
 20
247.005480
 30
0.0
 11
515.609319
 21
246.672133
 31
0.0
  0
LINE
  5
33b
100
AcDbEntity
  8
Sprekk
 62
7
100
AcDbLine
 10
515.609319
 20
246.672133
 30
0.0
 11
515.442645
 21
246.233782
 31
0.0
  0
LINE
  5
33c
100
AcDbEntity
  8
Sprekk
 62
7
100
AcDbLine
 10
515.442645
 20
246.233782
 30
0.0
 11
515.775992
 21
245.672092
 31
0.0
  0
LINE
  5
33d
100
AcDbEntity
  8
Sprekk
 62
7
100
AcDbLine
 10
515.775992
 20
245.672092
 30
0.0
 11
515.942666
 21
245.172072
 31
0.0
  0
LINE
  5
33e
100
AcDbEntity
  8
Sprekk
 62
7
100
AcDbLine
 10
515.942666
 20
245.172072
 30
0.0
 11
516.109339
 21
244.672051
 31
0.0
  0
LINE
  5
33f
100
AcDbEntity
  8
Sprekk
 62
7
100
AcDbLine
 10
516.109339
 20
244.672051
 30
0.0
 11
516.594359
 21
244.357038
 31
0.0
  0
LINE
  5
340
100
AcDbEntity
  8
Sprekk
 62
7
100
AcDbLine
 10
516.594359
 20
244.357038
 30
0.0
 11
516.594359
 21
243.790349
 31
0.0
  0
LINE
  5
341
100
AcDbEntity
  8
Sprekk
 62
7
100
AcDbLine
 10
516.594359
 20
243.790349
 30
0.0
 11
516.594359
 21
243.345330
 31
0.0
  0
LINE
  5
342
100
AcDbEntity
  8
Sprekk
 62
7
100
AcDbLine
 10
516.594359
 20
243.345330
 30
0.0
 11
516.776033
 21
243.005317
 31
0.0
  0
LINE
  5
343
100
AcDbEntity
  8
Sprekk
 62
7
100
AcDbLine
 10
516.776033
 20
243.005317
 30
0.0
 11
516.594359
 21
242.505296
 31
0.0
  0
LINE
  5
344
100
AcDbEntity
  8
Sprekk
 62
7
100
AcDbLine
 10
516.594359
 20
242.505296
 30
0.0
 11
516.109339
 21
242.171949
 31
0.0
  0
LINE
  5
345
100
AcDbEntity
  8
Sprekk
 62
7
100
AcDbLine
 10
516.109339
 20
242.171949
 30
0.0
 11
515.942666
 21
241.671929
 31
0.0
  0
LINE
  5
346
100
AcDbEntity
  8
Sprekk
 62
7
100
AcDbLine
 10
515.942666
 20
241.671929
 30
0.0
 11
515.609319
 21
241.338582
 31
0.0
  0
LINE
  5
347
100
AcDbEntity
  8
Sprekk
 62
7
100
AcDbLine
 10
515.609319
 20
241.338582
 30
0.0
 11
515.442645
 21
240.853562
 31
0.0
  0
LINE
  5
348
100
AcDbEntity
  8
Sprekk
 62
7
100
AcDbLine
 10
515.442645
 20
240.853562
 30
0.0
 11
515.442645
 21
240.281872
 31
0.0
  0
LINE
  5
349
100
AcDbEntity
  8
Sprekk
 62
7
100
AcDbLine
 10
515.442645
 20
240.281872
 30
0.0
 11
514.775951
 21
240.171868
 31
0.0
  0
LINE
  5
34a
100
AcDbEntity
  8
Sprekk
 62
7
100
AcDbLine
 10
514.775951
 20
240.171868
 30
0.0
 11
514.954292
 21
241.098572
 31
0.0
  0
ENDSEC
  0
SECTION
  2
OBJECTS
  0
DICTIONARY
  5
C
330
0
100
AcDbDictionary
  3
ACAD_GROUP
350
D
  3
ACAD_MLINESTYLE
350
17
  0
DICTIONARY
  5
D
330
C
100
AcDbDictionary
  0
DICTIONARY
  5
1A
330
C
100
AcDbDictionary
  0
DICTIONARY
  5
17
330
C
100
AcDbDictionary
  3
STANDARD
350
18
  0
DICTIONARY
  5
19
330
C
100
AcDbDictionary
  0
ENDSEC
  0
EOF
