  0
SECTION
  2
HEADER
  9
$ACADVER
  1
AC1014
  9
$HANDSEED
  5
FFFF
  9
$INSUNITS
 70
     0
  9
$MEASUREMENT
 70
     1
  0
ENDSEC
  0
SECTION
  2
TABLES
  0
TABLE
  2
VPORT
  5
8
330
0
100
AcDbSymbolTable
 70
     4
  0
VPORT
  5
2E
330
8
100
AcDbSymbolTableRecord
100
AcDbViewportTableRecord
  2
*ACTIVE
 70
     0
 10
0.0
 20
0.0
 11
1.0
 21
1.0
 12
210.0
 22
148.5
 13
0.0
 23
0.0
 14
10.0
 24
10.0
 15
10.0
 25
10.0
 16
0.0
 26
0.0
 36
1.0
 17
0.0
 27
0.0
 37
0.0
 40
341.0
 41
1.24
 42
50.0
 43
0.0
 44
0.0
 50
0.0
 51
0.0
 71
     0
 72
   100
 73
     1
 74
     3
 75
     0
 76
     0
 77
     0
 78
     0
  0
ENDTAB
  0
TABLE
  2
LTYPE
  5
5
330
0
100
AcDbSymbolTable
 70
     1
  0
LTYPE
  5
14
330
5
100
AcDbSymbolTableRecord
100
AcDbLinetypeTableRecord
  2
BYBLOCK
 70
     0
  3

 72
    65
 73
     0
 40
0.0
  0
LTYPE
  5
15
330
5
100
AcDbSymbolTableRecord
100
AcDbLinetypeTableRecord
  2
BYLAYER
 70
     0
  3

 72
    65
 73
     0
 40
0.0
  0
LTYPE
  5
16
330
5
100
AcDbSymbolTableRecord
100
AcDbLinetypeTableRecord
  2
CONTINUOUS
 70
     0
  3
Solid line
 72
    65
 73
     0
 40
0.0
  0
ENDTAB
  0
TABLE
  2
LAYER
  5
2
100
AcDbSymbolTable
 70
1
  0
LAYER
  5
50
100
AcDbSymbolTableRecord
100
AcDbLayerTableRecord
  2
0
 70
0
  6
CONTINUOUS
  0
ENDTAB
  0
TABLE
  2
STYLE
  5
3
330
0
100
AcDbSymbolTable
 70
     1
  0
STYLE
  5
11
330
3
100
AcDbSymbolTableRecord
100
AcDbTextStyleTableRecord
  2
STANDARD
 70
     0
 40
0.0
 41
1.0
 50
0.0
 71
     0
 42
2.5
  3
txt
  4

  0
ENDTAB
  0
TABLE
  2
VIEW
  5
6
330
0
100
AcDbSymbolTable
 70
     0
  0
ENDTAB
  0
TABLE
  2
UCS
  5
7
330
0
100
AcDbSymbolTable
 70
     0
  0
ENDTAB
  0
TABLE
  2
APPID
  5
9
330
0
100
AcDbSymbolTable
 70
     2
  0
APPID
  5
12
330
9
100
AcDbSymbolTableRecord
100
AcDbRegAppTableRecord
  2
ACAD
 70
     0
  0
ENDTAB
  0
TABLE
  2
DIMSTYLE
  5
A
330
0
100
AcDbSymbolTable
 70
     1
  0
DIMSTYLE
105
27
330
A
100
AcDbSymbolTableRecord
100
AcDbDimStyleTableRecord
  2
ISO-25
 70
     0
  3

  4

  5

  6

  7

 40
1.0
 41
2.5
 42
0.625
 43
3.75
 44
1.25
 45
0.0
 46
0.0
 47
0.0
 48
0.0
140
2.5
141
2.5
142
0.0
143
0.03937007874016
144
1.0
145
0.0
146
1.0
147
0.625
 71
     0
 72
     0
 73
     0
 74
     0
 75
     0
 76
     0
 77
     1
 78
     8
170
     0
171
     3
172
     1
173
     0
174
     0
175
     0
176
     0
177
     0
178
     0
270
     2
271
     2
272
     2
273
     2
274
     3
340
11
275
     0
280
     0
281
     0
282
     0
283
     0
284
     8
285
     0
286
     0
287
     3
288
     0
  0
ENDTAB
  0
TABLE
  2
BLOCK_RECORD
  5
1
330
0
100
AcDbSymbolTable
 70
     1
  0
BLOCK_RECORD
  5
1F
330
1
100
AcDbSymbolTableRecord
100
AcDbBlockTableRecord
  2
*MODEL_SPACE
  0
BLOCK_RECORD
  5
1B
330
1
100
AcDbSymbolTableRecord
100
AcDbBlockTableRecord
  2
*PAPER_SPACE
  0
ENDTAB
  0
ENDSEC
  0
SECTION
  2
BLOCKS
  0
BLOCK
  5
20
330
1F
100
AcDbEntity
  8
0
100
AcDbBlockBegin
  2
*MODEL_SPACE
 70
     0
 10
0.0
 20
0.0
 30
0.0
  3
*MODEL_SPACE
  1

  0
ENDBLK
  5
21
330
1F
100
AcDbEntity
  8
0
100
AcDbBlockEnd
  0
BLOCK
  5
1C
330
1B
100
AcDbEntity
 67
     1
  8
0
100
AcDbBlockBegin
  2
*PAPER_SPACE
  1

  0
ENDBLK
  5
1D
330
1B
100
AcDbEntity
 67
     1
  8
0
100
AcDbBlockEnd
  0
ENDSEC
  0
SECTION
  2
ENTITIES
  0
SPLINE
  5
100
100
AcDbEntity
  8
0
 62
7
100
AcDbSpline
 70
8
 71
3
 72
8
 73
4
 74
0
 40
0
 40
0
 40
0
 40
0
 40
1
 40
1
 40
1
 40
1
 10
-57.152422
 20
69.470552
 30
0.0
 10
-57.744363
 20
63.537819
 30
0.0
 10
-58.336176
 20
57.605073
 30
0.0
 10
-58.928206
 20
51.672350
 30
0.0
  0
SPLINE
  5
101
100
AcDbEntity
  8
0
 62
7
100
AcDbSpline
 70
8
 71
3
 72
8
 73
4
 74
0
 40
0
 40
0
 40
0
 40
0
 40
1
 40
1
 40
1
 40
1
 10
-58.928206
 20
51.672350
 30
0.0
 10
-58.434698
 20
51.610607
 30
0.0
 10
-57.941189
 20
51.548863
 30
0.0
 10
-57.447680
 20
51.487121
 30
0.0
  0
SPLINE
  5
102
100
AcDbEntity
  8
0
 62
7
100
AcDbSpline
 70
8
 71
3
 72
8
 73
4
 74
0
 40
0
 40
0
 40
0
 40
0
 40
1
 40
1
 40
1
 40
1
 10
-57.447680
 20
51.487121
 30
0.0
 10
-58.116564
 20
51.026842
 30
0.0
 10
-58.654078
 20
50.384187
 30
0.0
 10
-59.004381
 20
49.652741
 30
0.0
  0
SPLINE
  5
103
100
AcDbEntity
  8
0
 62
7
100
AcDbSpline
 70
8
 71
3
 72
8
 73
4
 74
0
 40
0
 40
0
 40
0
 40
0
 40
1
 40
1
 40
1
 40
1
 10
-59.004381
 20
49.652741
 30
0.0
 10
-59.274406
 20
52.282188
 30
0.0
 10
-59.544477
 20
54.911629
 30
0.0
 10
-59.814633
 20
57.541062
 30
0.0
  0
SPLINE
  5
104
100
AcDbEntity
  8
0
 62
7
100
AcDbSpline
 70
8
 71
3
 72
8
 73
4
 74
0
 40
0
 40
0
 40
0
 40
0
 40
1
 40
1
 40
1
 40
1
 10
-59.814633
 20
57.541062
 30
0.0
 10
-62.454805
 20
55.360845
 30
0.0
 10
-65.094996
 20
53.180650
 30
0.0
 10
-67.735181
 20
51.000449
 30
0.0
  0
SPLINE
  5
105
100
AcDbEntity
  8
0
 62
7
100
AcDbSpline
 70
8
 71
3
 72
8
 73
4
 74
0
 40
0
 40
0
 40
0
 40
0
 40
1
 40
1
 40
1
 40
1
 10
-67.735181
 20
51.000449
 30
0.0
 10
-67.644899
 20
51.143793
 30
0.0
 10
-67.554619
 20
51.287135
 30
0.0
 10
-67.464337
 20
51.430479
 30
0.0
  0
SPLINE
  5
106
100
AcDbEntity
  8
0
 62
7
100
AcDbSpline
 70
8
 71
3
 72
8
 73
4
 74
0
 40
0
 40
0
 40
0
 40
0
 40
1
 40
1
 40
1
 40
1
 10
-67.464337
 20
51.430479
 30
0.0
 10
-71.410341
 20
51.328172
 30
0.0
 10
-75.356357
 20
51.226441
 30
0.0
 10
-79.302352
 20
51.123825
 30
0.0
  0
SPLINE
  5
107
100
AcDbEntity
  8
0
 62
7
100
AcDbSpline
 70
8
 71
3
 72
8
 73
4
 74
0
 40
0
 40
0
 40
0
 40
0
 40
1
 40
1
 40
1
 40
1
 10
-79.302352
 20
51.123825
 30
0.0
 10
-80.015786
 20
49.959728
 30
0.0
 10
-80.728852
 20
48.795404
 30
0.0
 10
-81.442082
 20
47.631181
 30
0.0
  0
SPLINE
  5
108
100
AcDbEntity
  8
0
 62
7
100
AcDbSpline
 70
8
 71
3
 72
8
 73
4
 74
0
 40
0
 40
0
 40
0
 40
0
 40
1
 40
1
 40
1
 40
1
 10
-81.442082
 20
47.631181
 30
0.0
 10
-81.781096
 20
49.684966
 30
0.0
 10
-82.120209
 20
51.738734
 30
0.0
 10
-82.459047
 20
53.792547
 30
0.0
  0
SPLINE
  5
109
100
AcDbEntity
  8
0
 62
7
100
AcDbSpline
 70
8
 71
3
 72
8
 73
4
 74
0
 40
0
 40
0
 40
0
 40
0
 40
1
 40
1
 40
1
 40
1
 10
-82.459047
 20
53.792547
 30
0.0
 10
-85.229893
 20
53.398138
 30
0.0
 10
-87.999903
 20
52.996830
 30
0.0
 10
-90.771185
 20
52.606139
 30
0.0
  0
SPLINE
  5
10a
100
AcDbEntity
  8
0
 62
7
100
AcDbSpline
 70
8
 71
3
 72
8
 73
4
 74
0
 40
0
 40
0
 40
0
 40
0
 40
1
 40
1
 40
1
 40
1
 10
-90.771185
 20
52.606139
 30
0.0
 10
-96.654638
 20
52.048496
 30
0.0
 10
-102.538127
 20
51.491238
 30
0.0
 10
-108.421622
 20
50.934040
 30
0.0
  0
SPLINE
  5
10b
100
AcDbEntity
  8
0
 62
7
100
AcDbSpline
 70
8
 71
3
 72
8
 73
4
 74
0
 40
0
 40
0
 40
0
 40
0
 40
1
 40
1
 40
1
 40
1
 10
-108.421622
 20
50.934040
 30
0.0
 10
-109.144003
 20
48.714236
 30
0.0
 10
-109.866339
 20
46.494418
 30
0.0
 10
-110.588698
 20
44.274607
 30
0.0
  0
SPLINE
  5
10c
100
AcDbEntity
  8
0
 62
7
100
AcDbSpline
 70
8
 71
3
 72
8
 73
4
 74
0
 40
0
 40
0
 40
0
 40
0
 40
1
 40
1
 40
1
 40
1
 10
-110.588698
 20
44.274607
 30
0.0
 10
-111.452346
 20
45.829233
 30
0.0
 10
-112.827713
 20
47.044179
 30
0.0
 10
-114.352676
 20
47.930049
 30
0.0
  0
SPLINE
  5
10d
100
AcDbEntity
  8
0
 62
7
100
AcDbSpline
 70
8
 71
3
 72
8
 73
4
 74
0
 40
0
 40
0
 40
0
 40
0
 40
1
 40
1
 40
1
 40
1
 10
-114.352676
 20
47.930049
 30
0.0
 10
-115.340772
 20
48.512220
 30
0.0
 10
-116.405340
 20
48.948994
 30
0.0
 10
-117.483885
 20
49.332164
 30
0.0
  0
SPLINE
  5
10e
100
AcDbEntity
  8
0
 62
7
100
AcDbSpline
 70
8
 71
3
 72
8
 73
4
 74
0
 40
0
 40
0
 40
0
 40
0
 40
1
 40
1
 40
1
 40
1
 10
-117.483885
 20
49.332164
 30
0.0
 10
-120.445451
 20
50.426916
 30
0.0
 10
-123.433101
 20
51.449941
 30
0.0
 10
-126.436928
 20
52.422375
 30
0.0
  0
SPLINE
  5
10f
100
AcDbEntity
  8
0
 62
7
100
AcDbSpline
 70
8
 71
3
 72
8
 73
4
 74
0
 40
0
 40
0
 40
0
 40
0
 40
1
 40
1
 40
1
 40
1
 10
-126.436928
 20
52.422375
 30
0.0
 10
-126.696605
 20
52.507450
 30
0.0
 10
-126.956280
 20
52.592523
 30
0.0
 10
-127.215956
 20
52.677596
 30
0.0
  0
SPLINE
  5
110
100
AcDbEntity
  8
0
 62
7
100
AcDbSpline
 70
8
 71
3
 72
8
 73
4
 74
0
 40
0
 40
0
 40
0
 40
0
 40
1
 40
1
 40
1
 40
1
 10
-127.215956
 20
52.677596
 30
0.0
 10
-128.205251
 20
49.957648
 30
0.0
 10
-129.195200
 20
47.237936
 30
0.0
 10
-130.184819
 20
44.518106
 30
0.0
  0
SPLINE
  5
111
100
AcDbEntity
  8
0
 62
7
100
AcDbSpline
 70
8
 71
3
 72
8
 73
4
 74
0
 40
0
 40
0
 40
0
 40
0
 40
1
 40
1
 40
1
 40
1
 10
-130.184819
 20
44.518106
 30
0.0
 10
-130.801121
 20
45.967054
 30
0.0
 10
-131.817461
 20
47.263142
 30
0.0
 10
-133.152565
 20
48.112781
 30
0.0
  0
SPLINE
  5
112
100
AcDbEntity
  8
0
 62
7
100
AcDbSpline
 70
8
 71
3
 72
8
 73
4
 74
0
 40
0
 40
0
 40
0
 40
0
 40
1
 40
1
 40
1
 40
1
 10
-133.152565
 20
48.112781
 30
0.0
 10
-134.523506
 20
49.002011
 30
0.0
 10
-136.169620
 20
49.393073
 30
0.0
 10
-137.791588
 20
49.409804
 30
0.0
  0
SPLINE
  5
113
100
AcDbEntity
  8
0
 62
7
100
AcDbSpline
 70
8
 71
3
 72
8
 73
4
 74
0
 40
0
 40
0
 40
0
 40
0
 40
1
 40
1
 40
1
 40
1
 10
-137.791588
 20
49.409804
 30
0.0
 10
-139.399783
 20
49.432948
 30
0.0
 10
-140.992481
 20
49.116449
 30
0.0
 10
-142.529038
 20
48.662795
 30
0.0
  0
SPLINE
  5
114
100
AcDbEntity
  8
0
 62
7
100
AcDbSpline
 70
8
 71
3
 72
8
 73
4
 74
0
 40
0
 40
0
 40
0
 40
0
 40
1
 40
1
 40
1
 40
1
 10
-142.529038
 20
48.662795
 30
0.0
 10
-144.224968
 20
48.179252
 30
0.0
 10
-145.904858
 20
47.640833
 30
0.0
 10
-147.573176
 20
47.069636
 30
0.0
  0
SPLINE
  5
115
100
AcDbEntity
  8
0
 62
7
100
AcDbSpline
 70
8
 71
3
 72
8
 73
4
 74
0
 40
0
 40
0
 40
0
 40
0
 40
1
 40
1
 40
1
 40
1
 10
-147.573176
 20
47.069636
 30
0.0
 10
-148.681574
 20
49.052485
 30
0.0
 10
-150.348592
 20
50.731391
 30
0.0
 10
-152.365166
 20
51.787819
 30
0.0
  0
SPLINE
  5
116
100
AcDbEntity
  8
0
 62
7
100
AcDbSpline
 70
8
 71
3
 72
8
 73
4
 74
0
 40
0
 40
0
 40
0
 40
0
 40
1
 40
1
 40
1
 40
1
 10
-152.365166
 20
51.787819
 30
0.0
 10
-154.353733
 20
52.843887
 30
0.0
 10
-156.648710
 20
53.273612
 30
0.0
 10
-158.888018
 20
53.105365
 30
0.0
  0
SPLINE
  5
117
100
AcDbEntity
  8
0
 62
7
100
AcDbSpline
 70
8
 71
3
 72
8
 73
4
 74
0
 40
0
 40
0
 40
0
 40
0
 40
1
 40
1
 40
1
 40
1
 10
-158.888018
 20
53.105365
 30
0.0
 10
-160.794210
 20
52.950344
 30
0.0
 10
-162.703257
 20
52.510216
 30
0.0
 10
-164.401959
 20
51.610646
 30
0.0
  0
SPLINE
  5
118
100
AcDbEntity
  8
0
 62
7
100
AcDbSpline
 70
8
 71
3
 72
8
 73
4
 74
0
 40
0
 40
0
 40
0
 40
0
 40
1
 40
1
 40
1
 40
1
 10
-164.401959
 20
51.610646
 30
0.0
 10
-165.908696
 20
50.817977
 30
0.0
 10
-167.221168
 20
49.622085
 30
0.0
 10
-168.049059
 20
48.125396
 30
0.0
  0
SPLINE
  5
119
100
AcDbEntity
  8
0
 62
7
100
AcDbSpline
 70
8
 71
3
 72
8
 73
4
 74
0
 40
0
 40
0
 40
0
 40
0
 40
1
 40
1
 40
1
 40
1
 10
-168.049059
 20
48.125396
 30
0.0
 10
-168.908457
 20
46.597090
 30
0.0
 10
-169.234827
 20
44.807210
 30
0.0
 10
-169.119228
 20
43.067148
 30
0.0
  0
SPLINE
  5
11a
100
AcDbEntity
  8
0
 62
7
100
AcDbSpline
 70
8
 71
3
 72
8
 73
4
 74
0
 40
0
 40
0
 40
0
 40
0
 40
1
 40
1
 40
1
 40
1
 10
-169.119228
 20
43.067148
 30
0.0
 10
-169.005869
 20
41.357856
 30
0.0
 10
-168.560748
 20
39.631750
 30
0.0
 10
-167.589495
 20
38.201523
 30
0.0
  0
SPLINE
  5
11b
100
AcDbEntity
  8
0
 62
7
100
AcDbSpline
 70
8
 71
3
 72
8
 73
4
 74
0
 40
0
 40
0
 40
0
 40
0
 40
1
 40
1
 40
1
 40
1
 10
-167.589495
 20
38.201523
 30
0.0
 10
-166.942454
 20
37.240195
 30
0.0
 10
-166.064186
 20
36.441404
 30
0.0
 10
-165.060168
 20
35.865434
 30
0.0
  0
SPLINE
  5
11c
100
AcDbEntity
  8
0
 62
7
100
AcDbSpline
 70
8
 71
3
 72
8
 73
4
 74
0
 40
0
 40
0
 40
0
 40
0
 40
1
 40
1
 40
1
 40
1
 10
-165.060168
 20
35.865434
 30
0.0
 10
-166.457987
 20
34.571960
 30
0.0
 10
-167.855693
 20
33.278362
 30
0.0
 10
-169.253687
 20
31.985078
 30
0.0
  0
SPLINE
  5
11d
100
AcDbEntity
  8
0
 62
7
100
AcDbSpline
 70
8
 71
3
 72
8
 73
4
 74
0
 40
0
 40
0
 40
0
 40
0
 40
1
 40
1
 40
1
 40
1
 10
-169.253687
 20
31.985078
 30
0.0
 10
-168.787041
 20
31.296242
 30
0.0
 10
-168.349374
 20
30.587252
 30
0.0
 10
-167.857982
 20
29.915531
 30
0.0
  0
SPLINE
  5
11e
100
AcDbEntity
  8
0
 62
7
100
AcDbSpline
 70
8
 71
3
 72
8
 73
4
 74
0
 40
0
 40
0
 40
0
 40
0
 40
1
 40
1
 40
1
 40
1
 10
-167.857982
 20
29.915531
 30
0.0
 10
-166.643599
 20
28.273025
 30
0.0
 10
-165.008024
 20
26.935015
 30
0.0
 10
-163.127802
 20
26.127261
 30
0.0
  0
SPLINE
  5
11f
100
AcDbEntity
  8
0
 62
7
100
AcDbSpline
 70
8
 71
3
 72
8
 73
4
 74
0
 40
0
 40
0
 40
0
 40
0
 40
1
 40
1
 40
1
 40
1
 10
-163.127802
 20
26.127261
 30
0.0
 10
-161.059796
 20
25.225076
 30
0.0
 10
-158.750177
 20
24.970333
 30
0.0
 10
-156.516923
 20
25.198549
 30
0.0
  0
SPLINE
  5
120
100
AcDbEntity
  8
0
 62
7
100
AcDbSpline
 70
8
 71
3
 72
8
 73
4
 74
0
 40
0
 40
0
 40
0
 40
0
 40
1
 40
1
 40
1
 40
1
 10
-156.516923
 20
25.198549
 30
0.0
 10
-154.514597
 20
25.407063
 30
0.0
 10
-152.503738
 20
25.864242
 30
0.0
 10
-150.723198
 20
26.831809
 30
0.0
  0
SPLINE
  5
121
100
AcDbEntity
  8
0
 62
7
100
AcDbSpline
 70
8
 71
3
 72
8
 73
4
 74
0
 40
0
 40
0
 40
0
 40
0
 40
1
 40
1
 40
1
 40
1
 10
-150.723198
 20
26.831809
 30
0.0
 10
-149.326256
 20
27.587529
 30
0.0
 10
-148.101477
 20
28.698295
 30
0.0
 10
-147.321864
 20
30.091451
 30
0.0
  0
SPLINE
  5
122
100
AcDbEntity
  8
0
 62
7
100
AcDbSpline
 70
8
 71
3
 72
8
 73
4
 74
0
 40
0
 40
0
 40
0
 40
0
 40
1
 40
1
 40
1
 40
1
 10
-147.321864
 20
30.091451
 30
0.0
 10
-146.831427
 20
28.479618
 30
0.0
 10
-146.341118
 20
26.867745
 30
0.0
 10
-145.850454
 20
25.255981
 30
0.0
  0
SPLINE
  5
123
100
AcDbEntity
  8
0
 62
7
100
AcDbSpline
 70
8
 71
3
 72
8
 73
4
 74
0
 40
0
 40
0
 40
0
 40
0
 40
1
 40
1
 40
1
 40
1
 10
-145.850454
 20
25.255981
 30
0.0
 10
-142.305853
 20
25.471956
 30
0.0
 10
-138.761232
 20
25.687569
 30
0.0
 10
-135.216587
 20
25.902815
 30
0.0
  0
SPLINE
  5
124
100
AcDbEntity
  8
0
 62
7
100
AcDbSpline
 70
8
 71
3
 72
8
 73
4
 74
0
 40
0
 40
0
 40
0
 40
0
 40
1
 40
1
 40
1
 40
1
 10
-135.216587
 20
25.902815
 30
0.0
 10
-135.796854
 20
27.961610
 30
0.0
 10
-136.377201
 20
30.020382
 30
0.0
 10
-136.957538
 20
32.079157
 30
0.0
  0
SPLINE
  5
125
100
AcDbEntity
  8
0
 62
7
100
AcDbSpline
 70
8
 71
3
 72
8
 73
4
 74
0
 40
0
 40
0
 40
0
 40
0
 40
1
 40
1
 40
1
 40
1
 10
-136.957538
 20
32.079157
 30
0.0
 10
-136.251433
 20
32.302709
 30
0.0
 10
-135.549863
 20
32.540358
 30
0.0
 10
-134.845805
 20
32.770265
 30
0.0
  0
SPLINE
  5
126
100
AcDbEntity
  8
0
 62
7
100
AcDbSpline
 70
8
 71
3
 72
8
 73
4
 74
0
 40
0
 40
0
 40
0
 40
0
 40
1
 40
1
 40
1
 40
1
 10
-134.845805
 20
32.770265
 30
0.0
 10
-134.880698
 20
32.887357
 30
0.0
 10
-134.731595
 20
32.883821
 30
0.0
 10
-134.661646
 20
32.934118
 30
0.0
  0
SPLINE
  5
127
100
AcDbEntity
  8
0
 62
7
100
AcDbSpline
 70
8
 71
3
 72
8
 73
4
 74
0
 40
0
 40
0
 40
0
 40
0
 40
1
 40
1
 40
1
 40
1
 10
-134.661646
 20
32.934118
 30
0.0
 10
-134.555373
 20
32.982699
 30
0.0
 10
-134.450273
 20
33.033755
 30
0.0
 10
-134.345134
 20
33.084728
 30
0.0
  0
SPLINE
  5
128
100
AcDbEntity
  8
0
 62
7
100
AcDbSpline
 70
8
 71
3
 72
8
 73
4
 74
0
 40
0
 40
0
 40
0
 40
0
 40
1
 40
1
 40
1
 40
1
 10
-134.345134
 20
33.084728
 30
0.0
 10
-134.712329
 20
32.075062
 30
0.0
 10
-135.079875
 20
31.065520
 30
0.0
 10
-135.447389
 20
30.055968
 30
0.0
  0
SPLINE
  5
129
100
AcDbEntity
  8
0
 62
7
100
AcDbSpline
 70
8
 71
3
 72
8
 73
4
 74
0
 40
0
 40
0
 40
0
 40
0
 40
1
 40
1
 40
1
 40
1
 10
-135.447389
 20
30.055968
 30
0.0
 10
-132.248434
 20
28.789927
 30
0.0
 10
-129.049481
 20
27.523880
 30
0.0
 10
-125.850344
 20
26.258297
 30
0.0
  0
SPLINE
  5
12a
100
AcDbEntity
  8
0
 62
7
100
AcDbSpline
 70
8
 71
3
 72
8
 73
4
 74
0
 40
0
 40
0
 40
0
 40
0
 40
1
 40
1
 40
1
 40
1
 10
-125.850344
 20
26.258297
 30
0.0
 10
-125.239558
 20
27.779262
 30
0.0
 10
-124.628905
 20
29.300281
 30
0.0
 10
-124.018245
 20
30.821297
 30
0.0
  0
SPLINE
  5
12b
100
AcDbEntity
  8
0
 62
7
100
AcDbSpline
 70
8
 71
3
 72
8
 73
4
 74
0
 40
0
 40
0
 40
0
 40
0
 40
1
 40
1
 40
1
 40
1
 10
-124.018245
 20
30.821297
 30
0.0
 10
-123.607116
 20
29.125156
 30
0.0
 10
-123.196084
 20
27.428990
 30
0.0
 10
-122.784800
 20
25.732887
 30
0.0
  0
SPLINE
  5
12c
100
AcDbEntity
  8
0
 62
7
100
AcDbSpline
 70
8
 71
3
 72
8
 73
4
 74
0
 40
0
 40
0
 40
0
 40
0
 40
1
 40
1
 40
1
 40
1
 10
-122.784800
 20
25.732887
 30
0.0
 10
-120.724715
 20
25.750560
 30
0.0
 10
-118.664633
 20
25.768684
 30
0.0
 10
-116.604551
 20
25.786601
 30
0.0
  0
SPLINE
  5
12d
100
AcDbEntity
  8
0
 62
7
100
AcDbSpline
 70
8
 71
3
 72
8
 73
4
 74
0
 40
0
 40
0
 40
0
 40
0
 40
1
 40
1
 40
1
 40
1
 10
-116.604551
 20
25.786601
 30
0.0
 10
-116.622159
 20
25.699051
 30
0.0
 10
-116.422979
 20
25.768964
 30
0.0
 10
-116.350895
 20
25.746559
 30
0.0
  0
SPLINE
  5
12e
100
AcDbEntity
  8
0
 62
7
100
AcDbSpline
 70
8
 71
3
 72
8
 73
4
 74
0
 40
0
 40
0
 40
0
 40
0
 40
1
 40
1
 40
1
 40
1
 10
-106.313795
 20
25.746559
 30
0.0
 10
-105.690523
 20
27.820472
 30
0.0
 10
-105.067653
 20
29.894504
 30
0.0
 10
-104.444584
 20
31.968476
 30
0.0
  0
SPLINE
  5
12f
100
AcDbEntity
  8
0
 62
7
100
AcDbSpline
 70
8
 71
3
 72
8
 73
4
 74
0
 40
0
 40
0
 40
0
 40
0
 40
1
 40
1
 40
1
 40
1
 10
-104.444584
 20
31.968476
 30
0.0
 10
-104.087149
 20
32.016221
 30
0.0
 10
-103.729712
 20
32.063966
 30
0.0
 10
-103.372277
 20
32.111710
 30
0.0
  0
SPLINE
  5
130
100
AcDbEntity
  8
0
 62
7
100
AcDbSpline
 70
8
 71
3
 72
8
 73
4
 74
0
 40
0
 40
0
 40
0
 40
0
 40
1
 40
1
 40
1
 40
1
 10
-103.372277
 20
32.111710
 30
0.0
 10
-103.215301
 20
31.189921
 30
0.0
 10
-103.058433
 20
30.268113
 30
0.0
 10
-102.901556
 20
29.346306
 30
0.0
  0
SPLINE
  5
131
100
AcDbEntity
  8
0
 62
7
100
AcDbSpline
 70
8
 71
3
 72
8
 73
4
 74
0
 40
0
 40
0
 40
0
 40
0
 40
1
 40
1
 40
1
 40
1
 10
-102.901556
 20
29.346306
 30
0.0
 10
-102.277722
 20
29.349740
 30
0.0
 10
-101.652867
 20
29.339523
 30
0.0
 10
-101.029658
 20
29.351273
 30
0.0
  0
SPLINE
  5
132
100
AcDbEntity
  8
0
 62
7
100
AcDbSpline
 70
8
 71
3
 72
8
 73
4
 74
0
 40
0
 40
0
 40
0
 40
0
 40
1
 40
1
 40
1
 40
1
 10
-101.029658
 20
29.351273
 30
0.0
 10
-97.152302
 20
29.931300
 30
0.0
 10
-93.274853
 20
30.510717
 30
0.0
 10
-89.397463
 20
31.090509
 30
0.0
  0
SPLINE
  5
133
100
AcDbEntity
  8
0
 62
7
100
AcDbSpline
 70
8
 71
3
 72
8
 73
4
 74
0
 40
0
 40
0
 40
0
 40
0
 40
1
 40
1
 40
1
 40
1
 10
-89.397463
 20
31.090509
 30
0.0
 10
-89.114383
 20
29.178975
 30
0.0
 10
-88.831446
 20
27.267419
 30
0.0
 10
-88.548147
 20
25.355916
 30
0.0
  0
LWPOLYLINE
  5
134
100
AcDbEntity
  8
0
 62
7
100
AcDbPolyline
 90
2
 70
0
 10
-116.350895
 20
25.746559
 30
0.0
 10
-106.313795
 20
25.746559
 30
0.0
  0
SPLINE
  5
135
100
AcDbEntity
  8
0
 62
7
100
AcDbSpline
 70
8
 71
3
 72
8
 73
4
 74
0
 40
0
 40
0
 40
0
 40
0
 40
1
 40
1
 40
1
 40
1
 10
-77.963108
 20
25.355916
 30
0.0
 10
-78.310781
 20
27.550586
 30
0.0
 10
-78.658823
 20
29.745198
 30
0.0
 10
-79.006768
 20
31.939825
 30
0.0
  0
SPLINE
  5
136
100
AcDbEntity
  8
0
 62
7
100
AcDbSpline
 70
8
 71
3
 72
8
 73
4
 74
0
 40
0
 40
0
 40
0
 40
0
 40
1
 40
1
 40
1
 40
1
 10
-79.006768
 20
31.939825
 30
0.0
 10
-77.860783
 20
30.939137
 30
0.0
 10
-76.714797
 20
29.938447
 30
0.0
 10
-75.568812
 20
28.937759
 30
0.0
  0
LWPOLYLINE
  5
137
100
AcDbEntity
  8
0
 62
7
100
AcDbPolyline
 90
2
 70
0
 10
-88.548147
 20
25.355916
 30
0.0
 10
-77.963108
 20
25.355916
 30
0.0
  0
SPLINE
  5
138
100
AcDbEntity
  8
0
 62
7
100
AcDbSpline
 70
8
 71
3
 72
8
 73
4
 74
0
 40
0
 40
0
 40
0
 40
0
 40
1
 40
1
 40
1
 40
1
 10
-75.568812
 20
27.275261
 30
0.0
 10
-72.464814
 20
28.060617
 30
0.0
 10
-69.360910
 20
28.846346
 30
0.0
 10
-66.256935
 20
29.631795
 30
0.0
  0
SPLINE
  5
139
100
AcDbEntity
  8
0
 62
7
100
AcDbSpline
 70
8
 71
3
 72
8
 73
4
 74
0
 40
0
 40
0
 40
0
 40
0
 40
1
 40
1
 40
1
 40
1
 10
-66.256935
 20
29.631795
 30
0.0
 10
-64.649122
 20
28.105049
 30
0.0
 10
-63.041281
 20
26.578333
 30
0.0
 10
-61.433510
 20
25.051543
 30
0.0
  0
SPLINE
  5
13a
100
AcDbEntity
  8
0
 62
7
100
AcDbSpline
 70
8
 71
3
 72
8
 73
4
 74
0
 40
0
 40
0
 40
0
 40
0
 40
1
 40
1
 40
1
 40
1
 10
-61.433510
 20
25.051543
 30
0.0
 10
-59.009878
 20
27.548341
 30
0.0
 10
-56.586256
 20
30.045148
 30
0.0
 10
-54.162074
 20
32.541411
 30
0.0
  0
SPLINE
  5
13b
100
AcDbEntity
  8
0
 62
7
100
AcDbSpline
 70
8
 71
3
 72
8
 73
4
 74
0
 40
0
 40
0
 40
0
 40
0
 40
1
 40
1
 40
1
 40
1
 10
-54.162074
 20
32.541411
 30
0.0
 10
-54.864360
 20
33.195079
 30
0.0
 10
-55.566660
 20
33.848731
 30
0.0
 10
-56.268925
 20
34.502422
 30
0.0
  0
SPLINE
  5
13c
100
AcDbEntity
  8
0
 62
7
100
AcDbSpline
 70
8
 71
3
 72
8
 73
4
 74
0
 40
0
 40
0
 40
0
 40
0
 40
1
 40
1
 40
1
 40
1
 10
-56.268925
 20
34.502422
 30
0.0
 10
-54.562899
 20
34.232430
 30
0.0
 10
-52.856882
 20
33.962390
 30
0.0
 10
-51.150893
 20
33.692171
 30
0.0
  0
LWPOLYLINE
  5
13d
100
AcDbEntity
  8
0
 62
7
100
AcDbPolyline
 90
2
 70
0
 10
-75.568812
 20
28.937759
 30
0.0
 10
-75.568812
 20
27.275261
 30
0.0
  0
SPLINE
  5
13e
100
AcDbEntity
  8
0
 62
7
100
AcDbSpline
 70
8
 71
3
 72
8
 73
4
 74
0
 40
0
 40
0
 40
0
 40
0
 40
1
 40
1
 40
1
 40
1
 10
-51.150893
 20
35.357273
 30
0.0
 10
-49.128267
 20
37.972081
 30
0.0
 10
-47.105681
 20
40.586918
 30
0.0
 10
-45.082954
 20
43.201646
 30
0.0
  0
SPLINE
  5
13f
100
AcDbEntity
  8
0
 62
7
100
AcDbSpline
 70
8
 71
3
 72
8
 73
4
 74
0
 40
0
 40
0
 40
0
 40
0
 40
1
 40
1
 40
1
 40
1
 10
-45.082954
 20
43.201646
 30
0.0
 10
-46.861560
 20
43.432113
 30
0.0
 10
-48.640169
 20
43.662560
 30
0.0
 10
-50.418768
 20
43.893079
 30
0.0
  0
SPLINE
  5
140
100
AcDbEntity
  8
0
 62
7
100
AcDbSpline
 70
8
 71
3
 72
8
 73
4
 74
0
 40
0
 40
0
 40
0
 40
0
 40
1
 40
1
 40
1
 40
1
 10
-50.418768
 20
43.893079
 30
0.0
 10
-49.542651
 20
44.788043
 30
0.0
 10
-49.087523
 20
46.041162
 30
0.0
 10
-49.069237
 20
47.283650
 30
0.0
  0
SPLINE
  5
141
100
AcDbEntity
  8
0
 62
7
100
AcDbSpline
 70
8
 71
3
 72
8
 73
4
 74
0
 40
0
 40
0
 40
0
 40
0
 40
1
 40
1
 40
1
 40
1
 10
-49.069237
 20
47.283650
 30
0.0
 10
-49.040097
 20
48.478735
 30
0.0
 10
-49.457025
 20
49.683661
 30
0.0
 10
-50.246235
 20
50.585390
 30
0.0
  0
SPLINE
  5
142
100
AcDbEntity
  8
0
 62
7
100
AcDbSpline
 70
8
 71
3
 72
8
 73
4
 74
0
 40
0
 40
0
 40
0
 40
0
 40
1
 40
1
 40
1
 40
1
 10
-50.246235
 20
50.585390
 30
0.0
 10
-49.733304
 20
50.521153
 30
0.0
 10
-49.220371
 20
50.456913
 30
0.0
 10
-48.707440
 20
50.392676
 30
0.0
  0
SPLINE
  5
143
100
AcDbEntity
  8
0
 62
7
100
AcDbSpline
 70
8
 71
3
 72
8
 73
4
 74
0
 40
0
 40
0
 40
0
 40
0
 40
1
 40
1
 40
1
 40
1
 10
-48.707440
 20
50.392676
 30
0.0
 10
-48.704473
 20
51.115530
 30
0.0
 10
-48.713357
 20
51.839176
 30
0.0
 10
-48.703006
 20
52.561538
 30
0.0
  0
SPLINE
  5
144
100
AcDbEntity
  8
0
 62
7
100
AcDbSpline
 70
8
 71
3
 72
8
 73
4
 74
0
 40
0
 40
0
 40
0
 40
0
 40
1
 40
1
 40
1
 40
1
 10
-48.703006
 20
52.561538
 30
0.0
 10
-47.902476
 20
58.533608
 30
0.0
 10
-47.101952
 20
64.505679
 30
0.0
 10
-46.301418
 20
70.477748
 30
0.0
  0
SPLINE
  5
145
100
AcDbEntity
  8
0
 62
7
100
AcDbSpline
 70
8
 71
3
 72
8
 73
4
 74
0
 40
0
 40
0
 40
0
 40
0
 40
1
 40
1
 40
1
 40
1
 10
-46.301418
 20
70.477748
 30
0.0
 10
-49.852842
 20
70.799764
 30
0.0
 10
-53.404342
 20
71.120946
 30
0.0
 10
-56.955795
 20
71.442629
 30
0.0
  0
SPLINE
  5
146
100
AcDbEntity
  8
0
 62
7
100
AcDbSpline
 70
8
 71
3
 72
8
 73
4
 74
0
 40
0
 40
0
 40
0
 40
0
 40
1
 40
1
 40
1
 40
1
 10
-56.955795
 20
71.442629
 30
0.0
 10
-57.021336
 20
70.785269
 30
0.0
 10
-57.086876
 20
70.127909
 30
0.0
 10
-57.152417
 20
69.470549
 30
0.0
  0
LWPOLYLINE
  5
147
100
AcDbEntity
  8
0
 62
7
100
AcDbPolyline
 90
2
 70
0
 10
-51.150893
 20
33.692171
 30
0.0
 10
-51.150893
 20
35.357273
 30
0.0
  0
LWPOLYLINE
  5
148
100
AcDbEntity
  8
0
 62
7
100
AcDbPolyline
 90
1
 70
1
 10
-57.152417
 20
69.470549
 30
0.0
  0
SPLINE
  5
149
100
AcDbEntity
  8
0
 62
7
100
AcDbSpline
 70
8
 71
3
 72
8
 73
4
 74
0
 40
0
 40
0
 40
0
 40
0
 40
1
 40
1
 40
1
 40
1
 10
-68.494650
 20
46.070248
 30
0.0
 10
-68.983579
 20
46.534591
 30
0.0
 10
-69.472765
 20
46.998662
 30
0.0
 10
-69.961502
 20
47.463205
 30
0.0
  0
SPLINE
  5
14a
100
AcDbEntity
  8
0
 62
7
100
AcDbSpline
 70
8
 71
3
 72
8
 73
4
 74
0
 40
0
 40
0
 40
0
 40
0
 40
1
 40
1
 40
1
 40
1
 10
-69.961502
 20
47.463205
 30
0.0
 10
-69.593470
 20
48.047885
 30
0.0
 10
-69.225389
 20
48.632537
 30
0.0
 10
-68.857294
 20
49.217178
 30
0.0
  0
SPLINE
  5
14b
100
AcDbEntity
  8
0
 62
7
100
AcDbSpline
 70
8
 71
3
 72
8
 73
4
 74
0
 40
0
 40
0
 40
0
 40
0
 40
1
 40
1
 40
1
 40
1
 10
-68.857294
 20
49.217178
 30
0.0
 10
-68.845893
 20
49.118108
 30
0.0
 10
-68.834506
 20
49.019037
 30
0.0
 10
-68.823112
 20
48.919967
 30
0.0
  0
LWPOLYLINE
  5
14c
100
AcDbEntity
  8
0
 62
7
100
AcDbPolyline
 90
2
 70
0
 10
-68.823112
 20
48.919967
 30
0.0
 10
-68.494650
 20
46.070248
 30
0.0
  0
SPLINE
  5
14d
100
AcDbEntity
  8
0
 62
7
100
AcDbSpline
 70
8
 71
3
 72
8
 73
4
 74
0
 40
0
 40
0
 40
0
 40
0
 40
1
 40
1
 40
1
 40
1
 10
-120.222852
 20
40.861717
 30
0.0
 10
-120.084707
 20
40.804550
 30
0.0
 10
-119.931988
 20
40.743126
 30
0.0
 10
-119.832539
 20
40.631565
 30
0.0
  0
SPLINE
  5
14e
100
AcDbEntity
  8
0
 62
7
100
AcDbSpline
 70
8
 71
3
 72
8
 73
4
 74
0
 40
0
 40
0
 40
0
 40
0
 40
1
 40
1
 40
1
 40
1
 10
-119.832539
 20
40.631565
 30
0.0
 10
-119.855570
 20
40.570471
 30
0.0
 10
-119.852278
 20
40.427934
 30
0.0
 10
-119.932803
 20
40.438849
 30
0.0
  0
SPLINE
  5
14f
100
AcDbEntity
  8
0
 62
7
100
AcDbSpline
 70
8
 71
3
 72
8
 73
4
 74
0
 40
0
 40
0
 40
0
 40
0
 40
1
 40
1
 40
1
 40
1
 10
-119.932803
 20
40.438849
 30
0.0
 10
-120.120055
 20
40.470447
 30
0.0
 10
-120.298078
 20
40.538697
 30
0.0
 10
-120.477094
 20
40.599664
 30
0.0
  0
LWPOLYLINE
  5
150
100
AcDbEntity
  8
0
 62
7
100
AcDbPolyline
 90
1
 70
1
 10
-68.823112
 20
48.919967
 30
0.0
  0
SPLINE
  5
151
100
AcDbEntity
  8
0
 62
7
100
AcDbSpline
 70
8
 71
3
 72
8
 73
4
 74
0
 40
0
 40
0
 40
0
 40
0
 40
1
 40
1
 40
1
 40
1
 10
-120.370970
 20
40.915756
 30
0.0
 10
-120.321598
 20
40.897744
 30
0.0
 10
-120.272226
 20
40.879730
 30
0.0
 10
-120.222852
 20
40.861717
 30
0.0
  0
LWPOLYLINE
  5
152
100
AcDbEntity
  8
0
 62
7
100
AcDbPolyline
 90
2
 70
0
 10
-120.477094
 20
40.599664
 30
0.0
 10
-120.370970
 20
40.915756
 30
0.0
  0
SPLINE
  5
153
100
AcDbEntity
  8
0
 62
7
100
AcDbSpline
 70
8
 71
3
 72
8
 73
4
 74
0
 40
0
 40
0
 40
0
 40
0
 40
1
 40
1
 40
1
 40
1
 10
-139.267848
 20
40.416389
 30
0.0
 10
-139.202883
 20
40.329390
 30
0.0
 10
-139.379275
 20
40.282843
 30
0.0
 10
-139.413521
 20
40.292294
 30
0.0
  0
SPLINE
  5
154
100
AcDbEntity
  8
0
 62
7
100
AcDbSpline
 70
8
 71
3
 72
8
 73
4
 74
0
 40
0
 40
0
 40
0
 40
0
 40
1
 40
1
 40
1
 40
1
 10
-139.413521
 20
40.292294
 30
0.0
 10
-139.494571
 20
40.406355
 30
0.0
 10
-139.346094
 20
40.398600
 30
0.0
 10
-139.268173
 20
40.416389
 30
0.0
  0
LWPOLYLINE
  5
155
100
AcDbEntity
  8
0
 62
7
100
AcDbPolyline
 90
1
 70
1
 10
-120.222852
 20
40.861717
 30
0.0
  0
LWPOLYLINE
  5
156
100
AcDbEntity
  8
0
 62
7
100
AcDbPolyline
 90
2
 70
0
 10
-139.268173
 20
40.416389
 30
0.0
 10
-139.267848
 20
40.416389
 30
0.0
  0
SPLINE
  5
157
100
AcDbEntity
  8
0
 62
7
100
AcDbSpline
 70
8
 71
3
 72
8
 73
4
 74
0
 40
0
 40
0
 40
0
 40
0
 40
1
 40
1
 40
1
 40
1
 10
-52.262303
 20
66.764238
 30
0.0
 10
-52.599368
 20
66.764238
 30
0.0
 10
-52.903243
 20
66.561195
 30
0.0
 10
-53.032232
 20
66.249788
 30
0.0
  0
SPLINE
  5
158
100
AcDbEntity
  8
0
 62
7
100
AcDbSpline
 70
8
 71
3
 72
8
 73
4
 74
0
 40
0
 40
0
 40
0
 40
0
 40
1
 40
1
 40
1
 40
1
 10
-53.032232
 20
66.249788
 30
0.0
 10
-53.161221
 20
65.938381
 30
0.0
 10
-53.089922
 20
65.579936
 30
0.0
 10
-52.851581
 20
65.341595
 30
0.0
  0
SPLINE
  5
159
100
AcDbEntity
  8
0
 62
7
100
AcDbSpline
 70
8
 71
3
 72
8
 73
4
 74
0
 40
0
 40
0
 40
0
 40
0
 40
1
 40
1
 40
1
 40
1
 10
-52.851581
 20
65.341595
 30
0.0
 10
-52.613240
 20
65.103254
 30
0.0
 10
-52.254795
 20
65.031955
 30
0.0
 10
-51.943388
 20
65.160944
 30
0.0
  0
SPLINE
  5
15a
100
AcDbEntity
  8
0
 62
7
100
AcDbSpline
 70
8
 71
3
 72
8
 73
4
 74
0
 40
0
 40
0
 40
0
 40
0
 40
1
 40
1
 40
1
 40
1
 10
-51.943388
 20
65.160944
 30
0.0
 10
-51.631981
 20
65.289933
 30
0.0
 10
-51.428938
 20
65.593808
 30
0.0
 10
-51.428938
 20
65.930873
 30
0.0
  0
SPLINE
  5
15b
100
AcDbEntity
  8
0
 62
7
100
AcDbSpline
 70
8
 71
3
 72
8
 73
4
 74
0
 40
0
 40
0
 40
0
 40
0
 40
1
 40
1
 40
1
 40
1
 10
-51.428938
 20
65.930873
 30
0.0
 10
-51.428938
 20
66.151895
 30
0.0
 10
-51.516739
 20
66.363865
 30
0.0
 10
-51.673025
 20
66.520151
 30
0.0
  0
SPLINE
  5
15c
100
AcDbEntity
  8
0
 62
7
100
AcDbSpline
 70
8
 71
3
 72
8
 73
4
 74
0
 40
0
 40
0
 40
0
 40
0
 40
1
 40
1
 40
1
 40
1
 10
-51.673025
 20
66.520151
 30
0.0
 10
-51.829311
 20
66.676437
 30
0.0
 10
-52.041281
 20
66.764238
 30
0.0
 10
-52.262303
 20
66.764238
 30
0.0
  0
LWPOLYLINE
  5
15d
100
AcDbEntity
  8
0
 62
7
100
AcDbPolyline
 90
6
 70
1
 10
-50.707242
 20
52.658702
 30
0.0
 10
-56.744138
 20
53.413731
 30
0.0
 10
-55.162412
 20
69.271000
 30
0.0
 10
-48.560494
 20
68.674311
 30
0.0
 10
-50.707242
 20
52.660369
 30
0.0
 10
-50.707242
 20
52.660369
 30
0.0
  0
SPLINE
  5
15e
100
AcDbEntity
  8
0
 62
7
100
AcDbSpline
 70
8
 71
3
 72
8
 73
4
 74
0
 40
0
 40
0
 40
0
 40
0
 40
1
 40
1
 40
1
 40
1
 10
-52.762322
 20
62.012391
 30
0.0
 10
-53.099387
 20
62.012391
 30
0.0
 10
-53.403262
 20
61.809348
 30
0.0
 10
-53.532251
 20
61.497941
 30
0.0
  0
SPLINE
  5
15f
100
AcDbEntity
  8
0
 62
7
100
AcDbSpline
 70
8
 71
3
 72
8
 73
4
 74
0
 40
0
 40
0
 40
0
 40
0
 40
1
 40
1
 40
1
 40
1
 10
-53.532251
 20
61.497941
 30
0.0
 10
-53.661240
 20
61.186534
 30
0.0
 10
-53.589941
 20
60.828089
 30
0.0
 10
-53.351600
 20
60.589748
 30
0.0
  0
SPLINE
  5
160
100
AcDbEntity
  8
0
 62
7
100
AcDbSpline
 70
8
 71
3
 72
8
 73
4
 74
0
 40
0
 40
0
 40
0
 40
0
 40
1
 40
1
 40
1
 40
1
 10
-53.351600
 20
60.589748
 30
0.0
 10
-53.113259
 20
60.351407
 30
0.0
 10
-52.754814
 20
60.280108
 30
0.0
 10
-52.443407
 20
60.409097
 30
0.0
  0
SPLINE
  5
161
100
AcDbEntity
  8
0
 62
7
100
AcDbSpline
 70
8
 71
3
 72
8
 73
4
 74
0
 40
0
 40
0
 40
0
 40
0
 40
1
 40
1
 40
1
 40
1
 10
-52.443407
 20
60.409097
 30
0.0
 10
-52.132000
 20
60.538086
 30
0.0
 10
-51.928957
 20
60.841961
 30
0.0
 10
-51.928957
 20
61.179026
 30
0.0
  0
SPLINE
  5
162
100
AcDbEntity
  8
0
 62
7
100
AcDbSpline
 70
8
 71
3
 72
8
 73
4
 74
0
 40
0
 40
0
 40
0
 40
0
 40
1
 40
1
 40
1
 40
1
 10
-51.928957
 20
61.179026
 30
0.0
 10
-51.928957
 20
61.400048
 30
0.0
 10
-52.016758
 20
61.612018
 30
0.0
 10
-52.173044
 20
61.768304
 30
0.0
  0
SPLINE
  5
163
100
AcDbEntity
  8
0
 62
7
100
AcDbSpline
 70
8
 71
3
 72
8
 73
4
 74
0
 40
0
 40
0
 40
0
 40
0
 40
1
 40
1
 40
1
 40
1
 10
-52.173044
 20
61.768304
 30
0.0
 10
-52.329330
 20
61.924590
 30
0.0
 10
-52.541300
 20
62.012391
 30
0.0
 10
-52.762322
 20
62.012391
 30
0.0
  0
LWPOLYLINE
  5
164
100
AcDbEntity
  8
0
 62
7
100
AcDbPolyline
 90
1
 70
1
 10
-52.262303
 20
66.764238
 30
0.0
  0
SPLINE
  5
165
100
AcDbEntity
  8
0
 62
7
100
AcDbSpline
 70
8
 71
3
 72
8
 73
4
 74
0
 40
0
 40
0
 40
0
 40
0
 40
1
 40
1
 40
1
 40
1
 10
-53.430683
 20
57.262210
 30
0.0
 10
-53.767747
 20
57.262210
 30
0.0
 10
-54.071622
 20
57.059167
 30
0.0
 10
-54.200611
 20
56.747760
 30
0.0
  0
SPLINE
  5
166
100
AcDbEntity
  8
0
 62
7
100
AcDbSpline
 70
8
 71
3
 72
8
 73
4
 74
0
 40
0
 40
0
 40
0
 40
0
 40
1
 40
1
 40
1
 40
1
 10
-54.200611
 20
56.747760
 30
0.0
 10
-54.329600
 20
56.436353
 30
0.0
 10
-54.258301
 20
56.077908
 30
0.0
 10
-54.019961
 20
55.839567
 30
0.0
  0
SPLINE
  5
167
100
AcDbEntity
  8
0
 62
7
100
AcDbSpline
 70
8
 71
3
 72
8
 73
4
 74
0
 40
0
 40
0
 40
0
 40
0
 40
1
 40
1
 40
1
 40
1
 10
-54.019961
 20
55.839567
 30
0.0
 10
-53.781620
 20
55.601226
 30
0.0
 10
-53.423175
 20
55.529927
 30
0.0
 10
-53.111768
 20
55.658916
 30
0.0
  0
SPLINE
  5
168
100
AcDbEntity
  8
0
 62
7
100
AcDbSpline
 70
8
 71
3
 72
8
 73
4
 74
0
 40
0
 40
0
 40
0
 40
0
 40
1
 40
1
 40
1
 40
1
 10
-53.111768
 20
55.658916
 30
0.0
 10
-52.800360
 20
55.787905
 30
0.0
 10
-52.597318
 20
56.091780
 30
0.0
 10
-52.597318
 20
56.428845
 30
0.0
  0
SPLINE
  5
169
100
AcDbEntity
  8
0
 62
7
100
AcDbSpline
 70
8
 71
3
 72
8
 73
4
 74
0
 40
0
 40
0
 40
0
 40
0
 40
1
 40
1
 40
1
 40
1
 10
-52.597318
 20
56.428845
 30
0.0
 10
-52.597318
 20
56.649867
 30
0.0
 10
-52.685118
 20
56.861837
 30
0.0
 10
-52.841405
 20
57.018123
 30
0.0
  0
SPLINE
  5
16a
100
AcDbEntity
  8
0
 62
7
100
AcDbSpline
 70
8
 71
3
 72
8
 73
4
 74
0
 40
0
 40
0
 40
0
 40
0
 40
1
 40
1
 40
1
 40
1
 10
-52.841405
 20
57.018123
 30
0.0
 10
-52.997691
 20
57.174409
 30
0.0
 10
-53.209660
 20
57.262210
 30
0.0
 10
-53.430683
 20
57.262210
 30
0.0
  0
LWPOLYLINE
  5
16b
100
AcDbEntity
  8
0
 62
7
100
AcDbPolyline
 90
1
 70
1
 10
-52.762322
 20
62.012391
 30
0.0
  0
SPLINE
  5
16c
100
AcDbEntity
  8
0
 62
7
100
AcDbSpline
 70
8
 71
3
 72
8
 73
4
 74
0
 40
0
 40
0
 40
0
 40
0
 40
1
 40
1
 40
1
 40
1
 10
-153.292807
 20
43.313347
 30
0.0
 10
-154.629525
 20
45.118416
 30
0.0
 10
-156.776273
 20
45.870111
 30
0.0
 10
-158.604676
 20
45.666770
 30
0.0
  0
SPLINE
  5
16d
100
AcDbEntity
  8
0
 62
7
100
AcDbSpline
 70
8
 71
3
 72
8
 73
4
 74
0
 40
0
 40
0
 40
0
 40
0
 40
1
 40
1
 40
1
 40
1
 10
-158.604676
 20
45.666770
 30
0.0
 10
-159.753053
 20
45.538432
 30
0.0
 10
-160.369743
 20
44.660065
 30
0.0
 10
-160.254738
 20
43.620025
 30
0.0
  0
SPLINE
  5
16e
100
AcDbEntity
  8
0
 62
7
100
AcDbSpline
 70
8
 71
3
 72
8
 73
4
 74
0
 40
0
 40
0
 40
0
 40
0
 40
1
 40
1
 40
1
 40
1
 10
-160.254738
 20
43.620025
 30
0.0
 10
-159.878057
 20
40.236563
 30
0.0
 10
-149.360991
 20
44.801737
 30
0.0
 10
-148.315951
 20
35.393046
 30
0.0
  0
SPLINE
  5
16f
100
AcDbEntity
  8
0
 62
7
100
AcDbSpline
 70
8
 71
3
 72
8
 73
4
 74
0
 40
0
 40
0
 40
0
 40
0
 40
1
 40
1
 40
1
 40
1
 10
-148.315951
 20
35.393046
 30
0.0
 10
-147.844267
 20
31.149551
 30
0.0
 10
-150.181022
 20
27.914429
 30
0.0
 10
-156.552931
 20
27.206068
 30
0.0
  0
SPLINE
  5
170
100
AcDbEntity
  8
0
 62
7
100
AcDbSpline
 70
8
 71
3
 72
8
 73
4
 74
0
 40
0
 40
0
 40
0
 40
0
 40
1
 40
1
 40
1
 40
1
 10
-156.552931
 20
27.206068
 30
0.0
 10
-160.914763
 20
26.721050
 30
0.0
 10
-164.448231
 20
28.311110
 30
0.0
 10
-166.646648
 20
31.672905
 30
0.0
  0
LWPOLYLINE
  5
171
100
AcDbEntity
  8
0
 62
7
100
AcDbPolyline
 90
1
 70
1
 10
-53.430683
 20
57.262210
 30
0.0
  0
SPLINE
  5
172
100
AcDbEntity
  8
0
 62
7
100
AcDbSpline
 70
8
 71
3
 72
8
 73
4
 74
0
 40
0
 40
0
 40
0
 40
0
 40
1
 40
1
 40
1
 40
1
 10
-162.954841
 20
35.088034
 30
0.0
 10
-161.411449
 20
33.096292
 30
0.0
 10
-159.026358
 20
32.099588
 30
0.0
 10
-156.937946
 20
32.331263
 30
0.0
  0
SPLINE
  5
173
100
AcDbEntity
  8
0
 62
7
100
AcDbSpline
 70
8
 71
3
 72
8
 73
4
 74
0
 40
0
 40
0
 40
0
 40
0
 40
1
 40
1
 40
1
 40
1
 10
-156.937946
 20
32.331263
 30
0.0
 10
-155.789569
 20
32.459601
 30
0.0
 10
-155.121210
 20
33.344635
 30
0.0
 10
-155.239548
 20
34.413009
 30
0.0
  0
SPLINE
  5
174
100
AcDbEntity
  8
0
 62
7
100
AcDbSpline
 70
8
 71
3
 72
8
 73
4
 74
0
 40
0
 40
0
 40
0
 40
0
 40
1
 40
1
 40
1
 40
1
 10
-155.239548
 20
34.413009
 30
0.0
 10
-155.632896
 20
37.944810
 30
0.0
 10
-166.088293
 20
33.777985
 30
0.0
 10
-167.083331
 20
42.739992
 30
0.0
  0
SPLINE
  5
175
100
AcDbEntity
  8
0
 62
7
100
AcDbSpline
 70
8
 71
3
 72
8
 73
4
 74
0
 40
0
 40
0
 40
0
 40
0
 40
1
 40
1
 40
1
 40
1
 10
-167.083331
 20
42.739992
 30
0.0
 10
-167.568350
 20
47.101824
 30
0.0
 10
-164.949917
 20
50.428617
 30
0.0
 10
-159.179698
 20
51.070308
 30
0.0
  0
SPLINE
  5
176
100
AcDbEntity
  8
0
 62
7
100
AcDbSpline
 70
8
 71
3
 72
8
 73
4
 74
0
 40
0
 40
0
 40
0
 40
0
 40
1
 40
1
 40
1
 40
1
 10
-159.179698
 20
51.070308
 30
0.0
 10
-154.949537
 20
51.540326
 30
0.0
 10
-151.296065
 20
49.603586
 30
0.0
 10
-149.320990
 20
46.096786
 30
0.0
  0
LWPOLYLINE
  5
177
100
AcDbEntity
  8
0
 62
7
100
AcDbPolyline
 90
2
 70
0
 10
-166.646648
 20
31.672905
 30
0.0
 10
-162.954841
 20
35.088034
 30
0.0
  0
SPLINE
  5
178
100
AcDbEntity
  8
0
 62
7
100
AcDbSpline
 70
8
 71
3
 72
8
 73
4
 74
0
 40
0
 40
0
 40
0
 40
0
 40
1
 40
1
 40
1
 40
1
 10
-153.306141
 20
47.436837
 30
0.0
 10
-153.643206
 20
47.436837
 30
0.0
 10
-153.947081
 20
47.233794
 30
0.0
 10
-154.076070
 20
46.922387
 30
0.0
  0
SPLINE
  5
179
100
AcDbEntity
  8
0
 62
7
100
AcDbSpline
 70
8
 71
3
 72
8
 73
4
 74
0
 40
0
 40
0
 40
0
 40
0
 40
1
 40
1
 40
1
 40
1
 10
-154.076070
 20
46.922387
 30
0.0
 10
-154.205059
 20
46.610980
 30
0.0
 10
-154.133760
 20
46.252535
 30
0.0
 10
-153.895419
 20
46.014194
 30
0.0
  0
SPLINE
  5
17a
100
AcDbEntity
  8
0
 62
7
100
AcDbSpline
 70
8
 71
3
 72
8
 73
4
 74
0
 40
0
 40
0
 40
0
 40
0
 40
1
 40
1
 40
1
 40
1
 10
-153.895419
 20
46.014194
 30
0.0
 10
-153.657078
 20
45.775853
 30
0.0
 10
-153.298633
 20
45.704554
 30
0.0
 10
-152.987226
 20
45.833543
 30
0.0
  0
SPLINE
  5
17b
100
AcDbEntity
  8
0
 62
7
100
AcDbSpline
 70
8
 71
3
 72
8
 73
4
 74
0
 40
0
 40
0
 40
0
 40
0
 40
1
 40
1
 40
1
 40
1
 10
-152.987226
 20
45.833543
 30
0.0
 10
-152.675819
 20
45.962532
 30
0.0
 10
-152.472776
 20
46.266407
 30
0.0
 10
-152.472776
 20
46.603472
 30
0.0
  0
SPLINE
  5
17c
100
AcDbEntity
  8
0
 62
7
100
AcDbSpline
 70
8
 71
3
 72
8
 73
4
 74
0
 40
0
 40
0
 40
0
 40
0
 40
1
 40
1
 40
1
 40
1
 10
-152.472776
 20
46.603472
 30
0.0
 10
-152.472776
 20
46.824494
 30
0.0
 10
-152.560577
 20
47.036464
 30
0.0
 10
-152.716863
 20
47.192750
 30
0.0
  0
SPLINE
  5
17d
100
AcDbEntity
  8
0
 62
7
100
AcDbSpline
 70
8
 71
3
 72
8
 73
4
 74
0
 40
0
 40
0
 40
0
 40
0
 40
1
 40
1
 40
1
 40
1
 10
-152.716863
 20
47.192750
 30
0.0
 10
-152.873149
 20
47.349036
 30
0.0
 10
-153.085119
 20
47.436837
 30
0.0
 10
-153.306141
 20
47.436837
 30
0.0
  0
LWPOLYLINE
  5
17e
100
AcDbEntity
  8
0
 62
7
100
AcDbPolyline
 90
4
 70
0
 10
-149.320990
 20
46.096786
 30
0.0
 10
-153.294474
 20
43.311680
 30
0.0
 10
-153.292807
 20
43.311680
 30
0.0
 10
-153.292807
 20
43.313347
 30
0.0
  0
SPLINE
  5
17f
100
AcDbEntity
  8
0
 62
7
100
AcDbSpline
 70
8
 71
3
 72
8
 73
4
 74
0
 40
0
 40
0
 40
0
 40
0
 40
1
 40
1
 40
1
 40
1
 10
-158.139658
 20
49.436913
 30
0.0
 10
-158.476723
 20
49.436913
 30
0.0
 10
-158.780598
 20
49.233870
 30
0.0
 10
-158.909587
 20
48.922463
 30
0.0
  0
SPLINE
  5
180
100
AcDbEntity
  8
0
 62
7
100
AcDbSpline
 70
8
 71
3
 72
8
 73
4
 74
0
 40
0
 40
0
 40
0
 40
0
 40
1
 40
1
 40
1
 40
1
 10
-158.909587
 20
48.922463
 30
0.0
 10
-159.038576
 20
48.611056
 30
0.0
 10
-158.967277
 20
48.252611
 30
0.0
 10
-158.728936
 20
48.014270
 30
0.0
  0
SPLINE
  5
181
100
AcDbEntity
  8
0
 62
7
100
AcDbSpline
 70
8
 71
3
 72
8
 73
4
 74
0
 40
0
 40
0
 40
0
 40
0
 40
1
 40
1
 40
1
 40
1
 10
-158.728936
 20
48.014270
 30
0.0
 10
-158.490595
 20
47.775929
 30
0.0
 10
-158.132150
 20
47.704630
 30
0.0
 10
-157.820743
 20
47.833619
 30
0.0
  0
SPLINE
  5
182
100
AcDbEntity
  8
0
 62
7
100
AcDbSpline
 70
8
 71
3
 72
8
 73
4
 74
0
 40
0
 40
0
 40
0
 40
0
 40
1
 40
1
 40
1
 40
1
 10
-157.820743
 20
47.833619
 30
0.0
 10
-157.509336
 20
47.962608
 30
0.0
 10
-157.306293
 20
48.266483
 30
0.0
 10
-157.306293
 20
48.603548
 30
0.0
  0
SPLINE
  5
183
100
AcDbEntity
  8
0
 62
7
100
AcDbSpline
 70
8
 71
3
 72
8
 73
4
 74
0
 40
0
 40
0
 40
0
 40
0
 40
1
 40
1
 40
1
 40
1
 10
-157.306293
 20
48.603548
 30
0.0
 10
-157.306293
 20
48.824570
 30
0.0
 10
-157.394094
 20
49.036540
 30
0.0
 10
-157.550380
 20
49.192826
 30
0.0
  0
SPLINE
  5
184
100
AcDbEntity
  8
0
 62
7
100
AcDbSpline
 70
8
 71
3
 72
8
 73
4
 74
0
 40
0
 40
0
 40
0
 40
0
 40
1
 40
1
 40
1
 40
1
 10
-157.550380
 20
49.192826
 30
0.0
 10
-157.706666
 20
49.349112
 30
0.0
 10
-157.918636
 20
49.436913
 30
0.0
 10
-158.139658
 20
49.436913
 30
0.0
  0
LWPOLYLINE
  5
185
100
AcDbEntity
  8
0
 62
7
100
AcDbPolyline
 90
1
 70
1
 10
-153.306141
 20
47.436837
 30
0.0
  0
SPLINE
  5
186
100
AcDbEntity
  8
0
 62
7
100
AcDbSpline
 70
8
 71
3
 72
8
 73
4
 74
0
 40
0
 40
0
 40
0
 40
0
 40
1
 40
1
 40
1
 40
1
 10
-163.473194
 20
47.103491
 30
0.0
 10
-163.810259
 20
47.103491
 30
0.0
 10
-164.114134
 20
46.900448
 30
0.0
 10
-164.243123
 20
46.589041
 30
0.0
  0
SPLINE
  5
187
100
AcDbEntity
  8
0
 62
7
100
AcDbSpline
 70
8
 71
3
 72
8
 73
4
 74
0
 40
0
 40
0
 40
0
 40
0
 40
1
 40
1
 40
1
 40
1
 10
-164.243123
 20
46.589041
 30
0.0
 10
-164.372112
 20
46.277634
 30
0.0
 10
-164.300813
 20
45.919189
 30
0.0
 10
-164.062472
 20
45.680848
 30
0.0
  0
SPLINE
  5
188
100
AcDbEntity
  8
0
 62
7
100
AcDbSpline
 70
8
 71
3
 72
8
 73
4
 74
0
 40
0
 40
0
 40
0
 40
0
 40
1
 40
1
 40
1
 40
1
 10
-164.062472
 20
45.680848
 30
0.0
 10
-163.824131
 20
45.442507
 30
0.0
 10
-163.465686
 20
45.371208
 30
0.0
 10
-163.154279
 20
45.500197
 30
0.0
  0
SPLINE
  5
189
100
AcDbEntity
  8
0
 62
7
100
AcDbSpline
 70
8
 71
3
 72
8
 73
4
 74
0
 40
0
 40
0
 40
0
 40
0
 40
1
 40
1
 40
1
 40
1
 10
-163.154279
 20
45.500197
 30
0.0
 10
-162.842872
 20
45.629186
 30
0.0
 10
-162.639829
 20
45.933061
 30
0.0
 10
-162.639829
 20
46.270126
 30
0.0
  0
SPLINE
  5
18a
100
AcDbEntity
  8
0
 62
7
100
AcDbSpline
 70
8
 71
3
 72
8
 73
4
 74
0
 40
0
 40
0
 40
0
 40
0
 40
1
 40
1
 40
1
 40
1
 10
-162.639829
 20
46.270126
 30
0.0
 10
-162.639829
 20
46.491148
 30
0.0
 10
-162.727630
 20
46.703118
 30
0.0
 10
-162.883916
 20
46.859404
 30
0.0
  0
SPLINE
  5
18b
100
AcDbEntity
  8
0
 62
7
100
AcDbSpline
 70
8
 71
3
 72
8
 73
4
 74
0
 40
0
 40
0
 40
0
 40
0
 40
1
 40
1
 40
1
 40
1
 10
-162.883916
 20
46.859404
 30
0.0
 10
-163.040202
 20
47.015690
 30
0.0
 10
-163.252172
 20
47.103491
 30
0.0
 10
-163.473194
 20
47.103491
 30
0.0
  0
LWPOLYLINE
  5
18c
100
AcDbEntity
  8
0
 62
7
100
AcDbPolyline
 90
1
 70
1
 10
-158.139658
 20
49.436913
 30
0.0
  0
SPLINE
  5
18d
100
AcDbEntity
  8
0
 62
7
100
AcDbSpline
 70
8
 71
3
 72
8
 73
4
 74
0
 40
0
 40
0
 40
0
 40
0
 40
1
 40
1
 40
1
 40
1
 10
-163.473194
 20
42.269974
 30
0.0
 10
-163.810259
 20
42.269974
 30
0.0
 10
-164.114134
 20
42.066931
 30
0.0
 10
-164.243123
 20
41.755524
 30
0.0
  0
SPLINE
  5
18e
100
AcDbEntity
  8
0
 62
7
100
AcDbSpline
 70
8
 71
3
 72
8
 73
4
 74
0
 40
0
 40
0
 40
0
 40
0
 40
1
 40
1
 40
1
 40
1
 10
-164.243123
 20
41.755524
 30
0.0
 10
-164.372112
 20
41.444117
 30
0.0
 10
-164.300813
 20
41.085672
 30
0.0
 10
-164.062472
 20
40.847331
 30
0.0
  0
SPLINE
  5
18f
100
AcDbEntity
  8
0
 62
7
100
AcDbSpline
 70
8
 71
3
 72
8
 73
4
 74
0
 40
0
 40
0
 40
0
 40
0
 40
1
 40
1
 40
1
 40
1
 10
-164.062472
 20
40.847331
 30
0.0
 10
-163.824131
 20
40.608990
 30
0.0
 10
-163.465686
 20
40.537691
 30
0.0
 10
-163.154279
 20
40.666680
 30
0.0
  0
SPLINE
  5
190
100
AcDbEntity
  8
0
 62
7
100
AcDbSpline
 70
8
 71
3
 72
8
 73
4
 74
0
 40
0
 40
0
 40
0
 40
0
 40
1
 40
1
 40
1
 40
1
 10
-163.154279
 20
40.666680
 30
0.0
 10
-162.842872
 20
40.795669
 30
0.0
 10
-162.639829
 20
41.099544
 30
0.0
 10
-162.639829
 20
41.436609
 30
0.0
  0
SPLINE
  5
191
100
AcDbEntity
  8
0
 62
7
100
AcDbSpline
 70
8
 71
3
 72
8
 73
4
 74
0
 40
0
 40
0
 40
0
 40
0
 40
1
 40
1
 40
1
 40
1
 10
-162.639829
 20
41.436609
 30
0.0
 10
-162.639829
 20
41.657631
 30
0.0
 10
-162.727630
 20
41.869601
 30
0.0
 10
-162.883916
 20
42.025887
 30
0.0
  0
SPLINE
  5
192
100
AcDbEntity
  8
0
 62
7
100
AcDbSpline
 70
8
 71
3
 72
8
 73
4
 74
0
 40
0
 40
0
 40
0
 40
0
 40
1
 40
1
 40
1
 40
1
 10
-162.883916
 20
42.025887
 30
0.0
 10
-163.040202
 20
42.182173
 30
0.0
 10
-163.252172
 20
42.269974
 30
0.0
 10
-163.473194
 20
42.269974
 30
0.0
  0
LWPOLYLINE
  5
193
100
AcDbEntity
  8
0
 62
7
100
AcDbPolyline
 90
1
 70
1
 10
-163.473194
 20
47.103491
 30
0.0
  0
SPLINE
  5
194
100
AcDbEntity
  8
0
 62
7
100
AcDbSpline
 70
8
 71
3
 72
8
 73
4
 74
0
 40
0
 40
0
 40
0
 40
0
 40
1
 40
1
 40
1
 40
1
 10
-157.972985
 20
40.103225
 30
0.0
 10
-158.310050
 20
40.103225
 30
0.0
 10
-158.613925
 20
39.900182
 30
0.0
 10
-158.742914
 20
39.588775
 30
0.0
  0
SPLINE
  5
195
100
AcDbEntity
  8
0
 62
7
100
AcDbSpline
 70
8
 71
3
 72
8
 73
4
 74
0
 40
0
 40
0
 40
0
 40
0
 40
1
 40
1
 40
1
 40
1
 10
-158.742914
 20
39.588775
 30
0.0
 10
-158.871903
 20
39.277368
 30
0.0
 10
-158.800604
 20
38.918923
 30
0.0
 10
-158.562263
 20
38.680582
 30
0.0
  0
SPLINE
  5
196
100
AcDbEntity
  8
0
 62
7
100
AcDbSpline
 70
8
 71
3
 72
8
 73
4
 74
0
 40
0
 40
0
 40
0
 40
0
 40
1
 40
1
 40
1
 40
1
 10
-158.562263
 20
38.680582
 30
0.0
 10
-158.323922
 20
38.442241
 30
0.0
 10
-157.965477
 20
38.370942
 30
0.0
 10
-157.654070
 20
38.499931
 30
0.0
  0
SPLINE
  5
197
100
AcDbEntity
  8
0
 62
7
100
AcDbSpline
 70
8
 71
3
 72
8
 73
4
 74
0
 40
0
 40
0
 40
0
 40
0
 40
1
 40
1
 40
1
 40
1
 10
-157.654070
 20
38.499931
 30
0.0
 10
-157.342663
 20
38.628920
 30
0.0
 10
-157.139620
 20
38.932795
 30
0.0
 10
-157.139620
 20
39.269860
 30
0.0
  0
SPLINE
  5
198
100
AcDbEntity
  8
0
 62
7
100
AcDbSpline
 70
8
 71
3
 72
8
 73
4
 74
0
 40
0
 40
0
 40
0
 40
0
 40
1
 40
1
 40
1
 40
1
 10
-157.139620
 20
39.269860
 30
0.0
 10
-157.139620
 20
39.490882
 30
0.0
 10
-157.227421
 20
39.702852
 30
0.0
 10
-157.383707
 20
39.859138
 30
0.0
  0
SPLINE
  5
199
100
AcDbEntity
  8
0
 62
7
100
AcDbSpline
 70
8
 71
3
 72
8
 73
4
 74
0
 40
0
 40
0
 40
0
 40
0
 40
1
 40
1
 40
1
 40
1
 10
-157.383707
 20
39.859138
 30
0.0
 10
-157.539993
 20
40.015424
 30
0.0
 10
-157.751963
 20
40.103225
 30
0.0
 10
-157.972985
 20
40.103225
 30
0.0
  0
LWPOLYLINE
  5
19a
100
AcDbEntity
  8
0
 62
7
100
AcDbPolyline
 90
1
 70
1
 10
-163.473194
 20
42.269974
 30
0.0
  0
SPLINE
  5
19b
100
AcDbEntity
  8
0
 62
7
100
AcDbSpline
 70
8
 71
3
 72
8
 73
4
 74
0
 40
0
 40
0
 40
0
 40
0
 40
1
 40
1
 40
1
 40
1
 10
-152.472776
 20
37.936476
 30
0.0
 10
-152.809841
 20
37.936476
 30
0.0
 10
-153.113716
 20
37.733433
 30
0.0
 10
-153.242705
 20
37.422026
 30
0.0
  0
SPLINE
  5
19c
100
AcDbEntity
  8
0
 62
7
100
AcDbSpline
 70
8
 71
3
 72
8
 73
4
 74
0
 40
0
 40
0
 40
0
 40
0
 40
1
 40
1
 40
1
 40
1
 10
-153.242705
 20
37.422026
 30
0.0
 10
-153.371694
 20
37.110619
 30
0.0
 10
-153.300395
 20
36.752174
 30
0.0
 10
-153.062054
 20
36.513833
 30
0.0
  0
SPLINE
  5
19d
100
AcDbEntity
  8
0
 62
7
100
AcDbSpline
 70
8
 71
3
 72
8
 73
4
 74
0
 40
0
 40
0
 40
0
 40
0
 40
1
 40
1
 40
1
 40
1
 10
-153.062054
 20
36.513833
 30
0.0
 10
-152.823713
 20
36.275492
 30
0.0
 10
-152.465268
 20
36.204193
 30
0.0
 10
-152.153861
 20
36.333182
 30
0.0
  0
SPLINE
  5
19e
100
AcDbEntity
  8
0
 62
7
100
AcDbSpline
 70
8
 71
3
 72
8
 73
4
 74
0
 40
0
 40
0
 40
0
 40
0
 40
1
 40
1
 40
1
 40
1
 10
-152.153861
 20
36.333182
 30
0.0
 10
-151.842454
 20
36.462171
 30
0.0
 10
-151.639411
 20
36.766046
 30
0.0
 10
-151.639411
 20
37.103111
 30
0.0
  0
SPLINE
  5
19f
100
AcDbEntity
  8
0
 62
7
100
AcDbSpline
 70
8
 71
3
 72
8
 73
4
 74
0
 40
0
 40
0
 40
0
 40
0
 40
1
 40
1
 40
1
 40
1
 10
-151.639411
 20
37.103111
 30
0.0
 10
-151.639411
 20
37.324133
 30
0.0
 10
-151.727212
 20
37.536103
 30
0.0
 10
-151.883498
 20
37.692389
 30
0.0
  0
SPLINE
  5
1a0
100
AcDbEntity
  8
0
 62
7
100
AcDbSpline
 70
8
 71
3
 72
8
 73
4
 74
0
 40
0
 40
0
 40
0
 40
0
 40
1
 40
1
 40
1
 40
1
 10
-151.883498
 20
37.692389
 30
0.0
 10
-152.039784
 20
37.848675
 30
0.0
 10
-152.251754
 20
37.936476
 30
0.0
 10
-152.472776
 20
37.936476
 30
0.0
  0
LWPOLYLINE
  5
1a1
100
AcDbEntity
  8
0
 62
7
100
AcDbPolyline
 90
1
 70
1
 10
-157.972985
 20
40.103225
 30
0.0
  0
SPLINE
  5
1a2
100
AcDbEntity
  8
0
 62
7
100
AcDbSpline
 70
8
 71
3
 72
8
 73
4
 74
0
 40
0
 40
0
 40
0
 40
0
 40
1
 40
1
 40
1
 40
1
 10
-152.639449
 20
32.602940
 30
0.0
 10
-152.976514
 20
32.602940
 30
0.0
 10
-153.280389
 20
32.399897
 30
0.0
 10
-153.409378
 20
32.088490
 30
0.0
  0
SPLINE
  5
1a3
100
AcDbEntity
  8
0
 62
7
100
AcDbSpline
 70
8
 71
3
 72
8
 73
4
 74
0
 40
0
 40
0
 40
0
 40
0
 40
1
 40
1
 40
1
 40
1
 10
-153.409378
 20
32.088490
 30
0.0
 10
-153.538367
 20
31.777083
 30
0.0
 10
-153.467068
 20
31.418638
 30
0.0
 10
-153.228727
 20
31.180297
 30
0.0
  0
SPLINE
  5
1a4
100
AcDbEntity
  8
0
 62
7
100
AcDbSpline
 70
8
 71
3
 72
8
 73
4
 74
0
 40
0
 40
0
 40
0
 40
0
 40
1
 40
1
 40
1
 40
1
 10
-153.228727
 20
31.180297
 30
0.0
 10
-152.990386
 20
30.941956
 30
0.0
 10
-152.631941
 20
30.870657
 30
0.0
 10
-152.320534
 20
30.999646
 30
0.0
  0
SPLINE
  5
1a5
100
AcDbEntity
  8
0
 62
7
100
AcDbSpline
 70
8
 71
3
 72
8
 73
4
 74
0
 40
0
 40
0
 40
0
 40
0
 40
1
 40
1
 40
1
 40
1
 10
-152.320534
 20
30.999646
 30
0.0
 10
-152.009127
 20
31.128635
 30
0.0
 10
-151.806084
 20
31.432510
 30
0.0
 10
-151.806084
 20
31.769575
 30
0.0
  0
SPLINE
  5
1a6
100
AcDbEntity
  8
0
 62
7
100
AcDbSpline
 70
8
 71
3
 72
8
 73
4
 74
0
 40
0
 40
0
 40
0
 40
0
 40
1
 40
1
 40
1
 40
1
 10
-151.806084
 20
31.769575
 30
0.0
 10
-151.806084
 20
31.990597
 30
0.0
 10
-151.893885
 20
32.202567
 30
0.0
 10
-152.050171
 20
32.358853
 30
0.0
  0
SPLINE
  5
1a7
100
AcDbEntity
  8
0
 62
7
100
AcDbSpline
 70
8
 71
3
 72
8
 73
4
 74
0
 40
0
 40
0
 40
0
 40
0
 40
1
 40
1
 40
1
 40
1
 10
-152.050171
 20
32.358853
 30
0.0
 10
-152.206457
 20
32.515139
 30
0.0
 10
-152.418427
 20
32.602940
 30
0.0
 10
-152.639449
 20
32.602940
 30
0.0
  0
LWPOLYLINE
  5
1a8
100
AcDbEntity
  8
0
 62
7
100
AcDbPolyline
 90
1
 70
1
 10
-152.472776
 20
37.936476
 30
0.0
  0
SPLINE
  5
1a9
100
AcDbEntity
  8
0
 62
7
100
AcDbSpline
 70
8
 71
3
 72
8
 73
4
 74
0
 40
0
 40
0
 40
0
 40
0
 40
1
 40
1
 40
1
 40
1
 10
-157.639639
 20
30.602864
 30
0.0
 10
-157.976704
 20
30.602864
 30
0.0
 10
-158.280579
 20
30.399821
 30
0.0
 10
-158.409568
 20
30.088414
 30
0.0
  0
SPLINE
  5
1aa
100
AcDbEntity
  8
0
 62
7
100
AcDbSpline
 70
8
 71
3
 72
8
 73
4
 74
0
 40
0
 40
0
 40
0
 40
0
 40
1
 40
1
 40
1
 40
1
 10
-158.409568
 20
30.088414
 30
0.0
 10
-158.538557
 20
29.777007
 30
0.0
 10
-158.467258
 20
29.418562
 30
0.0
 10
-158.228917
 20
29.180221
 30
0.0
  0
SPLINE
  5
1ab
100
AcDbEntity
  8
0
 62
7
100
AcDbSpline
 70
8
 71
3
 72
8
 73
4
 74
0
 40
0
 40
0
 40
0
 40
0
 40
1
 40
1
 40
1
 40
1
 10
-158.228917
 20
29.180221
 30
0.0
 10
-157.990576
 20
28.941880
 30
0.0
 10
-157.632131
 20
28.870581
 30
0.0
 10
-157.320724
 20
28.999570
 30
0.0
  0
SPLINE
  5
1ac
100
AcDbEntity
  8
0
 62
7
100
AcDbSpline
 70
8
 71
3
 72
8
 73
4
 74
0
 40
0
 40
0
 40
0
 40
0
 40
1
 40
1
 40
1
 40
1
 10
-157.320724
 20
28.999570
 30
0.0
 10
-157.009317
 20
29.128559
 30
0.0
 10
-156.806274
 20
29.432434
 30
0.0
 10
-156.806274
 20
29.769499
 30
0.0
  0
SPLINE
  5
1ad
100
AcDbEntity
  8
0
 62
7
100
AcDbSpline
 70
8
 71
3
 72
8
 73
4
 74
0
 40
0
 40
0
 40
0
 40
0
 40
1
 40
1
 40
1
 40
1
 10
-156.806274
 20
29.769499
 30
0.0
 10
-156.806274
 20
29.990521
 30
0.0
 10
-156.894075
 20
30.202491
 30
0.0
 10
-157.050361
 20
30.358777
 30
0.0
  0
SPLINE
  5
1ae
100
AcDbEntity
  8
0
 62
7
100
AcDbSpline
 70
8
 71
3
 72
8
 73
4
 74
0
 40
0
 40
0
 40
0
 40
0
 40
1
 40
1
 40
1
 40
1
 10
-157.050361
 20
30.358777
 30
0.0
 10
-157.206647
 20
30.515063
 30
0.0
 10
-157.418617
 20
30.602864
 30
0.0
 10
-157.639639
 20
30.602864
 30
0.0
  0
LWPOLYLINE
  5
1af
100
AcDbEntity
  8
0
 62
7
100
AcDbPolyline
 90
1
 70
1
 10
-152.639449
 20
32.602940
 30
0.0
  0
SPLINE
  5
1b0
100
AcDbEntity
  8
0
 62
7
100
AcDbSpline
 70
8
 71
3
 72
8
 73
4
 74
0
 40
0
 40
0
 40
0
 40
0
 40
1
 40
1
 40
1
 40
1
 10
-162.473156
 20
31.936248
 30
0.0
 10
-162.810221
 20
31.936248
 30
0.0
 10
-163.114096
 20
31.733205
 30
0.0
 10
-163.243085
 20
31.421798
 30
0.0
  0
SPLINE
  5
1b1
100
AcDbEntity
  8
0
 62
7
100
AcDbSpline
 70
8
 71
3
 72
8
 73
4
 74
0
 40
0
 40
0
 40
0
 40
0
 40
1
 40
1
 40
1
 40
1
 10
-163.243085
 20
31.421798
 30
0.0
 10
-163.372074
 20
31.110391
 30
0.0
 10
-163.300775
 20
30.751946
 30
0.0
 10
-163.062434
 20
30.513605
 30
0.0
  0
SPLINE
  5
1b2
100
AcDbEntity
  8
0
 62
7
100
AcDbSpline
 70
8
 71
3
 72
8
 73
4
 74
0
 40
0
 40
0
 40
0
 40
0
 40
1
 40
1
 40
1
 40
1
 10
-163.062434
 20
30.513605
 30
0.0
 10
-162.824093
 20
30.275264
 30
0.0
 10
-162.465648
 20
30.203965
 30
0.0
 10
-162.154241
 20
30.332954
 30
0.0
  0
SPLINE
  5
1b3
100
AcDbEntity
  8
0
 62
7
100
AcDbSpline
 70
8
 71
3
 72
8
 73
4
 74
0
 40
0
 40
0
 40
0
 40
0
 40
1
 40
1
 40
1
 40
1
 10
-162.154241
 20
30.332954
 30
0.0
 10
-161.842834
 20
30.461943
 30
0.0
 10
-161.639791
 20
30.765818
 30
0.0
 10
-161.639791
 20
31.102883
 30
0.0
  0
SPLINE
  5
1b4
100
AcDbEntity
  8
0
 62
7
100
AcDbSpline
 70
8
 71
3
 72
8
 73
4
 74
0
 40
0
 40
0
 40
0
 40
0
 40
1
 40
1
 40
1
 40
1
 10
-161.639791
 20
31.102883
 30
0.0
 10
-161.639791
 20
31.323905
 30
0.0
 10
-161.727592
 20
31.535875
 30
0.0
 10
-161.883878
 20
31.692161
 30
0.0
  0
SPLINE
  5
1b5
100
AcDbEntity
  8
0
 62
7
100
AcDbSpline
 70
8
 71
3
 72
8
 73
4
 74
0
 40
0
 40
0
 40
0
 40
0
 40
1
 40
1
 40
1
 40
1
 10
-161.883878
 20
31.692161
 30
0.0
 10
-162.040164
 20
31.848447
 30
0.0
 10
-162.252134
 20
31.936248
 30
0.0
 10
-162.473156
 20
31.936248
 30
0.0
  0
LWPOLYLINE
  5
1b6
100
AcDbEntity
  8
0
 62
7
100
AcDbPolyline
 90
1
 70
1
 10
-157.639639
 20
30.602864
 30
0.0
  0
SPLINE
  5
1b7
100
AcDbEntity
  8
0
 62
7
100
AcDbSpline
 70
8
 71
3
 72
8
 73
4
 74
0
 40
0
 40
0
 40
0
 40
0
 40
1
 40
1
 40
1
 40
1
 10
-136.845516
 20
34.218001
 30
0.0
 10
-137.680547
 20
33.939657
 30
0.0
 10
-138.592249
 20
33.664647
 30
0.0
 10
-139.417280
 20
33.437972
 30
0.0
  0
LWPOLYLINE
  5
1b8
100
AcDbEntity
  8
0
 62
7
100
AcDbPolyline
 90
1
 70
1
 10
-162.473156
 20
31.936248
 30
0.0
  0
SPLINE
  5
1b9
100
AcDbEntity
  8
0
 62
7
100
AcDbSpline
 70
8
 71
3
 72
8
 73
4
 74
0
 40
0
 40
0
 40
0
 40
0
 40
1
 40
1
 40
1
 40
1
 10
-149.537664
 20
44.245049
 30
0.0
 10
-147.547589
 20
44.988411
 30
0.0
 10
-144.325800
 20
46.096786
 30
0.0
 10
-141.437357
 20
46.890150
 30
0.0
  0
SPLINE
  5
1ba
100
AcDbEntity
  8
0
 62
7
100
AcDbSpline
 70
8
 71
3
 72
8
 73
4
 74
0
 40
0
 40
0
 40
0
 40
0
 40
1
 40
1
 40
1
 40
1
 10
-141.437357
 20
46.890150
 30
0.0
 10
-136.210491
 20
48.326871
 30
0.0
 10
-132.770361
 20
46.756811
 30
0.0
 10
-131.630317
 20
42.606653
 30
0.0
  0
SPLINE
  5
1bb
100
AcDbEntity
  8
0
 62
7
100
AcDbSpline
 70
8
 71
3
 72
8
 73
4
 74
0
 40
0
 40
0
 40
0
 40
0
 40
1
 40
1
 40
1
 40
1
 10
-131.630317
 20
42.606653
 30
0.0
 10
-130.451939
 20
38.319824
 30
0.0
 10
-132.737026
 20
35.596387
 30
0.0
 10
-136.847182
 20
34.219668
 30
0.0
  0
LWPOLYLINE
  5
1bc
100
AcDbEntity
  8
0
 62
7
100
AcDbPolyline
 90
4
 70
0
 10
-139.417280
 20
33.437972
 30
0.0
 10
-137.813886
 20
27.747756
 30
0.0
 10
-144.397469
 20
27.347740
 30
0.0
 10
-149.537664
 20
44.245049
 30
0.0
  0
SPLINE
  5
1bd
100
AcDbEntity
  8
0
 62
7
100
AcDbSpline
 70
8
 71
3
 72
8
 73
4
 74
0
 40
0
 40
0
 40
0
 40
0
 40
1
 40
1
 40
1
 40
1
 10
-139.957300
 20
42.313309
 30
0.0
 10
-140.758998
 20
42.093301
 30
0.0
 10
-141.422356
 20
41.811623
 30
0.0
 10
-141.930709
 20
41.598282
 30
0.0
  0
LWPOLYLINE
  5
1be
100
AcDbEntity
  8
0
 62
7
100
AcDbPolyline
 90
3
 70
0
 10
-136.847182
 20
34.219668
 30
0.0
 10
-136.845516
 20
34.219668
 30
0.0
 10
-136.845516
 20
34.218001
 30
0.0
  0
SPLINE
  5
1bf
100
AcDbEntity
  8
0
 62
7
100
AcDbSpline
 70
8
 71
3
 72
8
 73
4
 74
0
 40
0
 40
0
 40
0
 40
0
 40
1
 40
1
 40
1
 40
1
 10
-140.698995
 20
37.744802
 30
0.0
 10
-140.057304
 20
37.921475
 30
0.0
 10
-139.312276
 20
38.174818
 30
0.0
 10
-138.798923
 20
38.364826
 30
0.0
  0
SPLINE
  5
1c0
100
AcDbEntity
  8
0
 62
7
100
AcDbSpline
 70
8
 71
3
 72
8
 73
4
 74
0
 40
0
 40
0
 40
0
 40
0
 40
1
 40
1
 40
1
 40
1
 10
-138.798923
 20
38.364826
 30
0.0
 10
-137.568876
 20
38.826510
 30
0.0
 10
-136.982187
 20
39.653208
 30
0.0
 10
-137.335534
 20
40.936590
 30
0.0
  0
SPLINE
  5
1c1
100
AcDbEntity
  8
0
 62
7
100
AcDbSpline
 70
8
 71
3
 72
8
 73
4
 74
0
 40
0
 40
0
 40
0
 40
0
 40
1
 40
1
 40
1
 40
1
 10
-137.335534
 20
40.936590
 30
0.0
 10
-137.668880
 20
42.151636
 30
0.0
 10
-138.650584
 20
42.671656
 30
0.0
 10
-139.957300
 20
42.311642
 30
0.0
  0
LWPOLYLINE
  5
1c2
100
AcDbEntity
  8
0
 62
7
100
AcDbPolyline
 90
2
 70
0
 10
-141.930709
 20
41.598282
 30
0.0
 10
-140.698995
 20
37.744802
 30
0.0
  0
SPLINE
  5
1c3
100
AcDbEntity
  8
0
 62
7
100
AcDbSpline
 70
8
 71
3
 72
8
 73
4
 74
0
 40
0
 40
0
 40
0
 40
0
 40
1
 40
1
 40
1
 40
1
 10
-146.139202
 20
43.770031
 30
0.0
 10
-146.476267
 20
43.770031
 30
0.0
 10
-146.780142
 20
43.566988
 30
0.0
 10
-146.909131
 20
43.255581
 30
0.0
  0
SPLINE
  5
1c4
100
AcDbEntity
  8
0
 62
7
100
AcDbSpline
 70
8
 71
3
 72
8
 73
4
 74
0
 40
0
 40
0
 40
0
 40
0
 40
1
 40
1
 40
1
 40
1
 10
-146.909131
 20
43.255581
 30
0.0
 10
-147.038120
 20
42.944174
 30
0.0
 10
-146.966821
 20
42.585729
 30
0.0
 10
-146.728480
 20
42.347388
 30
0.0
  0
SPLINE
  5
1c5
100
AcDbEntity
  8
0
 62
7
100
AcDbSpline
 70
8
 71
3
 72
8
 73
4
 74
0
 40
0
 40
0
 40
0
 40
0
 40
1
 40
1
 40
1
 40
1
 10
-146.728480
 20
42.347388
 30
0.0
 10
-146.490139
 20
42.109047
 30
0.0
 10
-146.131694
 20
42.037748
 30
0.0
 10
-145.820287
 20
42.166737
 30
0.0
  0
SPLINE
  5
1c6
100
AcDbEntity
  8
0
 62
7
100
AcDbSpline
 70
8
 71
3
 72
8
 73
4
 74
0
 40
0
 40
0
 40
0
 40
0
 40
1
 40
1
 40
1
 40
1
 10
-145.820287
 20
42.166737
 30
0.0
 10
-145.508880
 20
42.295726
 30
0.0
 10
-145.305837
 20
42.599601
 30
0.0
 10
-145.305837
 20
42.936666
 30
0.0
  0
SPLINE
  5
1c7
100
AcDbEntity
  8
0
 62
7
100
AcDbSpline
 70
8
 71
3
 72
8
 73
4
 74
0
 40
0
 40
0
 40
0
 40
0
 40
1
 40
1
 40
1
 40
1
 10
-145.305837
 20
42.936666
 30
0.0
 10
-145.305837
 20
43.157688
 30
0.0
 10
-145.393638
 20
43.369658
 30
0.0
 10
-145.549924
 20
43.525944
 30
0.0
  0
SPLINE
  5
1c8
100
AcDbEntity
  8
0
 62
7
100
AcDbSpline
 70
8
 71
3
 72
8
 73
4
 74
0
 40
0
 40
0
 40
0
 40
0
 40
1
 40
1
 40
1
 40
1
 10
-145.549924
 20
43.525944
 30
0.0
 10
-145.706210
 20
43.682230
 30
0.0
 10
-145.918180
 20
43.770031
 30
0.0
 10
-146.139202
 20
43.770031
 30
0.0
  0
LWPOLYLINE
  5
1c9
100
AcDbEntity
  8
0
 62
7
100
AcDbPolyline
 90
3
 70
0
 10
-139.957300
 20
42.311642
 30
0.0
 10
-139.957300
 20
42.311642
 30
0.0
 10
-139.957300
 20
42.313309
 30
0.0
  0
SPLINE
  5
1ca
100
AcDbEntity
  8
0
 62
7
100
AcDbSpline
 70
8
 71
3
 72
8
 73
4
 74
0
 40
0
 40
0
 40
0
 40
0
 40
1
 40
1
 40
1
 40
1
 10
-141.472358
 20
45.436761
 30
0.0
 10
-141.809423
 20
45.436761
 30
0.0
 10
-142.113298
 20
45.233718
 30
0.0
 10
-142.242287
 20
44.922311
 30
0.0
  0
SPLINE
  5
1cb
100
AcDbEntity
  8
0
 62
7
100
AcDbSpline
 70
8
 71
3
 72
8
 73
4
 74
0
 40
0
 40
0
 40
0
 40
0
 40
1
 40
1
 40
1
 40
1
 10
-142.242287
 20
44.922311
 30
0.0
 10
-142.371276
 20
44.610904
 30
0.0
 10
-142.299977
 20
44.252459
 30
0.0
 10
-142.061636
 20
44.014118
 30
0.0
  0
SPLINE
  5
1cc
100
AcDbEntity
  8
0
 62
7
100
AcDbSpline
 70
8
 71
3
 72
8
 73
4
 74
0
 40
0
 40
0
 40
0
 40
0
 40
1
 40
1
 40
1
 40
1
 10
-142.061636
 20
44.014118
 30
0.0
 10
-141.823295
 20
43.775777
 30
0.0
 10
-141.464850
 20
43.704478
 30
0.0
 10
-141.153443
 20
43.833467
 30
0.0
  0
SPLINE
  5
1cd
100
AcDbEntity
  8
0
 62
7
100
AcDbSpline
 70
8
 71
3
 72
8
 73
4
 74
0
 40
0
 40
0
 40
0
 40
0
 40
1
 40
1
 40
1
 40
1
 10
-141.153443
 20
43.833467
 30
0.0
 10
-140.842036
 20
43.962456
 30
0.0
 10
-140.638993
 20
44.266331
 30
0.0
 10
-140.638993
 20
44.603396
 30
0.0
  0
SPLINE
  5
1ce
100
AcDbEntity
  8
0
 62
7
100
AcDbSpline
 70
8
 71
3
 72
8
 73
4
 74
0
 40
0
 40
0
 40
0
 40
0
 40
1
 40
1
 40
1
 40
1
 10
-140.638993
 20
44.603396
 30
0.0
 10
-140.638993
 20
44.824418
 30
0.0
 10
-140.726794
 20
45.036388
 30
0.0
 10
-140.883080
 20
45.192674
 30
0.0
  0
SPLINE
  5
1cf
100
AcDbEntity
  8
0
 62
7
100
AcDbSpline
 70
8
 71
3
 72
8
 73
4
 74
0
 40
0
 40
0
 40
0
 40
0
 40
1
 40
1
 40
1
 40
1
 10
-140.883080
 20
45.192674
 30
0.0
 10
-141.039366
 20
45.348960
 30
0.0
 10
-141.251336
 20
45.436761
 30
0.0
 10
-141.472358
 20
45.436761
 30
0.0
  0
LWPOLYLINE
  5
1d0
100
AcDbEntity
  8
0
 62
7
100
AcDbPolyline
 90
1
 70
1
 10
-146.139202
 20
43.770031
 30
0.0
  0
SPLINE
  5
1d1
100
AcDbEntity
  8
0
 62
7
100
AcDbSpline
 70
8
 71
3
 72
8
 73
4
 74
0
 40
0
 40
0
 40
0
 40
0
 40
1
 40
1
 40
1
 40
1
 10
-135.972149
 20
45.103415
 30
0.0
 10
-136.432404
 20
45.103415
 30
0.0
 10
-136.805514
 20
44.730305
 30
0.0
 10
-136.805514
 20
44.270050
 30
0.0
  0
SPLINE
  5
1d2
100
AcDbEntity
  8
0
 62
7
100
AcDbSpline
 70
8
 71
3
 72
8
 73
4
 74
0
 40
0
 40
0
 40
0
 40
0
 40
1
 40
1
 40
1
 40
1
 10
-136.805514
 20
44.270050
 30
0.0
 10
-136.805514
 20
43.809795
 30
0.0
 10
-136.432404
 20
43.436685
 30
0.0
 10
-135.972149
 20
43.436685
 30
0.0
  0
SPLINE
  5
1d3
100
AcDbEntity
  8
0
 62
7
100
AcDbSpline
 70
8
 71
3
 72
8
 73
4
 74
0
 40
0
 40
0
 40
0
 40
0
 40
1
 40
1
 40
1
 40
1
 10
-135.972149
 20
43.436685
 30
0.0
 10
-135.511894
 20
43.436685
 30
0.0
 10
-135.138784
 20
43.809795
 30
0.0
 10
-135.138784
 20
44.270050
 30
0.0
  0
SPLINE
  5
1d4
100
AcDbEntity
  8
0
 62
7
100
AcDbSpline
 70
8
 71
3
 72
8
 73
4
 74
0
 40
0
 40
0
 40
0
 40
0
 40
1
 40
1
 40
1
 40
1
 10
-135.138784
 20
44.270050
 30
0.0
 10
-135.138784
 20
44.491072
 30
0.0
 10
-135.226585
 20
44.703042
 30
0.0
 10
-135.382871
 20
44.859328
 30
0.0
  0
SPLINE
  5
1d5
100
AcDbEntity
  8
0
 62
7
100
AcDbSpline
 70
8
 71
3
 72
8
 73
4
 74
0
 40
0
 40
0
 40
0
 40
0
 40
1
 40
1
 40
1
 40
1
 10
-135.382871
 20
44.859328
 30
0.0
 10
-135.539157
 20
45.015614
 30
0.0
 10
-135.751127
 20
45.103415
 30
0.0
 10
-135.972149
 20
45.103415
 30
0.0
  0
LWPOLYLINE
  5
1d6
100
AcDbEntity
  8
0
 62
7
100
AcDbPolyline
 90
1
 70
1
 10
-141.472358
 20
45.436761
 30
0.0
  0
SPLINE
  5
1d7
100
AcDbEntity
  8
0
 62
7
100
AcDbSpline
 70
8
 71
3
 72
8
 73
4
 74
0
 40
0
 40
0
 40
0
 40
0
 40
1
 40
1
 40
1
 40
1
 10
-144.805818
 20
39.436533
 30
0.0
 10
-145.142883
 20
39.436533
 30
0.0
 10
-145.446758
 20
39.233490
 30
0.0
 10
-145.575747
 20
38.922083
 30
0.0
  0
SPLINE
  5
1d8
100
AcDbEntity
  8
0
 62
7
100
AcDbSpline
 70
8
 71
3
 72
8
 73
4
 74
0
 40
0
 40
0
 40
0
 40
0
 40
1
 40
1
 40
1
 40
1
 10
-145.575747
 20
38.922083
 30
0.0
 10
-145.704736
 20
38.610676
 30
0.0
 10
-145.633437
 20
38.252231
 30
0.0
 10
-145.395096
 20
38.013890
 30
0.0
  0
SPLINE
  5
1d9
100
AcDbEntity
  8
0
 62
7
100
AcDbSpline
 70
8
 71
3
 72
8
 73
4
 74
0
 40
0
 40
0
 40
0
 40
0
 40
1
 40
1
 40
1
 40
1
 10
-145.395096
 20
38.013890
 30
0.0
 10
-145.156755
 20
37.775549
 30
0.0
 10
-144.798310
 20
37.704250
 30
0.0
 10
-144.486903
 20
37.833239
 30
0.0
  0
SPLINE
  5
1da
100
AcDbEntity
  8
0
 62
7
100
AcDbSpline
 70
8
 71
3
 72
8
 73
4
 74
0
 40
0
 40
0
 40
0
 40
0
 40
1
 40
1
 40
1
 40
1
 10
-144.486903
 20
37.833239
 30
0.0
 10
-144.175496
 20
37.962228
 30
0.0
 10
-143.972453
 20
38.266103
 30
0.0
 10
-143.972453
 20
38.603168
 30
0.0
  0
SPLINE
  5
1db
100
AcDbEntity
  8
0
 62
7
100
AcDbSpline
 70
8
 71
3
 72
8
 73
4
 74
0
 40
0
 40
0
 40
0
 40
0
 40
1
 40
1
 40
1
 40
1
 10
-143.972453
 20
38.603168
 30
0.0
 10
-143.972453
 20
38.824190
 30
0.0
 10
-144.060254
 20
39.036160
 30
0.0
 10
-144.216540
 20
39.192446
 30
0.0
  0
SPLINE
  5
1dc
100
AcDbEntity
  8
0
 62
7
100
AcDbSpline
 70
8
 71
3
 72
8
 73
4
 74
0
 40
0
 40
0
 40
0
 40
0
 40
1
 40
1
 40
1
 40
1
 10
-144.216540
 20
39.192446
 30
0.0
 10
-144.372826
 20
39.348732
 30
0.0
 10
-144.584796
 20
39.436533
 30
0.0
 10
-144.805818
 20
39.436533
 30
0.0
  0
LWPOLYLINE
  5
1dd
100
AcDbEntity
  8
0
 62
7
100
AcDbPolyline
 90
1
 70
1
 10
-135.972149
 20
45.103415
 30
0.0
  0
SPLINE
  5
1de
100
AcDbEntity
  8
0
 62
7
100
AcDbSpline
 70
8
 71
3
 72
8
 73
4
 74
0
 40
0
 40
0
 40
0
 40
0
 40
1
 40
1
 40
1
 40
1
 10
-134.472092
 20
40.436571
 30
0.0
 10
-134.809157
 20
40.436571
 30
0.0
 10
-135.113032
 20
40.233528
 30
0.0
 10
-135.242021
 20
39.922121
 30
0.0
  0
SPLINE
  5
1df
100
AcDbEntity
  8
0
 62
7
100
AcDbSpline
 70
8
 71
3
 72
8
 73
4
 74
0
 40
0
 40
0
 40
0
 40
0
 40
1
 40
1
 40
1
 40
1
 10
-135.242021
 20
39.922121
 30
0.0
 10
-135.371010
 20
39.610714
 30
0.0
 10
-135.299711
 20
39.252269
 30
0.0
 10
-135.061370
 20
39.013928
 30
0.0
  0
SPLINE
  5
1e0
100
AcDbEntity
  8
0
 62
7
100
AcDbSpline
 70
8
 71
3
 72
8
 73
4
 74
0
 40
0
 40
0
 40
0
 40
0
 40
1
 40
1
 40
1
 40
1
 10
-135.061370
 20
39.013928
 30
0.0
 10
-134.823029
 20
38.775587
 30
0.0
 10
-134.464584
 20
38.704288
 30
0.0
 10
-134.153177
 20
38.833277
 30
0.0
  0
SPLINE
  5
1e1
100
AcDbEntity
  8
0
 62
7
100
AcDbSpline
 70
8
 71
3
 72
8
 73
4
 74
0
 40
0
 40
0
 40
0
 40
0
 40
1
 40
1
 40
1
 40
1
 10
-134.153177
 20
38.833277
 30
0.0
 10
-133.841770
 20
38.962266
 30
0.0
 10
-133.638727
 20
39.266141
 30
0.0
 10
-133.638727
 20
39.603206
 30
0.0
  0
SPLINE
  5
1e2
100
AcDbEntity
  8
0
 62
7
100
AcDbSpline
 70
8
 71
3
 72
8
 73
4
 74
0
 40
0
 40
0
 40
0
 40
0
 40
1
 40
1
 40
1
 40
1
 10
-133.638727
 20
39.603206
 30
0.0
 10
-133.638727
 20
39.824228
 30
0.0
 10
-133.726528
 20
40.036198
 30
0.0
 10
-133.882814
 20
40.192484
 30
0.0
  0
SPLINE
  5
1e3
100
AcDbEntity
  8
0
 62
7
100
AcDbSpline
 70
8
 71
3
 72
8
 73
4
 74
0
 40
0
 40
0
 40
0
 40
0
 40
1
 40
1
 40
1
 40
1
 10
-133.882814
 20
40.192484
 30
0.0
 10
-134.039100
 20
40.348770
 30
0.0
 10
-134.251070
 20
40.436571
 30
0.0
 10
-134.472092
 20
40.436571
 30
0.0
  0
LWPOLYLINE
  5
1e4
100
AcDbEntity
  8
0
 62
7
100
AcDbPolyline
 90
1
 70
1
 10
-144.805818
 20
39.436533
 30
0.0
  0
SPLINE
  5
1e5
100
AcDbEntity
  8
0
 62
7
100
AcDbSpline
 70
8
 71
3
 72
8
 73
4
 74
0
 40
0
 40
0
 40
0
 40
0
 40
1
 40
1
 40
1
 40
1
 10
-138.138898
 20
37.103111
 30
0.0
 10
-138.475963
 20
37.103111
 30
0.0
 10
-138.779838
 20
36.900068
 30
0.0
 10
-138.908827
 20
36.588661
 30
0.0
  0
SPLINE
  5
1e6
100
AcDbEntity
  8
0
 62
7
100
AcDbSpline
 70
8
 71
3
 72
8
 73
4
 74
0
 40
0
 40
0
 40
0
 40
0
 40
1
 40
1
 40
1
 40
1
 10
-138.908827
 20
36.588661
 30
0.0
 10
-139.037816
 20
36.277254
 30
0.0
 10
-138.966517
 20
35.918809
 30
0.0
 10
-138.728176
 20
35.680468
 30
0.0
  0
SPLINE
  5
1e7
100
AcDbEntity
  8
0
 62
7
100
AcDbSpline
 70
8
 71
3
 72
8
 73
4
 74
0
 40
0
 40
0
 40
0
 40
0
 40
1
 40
1
 40
1
 40
1
 10
-138.728176
 20
35.680468
 30
0.0
 10
-138.489835
 20
35.442127
 30
0.0
 10
-138.131390
 20
35.370828
 30
0.0
 10
-137.819983
 20
35.499817
 30
0.0
  0
SPLINE
  5
1e8
100
AcDbEntity
  8
0
 62
7
100
AcDbSpline
 70
8
 71
3
 72
8
 73
4
 74
0
 40
0
 40
0
 40
0
 40
0
 40
1
 40
1
 40
1
 40
1
 10
-137.819983
 20
35.499817
 30
0.0
 10
-137.508576
 20
35.628806
 30
0.0
 10
-137.305533
 20
35.932681
 30
0.0
 10
-137.305533
 20
36.269746
 30
0.0
  0
SPLINE
  5
1e9
100
AcDbEntity
  8
0
 62
7
100
AcDbSpline
 70
8
 71
3
 72
8
 73
4
 74
0
 40
0
 40
0
 40
0
 40
0
 40
1
 40
1
 40
1
 40
1
 10
-137.305533
 20
36.269746
 30
0.0
 10
-137.305533
 20
36.490768
 30
0.0
 10
-137.393334
 20
36.702738
 30
0.0
 10
-137.549620
 20
36.859024
 30
0.0
  0
SPLINE
  5
1ea
100
AcDbEntity
  8
0
 62
7
100
AcDbSpline
 70
8
 71
3
 72
8
 73
4
 74
0
 40
0
 40
0
 40
0
 40
0
 40
1
 40
1
 40
1
 40
1
 10
-137.549620
 20
36.859024
 30
0.0
 10
-137.705906
 20
37.015310
 30
0.0
 10
-137.917876
 20
37.103111
 30
0.0
 10
-138.138898
 20
37.103111
 30
0.0
  0
LWPOLYLINE
  5
1eb
100
AcDbEntity
  8
0
 62
7
100
AcDbPolyline
 90
1
 70
1
 10
-134.472092
 20
40.436571
 30
0.0
  0
SPLINE
  5
1ec
100
AcDbEntity
  8
0
 62
7
100
AcDbSpline
 70
8
 71
3
 72
8
 73
4
 74
0
 40
0
 40
0
 40
0
 40
0
 40
1
 40
1
 40
1
 40
1
 10
-143.472434
 20
34.936362
 30
0.0
 10
-143.809499
 20
34.936362
 30
0.0
 10
-144.113374
 20
34.733319
 30
0.0
 10
-144.242363
 20
34.421912
 30
0.0
  0
SPLINE
  5
1ed
100
AcDbEntity
  8
0
 62
7
100
AcDbSpline
 70
8
 71
3
 72
8
 73
4
 74
0
 40
0
 40
0
 40
0
 40
0
 40
1
 40
1
 40
1
 40
1
 10
-144.242363
 20
34.421912
 30
0.0
 10
-144.371352
 20
34.110505
 30
0.0
 10
-144.300053
 20
33.752060
 30
0.0
 10
-144.061712
 20
33.513719
 30
0.0
  0
SPLINE
  5
1ee
100
AcDbEntity
  8
0
 62
7
100
AcDbSpline
 70
8
 71
3
 72
8
 73
4
 74
0
 40
0
 40
0
 40
0
 40
0
 40
1
 40
1
 40
1
 40
1
 10
-144.061712
 20
33.513719
 30
0.0
 10
-143.823371
 20
33.275378
 30
0.0
 10
-143.464926
 20
33.204079
 30
0.0
 10
-143.153519
 20
33.333068
 30
0.0
  0
SPLINE
  5
1ef
100
AcDbEntity
  8
0
 62
7
100
AcDbSpline
 70
8
 71
3
 72
8
 73
4
 74
0
 40
0
 40
0
 40
0
 40
0
 40
1
 40
1
 40
1
 40
1
 10
-143.153519
 20
33.333068
 30
0.0
 10
-142.842112
 20
33.462057
 30
0.0
 10
-142.639069
 20
33.765932
 30
0.0
 10
-142.639069
 20
34.102997
 30
0.0
  0
SPLINE
  5
1f0
100
AcDbEntity
  8
0
 62
7
100
AcDbSpline
 70
8
 71
3
 72
8
 73
4
 74
0
 40
0
 40
0
 40
0
 40
0
 40
1
 40
1
 40
1
 40
1
 10
-142.639069
 20
34.102997
 30
0.0
 10
-142.639069
 20
34.324019
 30
0.0
 10
-142.726870
 20
34.535989
 30
0.0
 10
-142.883156
 20
34.692275
 30
0.0
  0
SPLINE
  5
1f1
100
AcDbEntity
  8
0
 62
7
100
AcDbSpline
 70
8
 71
3
 72
8
 73
4
 74
0
 40
0
 40
0
 40
0
 40
0
 40
1
 40
1
 40
1
 40
1
 10
-142.883156
 20
34.692275
 30
0.0
 10
-143.039442
 20
34.848561
 30
0.0
 10
-143.251412
 20
34.936362
 30
0.0
 10
-143.472434
 20
34.936362
 30
0.0
  0
LWPOLYLINE
  5
1f2
100
AcDbEntity
  8
0
 62
7
100
AcDbPolyline
 90
1
 70
1
 10
-138.138898
 20
37.103111
 30
0.0
  0
SPLINE
  5
1f3
100
AcDbEntity
  8
0
 62
7
100
AcDbSpline
 70
8
 71
3
 72
8
 73
4
 74
0
 40
0
 40
0
 40
0
 40
0
 40
1
 40
1
 40
1
 40
1
 10
-142.305723
 20
30.769537
 30
0.0
 10
-142.642788
 20
30.769537
 30
0.0
 10
-142.946663
 20
30.566494
 30
0.0
 10
-143.075652
 20
30.255087
 30
0.0
  0
SPLINE
  5
1f4
100
AcDbEntity
  8
0
 62
7
100
AcDbSpline
 70
8
 71
3
 72
8
 73
4
 74
0
 40
0
 40
0
 40
0
 40
0
 40
1
 40
1
 40
1
 40
1
 10
-143.075652
 20
30.255087
 30
0.0
 10
-143.204641
 20
29.943680
 30
0.0
 10
-143.133342
 20
29.585235
 30
0.0
 10
-142.895001
 20
29.346894
 30
0.0
  0
SPLINE
  5
1f5
100
AcDbEntity
  8
0
 62
7
100
AcDbSpline
 70
8
 71
3
 72
8
 73
4
 74
0
 40
0
 40
0
 40
0
 40
0
 40
1
 40
1
 40
1
 40
1
 10
-142.895001
 20
29.346894
 30
0.0
 10
-142.656660
 20
29.108553
 30
0.0
 10
-142.298215
 20
29.037254
 30
0.0
 10
-141.986808
 20
29.166243
 30
0.0
  0
SPLINE
  5
1f6
100
AcDbEntity
  8
0
 62
7
100
AcDbSpline
 70
8
 71
3
 72
8
 73
4
 74
0
 40
0
 40
0
 40
0
 40
0
 40
1
 40
1
 40
1
 40
1
 10
-141.986808
 20
29.166243
 30
0.0
 10
-141.675401
 20
29.295232
 30
0.0
 10
-141.472358
 20
29.599107
 30
0.0
 10
-141.472358
 20
29.936172
 30
0.0
  0
SPLINE
  5
1f7
100
AcDbEntity
  8
0
 62
7
100
AcDbSpline
 70
8
 71
3
 72
8
 73
4
 74
0
 40
0
 40
0
 40
0
 40
0
 40
1
 40
1
 40
1
 40
1
 10
-141.472358
 20
29.936172
 30
0.0
 10
-141.472358
 20
30.157194
 30
0.0
 10
-141.560159
 20
30.369164
 30
0.0
 10
-141.716445
 20
30.525450
 30
0.0
  0
SPLINE
  5
1f8
100
AcDbEntity
  8
0
 62
7
100
AcDbSpline
 70
8
 71
3
 72
8
 73
4
 74
0
 40
0
 40
0
 40
0
 40
0
 40
1
 40
1
 40
1
 40
1
 10
-141.716445
 20
30.525450
 30
0.0
 10
-141.872731
 20
30.681736
 30
0.0
 10
-142.084701
 20
30.769537
 30
0.0
 10
-142.305723
 20
30.769537
 30
0.0
  0
LWPOLYLINE
  5
1f9
100
AcDbEntity
  8
0
 62
7
100
AcDbPolyline
 90
1
 70
1
 10
-143.472434
 20
34.936362
 30
0.0
  0
LWPOLYLINE
  5
1fa
100
AcDbEntity
  8
0
 62
7
100
AcDbPolyline
 90
1
 70
1
 10
-142.305723
 20
30.769537
 30
0.0
  0
SPLINE
  5
1fb
100
AcDbEntity
  8
0
 62
7
100
AcDbSpline
 70
8
 71
3
 72
8
 73
4
 74
0
 40
0
 40
0
 40
0
 40
0
 40
1
 40
1
 40
1
 40
1
 10
-122.976655
 20
35.014698
 30
0.0
 10
-123.421672
 20
35.181371
 30
0.0
 10
-123.926691
 20
35.394713
 30
0.0
 10
-124.275038
 20
35.549719
 30
0.0
  0
LWPOLYLINE
  5
1fc
100
AcDbEntity
  8
0
 62
7
100
AcDbPolyline
 90
2
 70
0
 10
-121.214922
 20
27.746089
 30
0.0
 10
-122.976655
 20
35.014698
 30
0.0
  0
SPLINE
  5
1fd
100
AcDbEntity
  8
0
 62
7
100
AcDbSpline
 70
8
 71
3
 72
8
 73
4
 74
0
 40
0
 40
0
 40
0
 40
0
 40
1
 40
1
 40
1
 40
1
 10
-125.998437
 20
50.175274
 30
0.0
 10
-123.893357
 20
49.491915
 30
0.0
 10
-120.719903
 20
48.408541
 30
0.0
 10
-117.534782
 20
47.220162
 30
0.0
  0
SPLINE
  5
1fe
100
AcDbEntity
  8
0
 62
7
100
AcDbSpline
 70
8
 71
3
 72
8
 73
4
 74
0
 40
0
 40
0
 40
0
 40
0
 40
1
 40
1
 40
1
 40
1
 10
-117.534782
 20
47.220162
 30
0.0
 10
-112.544592
 20
45.358425
 30
0.0
 10
-110.611185
 20
41.971629
 30
0.0
 10
-112.107909
 20
37.961477
 30
0.0
  0
SPLINE
  5
1ff
100
AcDbEntity
  8
0
 62
7
100
AcDbSpline
 70
8
 71
3
 72
8
 73
4
 74
0
 40
0
 40
0
 40
0
 40
0
 40
1
 40
1
 40
1
 40
1
 10
-112.107909
 20
37.961477
 30
0.0
 10
-113.047945
 20
35.444715
 30
0.0
 10
-114.781344
 20
34.468011
 30
0.0
 10
-116.701417
 20
34.219668
 30
0.0
  0
LWPOLYLINE
  5
200
100
AcDbEntity
  8
0
 62
7
100
AcDbPolyline
 90
4
 70
0
 10
-124.275038
 20
35.549719
 30
0.0
 10
-126.965140
 20
28.851131
 30
0.0
 10
-132.902032
 20
31.199553
 30
0.0
 10
-125.998437
 20
50.175274
 30
0.0
  0
SPLINE
  5
201
100
AcDbEntity
  8
0
 62
7
100
AcDbSpline
 70
8
 71
3
 72
8
 73
4
 74
0
 40
0
 40
0
 40
0
 40
0
 40
1
 40
1
 40
1
 40
1
 10
-119.534858
 20
42.739992
 30
0.0
 10
-120.181549
 20
42.981668
 30
0.0
 10
-121.043248
 20
43.251678
 30
0.0
 10
-121.631604
 20
43.446685
 30
0.0
  0
LWPOLYLINE
  5
202
100
AcDbEntity
  8
0
 62
7
100
AcDbPolyline
 90
4
 70
0
 10
-116.701417
 20
34.219668
 30
0.0
 10
-115.176359
 20
27.799424
 30
0.0
 10
-121.216588
 20
27.746089
 30
0.0
 10
-121.214922
 20
27.746089
 30
0.0
  0
SPLINE
  5
203
100
AcDbEntity
  8
0
 62
7
100
AcDbSpline
 70
8
 71
3
 72
8
 73
4
 74
0
 40
0
 40
0
 40
0
 40
0
 40
1
 40
1
 40
1
 40
1
 10
-122.978322
 20
39.431533
 30
0.0
 10
-122.339964
 20
39.168189
 30
0.0
 10
-121.591603
 20
38.863178
 30
0.0
 10
-120.893243
 20
38.628169
 30
0.0
  0
SPLINE
  5
204
100
AcDbEntity
  8
0
 62
7
100
AcDbSpline
 70
8
 71
3
 72
8
 73
4
 74
0
 40
0
 40
0
 40
0
 40
0
 40
1
 40
1
 40
1
 40
1
 10
-120.893243
 20
38.628169
 30
0.0
 10
-119.473189
 20
38.149817
 30
0.0
 10
-118.474817
 20
38.513165
 30
0.0
 10
-117.993132
 20
39.804880
 30
0.0
  0
SPLINE
  5
205
100
AcDbEntity
  8
0
 62
7
100
AcDbSpline
 70
8
 71
3
 72
8
 73
4
 74
0
 40
0
 40
0
 40
0
 40
0
 40
1
 40
1
 40
1
 40
1
 10
-117.993132
 20
39.804880
 30
0.0
 10
-117.528115
 20
41.051594
 30
0.0
 10
-118.066469
 20
42.191638
 30
0.0
 10
-119.536524
 20
42.741659
 30
0.0
  0
LWPOLYLINE
  5
206
100
AcDbEntity
  8
0
 62
7
100
AcDbPolyline
 90
2
 70
0
 10
-121.631604
 20
43.446685
 30
0.0
 10
-122.978322
 20
39.431533
 30
0.0
  0
SPLINE
  5
207
100
AcDbEntity
  8
0
 62
7
100
AcDbSpline
 70
8
 71
3
 72
8
 73
4
 74
0
 40
0
 40
0
 40
0
 40
0
 40
1
 40
1
 40
1
 40
1
 10
-123.971693
 20
47.603510
 30
0.0
 10
-124.308758
 20
47.603510
 30
0.0
 10
-124.612633
 20
47.400467
 30
0.0
 10
-124.741622
 20
47.089060
 30
0.0
  0
SPLINE
  5
208
100
AcDbEntity
  8
0
 62
7
100
AcDbSpline
 70
8
 71
3
 72
8
 73
4
 74
0
 40
0
 40
0
 40
0
 40
0
 40
1
 40
1
 40
1
 40
1
 10
-124.741622
 20
47.089060
 30
0.0
 10
-124.870611
 20
46.777653
 30
0.0
 10
-124.799312
 20
46.419208
 30
0.0
 10
-124.560971
 20
46.180867
 30
0.0
  0
SPLINE
  5
209
100
AcDbEntity
  8
0
 62
7
100
AcDbSpline
 70
8
 71
3
 72
8
 73
4
 74
0
 40
0
 40
0
 40
0
 40
0
 40
1
 40
1
 40
1
 40
1
 10
-124.560971
 20
46.180867
 30
0.0
 10
-124.322630
 20
45.942526
 30
0.0
 10
-123.964185
 20
45.871227
 30
0.0
 10
-123.652778
 20
46.000216
 30
0.0
  0
SPLINE
  5
20a
100
AcDbEntity
  8
0
 62
7
100
AcDbSpline
 70
8
 71
3
 72
8
 73
4
 74
0
 40
0
 40
0
 40
0
 40
0
 40
1
 40
1
 40
1
 40
1
 10
-123.652778
 20
46.000216
 30
0.0
 10
-123.341371
 20
46.129205
 30
0.0
 10
-123.138328
 20
46.433080
 30
0.0
 10
-123.138328
 20
46.770145
 30
0.0
  0
SPLINE
  5
20b
100
AcDbEntity
  8
0
 62
7
100
AcDbSpline
 70
8
 71
3
 72
8
 73
4
 74
0
 40
0
 40
0
 40
0
 40
0
 40
1
 40
1
 40
1
 40
1
 10
-123.138328
 20
46.770145
 30
0.0
 10
-123.138328
 20
46.991167
 30
0.0
 10
-123.226129
 20
47.203137
 30
0.0
 10
-123.382415
 20
47.359423
 30
0.0
  0
SPLINE
  5
20c
100
AcDbEntity
  8
0
 62
7
100
AcDbSpline
 70
8
 71
3
 72
8
 73
4
 74
0
 40
0
 40
0
 40
0
 40
0
 40
1
 40
1
 40
1
 40
1
 10
-123.382415
 20
47.359423
 30
0.0
 10
-123.538701
 20
47.515709
 30
0.0
 10
-123.750671
 20
47.603510
 30
0.0
 10
-123.971693
 20
47.603510
 30
0.0
  0
LWPOLYLINE
  5
20d
100
AcDbEntity
  8
0
 62
7
100
AcDbPolyline
 90
3
 70
0
 10
-119.536524
 20
42.741659
 30
0.0
 10
-119.536524
 20
42.741659
 30
0.0
 10
-119.534858
 20
42.739992
 30
0.0
  0
SPLINE
  5
20e
100
AcDbEntity
  8
0
 62
7
100
AcDbSpline
 70
8
 71
3
 72
8
 73
4
 74
0
 40
0
 40
0
 40
0
 40
0
 40
1
 40
1
 40
1
 40
1
 10
-119.471522
 20
46.103453
 30
0.0
 10
-119.808587
 20
46.103453
 30
0.0
 10
-120.112462
 20
45.900410
 30
0.0
 10
-120.241451
 20
45.589003
 30
0.0
  0
SPLINE
  5
20f
100
AcDbEntity
  8
0
 62
7
100
AcDbSpline
 70
8
 71
3
 72
8
 73
4
 74
0
 40
0
 40
0
 40
0
 40
0
 40
1
 40
1
 40
1
 40
1
 10
-120.241451
 20
45.589003
 30
0.0
 10
-120.370440
 20
45.277596
 30
0.0
 10
-120.299141
 20
44.919151
 30
0.0
 10
-120.060800
 20
44.680810
 30
0.0
  0
SPLINE
  5
210
100
AcDbEntity
  8
0
 62
7
100
AcDbSpline
 70
8
 71
3
 72
8
 73
4
 74
0
 40
0
 40
0
 40
0
 40
0
 40
1
 40
1
 40
1
 40
1
 10
-120.060800
 20
44.680810
 30
0.0
 10
-119.822459
 20
44.442469
 30
0.0
 10
-119.464014
 20
44.371170
 30
0.0
 10
-119.152607
 20
44.500159
 30
0.0
  0
SPLINE
  5
211
100
AcDbEntity
  8
0
 62
7
100
AcDbSpline
 70
8
 71
3
 72
8
 73
4
 74
0
 40
0
 40
0
 40
0
 40
0
 40
1
 40
1
 40
1
 40
1
 10
-119.152607
 20
44.500159
 30
0.0
 10
-118.841200
 20
44.629148
 30
0.0
 10
-118.638157
 20
44.933023
 30
0.0
 10
-118.638157
 20
45.270088
 30
0.0
  0
SPLINE
  5
212
100
AcDbEntity
  8
0
 62
7
100
AcDbSpline
 70
8
 71
3
 72
8
 73
4
 74
0
 40
0
 40
0
 40
0
 40
0
 40
1
 40
1
 40
1
 40
1
 10
-118.638157
 20
45.270088
 30
0.0
 10
-118.638157
 20
45.491110
 30
0.0
 10
-118.725958
 20
45.703080
 30
0.0
 10
-118.882244
 20
45.859366
 30
0.0
  0
SPLINE
  5
213
100
AcDbEntity
  8
0
 62
7
100
AcDbSpline
 70
8
 71
3
 72
8
 73
4
 74
0
 40
0
 40
0
 40
0
 40
0
 40
1
 40
1
 40
1
 40
1
 10
-118.882244
 20
45.859366
 30
0.0
 10
-119.038530
 20
46.015652
 30
0.0
 10
-119.250500
 20
46.103453
 30
0.0
 10
-119.471522
 20
46.103453
 30
0.0
  0
LWPOLYLINE
  5
214
100
AcDbEntity
  8
0
 62
7
100
AcDbPolyline
 90
1
 70
1
 10
-123.971693
 20
47.603510
 30
0.0
  0
SPLINE
  5
215
100
AcDbEntity
  8
0
 62
7
100
AcDbSpline
 70
8
 71
3
 72
8
 73
4
 74
0
 40
0
 40
0
 40
0
 40
0
 40
1
 40
1
 40
1
 40
1
 10
-115.304697
 20
43.436685
 30
0.0
 10
-115.641762
 20
43.436685
 30
0.0
 10
-115.945637
 20
43.233642
 30
0.0
 10
-116.074626
 20
42.922235
 30
0.0
  0
SPLINE
  5
216
100
AcDbEntity
  8
0
 62
7
100
AcDbSpline
 70
8
 71
3
 72
8
 73
4
 74
0
 40
0
 40
0
 40
0
 40
0
 40
1
 40
1
 40
1
 40
1
 10
-116.074626
 20
42.922235
 30
0.0
 10
-116.203615
 20
42.610828
 30
0.0
 10
-116.132316
 20
42.252383
 30
0.0
 10
-115.893975
 20
42.014042
 30
0.0
  0
SPLINE
  5
217
100
AcDbEntity
  8
0
 62
7
100
AcDbSpline
 70
8
 71
3
 72
8
 73
4
 74
0
 40
0
 40
0
 40
0
 40
0
 40
1
 40
1
 40
1
 40
1
 10
-115.893975
 20
42.014042
 30
0.0
 10
-115.655634
 20
41.775701
 30
0.0
 10
-115.297189
 20
41.704402
 30
0.0
 10
-114.985782
 20
41.833391
 30
0.0
  0
SPLINE
  5
218
100
AcDbEntity
  8
0
 62
7
100
AcDbSpline
 70
8
 71
3
 72
8
 73
4
 74
0
 40
0
 40
0
 40
0
 40
0
 40
1
 40
1
 40
1
 40
1
 10
-114.985782
 20
41.833391
 30
0.0
 10
-114.674375
 20
41.962380
 30
0.0
 10
-114.471332
 20
42.266255
 30
0.0
 10
-114.471332
 20
42.603320
 30
0.0
  0
SPLINE
  5
219
100
AcDbEntity
  8
0
 62
7
100
AcDbSpline
 70
8
 71
3
 72
8
 73
4
 74
0
 40
0
 40
0
 40
0
 40
0
 40
1
 40
1
 40
1
 40
1
 10
-114.471332
 20
42.603320
 30
0.0
 10
-114.471332
 20
42.824342
 30
0.0
 10
-114.559133
 20
43.036312
 30
0.0
 10
-114.715419
 20
43.192598
 30
0.0
  0
SPLINE
  5
21a
100
AcDbEntity
  8
0
 62
7
100
AcDbSpline
 70
8
 71
3
 72
8
 73
4
 74
0
 40
0
 40
0
 40
0
 40
0
 40
1
 40
1
 40
1
 40
1
 10
-114.715419
 20
43.192598
 30
0.0
 10
-114.871705
 20
43.348884
 30
0.0
 10
-115.083675
 20
43.436685
 30
0.0
 10
-115.304697
 20
43.436685
 30
0.0
  0
LWPOLYLINE
  5
21b
100
AcDbEntity
  8
0
 62
7
100
AcDbPolyline
 90
1
 70
1
 10
-119.471522
 20
46.103453
 30
0.0
  0
SPLINE
  5
21c
100
AcDbEntity
  8
0
 62
7
100
AcDbSpline
 70
8
 71
3
 72
8
 73
4
 74
0
 40
0
 40
0
 40
0
 40
0
 40
1
 40
1
 40
1
 40
1
 10
-125.761763
 20
42.918332
 30
0.0
 10
-126.098827
 20
42.918332
 30
0.0
 10
-126.402702
 20
42.715289
 30
0.0
 10
-126.531692
 20
42.403882
 30
0.0
  0
SPLINE
  5
21d
100
AcDbEntity
  8
0
 62
7
100
AcDbSpline
 70
8
 71
3
 72
8
 73
4
 74
0
 40
0
 40
0
 40
0
 40
0
 40
1
 40
1
 40
1
 40
1
 10
-126.531692
 20
42.403882
 30
0.0
 10
-126.660681
 20
42.092475
 30
0.0
 10
-126.589381
 20
41.734030
 30
0.0
 10
-126.351041
 20
41.495689
 30
0.0
  0
SPLINE
  5
21e
100
AcDbEntity
  8
0
 62
7
100
AcDbSpline
 70
8
 71
3
 72
8
 73
4
 74
0
 40
0
 40
0
 40
0
 40
0
 40
1
 40
1
 40
1
 40
1
 10
-126.351041
 20
41.495689
 30
0.0
 10
-126.112700
 20
41.257348
 30
0.0
 10
-125.754255
 20
41.186049
 30
0.0
 10
-125.442848
 20
41.315038
 30
0.0
  0
SPLINE
  5
21f
100
AcDbEntity
  8
0
 62
7
100
AcDbSpline
 70
8
 71
3
 72
8
 73
4
 74
0
 40
0
 40
0
 40
0
 40
0
 40
1
 40
1
 40
1
 40
1
 10
-125.442848
 20
41.315038
 30
0.0
 10
-125.131441
 20
41.444027
 30
0.0
 10
-124.928398
 20
41.747902
 30
0.0
 10
-124.928398
 20
42.084967
 30
0.0
  0
SPLINE
  5
220
100
AcDbEntity
  8
0
 62
7
100
AcDbSpline
 70
8
 71
3
 72
8
 73
4
 74
0
 40
0
 40
0
 40
0
 40
0
 40
1
 40
1
 40
1
 40
1
 10
-124.928398
 20
42.084967
 30
0.0
 10
-124.928398
 20
42.305989
 30
0.0
 10
-125.016198
 20
42.517959
 30
0.0
 10
-125.172485
 20
42.674245
 30
0.0
  0
SPLINE
  5
221
100
AcDbEntity
  8
0
 62
7
100
AcDbSpline
 70
8
 71
3
 72
8
 73
4
 74
0
 40
0
 40
0
 40
0
 40
0
 40
1
 40
1
 40
1
 40
1
 10
-125.172485
 20
42.674245
 30
0.0
 10
-125.328771
 20
42.830531
 30
0.0
 10
-125.540741
 20
42.918332
 30
0.0
 10
-125.761763
 20
42.918332
 30
0.0
  0
LWPOLYLINE
  5
222
100
AcDbEntity
  8
0
 62
7
100
AcDbPolyline
 90
1
 70
1
 10
-115.304697
 20
43.436685
 30
0.0
  0
SPLINE
  5
223
100
AcDbEntity
  8
0
 62
7
100
AcDbSpline
 70
8
 71
3
 72
8
 73
4
 74
0
 40
0
 40
0
 40
0
 40
0
 40
1
 40
1
 40
1
 40
1
 10
-115.804716
 20
38.769841
 30
0.0
 10
-116.141781
 20
38.769841
 30
0.0
 10
-116.445656
 20
38.566798
 30
0.0
 10
-116.574645
 20
38.255391
 30
0.0
  0
SPLINE
  5
224
100
AcDbEntity
  8
0
 62
7
100
AcDbSpline
 70
8
 71
3
 72
8
 73
4
 74
0
 40
0
 40
0
 40
0
 40
0
 40
1
 40
1
 40
1
 40
1
 10
-116.574645
 20
38.255391
 30
0.0
 10
-116.703634
 20
37.943984
 30
0.0
 10
-116.632335
 20
37.585539
 30
0.0
 10
-116.393994
 20
37.347198
 30
0.0
  0
SPLINE
  5
225
100
AcDbEntity
  8
0
 62
7
100
AcDbSpline
 70
8
 71
3
 72
8
 73
4
 74
0
 40
0
 40
0
 40
0
 40
0
 40
1
 40
1
 40
1
 40
1
 10
-116.393994
 20
37.347198
 30
0.0
 10
-116.155653
 20
37.108857
 30
0.0
 10
-115.797208
 20
37.037558
 30
0.0
 10
-115.485801
 20
37.166547
 30
0.0
  0
SPLINE
  5
226
100
AcDbEntity
  8
0
 62
7
100
AcDbSpline
 70
8
 71
3
 72
8
 73
4
 74
0
 40
0
 40
0
 40
0
 40
0
 40
1
 40
1
 40
1
 40
1
 10
-115.485801
 20
37.166547
 30
0.0
 10
-115.174394
 20
37.295536
 30
0.0
 10
-114.971351
 20
37.599411
 30
0.0
 10
-114.971351
 20
37.936476
 30
0.0
  0
SPLINE
  5
227
100
AcDbEntity
  8
0
 62
7
100
AcDbSpline
 70
8
 71
3
 72
8
 73
4
 74
0
 40
0
 40
0
 40
0
 40
0
 40
1
 40
1
 40
1
 40
1
 10
-114.971351
 20
37.936476
 30
0.0
 10
-114.971351
 20
38.157498
 30
0.0
 10
-115.059152
 20
38.369468
 30
0.0
 10
-115.215438
 20
38.525754
 30
0.0
  0
SPLINE
  5
228
100
AcDbEntity
  8
0
 62
7
100
AcDbSpline
 70
8
 71
3
 72
8
 73
4
 74
0
 40
0
 40
0
 40
0
 40
0
 40
1
 40
1
 40
1
 40
1
 10
-115.215438
 20
38.525754
 30
0.0
 10
-115.371724
 20
38.682040
 30
0.0
 10
-115.583694
 20
38.769841
 30
0.0
 10
-115.804716
 20
38.769841
 30
0.0
  0
LWPOLYLINE
  5
229
100
AcDbEntity
  8
0
 62
7
100
AcDbPolyline
 90
1
 70
1
 10
-125.761763
 20
42.918332
 30
0.0
  0
SPLINE
  5
22a
100
AcDbEntity
  8
0
 62
7
100
AcDbSpline
 70
8
 71
3
 72
8
 73
4
 74
0
 40
0
 40
0
 40
0
 40
0
 40
1
 40
1
 40
1
 40
1
 10
-127.471826
 20
38.103149
 30
0.0
 10
-127.808891
 20
38.103149
 30
0.0
 10
-128.112766
 20
37.900106
 30
0.0
 10
-128.241755
 20
37.588699
 30
0.0
  0
SPLINE
  5
22b
100
AcDbEntity
  8
0
 62
7
100
AcDbSpline
 70
8
 71
3
 72
8
 73
4
 74
0
 40
0
 40
0
 40
0
 40
0
 40
1
 40
1
 40
1
 40
1
 10
-128.241755
 20
37.588699
 30
0.0
 10
-128.370744
 20
37.277292
 30
0.0
 10
-128.299445
 20
36.918847
 30
0.0
 10
-128.061104
 20
36.680506
 30
0.0
  0
SPLINE
  5
22c
100
AcDbEntity
  8
0
 62
7
100
AcDbSpline
 70
8
 71
3
 72
8
 73
4
 74
0
 40
0
 40
0
 40
0
 40
0
 40
1
 40
1
 40
1
 40
1
 10
-128.061104
 20
36.680506
 30
0.0
 10
-127.822763
 20
36.442165
 30
0.0
 10
-127.464318
 20
36.370866
 30
0.0
 10
-127.152911
 20
36.499855
 30
0.0
  0
SPLINE
  5
22d
100
AcDbEntity
  8
0
 62
7
100
AcDbSpline
 70
8
 71
3
 72
8
 73
4
 74
0
 40
0
 40
0
 40
0
 40
0
 40
1
 40
1
 40
1
 40
1
 10
-127.152911
 20
36.499855
 30
0.0
 10
-126.841504
 20
36.628844
 30
0.0
 10
-126.638461
 20
36.932719
 30
0.0
 10
-126.638461
 20
37.269784
 30
0.0
  0
SPLINE
  5
22e
100
AcDbEntity
  8
0
 62
7
100
AcDbSpline
 70
8
 71
3
 72
8
 73
4
 74
0
 40
0
 40
0
 40
0
 40
0
 40
1
 40
1
 40
1
 40
1
 10
-126.638461
 20
37.269784
 30
0.0
 10
-126.638461
 20
37.490806
 30
0.0
 10
-126.726262
 20
37.702776
 30
0.0
 10
-126.882548
 20
37.859062
 30
0.0
  0
SPLINE
  5
22f
100
AcDbEntity
  8
0
 62
7
100
AcDbSpline
 70
8
 71
3
 72
8
 73
4
 74
0
 40
0
 40
0
 40
0
 40
0
 40
1
 40
1
 40
1
 40
1
 10
-126.882548
 20
37.859062
 30
0.0
 10
-127.038834
 20
38.015348
 30
0.0
 10
-127.250804
 20
38.103149
 30
0.0
 10
-127.471826
 20
38.103149
 30
0.0
  0
LWPOLYLINE
  5
230
100
AcDbEntity
  8
0
 62
7
100
AcDbPolyline
 90
1
 70
1
 10
-115.804716
 20
38.769841
 30
0.0
  0
SPLINE
  5
231
100
AcDbEntity
  8
0
 62
7
100
AcDbSpline
 70
8
 71
3
 72
8
 73
4
 74
0
 40
0
 40
0
 40
0
 40
0
 40
1
 40
1
 40
1
 40
1
 10
-120.138214
 20
35.769727
 30
0.0
 10
-120.475279
 20
35.769727
 30
0.0
 10
-120.779154
 20
35.566684
 30
0.0
 10
-120.908143
 20
35.255277
 30
0.0
  0
SPLINE
  5
232
100
AcDbEntity
  8
0
 62
7
100
AcDbSpline
 70
8
 71
3
 72
8
 73
4
 74
0
 40
0
 40
0
 40
0
 40
0
 40
1
 40
1
 40
1
 40
1
 10
-120.908143
 20
35.255277
 30
0.0
 10
-121.037132
 20
34.943870
 30
0.0
 10
-120.965833
 20
34.585425
 30
0.0
 10
-120.727492
 20
34.347084
 30
0.0
  0
SPLINE
  5
233
100
AcDbEntity
  8
0
 62
7
100
AcDbSpline
 70
8
 71
3
 72
8
 73
4
 74
0
 40
0
 40
0
 40
0
 40
0
 40
1
 40
1
 40
1
 40
1
 10
-120.727492
 20
34.347084
 30
0.0
 10
-120.489151
 20
34.108743
 30
0.0
 10
-120.130706
 20
34.037444
 30
0.0
 10
-119.819299
 20
34.166433
 30
0.0
  0
SPLINE
  5
234
100
AcDbEntity
  8
0
 62
7
100
AcDbSpline
 70
8
 71
3
 72
8
 73
4
 74
0
 40
0
 40
0
 40
0
 40
0
 40
1
 40
1
 40
1
 40
1
 10
-119.819299
 20
34.166433
 30
0.0
 10
-119.507892
 20
34.295422
 30
0.0
 10
-119.304849
 20
34.599297
 30
0.0
 10
-119.304849
 20
34.936362
 30
0.0
  0
SPLINE
  5
235
100
AcDbEntity
  8
0
 62
7
100
AcDbSpline
 70
8
 71
3
 72
8
 73
4
 74
0
 40
0
 40
0
 40
0
 40
0
 40
1
 40
1
 40
1
 40
1
 10
-119.304849
 20
34.936362
 30
0.0
 10
-119.304849
 20
35.157384
 30
0.0
 10
-119.392650
 20
35.369354
 30
0.0
 10
-119.548936
 20
35.525640
 30
0.0
  0
SPLINE
  5
236
100
AcDbEntity
  8
0
 62
7
100
AcDbSpline
 70
8
 71
3
 72
8
 73
4
 74
0
 40
0
 40
0
 40
0
 40
0
 40
1
 40
1
 40
1
 40
1
 10
-119.548936
 20
35.525640
 30
0.0
 10
-119.705222
 20
35.681926
 30
0.0
 10
-119.917192
 20
35.769727
 30
0.0
 10
-120.138214
 20
35.769727
 30
0.0
  0
LWPOLYLINE
  5
237
100
AcDbEntity
  8
0
 62
7
100
AcDbPolyline
 90
1
 70
1
 10
-127.471826
 20
38.103149
 30
0.0
  0
SPLINE
  5
238
100
AcDbEntity
  8
0
 62
7
100
AcDbSpline
 70
8
 71
3
 72
8
 73
4
 74
0
 40
0
 40
0
 40
0
 40
0
 40
1
 40
1
 40
1
 40
1
 10
-129.138556
 20
33.436305
 30
0.0
 10
-129.475621
 20
33.436305
 30
0.0
 10
-129.779496
 20
33.233262
 30
0.0
 10
-129.908485
 20
32.921855
 30
0.0
  0
SPLINE
  5
239
100
AcDbEntity
  8
0
 62
7
100
AcDbSpline
 70
8
 71
3
 72
8
 73
4
 74
0
 40
0
 40
0
 40
0
 40
0
 40
1
 40
1
 40
1
 40
1
 10
-129.908485
 20
32.921855
 30
0.0
 10
-130.037474
 20
32.610448
 30
0.0
 10
-129.966175
 20
32.252003
 30
0.0
 10
-129.727834
 20
32.013662
 30
0.0
  0
SPLINE
  5
23a
100
AcDbEntity
  8
0
 62
7
100
AcDbSpline
 70
8
 71
3
 72
8
 73
4
 74
0
 40
0
 40
0
 40
0
 40
0
 40
1
 40
1
 40
1
 40
1
 10
-129.727834
 20
32.013662
 30
0.0
 10
-129.489493
 20
31.775321
 30
0.0
 10
-129.131048
 20
31.704022
 30
0.0
 10
-128.819641
 20
31.833011
 30
0.0
  0
SPLINE
  5
23b
100
AcDbEntity
  8
0
 62
7
100
AcDbSpline
 70
8
 71
3
 72
8
 73
4
 74
0
 40
0
 40
0
 40
0
 40
0
 40
1
 40
1
 40
1
 40
1
 10
-128.819641
 20
31.833011
 30
0.0
 10
-128.508234
 20
31.962000
 30
0.0
 10
-128.305191
 20
32.265875
 30
0.0
 10
-128.305191
 20
32.602940
 30
0.0
  0
SPLINE
  5
23c
100
AcDbEntity
  8
0
 62
7
100
AcDbSpline
 70
8
 71
3
 72
8
 73
4
 74
0
 40
0
 40
0
 40
0
 40
0
 40
1
 40
1
 40
1
 40
1
 10
-128.305191
 20
32.602940
 30
0.0
 10
-128.305191
 20
32.823962
 30
0.0
 10
-128.392992
 20
33.035932
 30
0.0
 10
-128.549278
 20
33.192218
 30
0.0
  0
SPLINE
  5
23d
100
AcDbEntity
  8
0
 62
7
100
AcDbSpline
 70
8
 71
3
 72
8
 73
4
 74
0
 40
0
 40
0
 40
0
 40
0
 40
1
 40
1
 40
1
 40
1
 10
-128.549278
 20
33.192218
 30
0.0
 10
-128.705564
 20
33.348504
 30
0.0
 10
-128.917534
 20
33.436305
 30
0.0
 10
-129.138556
 20
33.436305
 30
0.0
  0
LWPOLYLINE
  5
23e
100
AcDbEntity
  8
0
 62
7
100
AcDbPolyline
 90
1
 70
1
 10
-120.138214
 20
35.769727
 30
0.0
  0
SPLINE
  5
23f
100
AcDbEntity
  8
0
 62
7
100
AcDbSpline
 70
8
 71
3
 72
8
 73
4
 74
0
 40
0
 40
0
 40
0
 40
0
 40
1
 40
1
 40
1
 40
1
 10
-118.971503
 20
31.102883
 30
0.0
 10
-119.308568
 20
31.102883
 30
0.0
 10
-119.612443
 20
30.899840
 30
0.0
 10
-119.741432
 20
30.588433
 30
0.0
  0
SPLINE
  5
240
100
AcDbEntity
  8
0
 62
7
100
AcDbSpline
 70
8
 71
3
 72
8
 73
4
 74
0
 40
0
 40
0
 40
0
 40
0
 40
1
 40
1
 40
1
 40
1
 10
-119.741432
 20
30.588433
 30
0.0
 10
-119.870421
 20
30.277026
 30
0.0
 10
-119.799122
 20
29.918581
 30
0.0
 10
-119.560781
 20
29.680240
 30
0.0
  0
SPLINE
  5
241
100
AcDbEntity
  8
0
 62
7
100
AcDbSpline
 70
8
 71
3
 72
8
 73
4
 74
0
 40
0
 40
0
 40
0
 40
0
 40
1
 40
1
 40
1
 40
1
 10
-119.560781
 20
29.680240
 30
0.0
 10
-119.322440
 20
29.441899
 30
0.0
 10
-118.963995
 20
29.370600
 30
0.0
 10
-118.652588
 20
29.499589
 30
0.0
  0
SPLINE
  5
242
100
AcDbEntity
  8
0
 62
7
100
AcDbSpline
 70
8
 71
3
 72
8
 73
4
 74
0
 40
0
 40
0
 40
0
 40
0
 40
1
 40
1
 40
1
 40
1
 10
-118.652588
 20
29.499589
 30
0.0
 10
-118.341181
 20
29.628578
 30
0.0
 10
-118.138138
 20
29.932453
 30
0.0
 10
-118.138138
 20
30.269518
 30
0.0
  0
SPLINE
  5
243
100
AcDbEntity
  8
0
 62
7
100
AcDbSpline
 70
8
 71
3
 72
8
 73
4
 74
0
 40
0
 40
0
 40
0
 40
0
 40
1
 40
1
 40
1
 40
1
 10
-118.138138
 20
30.269518
 30
0.0
 10
-118.138138
 20
30.490540
 30
0.0
 10
-118.225939
 20
30.702510
 30
0.0
 10
-118.382225
 20
30.858796
 30
0.0
  0
SPLINE
  5
244
100
AcDbEntity
  8
0
 62
7
100
AcDbSpline
 70
8
 71
3
 72
8
 73
4
 74
0
 40
0
 40
0
 40
0
 40
0
 40
1
 40
1
 40
1
 40
1
 10
-118.382225
 20
30.858796
 30
0.0
 10
-118.538511
 20
31.015082
 30
0.0
 10
-118.750481
 20
31.102883
 30
0.0
 10
-118.971503
 20
31.102883
 30
0.0
  0
LWPOLYLINE
  5
245
100
AcDbEntity
  8
0
 62
7
100
AcDbPolyline
 90
1
 70
1
 10
-129.138556
 20
33.436305
 30
0.0
  0
LWPOLYLINE
  5
246
100
AcDbEntity
  8
0
 62
7
100
AcDbPolyline
 90
1
 70
1
 10
-118.971503
 20
31.102883
 30
0.0
  0
LWPOLYLINE
  5
247
100
AcDbEntity
  8
0
 62
7
100
AcDbPolyline
 90
17
 70
1
 10
-101.212495
 20
31.346226
 30
0.0
 10
-101.724181
 20
34.349673
 30
0.0
 10
-105.989343
 20
33.779651
 30
0.0
 10
-107.801079
 20
27.746089
 30
0.0
 10
-113.862976
 20
27.746089
 30
0.0
 10
-106.926045
 20
49.066899
 30
0.0
 10
-91.627131
 20
50.516954
 30
0.0
 10
-91.003774
 20
46.223458
 30
0.0
 10
-97.712362
 20
45.620101
 30
0.0
 10
-97.274012
 20
43.015002
 30
0.0
 10
-90.633760
 20
43.948371
 30
0.0
 10
-90.100406
 20
39.989887
 30
0.0
 10
-96.625654
 20
39.094853
 30
0.0
 10
-96.175637
 20
36.394751
 30
0.0
 10
-89.383712
 20
37.466458
 30
0.0
 10
-88.790356
 20
33.202963
 30
0.0
 10
-101.210828
 20
31.346226
 30
0.0
  0
SPLINE
  5
248
100
AcDbEntity
  8
0
 62
7
100
AcDbSpline
 70
8
 71
3
 72
8
 73
4
 74
0
 40
0
 40
0
 40
0
 40
0
 40
1
 40
1
 40
1
 40
1
 10
-104.804298
 20
47.603510
 30
0.0
 10
-105.141363
 20
47.603510
 30
0.0
 10
-105.445238
 20
47.400467
 30
0.0
 10
-105.574227
 20
47.089060
 30
0.0
  0
SPLINE
  5
249
100
AcDbEntity
  8
0
 62
7
100
AcDbSpline
 70
8
 71
3
 72
8
 73
4
 74
0
 40
0
 40
0
 40
0
 40
0
 40
1
 40
1
 40
1
 40
1
 10
-105.574227
 20
47.089060
 30
0.0
 10
-105.703216
 20
46.777653
 30
0.0
 10
-105.631917
 20
46.419208
 30
0.0
 10
-105.393576
 20
46.180867
 30
0.0
  0
SPLINE
  5
24a
100
AcDbEntity
  8
0
 62
7
100
AcDbSpline
 70
8
 71
3
 72
8
 73
4
 74
0
 40
0
 40
0
 40
0
 40
0
 40
1
 40
1
 40
1
 40
1
 10
-105.393576
 20
46.180867
 30
0.0
 10
-105.155235
 20
45.942526
 30
0.0
 10
-104.796790
 20
45.871227
 30
0.0
 10
-104.485383
 20
46.000216
 30
0.0
  0
SPLINE
  5
24b
100
AcDbEntity
  8
0
 62
7
100
AcDbSpline
 70
8
 71
3
 72
8
 73
4
 74
0
 40
0
 40
0
 40
0
 40
0
 40
1
 40
1
 40
1
 40
1
 10
-104.485383
 20
46.000216
 30
0.0
 10
-104.173976
 20
46.129205
 30
0.0
 10
-103.970933
 20
46.433080
 30
0.0
 10
-103.970933
 20
46.770145
 30
0.0
  0
SPLINE
  5
24c
100
AcDbEntity
  8
0
 62
7
100
AcDbSpline
 70
8
 71
3
 72
8
 73
4
 74
0
 40
0
 40
0
 40
0
 40
0
 40
1
 40
1
 40
1
 40
1
 10
-103.970933
 20
46.770145
 30
0.0
 10
-103.970933
 20
46.991167
 30
0.0
 10
-104.058734
 20
47.203137
 30
0.0
 10
-104.215020
 20
47.359423
 30
0.0
  0
SPLINE
  5
24d
100
AcDbEntity
  8
0
 62
7
100
AcDbSpline
 70
8
 71
3
 72
8
 73
4
 74
0
 40
0
 40
0
 40
0
 40
0
 40
1
 40
1
 40
1
 40
1
 10
-104.215020
 20
47.359423
 30
0.0
 10
-104.371306
 20
47.515709
 30
0.0
 10
-104.583276
 20
47.603510
 30
0.0
 10
-104.804298
 20
47.603510
 30
0.0
  0
LWPOLYLINE
  5
24e
100
AcDbEntity
  8
0
 62
7
100
AcDbPolyline
 90
3
 70
1
 10
-103.287574
 20
43.595024
 30
0.0
 10
-104.890968
 20
38.104816
 30
0.0
 10
-102.389206
 20
38.411494
 30
0.0
  0
SPLINE
  5
24f
100
AcDbEntity
  8
0
 62
7
100
AcDbSpline
 70
8
 71
3
 72
8
 73
4
 74
0
 40
0
 40
0
 40
0
 40
0
 40
1
 40
1
 40
1
 40
1
 10
-100.637473
 20
48.103529
 30
0.0
 10
-100.974538
 20
48.103529
 30
0.0
 10
-101.278413
 20
47.900486
 30
0.0
 10
-101.407402
 20
47.589079
 30
0.0
  0
SPLINE
  5
250
100
AcDbEntity
  8
0
 62
7
100
AcDbSpline
 70
8
 71
3
 72
8
 73
4
 74
0
 40
0
 40
0
 40
0
 40
0
 40
1
 40
1
 40
1
 40
1
 10
-101.407402
 20
47.589079
 30
0.0
 10
-101.536391
 20
47.277672
 30
0.0
 10
-101.465092
 20
46.919227
 30
0.0
 10
-101.226751
 20
46.680886
 30
0.0
  0
SPLINE
  5
251
100
AcDbEntity
  8
0
 62
7
100
AcDbSpline
 70
8
 71
3
 72
8
 73
4
 74
0
 40
0
 40
0
 40
0
 40
0
 40
1
 40
1
 40
1
 40
1
 10
-101.226751
 20
46.680886
 30
0.0
 10
-100.988410
 20
46.442545
 30
0.0
 10
-100.629965
 20
46.371246
 30
0.0
 10
-100.318558
 20
46.500235
 30
0.0
  0
SPLINE
  5
252
100
AcDbEntity
  8
0
 62
7
100
AcDbSpline
 70
8
 71
3
 72
8
 73
4
 74
0
 40
0
 40
0
 40
0
 40
0
 40
1
 40
1
 40
1
 40
1
 10
-100.318558
 20
46.500235
 30
0.0
 10
-100.007151
 20
46.629224
 30
0.0
 10
-99.804108
 20
46.933099
 30
0.0
 10
-99.804108
 20
47.270164
 30
0.0
  0
SPLINE
  5
253
100
AcDbEntity
  8
0
 62
7
100
AcDbSpline
 70
8
 71
3
 72
8
 73
4
 74
0
 40
0
 40
0
 40
0
 40
0
 40
1
 40
1
 40
1
 40
1
 10
-99.804108
 20
47.270164
 30
0.0
 10
-99.804108
 20
47.491186
 30
0.0
 10
-99.891909
 20
47.703156
 30
0.0
 10
-100.048195
 20
47.859442
 30
0.0
  0
SPLINE
  5
254
100
AcDbEntity
  8
0
 62
7
100
AcDbSpline
 70
8
 71
3
 72
8
 73
4
 74
0
 40
0
 40
0
 40
0
 40
0
 40
1
 40
1
 40
1
 40
1
 10
-100.048195
 20
47.859442
 30
0.0
 10
-100.204481
 20
48.015728
 30
0.0
 10
-100.416451
 20
48.103529
 30
0.0
 10
-100.637473
 20
48.103529
 30
0.0
  0
LWPOLYLINE
  5
255
100
AcDbEntity
  8
0
 62
7
100
AcDbPolyline
 90
1
 70
1
 10
-104.804298
 20
47.603510
 30
0.0
  0
SPLINE
  5
256
100
AcDbEntity
  8
0
 62
7
100
AcDbSpline
 70
8
 71
3
 72
8
 73
4
 74
0
 40
0
 40
0
 40
0
 40
0
 40
1
 40
1
 40
1
 40
1
 10
-94.803918
 20
48.770221
 30
0.0
 10
-95.140983
 20
48.770221
 30
0.0
 10
-95.444858
 20
48.567178
 30
0.0
 10
-95.573847
 20
48.255771
 30
0.0
  0
SPLINE
  5
257
100
AcDbEntity
  8
0
 62
7
100
AcDbSpline
 70
8
 71
3
 72
8
 73
4
 74
0
 40
0
 40
0
 40
0
 40
0
 40
1
 40
1
 40
1
 40
1
 10
-95.573847
 20
48.255771
 30
0.0
 10
-95.702836
 20
47.944364
 30
0.0
 10
-95.631537
 20
47.585919
 30
0.0
 10
-95.393196
 20
47.347578
 30
0.0
  0
SPLINE
  5
258
100
AcDbEntity
  8
0
 62
7
100
AcDbSpline
 70
8
 71
3
 72
8
 73
4
 74
0
 40
0
 40
0
 40
0
 40
0
 40
1
 40
1
 40
1
 40
1
 10
-95.393196
 20
47.347578
 30
0.0
 10
-95.154855
 20
47.109237
 30
0.0
 10
-94.796410
 20
47.037938
 30
0.0
 10
-94.485003
 20
47.166927
 30
0.0
  0
SPLINE
  5
259
100
AcDbEntity
  8
0
 62
7
100
AcDbSpline
 70
8
 71
3
 72
8
 73
4
 74
0
 40
0
 40
0
 40
0
 40
0
 40
1
 40
1
 40
1
 40
1
 10
-94.485003
 20
47.166927
 30
0.0
 10
-94.173596
 20
47.295916
 30
0.0
 10
-93.970553
 20
47.599791
 30
0.0
 10
-93.970553
 20
47.936856
 30
0.0
  0
SPLINE
  5
25a
100
AcDbEntity
  8
0
 62
7
100
AcDbSpline
 70
8
 71
3
 72
8
 73
4
 74
0
 40
0
 40
0
 40
0
 40
0
 40
1
 40
1
 40
1
 40
1
 10
-93.970553
 20
47.936856
 30
0.0
 10
-93.970553
 20
48.157878
 30
0.0
 10
-94.058354
 20
48.369848
 30
0.0
 10
-94.214640
 20
48.526134
 30
0.0
  0
SPLINE
  5
25b
100
AcDbEntity
  8
0
 62
7
100
AcDbSpline
 70
8
 71
3
 72
8
 73
4
 74
0
 40
0
 40
0
 40
0
 40
0
 40
1
 40
1
 40
1
 40
1
 10
-94.214640
 20
48.526134
 30
0.0
 10
-94.370926
 20
48.682420
 30
0.0
 10
-94.582896
 20
48.770221
 30
0.0
 10
-94.803918
 20
48.770221
 30
0.0
  0
LWPOLYLINE
  5
25c
100
AcDbEntity
  8
0
 62
7
100
AcDbPolyline
 90
1
 70
1
 10
-100.637473
 20
48.103529
 30
0.0
  0
SPLINE
  5
25d
100
AcDbEntity
  8
0
 62
7
100
AcDbSpline
 70
8
 71
3
 72
8
 73
4
 74
0
 40
0
 40
0
 40
0
 40
0
 40
1
 40
1
 40
1
 40
1
 10
-106.804374
 20
41.769955
 30
0.0
 10
-107.141439
 20
41.769955
 30
0.0
 10
-107.445314
 20
41.566912
 30
0.0
 10
-107.574303
 20
41.255505
 30
0.0
  0
SPLINE
  5
25e
100
AcDbEntity
  8
0
 62
7
100
AcDbSpline
 70
8
 71
3
 72
8
 73
4
 74
0
 40
0
 40
0
 40
0
 40
0
 40
1
 40
1
 40
1
 40
1
 10
-107.574303
 20
41.255505
 30
0.0
 10
-107.703292
 20
40.944098
 30
0.0
 10
-107.631993
 20
40.585653
 30
0.0
 10
-107.393652
 20
40.347312
 30
0.0
  0
SPLINE
  5
25f
100
AcDbEntity
  8
0
 62
7
100
AcDbSpline
 70
8
 71
3
 72
8
 73
4
 74
0
 40
0
 40
0
 40
0
 40
0
 40
1
 40
1
 40
1
 40
1
 10
-107.393652
 20
40.347312
 30
0.0
 10
-107.155311
 20
40.108971
 30
0.0
 10
-106.796866
 20
40.037672
 30
0.0
 10
-106.485459
 20
40.166661
 30
0.0
  0
SPLINE
  5
260
100
AcDbEntity
  8
0
 62
7
100
AcDbSpline
 70
8
 71
3
 72
8
 73
4
 74
0
 40
0
 40
0
 40
0
 40
0
 40
1
 40
1
 40
1
 40
1
 10
-106.485459
 20
40.166661
 30
0.0
 10
-106.174052
 20
40.295650
 30
0.0
 10
-105.971009
 20
40.599525
 30
0.0
 10
-105.971009
 20
40.936590
 30
0.0
  0
SPLINE
  5
261
100
AcDbEntity
  8
0
 62
7
100
AcDbSpline
 70
8
 71
3
 72
8
 73
4
 74
0
 40
0
 40
0
 40
0
 40
0
 40
1
 40
1
 40
1
 40
1
 10
-105.971009
 20
40.936590
 30
0.0
 10
-105.971009
 20
41.157612
 30
0.0
 10
-106.058810
 20
41.369582
 30
0.0
 10
-106.215096
 20
41.525868
 30
0.0
  0
SPLINE
  5
262
100
AcDbEntity
  8
0
 62
7
100
AcDbSpline
 70
8
 71
3
 72
8
 73
4
 74
0
 40
0
 40
0
 40
0
 40
0
 40
1
 40
1
 40
1
 40
1
 10
-106.215096
 20
41.525868
 30
0.0
 10
-106.371382
 20
41.682154
 30
0.0
 10
-106.583352
 20
41.769955
 30
0.0
 10
-106.804374
 20
41.769955
 30
0.0
  0
LWPOLYLINE
  5
263
100
AcDbEntity
  8
0
 62
7
100
AcDbPolyline
 90
1
 70
1
 10
-94.803918
 20
48.770221
 30
0.0
  0
SPLINE
  5
264
100
AcDbEntity
  8
0
 62
7
100
AcDbSpline
 70
8
 71
3
 72
8
 73
4
 74
0
 40
0
 40
0
 40
0
 40
0
 40
1
 40
1
 40
1
 40
1
 10
-99.804108
 20
41.769955
 30
0.0
 10
-100.141173
 20
41.769955
 30
0.0
 10
-100.445048
 20
41.566912
 30
0.0
 10
-100.574037
 20
41.255505
 30
0.0
  0
SPLINE
  5
265
100
AcDbEntity
  8
0
 62
7
100
AcDbSpline
 70
8
 71
3
 72
8
 73
4
 74
0
 40
0
 40
0
 40
0
 40
0
 40
1
 40
1
 40
1
 40
1
 10
-100.574037
 20
41.255505
 30
0.0
 10
-100.703026
 20
40.944098
 30
0.0
 10
-100.631727
 20
40.585653
 30
0.0
 10
-100.393386
 20
40.347312
 30
0.0
  0
SPLINE
  5
266
100
AcDbEntity
  8
0
 62
7
100
AcDbSpline
 70
8
 71
3
 72
8
 73
4
 74
0
 40
0
 40
0
 40
0
 40
0
 40
1
 40
1
 40
1
 40
1
 10
-100.393386
 20
40.347312
 30
0.0
 10
-100.155045
 20
40.108971
 30
0.0
 10
-99.796600
 20
40.037672
 30
0.0
 10
-99.485193
 20
40.166661
 30
0.0
  0
SPLINE
  5
267
100
AcDbEntity
  8
0
 62
7
100
AcDbSpline
 70
8
 71
3
 72
8
 73
4
 74
0
 40
0
 40
0
 40
0
 40
0
 40
1
 40
1
 40
1
 40
1
 10
-99.485193
 20
40.166661
 30
0.0
 10
-99.173786
 20
40.295650
 30
0.0
 10
-98.970743
 20
40.599525
 30
0.0
 10
-98.970743
 20
40.936590
 30
0.0
  0
SPLINE
  5
268
100
AcDbEntity
  8
0
 62
7
100
AcDbSpline
 70
8
 71
3
 72
8
 73
4
 74
0
 40
0
 40
0
 40
0
 40
0
 40
1
 40
1
 40
1
 40
1
 10
-98.970743
 20
40.936590
 30
0.0
 10
-98.970743
 20
41.157612
 30
0.0
 10
-99.058544
 20
41.369582
 30
0.0
 10
-99.214830
 20
41.525868
 30
0.0
  0
SPLINE
  5
269
100
AcDbEntity
  8
0
 62
7
100
AcDbSpline
 70
8
 71
3
 72
8
 73
4
 74
0
 40
0
 40
0
 40
0
 40
0
 40
1
 40
1
 40
1
 40
1
 10
-99.214830
 20
41.525868
 30
0.0
 10
-99.371116
 20
41.682154
 30
0.0
 10
-99.583086
 20
41.769955
 30
0.0
 10
-99.804108
 20
41.769955
 30
0.0
  0
LWPOLYLINE
  5
26a
100
AcDbEntity
  8
0
 62
7
100
AcDbPolyline
 90
1
 70
1
 10
-106.804374
 20
41.769955
 30
0.0
  0
SPLINE
  5
26b
100
AcDbEntity
  8
0
 62
7
100
AcDbSpline
 70
8
 71
3
 72
8
 73
4
 74
0
 40
0
 40
0
 40
0
 40
0
 40
1
 40
1
 40
1
 40
1
 10
-94.470572
 20
42.269974
 30
0.0
 10
-94.807637
 20
42.269974
 30
0.0
 10
-95.111512
 20
42.066931
 30
0.0
 10
-95.240501
 20
41.755524
 30
0.0
  0
SPLINE
  5
26c
100
AcDbEntity
  8
0
 62
7
100
AcDbSpline
 70
8
 71
3
 72
8
 73
4
 74
0
 40
0
 40
0
 40
0
 40
0
 40
1
 40
1
 40
1
 40
1
 10
-95.240501
 20
41.755524
 30
0.0
 10
-95.369490
 20
41.444117
 30
0.0
 10
-95.298191
 20
41.085672
 30
0.0
 10
-95.059850
 20
40.847331
 30
0.0
  0
SPLINE
  5
26d
100
AcDbEntity
  8
0
 62
7
100
AcDbSpline
 70
8
 71
3
 72
8
 73
4
 74
0
 40
0
 40
0
 40
0
 40
0
 40
1
 40
1
 40
1
 40
1
 10
-95.059850
 20
40.847331
 30
0.0
 10
-94.821509
 20
40.608990
 30
0.0
 10
-94.463064
 20
40.537691
 30
0.0
 10
-94.151657
 20
40.666680
 30
0.0
  0
SPLINE
  5
26e
100
AcDbEntity
  8
0
 62
7
100
AcDbSpline
 70
8
 71
3
 72
8
 73
4
 74
0
 40
0
 40
0
 40
0
 40
0
 40
1
 40
1
 40
1
 40
1
 10
-94.151657
 20
40.666680
 30
0.0
 10
-93.840250
 20
40.795669
 30
0.0
 10
-93.637207
 20
41.099544
 30
0.0
 10
-93.637207
 20
41.436609
 30
0.0
  0
SPLINE
  5
26f
100
AcDbEntity
  8
0
 62
7
100
AcDbSpline
 70
8
 71
3
 72
8
 73
4
 74
0
 40
0
 40
0
 40
0
 40
0
 40
1
 40
1
 40
1
 40
1
 10
-93.637207
 20
41.436609
 30
0.0
 10
-93.637207
 20
41.657631
 30
0.0
 10
-93.725008
 20
41.869601
 30
0.0
 10
-93.881294
 20
42.025887
 30
0.0
  0
SPLINE
  5
270
100
AcDbEntity
  8
0
 62
7
100
AcDbSpline
 70
8
 71
3
 72
8
 73
4
 74
0
 40
0
 40
0
 40
0
 40
0
 40
1
 40
1
 40
1
 40
1
 10
-93.881294
 20
42.025887
 30
0.0
 10
-94.037580
 20
42.182173
 30
0.0
 10
-94.249550
 20
42.269974
 30
0.0
 10
-94.470572
 20
42.269974
 30
0.0
  0
LWPOLYLINE
  5
271
100
AcDbEntity
  8
0
 62
7
100
AcDbPolyline
 90
1
 70
1
 10
-99.804108
 20
41.769955
 30
0.0
  0
SPLINE
  5
272
100
AcDbEntity
  8
0
 62
7
100
AcDbSpline
 70
8
 71
3
 72
8
 73
4
 74
0
 40
0
 40
0
 40
0
 40
0
 40
1
 40
1
 40
1
 40
1
 10
-108.471104
 20
36.269746
 30
0.0
 10
-108.808169
 20
36.269746
 30
0.0
 10
-109.112044
 20
36.066703
 30
0.0
 10
-109.241033
 20
35.755296
 30
0.0
  0
SPLINE
  5
273
100
AcDbEntity
  8
0
 62
7
100
AcDbSpline
 70
8
 71
3
 72
8
 73
4
 74
0
 40
0
 40
0
 40
0
 40
0
 40
1
 40
1
 40
1
 40
1
 10
-109.241033
 20
35.755296
 30
0.0
 10
-109.370022
 20
35.443889
 30
0.0
 10
-109.298723
 20
35.085444
 30
0.0
 10
-109.060382
 20
34.847103
 30
0.0
  0
SPLINE
  5
274
100
AcDbEntity
  8
0
 62
7
100
AcDbSpline
 70
8
 71
3
 72
8
 73
4
 74
0
 40
0
 40
0
 40
0
 40
0
 40
1
 40
1
 40
1
 40
1
 10
-109.060382
 20
34.847103
 30
0.0
 10
-108.822041
 20
34.608762
 30
0.0
 10
-108.463596
 20
34.537463
 30
0.0
 10
-108.152189
 20
34.666452
 30
0.0
  0
SPLINE
  5
275
100
AcDbEntity
  8
0
 62
7
100
AcDbSpline
 70
8
 71
3
 72
8
 73
4
 74
0
 40
0
 40
0
 40
0
 40
0
 40
1
 40
1
 40
1
 40
1
 10
-108.152189
 20
34.666452
 30
0.0
 10
-107.840782
 20
34.795441
 30
0.0
 10
-107.637739
 20
35.099316
 30
0.0
 10
-107.637739
 20
35.436381
 30
0.0
  0
SPLINE
  5
276
100
AcDbEntity
  8
0
 62
7
100
AcDbSpline
 70
8
 71
3
 72
8
 73
4
 74
0
 40
0
 40
0
 40
0
 40
0
 40
1
 40
1
 40
1
 40
1
 10
-107.637739
 20
35.436381
 30
0.0
 10
-107.637739
 20
35.657403
 30
0.0
 10
-107.725540
 20
35.869373
 30
0.0
 10
-107.881826
 20
36.025659
 30
0.0
  0
SPLINE
  5
277
100
AcDbEntity
  8
0
 62
7
100
AcDbSpline
 70
8
 71
3
 72
8
 73
4
 74
0
 40
0
 40
0
 40
0
 40
0
 40
1
 40
1
 40
1
 40
1
 10
-107.881826
 20
36.025659
 30
0.0
 10
-108.038112
 20
36.181945
 30
0.0
 10
-108.250082
 20
36.269746
 30
0.0
 10
-108.471104
 20
36.269746
 30
0.0
  0
LWPOLYLINE
  5
278
100
AcDbEntity
  8
0
 62
7
100
AcDbPolyline
 90
1
 70
1
 10
-94.470572
 20
42.269974
 30
0.0
  0
SPLINE
  5
279
100
AcDbEntity
  8
0
 62
7
100
AcDbSpline
 70
8
 71
3
 72
8
 73
4
 74
0
 40
0
 40
0
 40
0
 40
0
 40
1
 40
1
 40
1
 40
1
 10
-103.637587
 20
36.936438
 30
0.0
 10
-103.974652
 20
36.936438
 30
0.0
 10
-104.278527
 20
36.733395
 30
0.0
 10
-104.407516
 20
36.421988
 30
0.0
  0
SPLINE
  5
27a
100
AcDbEntity
  8
0
 62
7
100
AcDbSpline
 70
8
 71
3
 72
8
 73
4
 74
0
 40
0
 40
0
 40
0
 40
0
 40
1
 40
1
 40
1
 40
1
 10
-104.407516
 20
36.421988
 30
0.0
 10
-104.536505
 20
36.110581
 30
0.0
 10
-104.465206
 20
35.752136
 30
0.0
 10
-104.226865
 20
35.513795
 30
0.0
  0
SPLINE
  5
27b
100
AcDbEntity
  8
0
 62
7
100
AcDbSpline
 70
8
 71
3
 72
8
 73
4
 74
0
 40
0
 40
0
 40
0
 40
0
 40
1
 40
1
 40
1
 40
1
 10
-104.226865
 20
35.513795
 30
0.0
 10
-103.988524
 20
35.275454
 30
0.0
 10
-103.630079
 20
35.204155
 30
0.0
 10
-103.318672
 20
35.333144
 30
0.0
  0
SPLINE
  5
27c
100
AcDbEntity
  8
0
 62
7
100
AcDbSpline
 70
8
 71
3
 72
8
 73
4
 74
0
 40
0
 40
0
 40
0
 40
0
 40
1
 40
1
 40
1
 40
1
 10
-103.318672
 20
35.333144
 30
0.0
 10
-103.007265
 20
35.462133
 30
0.0
 10
-102.804222
 20
35.766008
 30
0.0
 10
-102.804222
 20
36.103073
 30
0.0
  0
SPLINE
  5
27d
100
AcDbEntity
  8
0
 62
7
100
AcDbSpline
 70
8
 71
3
 72
8
 73
4
 74
0
 40
0
 40
0
 40
0
 40
0
 40
1
 40
1
 40
1
 40
1
 10
-102.804222
 20
36.103073
 30
0.0
 10
-102.804222
 20
36.324095
 30
0.0
 10
-102.892023
 20
36.536065
 30
0.0
 10
-103.048309
 20
36.692351
 30
0.0
  0
SPLINE
  5
27e
100
AcDbEntity
  8
0
 62
7
100
AcDbSpline
 70
8
 71
3
 72
8
 73
4
 74
0
 40
0
 40
0
 40
0
 40
0
 40
1
 40
1
 40
1
 40
1
 10
-103.048309
 20
36.692351
 30
0.0
 10
-103.204595
 20
36.848637
 30
0.0
 10
-103.416565
 20
36.936438
 30
0.0
 10
-103.637587
 20
36.936438
 30
0.0
  0
LWPOLYLINE
  5
27f
100
AcDbEntity
  8
0
 62
7
100
AcDbPolyline
 90
1
 70
1
 10
-108.471104
 20
36.269746
 30
0.0
  0
SPLINE
  5
280
100
AcDbEntity
  8
0
 62
7
100
AcDbSpline
 70
8
 71
3
 72
8
 73
4
 74
0
 40
0
 40
0
 40
0
 40
0
 40
1
 40
1
 40
1
 40
1
 10
-98.970743
 20
35.769727
 30
0.0
 10
-99.307808
 20
35.769727
 30
0.0
 10
-99.611683
 20
35.566684
 30
0.0
 10
-99.740672
 20
35.255277
 30
0.0
  0
SPLINE
  5
281
100
AcDbEntity
  8
0
 62
7
100
AcDbSpline
 70
8
 71
3
 72
8
 73
4
 74
0
 40
0
 40
0
 40
0
 40
0
 40
1
 40
1
 40
1
 40
1
 10
-99.740672
 20
35.255277
 30
0.0
 10
-99.869661
 20
34.943870
 30
0.0
 10
-99.798362
 20
34.585425
 30
0.0
 10
-99.560021
 20
34.347084
 30
0.0
  0
SPLINE
  5
282
100
AcDbEntity
  8
0
 62
7
100
AcDbSpline
 70
8
 71
3
 72
8
 73
4
 74
0
 40
0
 40
0
 40
0
 40
0
 40
1
 40
1
 40
1
 40
1
 10
-99.560021
 20
34.347084
 30
0.0
 10
-99.321680
 20
34.108743
 30
0.0
 10
-98.963235
 20
34.037444
 30
0.0
 10
-98.651828
 20
34.166433
 30
0.0
  0
SPLINE
  5
283
100
AcDbEntity
  8
0
 62
7
100
AcDbSpline
 70
8
 71
3
 72
8
 73
4
 74
0
 40
0
 40
0
 40
0
 40
0
 40
1
 40
1
 40
1
 40
1
 10
-98.651828
 20
34.166433
 30
0.0
 10
-98.340421
 20
34.295422
 30
0.0
 10
-98.137378
 20
34.599297
 30
0.0
 10
-98.137378
 20
34.936362
 30
0.0
  0
SPLINE
  5
284
100
AcDbEntity
  8
0
 62
7
100
AcDbSpline
 70
8
 71
3
 72
8
 73
4
 74
0
 40
0
 40
0
 40
0
 40
0
 40
1
 40
1
 40
1
 40
1
 10
-98.137378
 20
34.936362
 30
0.0
 10
-98.137378
 20
35.157384
 30
0.0
 10
-98.225179
 20
35.369354
 30
0.0
 10
-98.381465
 20
35.525640
 30
0.0
  0
SPLINE
  5
285
100
AcDbEntity
  8
0
 62
7
100
AcDbSpline
 70
8
 71
3
 72
8
 73
4
 74
0
 40
0
 40
0
 40
0
 40
0
 40
1
 40
1
 40
1
 40
1
 10
-98.381465
 20
35.525640
 30
0.0
 10
-98.537751
 20
35.681926
 30
0.0
 10
-98.749721
 20
35.769727
 30
0.0
 10
-98.970743
 20
35.769727
 30
0.0
  0
LWPOLYLINE
  5
286
100
AcDbEntity
  8
0
 62
7
100
AcDbPolyline
 90
1
 70
1
 10
-103.637587
 20
36.936438
 30
0.0
  0
SPLINE
  5
287
100
AcDbEntity
  8
0
 62
7
100
AcDbSpline
 70
8
 71
3
 72
8
 73
4
 74
0
 40
0
 40
0
 40
0
 40
0
 40
1
 40
1
 40
1
 40
1
 10
-93.303861
 20
35.603054
 30
0.0
 10
-93.640926
 20
35.603054
 30
0.0
 10
-93.944801
 20
35.400011
 30
0.0
 10
-94.073790
 20
35.088604
 30
0.0
  0
SPLINE
  5
288
100
AcDbEntity
  8
0
 62
7
100
AcDbSpline
 70
8
 71
3
 72
8
 73
4
 74
0
 40
0
 40
0
 40
0
 40
0
 40
1
 40
1
 40
1
 40
1
 10
-94.073790
 20
35.088604
 30
0.0
 10
-94.202779
 20
34.777197
 30
0.0
 10
-94.131480
 20
34.418752
 30
0.0
 10
-93.893139
 20
34.180411
 30
0.0
  0
SPLINE
  5
289
100
AcDbEntity
  8
0
 62
7
100
AcDbSpline
 70
8
 71
3
 72
8
 73
4
 74
0
 40
0
 40
0
 40
0
 40
0
 40
1
 40
1
 40
1
 40
1
 10
-93.893139
 20
34.180411
 30
0.0
 10
-93.654798
 20
33.942070
 30
0.0
 10
-93.296353
 20
33.870771
 30
0.0
 10
-92.984946
 20
33.999760
 30
0.0
  0
SPLINE
  5
28a
100
AcDbEntity
  8
0
 62
7
100
AcDbSpline
 70
8
 71
3
 72
8
 73
4
 74
0
 40
0
 40
0
 40
0
 40
0
 40
1
 40
1
 40
1
 40
1
 10
-92.984946
 20
33.999760
 30
0.0
 10
-92.673539
 20
34.128749
 30
0.0
 10
-92.470496
 20
34.432624
 30
0.0
 10
-92.470496
 20
34.769689
 30
0.0
  0
SPLINE
  5
28b
100
AcDbEntity
  8
0
 62
7
100
AcDbSpline
 70
8
 71
3
 72
8
 73
4
 74
0
 40
0
 40
0
 40
0
 40
0
 40
1
 40
1
 40
1
 40
1
 10
-92.470496
 20
34.769689
 30
0.0
 10
-92.470496
 20
34.990711
 30
0.0
 10
-92.558297
 20
35.202681
 30
0.0
 10
-92.714583
 20
35.358967
 30
0.0
  0
SPLINE
  5
28c
100
AcDbEntity
  8
0
 62
7
100
AcDbSpline
 70
8
 71
3
 72
8
 73
4
 74
0
 40
0
 40
0
 40
0
 40
0
 40
1
 40
1
 40
1
 40
1
 10
-92.714583
 20
35.358967
 30
0.0
 10
-92.870869
 20
35.515253
 30
0.0
 10
-93.082839
 20
35.603054
 30
0.0
 10
-93.303861
 20
35.603054
 30
0.0
  0
LWPOLYLINE
  5
28d
100
AcDbEntity
  8
0
 62
7
100
AcDbPolyline
 90
1
 70
1
 10
-98.970743
 20
35.769727
 30
0.0
  0
SPLINE
  5
28e
100
AcDbEntity
  8
0
 62
7
100
AcDbSpline
 70
8
 71
3
 72
8
 73
4
 74
0
 40
0
 40
0
 40
0
 40
0
 40
1
 40
1
 40
1
 40
1
 10
-110.137834
 20
31.269556
 30
0.0
 10
-110.474899
 20
31.269556
 30
0.0
 10
-110.778774
 20
31.066513
 30
0.0
 10
-110.907763
 20
30.755106
 30
0.0
  0
SPLINE
  5
28f
100
AcDbEntity
  8
0
 62
7
100
AcDbSpline
 70
8
 71
3
 72
8
 73
4
 74
0
 40
0
 40
0
 40
0
 40
0
 40
1
 40
1
 40
1
 40
1
 10
-110.907763
 20
30.755106
 30
0.0
 10
-111.036752
 20
30.443699
 30
0.0
 10
-110.965453
 20
30.085254
 30
0.0
 10
-110.727112
 20
29.846913
 30
0.0
  0
SPLINE
  5
290
100
AcDbEntity
  8
0
 62
7
100
AcDbSpline
 70
8
 71
3
 72
8
 73
4
 74
0
 40
0
 40
0
 40
0
 40
0
 40
1
 40
1
 40
1
 40
1
 10
-110.727112
 20
29.846913
 30
0.0
 10
-110.488771
 20
29.608572
 30
0.0
 10
-110.130326
 20
29.537273
 30
0.0
 10
-109.818919
 20
29.666262
 30
0.0
  0
SPLINE
  5
291
100
AcDbEntity
  8
0
 62
7
100
AcDbSpline
 70
8
 71
3
 72
8
 73
4
 74
0
 40
0
 40
0
 40
0
 40
0
 40
1
 40
1
 40
1
 40
1
 10
-109.818919
 20
29.666262
 30
0.0
 10
-109.507512
 20
29.795251
 30
0.0
 10
-109.304469
 20
30.099126
 30
0.0
 10
-109.304469
 20
30.436191
 30
0.0
  0
SPLINE
  5
292
100
AcDbEntity
  8
0
 62
7
100
AcDbSpline
 70
8
 71
3
 72
8
 73
4
 74
0
 40
0
 40
0
 40
0
 40
0
 40
1
 40
1
 40
1
 40
1
 10
-109.304469
 20
30.436191
 30
0.0
 10
-109.304469
 20
30.657213
 30
0.0
 10
-109.392270
 20
30.869183
 30
0.0
 10
-109.548556
 20
31.025469
 30
0.0
  0
SPLINE
  5
293
100
AcDbEntity
  8
0
 62
7
100
AcDbSpline
 70
8
 71
3
 72
8
 73
4
 74
0
 40
0
 40
0
 40
0
 40
0
 40
1
 40
1
 40
1
 40
1
 10
-109.548556
 20
31.025469
 30
0.0
 10
-109.704842
 20
31.181755
 30
0.0
 10
-109.916812
 20
31.269556
 30
0.0
 10
-110.137834
 20
31.269556
 30
0.0
  0
LWPOLYLINE
  5
294
100
AcDbEntity
  8
0
 62
7
100
AcDbPolyline
 90
1
 70
1
 10
-93.303861
 20
35.603054
 30
0.0
  0
LWPOLYLINE
  5
295
100
AcDbEntity
  8
0
 62
7
100
AcDbPolyline
 90
1
 70
1
 10
-110.137834
 20
31.269556
 30
0.0
  0
SPLINE
  5
296
100
AcDbEntity
  8
0
 62
7
100
AcDbSpline
 70
8
 71
3
 72
8
 73
4
 74
0
 40
0
 40
0
 40
0
 40
0
 40
1
 40
1
 40
1
 40
1
 10
-86.803614
 20
48.936894
 30
0.0
 10
-87.140679
 20
48.936894
 30
0.0
 10
-87.444554
 20
48.733851
 30
0.0
 10
-87.573543
 20
48.422444
 30
0.0
  0
SPLINE
  5
297
100
AcDbEntity
  8
0
 62
7
100
AcDbSpline
 70
8
 71
3
 72
8
 73
4
 74
0
 40
0
 40
0
 40
0
 40
0
 40
1
 40
1
 40
1
 40
1
 10
-87.573543
 20
48.422444
 30
0.0
 10
-87.702532
 20
48.111037
 30
0.0
 10
-87.631233
 20
47.752592
 30
0.0
 10
-87.392892
 20
47.514251
 30
0.0
  0
SPLINE
  5
298
100
AcDbEntity
  8
0
 62
7
100
AcDbSpline
 70
8
 71
3
 72
8
 73
4
 74
0
 40
0
 40
0
 40
0
 40
0
 40
1
 40
1
 40
1
 40
1
 10
-87.392892
 20
47.514251
 30
0.0
 10
-87.154551
 20
47.275910
 30
0.0
 10
-86.796106
 20
47.204611
 30
0.0
 10
-86.484699
 20
47.333600
 30
0.0
  0
SPLINE
  5
299
100
AcDbEntity
  8
0
 62
7
100
AcDbSpline
 70
8
 71
3
 72
8
 73
4
 74
0
 40
0
 40
0
 40
0
 40
0
 40
1
 40
1
 40
1
 40
1
 10
-86.484699
 20
47.333600
 30
0.0
 10
-86.173292
 20
47.462589
 30
0.0
 10
-85.970249
 20
47.766464
 30
0.0
 10
-85.970249
 20
48.103529
 30
0.0
  0
SPLINE
  5
29a
100
AcDbEntity
  8
0
 62
7
100
AcDbSpline
 70
8
 71
3
 72
8
 73
4
 74
0
 40
0
 40
0
 40
0
 40
0
 40
1
 40
1
 40
1
 40
1
 10
-85.970249
 20
48.103529
 30
0.0
 10
-85.970249
 20
48.324551
 30
0.0
 10
-86.058050
 20
48.536521
 30
0.0
 10
-86.214336
 20
48.692807
 30
0.0
  0
SPLINE
  5
29b
100
AcDbEntity
  8
0
 62
7
100
AcDbSpline
 70
8
 71
3
 72
8
 73
4
 74
0
 40
0
 40
0
 40
0
 40
0
 40
1
 40
1
 40
1
 40
1
 10
-86.214336
 20
48.692807
 30
0.0
 10
-86.370622
 20
48.849093
 30
0.0
 10
-86.582592
 20
48.936894
 30
0.0
 10
-86.803614
 20
48.936894
 30
0.0
  0
LWPOLYLINE
  5
29c
100
AcDbEntity
  8
0
 62
7
100
AcDbPolyline
 90
14
 70
1
 10
-73.569778
 20
29.847835
 30
0.0
 10
-81.043395
 20
36.373083
 30
0.0
 10
-81.643418
 20
35.796395
 30
0.0
 10
-80.305034
 20
27.356074
 30
0.0
 10
-86.821948
 20
27.356074
 30
0.0
 10
-90.272079
 20
50.655293
 30
0.0
 10
-84.113512
 20
51.535326
 30
0.0
 10
-82.541785
 20
42.008297
 30
0.0
 10
-78.164952
 20
49.151902
 30
0.0
 10
-71.146352
 20
49.335242
 30
0.0
 10
-76.746565
 20
40.438238
 30
0.0
 10
-67.526215
 20
31.374560
 30
0.0
 10
-73.568111
 20
29.844502
 30
0.0
 10
-73.568111
 20
29.847835
 30
0.0
  0
SPLINE
  5
29d
100
AcDbEntity
  8
0
 62
7
100
AcDbSpline
 70
8
 71
3
 72
8
 73
4
 74
0
 40
0
 40
0
 40
0
 40
0
 40
1
 40
1
 40
1
 40
1
 10
-76.303215
 20
47.770183
 30
0.0
 10
-76.640280
 20
47.770183
 30
0.0
 10
-76.944155
 20
47.567140
 30
0.0
 10
-77.073144
 20
47.255733
 30
0.0
  0
SPLINE
  5
29e
100
AcDbEntity
  8
0
 62
7
100
AcDbSpline
 70
8
 71
3
 72
8
 73
4
 74
0
 40
0
 40
0
 40
0
 40
0
 40
1
 40
1
 40
1
 40
1
 10
-77.073144
 20
47.255733
 30
0.0
 10
-77.202133
 20
46.944326
 30
0.0
 10
-77.130834
 20
46.585881
 30
0.0
 10
-76.892493
 20
46.347540
 30
0.0
  0
SPLINE
  5
29f
100
AcDbEntity
  8
0
 62
7
100
AcDbSpline
 70
8
 71
3
 72
8
 73
4
 74
0
 40
0
 40
0
 40
0
 40
0
 40
1
 40
1
 40
1
 40
1
 10
-76.892493
 20
46.347540
 30
0.0
 10
-76.654152
 20
46.109199
 30
0.0
 10
-76.295707
 20
46.037900
 30
0.0
 10
-75.984300
 20
46.166889
 30
0.0
  0
SPLINE
  5
2a0
100
AcDbEntity
  8
0
 62
7
100
AcDbSpline
 70
8
 71
3
 72
8
 73
4
 74
0
 40
0
 40
0
 40
0
 40
0
 40
1
 40
1
 40
1
 40
1
 10
-75.984300
 20
46.166889
 30
0.0
 10
-75.672893
 20
46.295878
 30
0.0
 10
-75.469850
 20
46.599753
 30
0.0
 10
-75.469850
 20
46.936818
 30
0.0
  0
SPLINE
  5
2a1
100
AcDbEntity
  8
0
 62
7
100
AcDbSpline
 70
8
 71
3
 72
8
 73
4
 74
0
 40
0
 40
0
 40
0
 40
0
 40
1
 40
1
 40
1
 40
1
 10
-75.469850
 20
46.936818
 30
0.0
 10
-75.469850
 20
47.157840
 30
0.0
 10
-75.557651
 20
47.369810
 30
0.0
 10
-75.713937
 20
47.526096
 30
0.0
  0
SPLINE
  5
2a2
100
AcDbEntity
  8
0
 62
7
100
AcDbSpline
 70
8
 71
3
 72
8
 73
4
 74
0
 40
0
 40
0
 40
0
 40
0
 40
1
 40
1
 40
1
 40
1
 10
-75.713937
 20
47.526096
 30
0.0
 10
-75.870223
 20
47.682382
 30
0.0
 10
-76.082193
 20
47.770183
 30
0.0
 10
-76.303215
 20
47.770183
 30
0.0
  0
LWPOLYLINE
  5
2a3
100
AcDbEntity
  8
0
 62
7
100
AcDbPolyline
 90
1
 70
1
 10
-86.803614
 20
48.936894
 30
0.0
  0
SPLINE
  5
2a4
100
AcDbEntity
  8
0
 62
7
100
AcDbSpline
 70
8
 71
3
 72
8
 73
4
 74
0
 40
0
 40
0
 40
0
 40
0
 40
1
 40
1
 40
1
 40
1
 10
-86.136922
 20
44.270050
 30
0.0
 10
-86.473987
 20
44.270050
 30
0.0
 10
-86.777862
 20
44.067007
 30
0.0
 10
-86.906851
 20
43.755600
 30
0.0
  0
SPLINE
  5
2a5
100
AcDbEntity
  8
0
 62
7
100
AcDbSpline
 70
8
 71
3
 72
8
 73
4
 74
0
 40
0
 40
0
 40
0
 40
0
 40
1
 40
1
 40
1
 40
1
 10
-86.906851
 20
43.755600
 30
0.0
 10
-87.035840
 20
43.444193
 30
0.0
 10
-86.964541
 20
43.085748
 30
0.0
 10
-86.726200
 20
42.847407
 30
0.0
  0
SPLINE
  5
2a6
100
AcDbEntity
  8
0
 62
7
100
AcDbSpline
 70
8
 71
3
 72
8
 73
4
 74
0
 40
0
 40
0
 40
0
 40
0
 40
1
 40
1
 40
1
 40
1
 10
-86.726200
 20
42.847407
 30
0.0
 10
-86.487859
 20
42.609066
 30
0.0
 10
-86.129414
 20
42.537767
 30
0.0
 10
-85.818007
 20
42.666756
 30
0.0
  0
SPLINE
  5
2a7
100
AcDbEntity
  8
0
 62
7
100
AcDbSpline
 70
8
 71
3
 72
8
 73
4
 74
0
 40
0
 40
0
 40
0
 40
0
 40
1
 40
1
 40
1
 40
1
 10
-85.818007
 20
42.666756
 30
0.0
 10
-85.506600
 20
42.795745
 30
0.0
 10
-85.303557
 20
43.099620
 30
0.0
 10
-85.303557
 20
43.436685
 30
0.0
  0
SPLINE
  5
2a8
100
AcDbEntity
  8
0
 62
7
100
AcDbSpline
 70
8
 71
3
 72
8
 73
4
 74
0
 40
0
 40
0
 40
0
 40
0
 40
1
 40
1
 40
1
 40
1
 10
-85.303557
 20
43.436685
 30
0.0
 10
-85.303557
 20
43.657707
 30
0.0
 10
-85.391358
 20
43.869677
 30
0.0
 10
-85.547644
 20
44.025963
 30
0.0
  0
SPLINE
  5
2a9
100
AcDbEntity
  8
0
 62
7
100
AcDbSpline
 70
8
 71
3
 72
8
 73
4
 74
0
 40
0
 40
0
 40
0
 40
0
 40
1
 40
1
 40
1
 40
1
 10
-85.547644
 20
44.025963
 30
0.0
 10
-85.703930
 20
44.182249
 30
0.0
 10
-85.915900
 20
44.270050
 30
0.0
 10
-86.136922
 20
44.270050
 30
0.0
  0
LWPOLYLINE
  5
2aa
100
AcDbEntity
  8
0
 62
7
100
AcDbPolyline
 90
1
 70
1
 10
-76.303215
 20
47.770183
 30
0.0
  0
SPLINE
  5
2ab
100
AcDbEntity
  8
0
 62
7
100
AcDbSpline
 70
8
 71
3
 72
8
 73
4
 74
0
 40
0
 40
0
 40
0
 40
0
 40
1
 40
1
 40
1
 40
1
 10
-78.636637
 20
44.103377
 30
0.0
 10
-78.973702
 20
44.103377
 30
0.0
 10
-79.277577
 20
43.900334
 30
0.0
 10
-79.406566
 20
43.588927
 30
0.0
  0
SPLINE
  5
2ac
100
AcDbEntity
  8
0
 62
7
100
AcDbSpline
 70
8
 71
3
 72
8
 73
4
 74
0
 40
0
 40
0
 40
0
 40
0
 40
1
 40
1
 40
1
 40
1
 10
-79.406566
 20
43.588927
 30
0.0
 10
-79.535555
 20
43.277520
 30
0.0
 10
-79.464256
 20
42.919075
 30
0.0
 10
-79.225915
 20
42.680734
 30
0.0
  0
SPLINE
  5
2ad
100
AcDbEntity
  8
0
 62
7
100
AcDbSpline
 70
8
 71
3
 72
8
 73
4
 74
0
 40
0
 40
0
 40
0
 40
0
 40
1
 40
1
 40
1
 40
1
 10
-79.225915
 20
42.680734
 30
0.0
 10
-78.987574
 20
42.442393
 30
0.0
 10
-78.629129
 20
42.371094
 30
0.0
 10
-78.317722
 20
42.500083
 30
0.0
  0
SPLINE
  5
2ae
100
AcDbEntity
  8
0
 62
7
100
AcDbSpline
 70
8
 71
3
 72
8
 73
4
 74
0
 40
0
 40
0
 40
0
 40
0
 40
1
 40
1
 40
1
 40
1
 10
-78.317722
 20
42.500083
 30
0.0
 10
-78.006315
 20
42.629072
 30
0.0
 10
-77.803272
 20
42.932947
 30
0.0
 10
-77.803272
 20
43.270012
 30
0.0
  0
SPLINE
  5
2af
100
AcDbEntity
  8
0
 62
7
100
AcDbSpline
 70
8
 71
3
 72
8
 73
4
 74
0
 40
0
 40
0
 40
0
 40
0
 40
1
 40
1
 40
1
 40
1
 10
-77.803272
 20
43.270012
 30
0.0
 10
-77.803272
 20
43.491034
 30
0.0
 10
-77.891073
 20
43.703004
 30
0.0
 10
-78.047359
 20
43.859290
 30
0.0
  0
SPLINE
  5
2b0
100
AcDbEntity
  8
0
 62
7
100
AcDbSpline
 70
8
 71
3
 72
8
 73
4
 74
0
 40
0
 40
0
 40
0
 40
0
 40
1
 40
1
 40
1
 40
1
 10
-78.047359
 20
43.859290
 30
0.0
 10
-78.203645
 20
44.015576
 30
0.0
 10
-78.415615
 20
44.103377
 30
0.0
 10
-78.636637
 20
44.103377
 30
0.0
  0
LWPOLYLINE
  5
2b1
100
AcDbEntity
  8
0
 62
7
100
AcDbPolyline
 90
1
 70
1
 10
-86.136922
 20
44.270050
 30
0.0
  0
SPLINE
  5
2b2
100
AcDbEntity
  8
0
 62
7
100
AcDbSpline
 70
8
 71
3
 72
8
 73
4
 74
0
 40
0
 40
0
 40
0
 40
0
 40
1
 40
1
 40
1
 40
1
 10
-85.636903
 20
39.603206
 30
0.0
 10
-85.973968
 20
39.603206
 30
0.0
 10
-86.277843
 20
39.400163
 30
0.0
 10
-86.406832
 20
39.088756
 30
0.0
  0
SPLINE
  5
2b3
100
AcDbEntity
  8
0
 62
7
100
AcDbSpline
 70
8
 71
3
 72
8
 73
4
 74
0
 40
0
 40
0
 40
0
 40
0
 40
1
 40
1
 40
1
 40
1
 10
-86.406832
 20
39.088756
 30
0.0
 10
-86.535821
 20
38.777349
 30
0.0
 10
-86.464522
 20
38.418904
 30
0.0
 10
-86.226181
 20
38.180563
 30
0.0
  0
SPLINE
  5
2b4
100
AcDbEntity
  8
0
 62
7
100
AcDbSpline
 70
8
 71
3
 72
8
 73
4
 74
0
 40
0
 40
0
 40
0
 40
0
 40
1
 40
1
 40
1
 40
1
 10
-86.226181
 20
38.180563
 30
0.0
 10
-85.987840
 20
37.942222
 30
0.0
 10
-85.629395
 20
37.870923
 30
0.0
 10
-85.317988
 20
37.999912
 30
0.0
  0
SPLINE
  5
2b5
100
AcDbEntity
  8
0
 62
7
100
AcDbSpline
 70
8
 71
3
 72
8
 73
4
 74
0
 40
0
 40
0
 40
0
 40
0
 40
1
 40
1
 40
1
 40
1
 10
-85.317988
 20
37.999912
 30
0.0
 10
-85.006581
 20
38.128901
 30
0.0
 10
-84.803538
 20
38.432776
 30
0.0
 10
-84.803538
 20
38.769841
 30
0.0
  0
SPLINE
  5
2b6
100
AcDbEntity
  8
0
 62
7
100
AcDbSpline
 70
8
 71
3
 72
8
 73
4
 74
0
 40
0
 40
0
 40
0
 40
0
 40
1
 40
1
 40
1
 40
1
 10
-84.803538
 20
38.769841
 30
0.0
 10
-84.803538
 20
38.990863
 30
0.0
 10
-84.891339
 20
39.202833
 30
0.0
 10
-85.047625
 20
39.359119
 30
0.0
  0
SPLINE
  5
2b7
100
AcDbEntity
  8
0
 62
7
100
AcDbSpline
 70
8
 71
3
 72
8
 73
4
 74
0
 40
0
 40
0
 40
0
 40
0
 40
1
 40
1
 40
1
 40
1
 10
-85.047625
 20
39.359119
 30
0.0
 10
-85.203911
 20
39.515405
 30
0.0
 10
-85.415881
 20
39.603206
 30
0.0
 10
-85.636903
 20
39.603206
 30
0.0
  0
LWPOLYLINE
  5
2b8
100
AcDbEntity
  8
0
 62
7
100
AcDbPolyline
 90
1
 70
1
 10
-78.636637
 20
44.103377
 30
0.0
  0
SPLINE
  5
2b9
100
AcDbEntity
  8
0
 62
7
100
AcDbSpline
 70
8
 71
3
 72
8
 73
4
 74
0
 40
0
 40
0
 40
0
 40
0
 40
1
 40
1
 40
1
 40
1
 10
-80.803386
 20
40.269898
 30
0.0
 10
-81.140451
 20
40.269898
 30
0.0
 10
-81.444326
 20
40.066855
 30
0.0
 10
-81.573315
 20
39.755448
 30
0.0
  0
SPLINE
  5
2ba
100
AcDbEntity
  8
0
 62
7
100
AcDbSpline
 70
8
 71
3
 72
8
 73
4
 74
0
 40
0
 40
0
 40
0
 40
0
 40
1
 40
1
 40
1
 40
1
 10
-81.573315
 20
39.755448
 30
0.0
 10
-81.702304
 20
39.444041
 30
0.0
 10
-81.631005
 20
39.085596
 30
0.0
 10
-81.392664
 20
38.847255
 30
0.0
  0
SPLINE
  5
2bb
100
AcDbEntity
  8
0
 62
7
100
AcDbSpline
 70
8
 71
3
 72
8
 73
4
 74
0
 40
0
 40
0
 40
0
 40
0
 40
1
 40
1
 40
1
 40
1
 10
-81.392664
 20
38.847255
 30
0.0
 10
-81.154323
 20
38.608914
 30
0.0
 10
-80.795878
 20
38.537615
 30
0.0
 10
-80.484471
 20
38.666604
 30
0.0
  0
SPLINE
  5
2bc
100
AcDbEntity
  8
0
 62
7
100
AcDbSpline
 70
8
 71
3
 72
8
 73
4
 74
0
 40
0
 40
0
 40
0
 40
0
 40
1
 40
1
 40
1
 40
1
 10
-80.484471
 20
38.666604
 30
0.0
 10
-80.173064
 20
38.795593
 30
0.0
 10
-79.970021
 20
39.099468
 30
0.0
 10
-79.970021
 20
39.436533
 30
0.0
  0
SPLINE
  5
2bd
100
AcDbEntity
  8
0
 62
7
100
AcDbSpline
 70
8
 71
3
 72
8
 73
4
 74
0
 40
0
 40
0
 40
0
 40
0
 40
1
 40
1
 40
1
 40
1
 10
-79.970021
 20
39.436533
 30
0.0
 10
-79.970021
 20
39.657555
 30
0.0
 10
-80.057822
 20
39.869525
 30
0.0
 10
-80.214108
 20
40.025811
 30
0.0
  0
SPLINE
  5
2be
100
AcDbEntity
  8
0
 62
7
100
AcDbSpline
 70
8
 71
3
 72
8
 73
4
 74
0
 40
0
 40
0
 40
0
 40
0
 40
1
 40
1
 40
1
 40
1
 10
-80.214108
 20
40.025811
 30
0.0
 10
-80.370394
 20
40.182097
 30
0.0
 10
-80.582364
 20
40.269898
 30
0.0
 10
-80.803386
 20
40.269898
 30
0.0
  0
LWPOLYLINE
  5
2bf
100
AcDbEntity
  8
0
 62
7
100
AcDbPolyline
 90
1
 70
1
 10
-85.636903
 20
39.603206
 30
0.0
  0
SPLINE
  5
2c0
100
AcDbEntity
  8
0
 62
7
100
AcDbSpline
 70
8
 71
3
 72
8
 73
4
 74
0
 40
0
 40
0
 40
0
 40
0
 40
1
 40
1
 40
1
 40
1
 10
-84.970211
 20
34.936362
 30
0.0
 10
-85.307276
 20
34.936362
 30
0.0
 10
-85.611151
 20
34.733319
 30
0.0
 10
-85.740140
 20
34.421912
 30
0.0
  0
SPLINE
  5
2c1
100
AcDbEntity
  8
0
 62
7
100
AcDbSpline
 70
8
 71
3
 72
8
 73
4
 74
0
 40
0
 40
0
 40
0
 40
0
 40
1
 40
1
 40
1
 40
1
 10
-85.740140
 20
34.421912
 30
0.0
 10
-85.869129
 20
34.110505
 30
0.0
 10
-85.797830
 20
33.752060
 30
0.0
 10
-85.559489
 20
33.513719
 30
0.0
  0
SPLINE
  5
2c2
100
AcDbEntity
  8
0
 62
7
100
AcDbSpline
 70
8
 71
3
 72
8
 73
4
 74
0
 40
0
 40
0
 40
0
 40
0
 40
1
 40
1
 40
1
 40
1
 10
-85.559489
 20
33.513719
 30
0.0
 10
-85.321148
 20
33.275378
 30
0.0
 10
-84.962703
 20
33.204079
 30
0.0
 10
-84.651296
 20
33.333068
 30
0.0
  0
SPLINE
  5
2c3
100
AcDbEntity
  8
0
 62
7
100
AcDbSpline
 70
8
 71
3
 72
8
 73
4
 74
0
 40
0
 40
0
 40
0
 40
0
 40
1
 40
1
 40
1
 40
1
 10
-84.651296
 20
33.333068
 30
0.0
 10
-84.339889
 20
33.462057
 30
0.0
 10
-84.136846
 20
33.765932
 30
0.0
 10
-84.136846
 20
34.102997
 30
0.0
  0
SPLINE
  5
2c4
100
AcDbEntity
  8
0
 62
7
100
AcDbSpline
 70
8
 71
3
 72
8
 73
4
 74
0
 40
0
 40
0
 40
0
 40
0
 40
1
 40
1
 40
1
 40
1
 10
-84.136846
 20
34.102997
 30
0.0
 10
-84.136846
 20
34.324019
 30
0.0
 10
-84.224647
 20
34.535989
 30
0.0
 10
-84.380933
 20
34.692275
 30
0.0
  0
SPLINE
  5
2c5
100
AcDbEntity
  8
0
 62
7
100
AcDbSpline
 70
8
 71
3
 72
8
 73
4
 74
0
 40
0
 40
0
 40
0
 40
0
 40
1
 40
1
 40
1
 40
1
 10
-84.380933
 20
34.692275
 30
0.0
 10
-84.537219
 20
34.848561
 30
0.0
 10
-84.749189
 20
34.936362
 30
0.0
 10
-84.970211
 20
34.936362
 30
0.0
  0
LWPOLYLINE
  5
2c6
100
AcDbEntity
  8
0
 62
7
100
AcDbPolyline
 90
1
 70
1
 10
-80.803386
 20
40.269898
 30
0.0
  0
SPLINE
  5
2c7
100
AcDbEntity
  8
0
 62
7
100
AcDbSpline
 70
8
 71
3
 72
8
 73
4
 74
0
 40
0
 40
0
 40
0
 40
0
 40
1
 40
1
 40
1
 40
1
 10
-76.969907
 20
37.436457
 30
0.0
 10
-77.306972
 20
37.436457
 30
0.0
 10
-77.610847
 20
37.233414
 30
0.0
 10
-77.739836
 20
36.922007
 30
0.0
  0
SPLINE
  5
2c8
100
AcDbEntity
  8
0
 62
7
100
AcDbSpline
 70
8
 71
3
 72
8
 73
4
 74
0
 40
0
 40
0
 40
0
 40
0
 40
1
 40
1
 40
1
 40
1
 10
-77.739836
 20
36.922007
 30
0.0
 10
-77.868825
 20
36.610600
 30
0.0
 10
-77.797526
 20
36.252155
 30
0.0
 10
-77.559185
 20
36.013814
 30
0.0
  0
SPLINE
  5
2c9
100
AcDbEntity
  8
0
 62
7
100
AcDbSpline
 70
8
 71
3
 72
8
 73
4
 74
0
 40
0
 40
0
 40
0
 40
0
 40
1
 40
1
 40
1
 40
1
 10
-77.559185
 20
36.013814
 30
0.0
 10
-77.320844
 20
35.775473
 30
0.0
 10
-76.962399
 20
35.704174
 30
0.0
 10
-76.650992
 20
35.833163
 30
0.0
  0
SPLINE
  5
2ca
100
AcDbEntity
  8
0
 62
7
100
AcDbSpline
 70
8
 71
3
 72
8
 73
4
 74
0
 40
0
 40
0
 40
0
 40
0
 40
1
 40
1
 40
1
 40
1
 10
-76.650992
 20
35.833163
 30
0.0
 10
-76.339585
 20
35.962152
 30
0.0
 10
-76.136542
 20
36.266027
 30
0.0
 10
-76.136542
 20
36.603092
 30
0.0
  0
SPLINE
  5
2cb
100
AcDbEntity
  8
0
 62
7
100
AcDbSpline
 70
8
 71
3
 72
8
 73
4
 74
0
 40
0
 40
0
 40
0
 40
0
 40
1
 40
1
 40
1
 40
1
 10
-76.136542
 20
36.603092
 30
0.0
 10
-76.136542
 20
36.824114
 30
0.0
 10
-76.224343
 20
37.036084
 30
0.0
 10
-76.380629
 20
37.192370
 30
0.0
  0
SPLINE
  5
2cc
100
AcDbEntity
  8
0
 62
7
100
AcDbSpline
 70
8
 71
3
 72
8
 73
4
 74
0
 40
0
 40
0
 40
0
 40
0
 40
1
 40
1
 40
1
 40
1
 10
-76.380629
 20
37.192370
 30
0.0
 10
-76.536915
 20
37.348656
 30
0.0
 10
-76.748885
 20
37.436457
 30
0.0
 10
-76.969907
 20
37.436457
 30
0.0
  0
LWPOLYLINE
  5
2cd
100
AcDbEntity
  8
0
 62
7
100
AcDbPolyline
 90
1
 70
1
 10
-84.970211
 20
34.936362
 30
0.0
  0
SPLINE
  5
2ce
100
AcDbEntity
  8
0
 62
7
100
AcDbSpline
 70
8
 71
3
 72
8
 73
4
 74
0
 40
0
 40
0
 40
0
 40
0
 40
1
 40
1
 40
1
 40
1
 10
-84.303519
 20
30.436191
 30
0.0
 10
-84.640584
 20
30.436191
 30
0.0
 10
-84.944459
 20
30.233148
 30
0.0
 10
-85.073448
 20
29.921741
 30
0.0
  0
SPLINE
  5
2cf
100
AcDbEntity
  8
0
 62
7
100
AcDbSpline
 70
8
 71
3
 72
8
 73
4
 74
0
 40
0
 40
0
 40
0
 40
0
 40
1
 40
1
 40
1
 40
1
 10
-85.073448
 20
29.921741
 30
0.0
 10
-85.202437
 20
29.610334
 30
0.0
 10
-85.131138
 20
29.251889
 30
0.0
 10
-84.892797
 20
29.013548
 30
0.0
  0
SPLINE
  5
2d0
100
AcDbEntity
  8
0
 62
7
100
AcDbSpline
 70
8
 71
3
 72
8
 73
4
 74
0
 40
0
 40
0
 40
0
 40
0
 40
1
 40
1
 40
1
 40
1
 10
-84.892797
 20
29.013548
 30
0.0
 10
-84.654456
 20
28.775207
 30
0.0
 10
-84.296011
 20
28.703908
 30
0.0
 10
-83.984604
 20
28.832897
 30
0.0
  0
SPLINE
  5
2d1
100
AcDbEntity
  8
0
 62
7
100
AcDbSpline
 70
8
 71
3
 72
8
 73
4
 74
0
 40
0
 40
0
 40
0
 40
0
 40
1
 40
1
 40
1
 40
1
 10
-83.984604
 20
28.832897
 30
0.0
 10
-83.673197
 20
28.961886
 30
0.0
 10
-83.470154
 20
29.265761
 30
0.0
 10
-83.470154
 20
29.602826
 30
0.0
  0
SPLINE
  5
2d2
100
AcDbEntity
  8
0
 62
7
100
AcDbSpline
 70
8
 71
3
 72
8
 73
4
 74
0
 40
0
 40
0
 40
0
 40
0
 40
1
 40
1
 40
1
 40
1
 10
-83.470154
 20
29.602826
 30
0.0
 10
-83.470154
 20
29.823848
 30
0.0
 10
-83.557955
 20
30.035818
 30
0.0
 10
-83.714241
 20
30.192104
 30
0.0
  0
SPLINE
  5
2d3
100
AcDbEntity
  8
0
 62
7
100
AcDbSpline
 70
8
 71
3
 72
8
 73
4
 74
0
 40
0
 40
0
 40
0
 40
0
 40
1
 40
1
 40
1
 40
1
 10
-83.714241
 20
30.192104
 30
0.0
 10
-83.870527
 20
30.348390
 30
0.0
 10
-84.082497
 20
30.436191
 30
0.0
 10
-84.303519
 20
30.436191
 30
0.0
  0
LWPOLYLINE
  5
2d4
100
AcDbEntity
  8
0
 62
7
100
AcDbPolyline
 90
1
 70
1
 10
-76.969907
 20
37.436457
 30
0.0
  0
SPLINE
  5
2d5
100
AcDbEntity
  8
0
 62
7
100
AcDbSpline
 70
8
 71
3
 72
8
 73
4
 74
0
 40
0
 40
0
 40
0
 40
0
 40
1
 40
1
 40
1
 40
1
 10
-73.136428
 20
33.936324
 30
0.0
 10
-73.473493
 20
33.936324
 30
0.0
 10
-73.777368
 20
33.733281
 30
0.0
 10
-73.906357
 20
33.421874
 30
0.0
  0
SPLINE
  5
2d6
100
AcDbEntity
  8
0
 62
7
100
AcDbSpline
 70
8
 71
3
 72
8
 73
4
 74
0
 40
0
 40
0
 40
0
 40
0
 40
1
 40
1
 40
1
 40
1
 10
-73.906357
 20
33.421874
 30
0.0
 10
-74.035346
 20
33.110467
 30
0.0
 10
-73.964047
 20
32.752022
 30
0.0
 10
-73.725706
 20
32.513681
 30
0.0
  0
SPLINE
  5
2d7
100
AcDbEntity
  8
0
 62
7
100
AcDbSpline
 70
8
 71
3
 72
8
 73
4
 74
0
 40
0
 40
0
 40
0
 40
0
 40
1
 40
1
 40
1
 40
1
 10
-73.725706
 20
32.513681
 30
0.0
 10
-73.487365
 20
32.275340
 30
0.0
 10
-73.128920
 20
32.204041
 30
0.0
 10
-72.817513
 20
32.333030
 30
0.0
  0
SPLINE
  5
2d8
100
AcDbEntity
  8
0
 62
7
100
AcDbSpline
 70
8
 71
3
 72
8
 73
4
 74
0
 40
0
 40
0
 40
0
 40
0
 40
1
 40
1
 40
1
 40
1
 10
-72.817513
 20
32.333030
 30
0.0
 10
-72.506106
 20
32.462019
 30
0.0
 10
-72.303063
 20
32.765894
 30
0.0
 10
-72.303063
 20
33.102959
 30
0.0
  0
SPLINE
  5
2d9
100
AcDbEntity
  8
0
 62
7
100
AcDbSpline
 70
8
 71
3
 72
8
 73
4
 74
0
 40
0
 40
0
 40
0
 40
0
 40
1
 40
1
 40
1
 40
1
 10
-72.303063
 20
33.102959
 30
0.0
 10
-72.303063
 20
33.323981
 30
0.0
 10
-72.390864
 20
33.535951
 30
0.0
 10
-72.547150
 20
33.692237
 30
0.0
  0
SPLINE
  5
2da
100
AcDbEntity
  8
0
 62
7
100
AcDbSpline
 70
8
 71
3
 72
8
 73
4
 74
0
 40
0
 40
0
 40
0
 40
0
 40
1
 40
1
 40
1
 40
1
 10
-72.547150
 20
33.692237
 30
0.0
 10
-72.703436
 20
33.848523
 30
0.0
 10
-72.915406
 20
33.936324
 30
0.0
 10
-73.136428
 20
33.936324
 30
0.0
  0
LWPOLYLINE
  5
2db
100
AcDbEntity
  8
0
 62
7
100
AcDbPolyline
 90
1
 70
1
 10
-84.303519
 20
30.436191
 30
0.0
  0
LWPOLYLINE
  5
2dc
100
AcDbEntity
  8
0
 62
7
100
AcDbPolyline
 90
1
 70
1
 10
-73.136428
 20
33.936324
 30
0.0
  0
SPLINE
  5
2dd
100
AcDbEntity
  8
0
 62
7
100
AcDbSpline
 70
8
 71
3
 72
8
 73
4
 74
0
 40
0
 40
0
 40
0
 40
0
 40
1
 40
1
 40
1
 40
1
 10
-70.969679
 20
41.769955
 30
0.0
 10
-71.306744
 20
41.769955
 30
0.0
 10
-71.610619
 20
41.566912
 30
0.0
 10
-71.739608
 20
41.255505
 30
0.0
  0
SPLINE
  5
2de
100
AcDbEntity
  8
0
 62
7
100
AcDbSpline
 70
8
 71
3
 72
8
 73
4
 74
0
 40
0
 40
0
 40
0
 40
0
 40
1
 40
1
 40
1
 40
1
 10
-71.739608
 20
41.255505
 30
0.0
 10
-71.868597
 20
40.944098
 30
0.0
 10
-71.797298
 20
40.585653
 30
0.0
 10
-71.558957
 20
40.347312
 30
0.0
  0
SPLINE
  5
2df
100
AcDbEntity
  8
0
 62
7
100
AcDbSpline
 70
8
 71
3
 72
8
 73
4
 74
0
 40
0
 40
0
 40
0
 40
0
 40
1
 40
1
 40
1
 40
1
 10
-71.558957
 20
40.347312
 30
0.0
 10
-71.320616
 20
40.108971
 30
0.0
 10
-70.962171
 20
40.037672
 30
0.0
 10
-70.650764
 20
40.166661
 30
0.0
  0
SPLINE
  5
2e0
100
AcDbEntity
  8
0
 62
7
100
AcDbSpline
 70
8
 71
3
 72
8
 73
4
 74
0
 40
0
 40
0
 40
0
 40
0
 40
1
 40
1
 40
1
 40
1
 10
-70.650764
 20
40.166661
 30
0.0
 10
-70.339357
 20
40.295650
 30
0.0
 10
-70.136314
 20
40.599525
 30
0.0
 10
-70.136314
 20
40.936590
 30
0.0
  0
SPLINE
  5
2e1
100
AcDbEntity
  8
0
 62
7
100
AcDbSpline
 70
8
 71
3
 72
8
 73
4
 74
0
 40
0
 40
0
 40
0
 40
0
 40
1
 40
1
 40
1
 40
1
 10
-70.136314
 20
40.936590
 30
0.0
 10
-70.136314
 20
41.157612
 30
0.0
 10
-70.224115
 20
41.369582
 30
0.0
 10
-70.380401
 20
41.525868
 30
0.0
  0
SPLINE
  5
2e2
100
AcDbEntity
  8
0
 62
7
100
AcDbSpline
 70
8
 71
3
 72
8
 73
4
 74
0
 40
0
 40
0
 40
0
 40
0
 40
1
 40
1
 40
1
 40
1
 10
-70.380401
 20
41.525868
 30
0.0
 10
-70.536687
 20
41.682154
 30
0.0
 10
-70.748657
 20
41.769955
 30
0.0
 10
-70.969679
 20
41.769955
 30
0.0
  0
LWPOLYLINE
  5
2e3
100
AcDbEntity
  8
0
 62
7
100
AcDbPolyline
 90
14
 70
1
 10
-53.150669
 20
36.033070
 30
0.0
 10
-61.220975
 20
37.311452
 30
0.0
 10
-61.339313
 20
36.488088
 30
0.0
 10
-57.019149
 20
32.469602
 30
0.0
 10
-61.490985
 20
27.864427
 30
0.0
 10
-74.771490
 20
40.474906
 30
0.0
 10
-71.141352
 20
45.825109
 30
0.0
 10
-65.877819
 20
40.826586
 30
0.0
 10
-66.836189
 20
49.148569
 30
0.0
 10
-61.422650
 20
53.620405
 30
0.0
 10
-60.347609
 20
43.163341
 30
0.0
 10
-48.798837
 20
41.666618
 30
0.0
 10
-53.154002
 20
36.034737
 30
0.0
 10
-53.150669
 20
36.034737
 30
0.0
  0
SPLINE
  5
2e4
100
AcDbEntity
  8
0
 62
7
100
AcDbSpline
 70
8
 71
3
 72
8
 73
4
 74
0
 40
0
 40
0
 40
0
 40
0
 40
1
 40
1
 40
1
 40
1
 10
-63.969413
 20
49.270240
 30
0.0
 10
-64.306478
 20
49.270240
 30
0.0
 10
-64.610353
 20
49.067197
 30
0.0
 10
-64.739342
 20
48.755790
 30
0.0
  0
SPLINE
  5
2e5
100
AcDbEntity
  8
0
 62
7
100
AcDbSpline
 70
8
 71
3
 72
8
 73
4
 74
0
 40
0
 40
0
 40
0
 40
0
 40
1
 40
1
 40
1
 40
1
 10
-64.739342
 20
48.755790
 30
0.0
 10
-64.868331
 20
48.444383
 30
0.0
 10
-64.797032
 20
48.085938
 30
0.0
 10
-64.558691
 20
47.847597
 30
0.0
  0
SPLINE
  5
2e6
100
AcDbEntity
  8
0
 62
7
100
AcDbSpline
 70
8
 71
3
 72
8
 73
4
 74
0
 40
0
 40
0
 40
0
 40
0
 40
1
 40
1
 40
1
 40
1
 10
-64.558691
 20
47.847597
 30
0.0
 10
-64.320350
 20
47.609256
 30
0.0
 10
-63.961905
 20
47.537957
 30
0.0
 10
-63.650498
 20
47.666946
 30
0.0
  0
SPLINE
  5
2e7
100
AcDbEntity
  8
0
 62
7
100
AcDbSpline
 70
8
 71
3
 72
8
 73
4
 74
0
 40
0
 40
0
 40
0
 40
0
 40
1
 40
1
 40
1
 40
1
 10
-63.650498
 20
47.666946
 30
0.0
 10
-63.339091
 20
47.795935
 30
0.0
 10
-63.136048
 20
48.099810
 30
0.0
 10
-63.136048
 20
48.436875
 30
0.0
  0
SPLINE
  5
2e8
100
AcDbEntity
  8
0
 62
7
100
AcDbSpline
 70
8
 71
3
 72
8
 73
4
 74
0
 40
0
 40
0
 40
0
 40
0
 40
1
 40
1
 40
1
 40
1
 10
-63.136048
 20
48.436875
 30
0.0
 10
-63.136048
 20
48.657897
 30
0.0
 10
-63.223849
 20
48.869867
 30
0.0
 10
-63.380135
 20
49.026153
 30
0.0
  0
SPLINE
  5
2e9
100
AcDbEntity
  8
0
 62
7
100
AcDbSpline
 70
8
 71
3
 72
8
 73
4
 74
0
 40
0
 40
0
 40
0
 40
0
 40
1
 40
1
 40
1
 40
1
 10
-63.380135
 20
49.026153
 30
0.0
 10
-63.536421
 20
49.182439
 30
0.0
 10
-63.748391
 20
49.270240
 30
0.0
 10
-63.969413
 20
49.270240
 30
0.0
  0
LWPOLYLINE
  5
2ea
100
AcDbEntity
  8
0
 62
7
100
AcDbPolyline
 90
1
 70
1
 10
-70.969679
 20
41.769955
 30
0.0
  0
SPLINE
  5
2eb
100
AcDbEntity
  8
0
 62
7
100
AcDbSpline
 70
8
 71
3
 72
8
 73
4
 74
0
 40
0
 40
0
 40
0
 40
0
 40
1
 40
1
 40
1
 40
1
 10
-67.802892
 20
38.769841
 30
0.0
 10
-68.139957
 20
38.769841
 30
0.0
 10
-68.443832
 20
38.566798
 30
0.0
 10
-68.572821
 20
38.255391
 30
0.0
  0
SPLINE
  5
2ec
100
AcDbEntity
  8
0
 62
7
100
AcDbSpline
 70
8
 71
3
 72
8
 73
4
 74
0
 40
0
 40
0
 40
0
 40
0
 40
1
 40
1
 40
1
 40
1
 10
-68.572821
 20
38.255391
 30
0.0
 10
-68.701810
 20
37.943984
 30
0.0
 10
-68.630511
 20
37.585539
 30
0.0
 10
-68.392170
 20
37.347198
 30
0.0
  0
SPLINE
  5
2ed
100
AcDbEntity
  8
0
 62
7
100
AcDbSpline
 70
8
 71
3
 72
8
 73
4
 74
0
 40
0
 40
0
 40
0
 40
0
 40
1
 40
1
 40
1
 40
1
 10
-68.392170
 20
37.347198
 30
0.0
 10
-68.153829
 20
37.108857
 30
0.0
 10
-67.795384
 20
37.037558
 30
0.0
 10
-67.483977
 20
37.166547
 30
0.0
  0
SPLINE
  5
2ee
100
AcDbEntity
  8
0
 62
7
100
AcDbSpline
 70
8
 71
3
 72
8
 73
4
 74
0
 40
0
 40
0
 40
0
 40
0
 40
1
 40
1
 40
1
 40
1
 10
-67.483977
 20
37.166547
 30
0.0
 10
-67.172570
 20
37.295536
 30
0.0
 10
-66.969527
 20
37.599411
 30
0.0
 10
-66.969527
 20
37.936476
 30
0.0
  0
SPLINE
  5
2ef
100
AcDbEntity
  8
0
 62
7
100
AcDbSpline
 70
8
 71
3
 72
8
 73
4
 74
0
 40
0
 40
0
 40
0
 40
0
 40
1
 40
1
 40
1
 40
1
 10
-66.969527
 20
37.936476
 30
0.0
 10
-66.969527
 20
38.157498
 30
0.0
 10
-67.057328
 20
38.369468
 30
0.0
 10
-67.213614
 20
38.525754
 30
0.0
  0
SPLINE
  5
2f0
100
AcDbEntity
  8
0
 62
7
100
AcDbSpline
 70
8
 71
3
 72
8
 73
4
 74
0
 40
0
 40
0
 40
0
 40
0
 40
1
 40
1
 40
1
 40
1
 10
-67.213614
 20
38.525754
 30
0.0
 10
-67.369900
 20
38.682040
 30
0.0
 10
-67.581870
 20
38.769841
 30
0.0
 10
-67.802892
 20
38.769841
 30
0.0
  0
LWPOLYLINE
  5
2f1
100
AcDbEntity
  8
0
 62
7
100
AcDbPolyline
 90
1
 70
1
 10
-63.969413
 20
49.270240
 30
0.0
  0
SPLINE
  5
2f2
100
AcDbEntity
  8
0
 62
7
100
AcDbSpline
 70
8
 71
3
 72
8
 73
4
 74
0
 40
0
 40
0
 40
0
 40
0
 40
1
 40
1
 40
1
 40
1
 10
-63.636067
 20
45.436761
 30
0.0
 10
-63.973132
 20
45.436761
 30
0.0
 10
-64.277007
 20
45.233718
 30
0.0
 10
-64.405996
 20
44.922311
 30
0.0
  0
SPLINE
  5
2f3
100
AcDbEntity
  8
0
 62
7
100
AcDbSpline
 70
8
 71
3
 72
8
 73
4
 74
0
 40
0
 40
0
 40
0
 40
0
 40
1
 40
1
 40
1
 40
1
 10
-64.405996
 20
44.922311
 30
0.0
 10
-64.534985
 20
44.610904
 30
0.0
 10
-64.463686
 20
44.252459
 30
0.0
 10
-64.225345
 20
44.014118
 30
0.0
  0
SPLINE
  5
2f4
100
AcDbEntity
  8
0
 62
7
100
AcDbSpline
 70
8
 71
3
 72
8
 73
4
 74
0
 40
0
 40
0
 40
0
 40
0
 40
1
 40
1
 40
1
 40
1
 10
-64.225345
 20
44.014118
 30
0.0
 10
-63.987004
 20
43.775777
 30
0.0
 10
-63.628559
 20
43.704478
 30
0.0
 10
-63.317152
 20
43.833467
 30
0.0
  0
SPLINE
  5
2f5
100
AcDbEntity
  8
0
 62
7
100
AcDbSpline
 70
8
 71
3
 72
8
 73
4
 74
0
 40
0
 40
0
 40
0
 40
0
 40
1
 40
1
 40
1
 40
1
 10
-63.317152
 20
43.833467
 30
0.0
 10
-63.005745
 20
43.962456
 30
0.0
 10
-62.802702
 20
44.266331
 30
0.0
 10
-62.802702
 20
44.603396
 30
0.0
  0
SPLINE
  5
2f6
100
AcDbEntity
  8
0
 62
7
100
AcDbSpline
 70
8
 71
3
 72
8
 73
4
 74
0
 40
0
 40
0
 40
0
 40
0
 40
1
 40
1
 40
1
 40
1
 10
-62.802702
 20
44.603396
 30
0.0
 10
-62.802702
 20
44.824418
 30
0.0
 10
-62.890503
 20
45.036388
 30
0.0
 10
-63.046789
 20
45.192674
 30
0.0
  0
SPLINE
  5
2f7
100
AcDbEntity
  8
0
 62
7
100
AcDbSpline
 70
8
 71
3
 72
8
 73
4
 74
0
 40
0
 40
0
 40
0
 40
0
 40
1
 40
1
 40
1
 40
1
 10
-63.046789
 20
45.192674
 30
0.0
 10
-63.203075
 20
45.348960
 30
0.0
 10
-63.415045
 20
45.436761
 30
0.0
 10
-63.636067
 20
45.436761
 30
0.0
  0
LWPOLYLINE
  5
2f8
100
AcDbEntity
  8
0
 62
7
100
AcDbPolyline
 90
1
 70
1
 10
-67.802892
 20
38.769841
 30
0.0
  0
SPLINE
  5
2f9
100
AcDbEntity
  8
0
 62
7
100
AcDbSpline
 70
8
 71
3
 72
8
 73
4
 74
0
 40
0
 40
0
 40
0
 40
0
 40
1
 40
1
 40
1
 40
1
 10
-63.136048
 20
41.103263
 30
0.0
 10
-63.473113
 20
41.103263
 30
0.0
 10
-63.776988
 20
40.900220
 30
0.0
 10
-63.905977
 20
40.588813
 30
0.0
  0
SPLINE
  5
2fa
100
AcDbEntity
  8
0
 62
7
100
AcDbSpline
 70
8
 71
3
 72
8
 73
4
 74
0
 40
0
 40
0
 40
0
 40
0
 40
1
 40
1
 40
1
 40
1
 10
-63.905977
 20
40.588813
 30
0.0
 10
-64.034966
 20
40.277406
 30
0.0
 10
-63.963667
 20
39.918961
 30
0.0
 10
-63.725326
 20
39.680620
 30
0.0
  0
SPLINE
  5
2fb
100
AcDbEntity
  8
0
 62
7
100
AcDbSpline
 70
8
 71
3
 72
8
 73
4
 74
0
 40
0
 40
0
 40
0
 40
0
 40
1
 40
1
 40
1
 40
1
 10
-63.725326
 20
39.680620
 30
0.0
 10
-63.486985
 20
39.442279
 30
0.0
 10
-63.128540
 20
39.370980
 30
0.0
 10
-62.817133
 20
39.499969
 30
0.0
  0
SPLINE
  5
2fc
100
AcDbEntity
  8
0
 62
7
100
AcDbSpline
 70
8
 71
3
 72
8
 73
4
 74
0
 40
0
 40
0
 40
0
 40
0
 40
1
 40
1
 40
1
 40
1
 10
-62.817133
 20
39.499969
 30
0.0
 10
-62.505726
 20
39.628958
 30
0.0
 10
-62.302683
 20
39.932833
 30
0.0
 10
-62.302683
 20
40.269898
 30
0.0
  0
SPLINE
  5
2fd
100
AcDbEntity
  8
0
 62
7
100
AcDbSpline
 70
8
 71
3
 72
8
 73
4
 74
0
 40
0
 40
0
 40
0
 40
0
 40
1
 40
1
 40
1
 40
1
 10
-62.302683
 20
40.269898
 30
0.0
 10
-62.302683
 20
40.490920
 30
0.0
 10
-62.390484
 20
40.702890
 30
0.0
 10
-62.546770
 20
40.859176
 30
0.0
  0
SPLINE
  5
2fe
100
AcDbEntity
  8
0
 62
7
100
AcDbSpline
 70
8
 71
3
 72
8
 73
4
 74
0
 40
0
 40
0
 40
0
 40
0
 40
1
 40
1
 40
1
 40
1
 10
-62.546770
 20
40.859176
 30
0.0
 10
-62.703056
 20
41.015462
 30
0.0
 10
-62.915026
 20
41.103263
 30
0.0
 10
-63.136048
 20
41.103263
 30
0.0
  0
LWPOLYLINE
  5
2ff
100
AcDbEntity
  8
0
 62
7
100
AcDbPolyline
 90
1
 70
1
 10
-63.636067
 20
45.436761
 30
0.0
  0
SPLINE
  5
300
100
AcDbEntity
  8
0
 62
7
100
AcDbSpline
 70
8
 71
3
 72
8
 73
4
 74
0
 40
0
 40
0
 40
0
 40
0
 40
1
 40
1
 40
1
 40
1
 10
-64.404428
 20
35.603054
 30
0.0
 10
-64.741493
 20
35.603054
 30
0.0
 10
-65.045368
 20
35.400011
 30
0.0
 10
-65.174357
 20
35.088604
 30
0.0
  0
SPLINE
  5
301
100
AcDbEntity
  8
0
 62
7
100
AcDbSpline
 70
8
 71
3
 72
8
 73
4
 74
0
 40
0
 40
0
 40
0
 40
0
 40
1
 40
1
 40
1
 40
1
 10
-65.174357
 20
35.088604
 30
0.0
 10
-65.303346
 20
34.777197
 30
0.0
 10
-65.232047
 20
34.418752
 30
0.0
 10
-64.993706
 20
34.180411
 30
0.0
  0
SPLINE
  5
302
100
AcDbEntity
  8
0
 62
7
100
AcDbSpline
 70
8
 71
3
 72
8
 73
4
 74
0
 40
0
 40
0
 40
0
 40
0
 40
1
 40
1
 40
1
 40
1
 10
-64.993706
 20
34.180411
 30
0.0
 10
-64.755365
 20
33.942070
 30
0.0
 10
-64.396920
 20
33.870771
 30
0.0
 10
-64.085513
 20
33.999760
 30
0.0
  0
SPLINE
  5
303
100
AcDbEntity
  8
0
 62
7
100
AcDbSpline
 70
8
 71
3
 72
8
 73
4
 74
0
 40
0
 40
0
 40
0
 40
0
 40
1
 40
1
 40
1
 40
1
 10
-64.085513
 20
33.999760
 30
0.0
 10
-63.774106
 20
34.128749
 30
0.0
 10
-63.571063
 20
34.432624
 30
0.0
 10
-63.571063
 20
34.769689
 30
0.0
  0
SPLINE
  5
304
100
AcDbEntity
  8
0
 62
7
100
AcDbSpline
 70
8
 71
3
 72
8
 73
4
 74
0
 40
0
 40
0
 40
0
 40
0
 40
1
 40
1
 40
1
 40
1
 10
-63.571063
 20
34.769689
 30
0.0
 10
-63.571063
 20
34.990711
 30
0.0
 10
-63.658864
 20
35.202681
 30
0.0
 10
-63.815150
 20
35.358967
 30
0.0
  0
SPLINE
  5
305
100
AcDbEntity
  8
0
 62
7
100
AcDbSpline
 70
8
 71
3
 72
8
 73
4
 74
0
 40
0
 40
0
 40
0
 40
0
 40
1
 40
1
 40
1
 40
1
 10
-63.815150
 20
35.358967
 30
0.0
 10
-63.971436
 20
35.515253
 30
0.0
 10
-64.183406
 20
35.603054
 30
0.0
 10
-64.404428
 20
35.603054
 30
0.0
  0
LWPOLYLINE
  5
306
100
AcDbEntity
  8
0
 62
7
100
AcDbPolyline
 90
1
 70
1
 10
-63.136048
 20
41.103263
 30
0.0
  0
SPLINE
  5
307
100
AcDbEntity
  8
0
 62
7
100
AcDbSpline
 70
8
 71
3
 72
8
 73
4
 74
0
 40
0
 40
0
 40
0
 40
0
 40
1
 40
1
 40
1
 40
1
 10
-58.802550
 20
40.769917
 30
0.0
 10
-59.139615
 20
40.769917
 30
0.0
 10
-59.443490
 20
40.566874
 30
0.0
 10
-59.572479
 20
40.255467
 30
0.0
  0
SPLINE
  5
308
100
AcDbEntity
  8
0
 62
7
100
AcDbSpline
 70
8
 71
3
 72
8
 73
4
 74
0
 40
0
 40
0
 40
0
 40
0
 40
1
 40
1
 40
1
 40
1
 10
-59.572479
 20
40.255467
 30
0.0
 10
-59.701468
 20
39.944060
 30
0.0
 10
-59.630169
 20
39.585615
 30
0.0
 10
-59.391828
 20
39.347274
 30
0.0
  0
SPLINE
  5
309
100
AcDbEntity
  8
0
 62
7
100
AcDbSpline
 70
8
 71
3
 72
8
 73
4
 74
0
 40
0
 40
0
 40
0
 40
0
 40
1
 40
1
 40
1
 40
1
 10
-59.391828
 20
39.347274
 30
0.0
 10
-59.153487
 20
39.108933
 30
0.0
 10
-58.795042
 20
39.037634
 30
0.0
 10
-58.483635
 20
39.166623
 30
0.0
  0
SPLINE
  5
30a
100
AcDbEntity
  8
0
 62
7
100
AcDbSpline
 70
8
 71
3
 72
8
 73
4
 74
0
 40
0
 40
0
 40
0
 40
0
 40
1
 40
1
 40
1
 40
1
 10
-58.483635
 20
39.166623
 30
0.0
 10
-58.172228
 20
39.295612
 30
0.0
 10
-57.969185
 20
39.599487
 30
0.0
 10
-57.969185
 20
39.936552
 30
0.0
  0
SPLINE
  5
30b
100
AcDbEntity
  8
0
 62
7
100
AcDbSpline
 70
8
 71
3
 72
8
 73
4
 74
0
 40
0
 40
0
 40
0
 40
0
 40
1
 40
1
 40
1
 40
1
 10
-57.969185
 20
39.936552
 30
0.0
 10
-57.969185
 20
40.157574
 30
0.0
 10
-58.056986
 20
40.369544
 30
0.0
 10
-58.213272
 20
40.525830
 30
0.0
  0
SPLINE
  5
30c
100
AcDbEntity
  8
0
 62
7
100
AcDbSpline
 70
8
 71
3
 72
8
 73
4
 74
0
 40
0
 40
0
 40
0
 40
0
 40
1
 40
1
 40
1
 40
1
 10
-58.213272
 20
40.525830
 30
0.0
 10
-58.369558
 20
40.682116
 30
0.0
 10
-58.581528
 20
40.769917
 30
0.0
 10
-58.802550
 20
40.769917
 30
0.0
  0
LWPOLYLINE
  5
30d
100
AcDbEntity
  8
0
 62
7
100
AcDbPolyline
 90
1
 70
1
 10
-64.404428
 20
35.603054
 30
0.0
  0
SPLINE
  5
30e
100
AcDbEntity
  8
0
 62
7
100
AcDbSpline
 70
8
 71
3
 72
8
 73
4
 74
0
 40
0
 40
0
 40
0
 40
0
 40
1
 40
1
 40
1
 40
1
 10
-61.469318
 20
32.769613
 30
0.0
 10
-61.806383
 20
32.769613
 30
0.0
 10
-62.110258
 20
32.566570
 30
0.0
 10
-62.239247
 20
32.255163
 30
0.0
  0
SPLINE
  5
30f
100
AcDbEntity
  8
0
 62
7
100
AcDbSpline
 70
8
 71
3
 72
8
 73
4
 74
0
 40
0
 40
0
 40
0
 40
0
 40
1
 40
1
 40
1
 40
1
 10
-62.239247
 20
32.255163
 30
0.0
 10
-62.368236
 20
31.943756
 30
0.0
 10
-62.296937
 20
31.585311
 30
0.0
 10
-62.058596
 20
31.346970
 30
0.0
  0
SPLINE
  5
310
100
AcDbEntity
  8
0
 62
7
100
AcDbSpline
 70
8
 71
3
 72
8
 73
4
 74
0
 40
0
 40
0
 40
0
 40
0
 40
1
 40
1
 40
1
 40
1
 10
-62.058596
 20
31.346970
 30
0.0
 10
-61.820255
 20
31.108629
 30
0.0
 10
-61.461810
 20
31.037330
 30
0.0
 10
-61.150403
 20
31.166319
 30
0.0
  0
SPLINE
  5
311
100
AcDbEntity
  8
0
 62
7
100
AcDbSpline
 70
8
 71
3
 72
8
 73
4
 74
0
 40
0
 40
0
 40
0
 40
0
 40
1
 40
1
 40
1
 40
1
 10
-61.150403
 20
31.166319
 30
0.0
 10
-60.838996
 20
31.295308
 30
0.0
 10
-60.635953
 20
31.599183
 30
0.0
 10
-60.635953
 20
31.936248
 30
0.0
  0
SPLINE
  5
312
100
AcDbEntity
  8
0
 62
7
100
AcDbSpline
 70
8
 71
3
 72
8
 73
4
 74
0
 40
0
 40
0
 40
0
 40
0
 40
1
 40
1
 40
1
 40
1
 10
-60.635953
 20
31.936248
 30
0.0
 10
-60.635953
 20
32.157270
 30
0.0
 10
-60.723754
 20
32.369240
 30
0.0
 10
-60.880040
 20
32.525526
 30
0.0
  0
SPLINE
  5
313
100
AcDbEntity
  8
0
 62
7
100
AcDbSpline
 70
8
 71
3
 72
8
 73
4
 74
0
 40
0
 40
0
 40
0
 40
0
 40
1
 40
1
 40
1
 40
1
 10
-60.880040
 20
32.525526
 30
0.0
 10
-61.036326
 20
32.681812
 30
0.0
 10
-61.248296
 20
32.769613
 30
0.0
 10
-61.469318
 20
32.769613
 30
0.0
  0
LWPOLYLINE
  5
314
100
AcDbEntity
  8
0
 62
7
100
AcDbPolyline
 90
1
 70
1
 10
-58.802550
 20
40.769917
 30
0.0
  0
SPLINE
  5
315
100
AcDbEntity
  8
0
 62
7
100
AcDbSpline
 70
8
 71
3
 72
8
 73
4
 74
0
 40
0
 40
0
 40
0
 40
0
 40
1
 40
1
 40
1
 40
1
 10
-54.635725
 20
40.103225
 30
0.0
 10
-54.972790
 20
40.103225
 30
0.0
 10
-55.276665
 20
39.900182
 30
0.0
 10
-55.405654
 20
39.588775
 30
0.0
  0
SPLINE
  5
316
100
AcDbEntity
  8
0
 62
7
100
AcDbSpline
 70
8
 71
3
 72
8
 73
4
 74
0
 40
0
 40
0
 40
0
 40
0
 40
1
 40
1
 40
1
 40
1
 10
-55.405654
 20
39.588775
 30
0.0
 10
-55.534643
 20
39.277368
 30
0.0
 10
-55.463344
 20
38.918923
 30
0.0
 10
-55.225003
 20
38.680582
 30
0.0
  0
SPLINE
  5
317
100
AcDbEntity
  8
0
 62
7
100
AcDbSpline
 70
8
 71
3
 72
8
 73
4
 74
0
 40
0
 40
0
 40
0
 40
0
 40
1
 40
1
 40
1
 40
1
 10
-55.225003
 20
38.680582
 30
0.0
 10
-54.986662
 20
38.442241
 30
0.0
 10
-54.628217
 20
38.370942
 30
0.0
 10
-54.316810
 20
38.499931
 30
0.0
  0
SPLINE
  5
318
100
AcDbEntity
  8
0
 62
7
100
AcDbSpline
 70
8
 71
3
 72
8
 73
4
 74
0
 40
0
 40
0
 40
0
 40
0
 40
1
 40
1
 40
1
 40
1
 10
-54.316810
 20
38.499931
 30
0.0
 10
-54.005403
 20
38.628920
 30
0.0
 10
-53.802360
 20
38.932795
 30
0.0
 10
-53.802360
 20
39.269860
 30
0.0
  0
SPLINE
  5
319
100
AcDbEntity
  8
0
 62
7
100
AcDbSpline
 70
8
 71
3
 72
8
 73
4
 74
0
 40
0
 40
0
 40
0
 40
0
 40
1
 40
1
 40
1
 40
1
 10
-53.802360
 20
39.269860
 30
0.0
 10
-53.802360
 20
39.490882
 30
0.0
 10
-53.890161
 20
39.702852
 30
0.0
 10
-54.046447
 20
39.859138
 30
0.0
  0
SPLINE
  5
31a
100
AcDbEntity
  8
0
 62
7
100
AcDbSpline
 70
8
 71
3
 72
8
 73
4
 74
0
 40
0
 40
0
 40
0
 40
0
 40
1
 40
1
 40
1
 40
1
 10
-54.046447
 20
39.859138
 30
0.0
 10
-54.202733
 20
40.015424
 30
0.0
 10
-54.414703
 20
40.103225
 30
0.0
 10
-54.635725
 20
40.103225
 30
0.0
  0
LWPOLYLINE
  5
31b
100
AcDbEntity
  8
0
 62
7
100
AcDbPolyline
 90
1
 70
1
 10
-61.469318
 20
32.769613
 30
0.0
  0
SPLINE
  5
31c
100
AcDbEntity
  8
0
 62
7
100
AcDbSpline
 70
8
 71
3
 72
8
 73
4
 74
0
 40
0
 40
0
 40
0
 40
0
 40
1
 40
1
 40
1
 40
1
 10
-54.550722
 20
44.455057
 30
0.0
 10
-56.457461
 20
44.645064
 30
0.0
 10
-57.679174
 20
45.866777
 30
0.0
 10
-57.499167
 20
47.683513
 30
0.0
  0
SPLINE
  5
31d
100
AcDbEntity
  8
0
 62
7
100
AcDbSpline
 70
8
 71
3
 72
8
 73
4
 74
0
 40
0
 40
0
 40
0
 40
0
 40
1
 40
1
 40
1
 40
1
 10
-57.499167
 20
47.683513
 30
0.0
 10
-57.317494
 20
49.498582
 30
0.0
 10
-55.929107
 20
50.551955
 30
0.0
 10
-53.992367
 20
50.358615
 30
0.0
  0
SPLINE
  5
31e
100
AcDbEntity
  8
0
 62
7
100
AcDbSpline
 70
8
 71
3
 72
8
 73
4
 74
0
 40
0
 40
0
 40
0
 40
0
 40
1
 40
1
 40
1
 40
1
 10
-53.992367
 20
50.358615
 30
0.0
 10
-52.115629
 20
50.171941
 30
0.0
 10
-50.908917
 20
48.798555
 30
0.0
 10
-51.083923
 20
47.043489
 30
0.0
  0
SPLINE
  5
31f
100
AcDbEntity
  8
0
 62
7
100
AcDbSpline
 70
8
 71
3
 72
8
 73
4
 74
0
 40
0
 40
0
 40
0
 40
0
 40
1
 40
1
 40
1
 40
1
 10
-51.083923
 20
47.043489
 30
0.0
 10
-51.258930
 20
45.288422
 30
0.0
 10
-52.613982
 20
44.261716
 30
0.0
 10
-54.550722
 20
44.455057
 30
0.0
  0
LWPOLYLINE
  5
320
100
AcDbEntity
  8
0
 62
7
100
AcDbPolyline
 90
1
 70
1
 10
-54.635725
 20
40.103225
 30
0.0
  0
SPLINE
  5
321
100
AcDbEntity
  8
0
 62
7
100
AcDbSpline
 70
8
 71
3
 72
8
 73
4
 74
0
 40
0
 40
0
 40
0
 40
0
 40
1
 40
1
 40
1
 40
1
 10
-54.264048
 20
48.093529
 30
0.0
 10
-54.601112
 20
48.093529
 30
0.0
 10
-54.904987
 20
47.890486
 30
0.0
 10
-55.033976
 20
47.579079
 30
0.0
  0
SPLINE
  5
322
100
AcDbEntity
  8
0
 62
7
100
AcDbSpline
 70
8
 71
3
 72
8
 73
4
 74
0
 40
0
 40
0
 40
0
 40
0
 40
1
 40
1
 40
1
 40
1
 10
-55.033976
 20
47.579079
 30
0.0
 10
-55.162965
 20
47.267671
 30
0.0
 10
-55.091666
 20
46.909226
 30
0.0
 10
-54.853326
 20
46.670886
 30
0.0
  0
SPLINE
  5
323
100
AcDbEntity
  8
0
 62
7
100
AcDbSpline
 70
8
 71
3
 72
8
 73
4
 74
0
 40
0
 40
0
 40
0
 40
0
 40
1
 40
1
 40
1
 40
1
 10
-54.853326
 20
46.670886
 30
0.0
 10
-54.614985
 20
46.432545
 30
0.0
 10
-54.256540
 20
46.361246
 30
0.0
 10
-53.945133
 20
46.490235
 30
0.0
  0
SPLINE
  5
324
100
AcDbEntity
  8
0
 62
7
100
AcDbSpline
 70
8
 71
3
 72
8
 73
4
 74
0
 40
0
 40
0
 40
0
 40
0
 40
1
 40
1
 40
1
 40
1
 10
-53.945133
 20
46.490235
 30
0.0
 10
-53.633725
 20
46.619224
 30
0.0
 10
-53.430683
 20
46.923099
 30
0.0
 10
-53.430683
 20
47.260164
 30
0.0
  0
SPLINE
  5
325
100
AcDbEntity
  8
0
 62
7
100
AcDbSpline
 70
8
 71
3
 72
8
 73
4
 74
0
 40
0
 40
0
 40
0
 40
0
 40
1
 40
1
 40
1
 40
1
 10
-53.430683
 20
47.260164
 30
0.0
 10
-53.430683
 20
47.481186
 30
0.0
 10
-53.518483
 20
47.693155
 30
0.0
 10
-53.674770
 20
47.849442
 30
0.0
  0
SPLINE
  5
326
100
AcDbEntity
  8
0
 62
7
100
AcDbSpline
 70
8
 71
3
 72
8
 73
4
 74
0
 40
0
 40
0
 40
0
 40
0
 40
1
 40
1
 40
1
 40
1
 10
-53.674770
 20
47.849442
 30
0.0
 10
-53.831056
 20
48.005728
 30
0.0
 10
-54.043025
 20
48.093529
 30
0.0
 10
-54.264048
 20
48.093529
 30
0.0
  0
LWPOLYLINE
  5
327
100
AcDbEntity
  8
0
 62
7
100
AcDbPolyline
 90
1
 70
1
 10
-54.550722
 20
44.455057
 30
0.0
  0
LWPOLYLINE
  5
328
100
AcDbEntity
  8
0
 62
7
100
AcDbPolyline
 90
1
 70
1
 10
-54.264048
 20
48.093529
 30
0.0
  0
ENDSEC
  0
SECTION
  2
OBJECTS
  0
DICTIONARY
  5
C
330
0
100
AcDbDictionary
  3
ACAD_GROUP
350
D
  3
ACAD_MLINESTYLE
350
17
  0
DICTIONARY
  5
D
330
C
100
AcDbDictionary
  0
DICTIONARY
  5
1A
330
C
100
AcDbDictionary
  0
DICTIONARY
  5
17
330
C
100
AcDbDictionary
  3
STANDARD
350
18
  0
DICTIONARY
  5
19
330
C
100
AcDbDictionary
  0
ENDSEC
  0
EOF
