<?xml version="1.0" encoding="UTF-8" standalone="no"?>
<svg
   id="Layer_1"
   data-name="Layer 1"
   width="1100"
   height="300"
   viewBox="-175 -25 1100 300"
   version="1.1"
   sodipodi:docname="scale_1to60_px_w_outline.svg"
   inkscape:version="1.3 (0e150ed6c4, 2023-07-21)"
   xmlns:inkscape="http://www.inkscape.org/namespaces/inkscape"
   xmlns:sodipodi="http://sodipodi.sourceforge.net/DTD/sodipodi-0.dtd"
   xmlns="http://www.w3.org/2000/svg"
   xmlns:svg="http://www.w3.org/2000/svg">
  <sodipodi:namedview
     id="namedview7"
     pagecolor="#ffffff"
     bordercolor="#666666"
     borderopacity="1.0"
     inkscape:showpageshadow="2"
     inkscape:pageopacity="0.0"
     inkscape:pagecheckerboard="0"
     inkscape:deskcolor="#d1d1d1"
     showgrid="false"
     inkscape:zoom="17.406704"
     inkscape:cx="-23.353071"
     inkscape:cy="1.7521985"
     inkscape:window-width="3840"
     inkscape:window-height="2081"
     inkscape:window-x="-9"
     inkscape:window-y="-9"
     inkscape:window-maximized="1"
     inkscape:current-layer="Layer_1"
     inkscape:pageshadow="2" />
  <defs
     id="defs1">
    <style
       id="style1">&#10;      .cls-1 {&#10;        fill: #ff1d25;&#10;      }&#10;&#10;      .cls-1, .cls-2 {&#10;        stroke-width: 0px;&#10;      }&#10;&#10;      .cls-2 {&#10;        fill: #231f20;&#10;      }&#10;    </style>
  </defs>
  <g
     id="group_text"
     transform="matrix(0.01667016,0,0,0.01667016,-174.58319,270.53963)">
    <g
       id="g1">
      <path
         class="cls-2"
         d="m 83.08,155.74 c -8.02,-10.83 -20.9,-15.34 -31.87,-14.12 -6.89,0.77 -10.59,6.04 -9.9,12.28 2.26,20.3 65.36,-7.09 71.63,49.36 2.83,25.46 -11.19,44.87 -49.42,49.12 -26.17,2.91 -47.37,-6.63 -60.56,-26.8 l 22.15,-20.49 c 9.26,11.95 23.57,17.93 36.1,16.54 6.89,-0.77 10.9,-6.08 10.19,-12.49 -2.36,-21.19 -65.09,3.81 -71.06,-49.96 -2.91,-26.17 12.8,-46.13 47.42,-49.98 25.38,-2.82 47.3,8.8 59.15,29.84 l -23.84,16.71 h 0.01 z"
         id="path1" />
      <circle
         id="bulb-1"
         class="cls-1"
         cx="83"
         cy="136"
         r="5" />
      <circle
         id="bulb-2"
         class="cls-1"
         cx="54"
         cy="124"
         r="5" />
      <circle
         id="bulb-3"
         class="cls-1"
         cx="22"
         cy="138"
         r="5" />
      <circle
         id="bulb-4"
         class="cls-1"
         cx="22"
         cy="167"
         r="5" />
      <circle
         id="bulb-5"
         class="cls-1"
         cx="55"
         cy="180"
         r="5" />
      <circle
         id="bulb-6"
         class="cls-1"
         cx="88"
         cy="193"
         r="5" />
      <circle
         id="bulb-7"
         class="cls-1"
         cx="87"
         cy="225"
         r="5" />
      <circle
         id="bulb-8"
         class="cls-1"
         cx="57"
         cy="237"
         r="5" />
      <circle
         id="bulb-9"
         class="cls-1"
         cx="28"
         cy="229"
         r="5" />
    </g>
    <g
       id="g2">
      <path
         class="cls-2"
         d="m 181.76,210.31 c -5.01,1.67 -10.48,3.32 -15.43,4.68 l 9.62,34.14 -39.5,2.4 -30.84,-101.38 c 11.94,-4.46 31.27,-11.11 48.6,-15.87 31.36,-8.62 52,0.8 58.84,25.7 7.07,25.72 -6.64,42.06 -31.3,50.32 h 0.01 z m -18.67,-48.57 c -4.81,1.32 -8.79,3.01 -11.84,4.29 l 7.39,23.12 c 3.85,-1.06 8.32,-2.58 11.4,-3.72 7.38,-2.77 10.9,-7.73 8.78,-15.43 -2,-7.29 -7.89,-10.41 -15.73,-8.25 v 0 z"
         id="path2" />
      <circle
         id="bulb-13"
         class="cls-1"
         cx="126"
         cy="158"
         r="5" />
      <circle
         id="bulb-14"
         class="cls-1"
         cx="154"
         cy="148"
         r="5" />
      <circle
         id="bulb-15"
         class="cls-1"
         cx="187"
         cy="150"
         r="5" />
      <circle
         id="bulb-12"
         class="cls-1"
         cx="134"
         cy="184"
         r="5" />
      <circle
         id="bulb-16"
         class="cls-1"
         cx="196"
         cy="178"
         r="5" />
      <circle
         id="bulb-17"
         class="cls-1"
         cx="174"
         cy="198"
         r="5" />
      <circle
         id="bulb-11"
         class="cls-1"
         cx="142"
         cy="211"
         r="5" />
      <circle
         id="bulb-10"
         class="cls-1"
         cx="149"
         cy="236"
         r="5" />
    </g>
    <g
       id="g3">
      <path
         class="cls-2"
         d="m 275.54,249.14 -10.57,-43.61 c -2.67,-1 -5.7,-2.28 -7.79,-3.21 l -16.14,40.19 -35.62,-14.09 41.42,-113.85 c 12.63,4.1 31.67,10.6 50.78,17.73 29.94,11.17 41.54,31.49 32.56,55.55 -5.64,15.1 -16.04,20.96 -27.56,22.45 l 9.15,38.52 -36.24,0.32 z m 10.08,-89.96 c -3.88,-1.45 -9.05,-3.07 -12.58,-4.24 l -8.08,24.09 c 3.83,1.58 8.32,3.41 12.51,4.82 8.52,2.87 14.51,0.69 17.4,-7.06 2.79,-7.48 -0.44,-14.32 -9.26,-17.62 v 0 z"
         id="path3" />
      <circle
         id="bulb-21"
         class="cls-1"
         cx="259"
         cy="135"
         r="5" />
      <circle
         id="bulb-22"
         class="cls-1"
         cx="286"
         cy="144"
         r="5" />
      <circle
         id="bulb-23"
         class="cls-1"
         cx="311"
         cy="160"
         r="5" />
      <circle
         id="bulb-20"
         class="cls-1"
         cx="248.25999"
         cy="163.11"
         r="5" />
      <circle
         id="bulb-24"
         class="cls-1"
         cx="308"
         cy="188"
         r="5" />
      <circle
         id="bulb-19"
         class="cls-1"
         cx="238"
         cy="192"
         r="5" />
      <circle
         id="bulb-25"
         class="cls-1"
         cx="282"
         cy="206"
         r="5" />
      <circle
         id="bulb-18"
         class="cls-1"
         cx="228"
         cy="220"
         r="5" />
      <circle
         id="bulb-26"
         class="cls-1"
         cx="289"
         cy="234"
         r="5" />
    </g>
    <g
       id="g4">
      <path
         class="cls-2"
         d="m 395.55,227.54 -3.07,-18.02 -25.59,3.42 -10.87,36.2 h -36.37 l 41.62,-127.92 91.79,-8.7 3.74,25.76 -40.25,3.62 2.63,15.63 39.84,-5.6 3.2,23.75 -39.15,5.37 2.7,16.2 40.75,-6.43 3.56,25.58 -74.52,11.14 z m -12.45,-73.49 -9.62,32.94 15.01,-1.84 z"
         id="path4" />
      <circle
         id="bulb-30"
         class="cls-1"
         cx="374"
         cy="135"
         r="5" />
      <circle
         id="bulb-31"
         class="cls-1"
         cx="399"
         cy="132"
         r="5" />
      <circle
         id="bulb-35"
         class="cls-1"
         cx="434"
         cy="128"
         r="5" />
      <circle
         id="bulb-29"
         class="cls-1"
         cx="362"
         cy="170"
         r="5" />
      <circle
         id="bulb-32"
         class="cls-1"
         cx="404"
         cy="170"
         r="5" />
      <circle
         id="bulb-36"
         class="cls-1"
         cx="436"
         cy="167"
         r="5" />
      <circle
         id="bulb-28"
         class="cls-1"
         cx="352"
         cy="203"
         r="5" />
      <circle
         id="bulb-34"
         class="cls-1"
         cx="381"
         cy="199"
         r="5" />
      <circle
         id="bulb-33"
         class="cls-1"
         cx="409"
         cy="206"
         r="5" />
      <circle
         id="bulb-37"
         class="cls-1"
         cx="443"
         cy="207"
         r="5" />
      <circle
         id="bulb-27"
         class="cls-1"
         cx="342"
         cy="233"
         r="5" />
    </g>
    <g
       id="g5">
      <path
         class="cls-2"
         d="m 561.4,236.53 -44.84,-39.15 -3.6,3.46 8.03,50.64 h -39.1 l -20.7,-139.79 36.95,-5.28 9.43,57.16 26.26,-42.86 42.11,-1.1 -33.6,53.38 55.32,54.38 -36.25,9.18 v -0.02 z"
         id="path5" />
      <circle
         id="bulb-38"
         class="cls-1"
         cx="482"
         cy="127"
         r="5" />
      <circle
         id="bulb-43"
         class="cls-1"
         cx="545"
         cy="134"
         r="5" />
      <circle
         id="bulb-39"
         class="cls-1"
         cx="486"
         cy="155"
         r="5" />
      <circle
         id="bulb-44"
         class="cls-1"
         cx="531"
         cy="156"
         r="5" />
      <circle
         id="bulb-40"
         class="cls-1"
         cx="489"
         cy="183"
         r="5" />
      <circle
         id="bulb-45"
         class="cls-1"
         cx="518"
         cy="179"
         r="5" />
      <circle
         id="bulb-41"
         class="cls-1"
         cx="493"
         cy="211"
         r="5" />
      <circle
         id="bulb-46"
         class="cls-1"
         cx="541"
         cy="196"
         r="5" />
      <circle
         id="bulb-42"
         class="cls-1"
         cx="497"
         cy="238"
         r="5" />
      <circle
         id="bulb-47"
         class="cls-1"
         cx="564"
         cy="217"
         r="5" />
    </g>
    <g
       id="g6">
      <path
         class="cls-2"
         d="m 683.91,199.42 -48.42,-7.67 -0.71,4.94 25.92,24.11 -26.83,27.63 -79.68,-75.66 21.78,-32.1 31.58,29.99 -5.75,-49.93 32.48,-26.83 6.45,62.74 69.29,8.98 -26.13,33.79 h 0.02 z"
         id="path6" />
      <circle
         id="bulb-48"
         class="cls-1"
         cx="577"
         cy="170"
         r="5" />
      <circle
         id="bulb-52"
         class="cls-1"
         cx="619"
         cy="125"
         r="5" />
      <circle
         id="bulb-49"
         class="cls-1"
         cx="596"
         cy="188"
         r="5" />
      <circle
         id="bulb-53"
         class="cls-1"
         cx="621"
         cy="148"
         r="5" />
      <circle
         id="bulb-54"
         class="cls-1"
         cx="624"
         cy="174"
         r="5" />
      <circle
         id="bulb-50"
         class="cls-1"
         cx="616.39001"
         cy="207"
         r="5" />
      <circle
         id="bulb-55"
         class="cls-1"
         cx="650"
         cy="176"
         r="5" />
      <circle
         id="bulb-51"
         class="cls-1"
         cx="634"
         cy="224"
         r="5" />
      <circle
         id="bulb-56"
         class="cls-1"
         cx="675"
         cy="180"
         r="5" />
    </g>
    <g
       id="g8"
       inkscape:label="g7">
      <path
         d="m 675.51,148.89 c -11.44,-1.14 -18.77,-8.47 -17.69,-19.37 1.09,-10.89 9.42,-17.21 21.04,-16.05 11.26,1.12 18.5,9.36 17.45,19.89 -1.05,10.53 -9.18,16.69 -20.8,15.53 z"
         id="path7" />
      <circle
         id="bulb-57"
         class="cls-1"
         cx="677.22998"
         cy="132.06"
         r="5" />
    </g>
    <g
       id="g7"
       inkscape:label="g8">
      <path
         d="M 698.57,99.67 662.35,95.14 671.84,0 711.45,3.58 698.57,99.66 v 0 z"
         id="path8" />
      <circle
         id="bulb-60"
         class="cls-1"
         cx="689.23999"
         cy="20.040001"
         r="5" />
      <circle
         id="bulb-59"
         class="cls-1"
         cx="686.23999"
         cy="48.549999"
         r="5" />
      <circle
         id="bulb-58"
         class="cls-1"
         cx="682.22998"
         cy="77.050003"
         r="5" />
    </g>
  </g>
</svg>
