<?xml version="1.0" encoding="UTF-8" standalone="no"?>
<svg
   id="Layer_2"
   data-name="Layer 2"
   viewBox="0 0 1037.71 474.54"
   version="1.1"
   sodipodi:docname="sprækk! med sprækker!.svg"
   inkscape:version="1.3 (0e150ed6c4, 2023-07-21)"
   xmlns:inkscape="http://www.inkscape.org/namespaces/inkscape"
   xmlns:sodipodi="http://sodipodi.sourceforge.net/DTD/sodipodi-0.dtd"
   xmlns="http://www.w3.org/2000/svg"
   xmlns:svg="http://www.w3.org/2000/svg">
  <sodipodi:namedview
     id="namedview12"
     pagecolor="#505050"
     bordercolor="#eeeeee"
     borderopacity="1"
     inkscape:showpageshadow="0"
     inkscape:pageopacity="0"
     inkscape:pagecheckerboard="0"
     inkscape:deskcolor="#505050"
     inkscape:zoom="20.622333"
     inkscape:cx="470.67905"
     inkscape:cy="205.62659"
     inkscape:window-width="3840"
     inkscape:window-height="2081"
     inkscape:window-x="-9"
     inkscape:window-y="-9"
     inkscape:window-maximized="1"
     inkscape:current-layer="layer1" />
  <defs
     id="defs1">
    <style
       id="style1">&#10;      .cls-1 {&#10;        fill: #fff;&#10;      }&#10;&#10;      .cls-2 {&#10;        fill: #231f20;&#10;      }&#10;    </style>
  </defs>
  <path
     class="cls-2"
     d="m 432.40092,253.08723 c -0.83503,0.27834 -1.74674,0.55335 -2.57177,0.78003 l 1.6034,5.69023 -6.5836,0.40002 -5.14021,-16.89736 c 1.99008,-0.74336 5.21187,-1.85174 8.10033,-2.64511 5.22688,-1.43672 8.66702,0.13334 9.80706,4.28351 1.17838,4.28684 -1.10671,7.01029 -5.21688,8.38701 z m -3.11179,-8.09533 c -0.8017,0.22001 -1.46506,0.50168 -1.97342,0.71503 l 1.23172,3.85349 c 0.64169,-0.17668 1.38672,-0.43002 1.90008,-0.62003 1.23005,-0.46168 1.81674,-1.28838 1.46339,-2.57177 -0.33335,-1.21505 -1.31505,-1.73507 -2.62177,-1.37506 z"
     id="path1"
     style="stroke-width:0.166673" />
  <path
     class="cls-2"
     d="m 448.02989,259.55916 -1.76174,-7.26863 c -0.44502,-0.16667 -0.95004,-0.38002 -1.29838,-0.53502 l -2.69011,6.6986 -5.93691,-2.34843 6.90361,-18.97577 c 2.10509,0.68336 5.27855,1.76674 8.46368,2.95512 4.99021,1.86174 6.92362,5.24855 5.42689,9.25871 -0.94004,2.51677 -2.67344,3.49348 -4.59352,3.74182 l 1.52506,6.42026 -6.04025,0.0533 z m 1.68007,-14.99395 c -0.64669,-0.24167 -1.50839,-0.51168 -2.09675,-0.70669 l -1.34672,4.01516 c 0.63836,0.26335 1.38672,0.56836 2.08508,0.80337 1.42006,0.47835 2.41843,0.115 2.90012,-1.17672 0.46502,-1.24671 -0.0733,-2.38676 -1.5434,-2.93678 z"
     id="path2"
     style="stroke-width:0.166673" />
  <path
     class="cls-2"
     d="m 468.03237,255.95901 -0.51168,-3.00345 -4.26518,0.57002 -1.81174,6.03358 h -6.06191 l 6.93695,-21.32087 15.29896,-1.45006 0.62336,4.29351 -6.70861,0.60336 0.43835,2.6051 6.64027,-0.93337 0.53336,3.9585 -6.52527,0.89503 0.45002,2.70011 6.79194,-1.07171 0.59336,4.26351 -12.42051,1.85674 z m -2.07508,-12.24883 -1.6034,5.49022 2.50177,-0.30668 z"
     id="path3"
     style="stroke-width:0.166673" />
  <path
     class="cls-2"
     d="m 495.67684,257.45741 -7.47364,-6.52527 -0.60003,0.57669 1.33839,8.44035 h -6.51693 l -3.45014,-23.29929 6.15858,-0.88004 1.57173,9.52706 4.37685,-7.14362 7.01862,-0.18335 -5.60023,8.89703 9.22038,9.06371 -6.04192,1.53006 z"
     id="path4"
     style="stroke-width:0.166673" />
  <path
     class="cls-2"
     d="m 514.69428,242.84848 c -1.90674,-0.19001 -3.12846,-1.41173 -2.94845,-3.22847 0.18167,-1.81507 1.57006,-2.86845 3.50681,-2.67511 1.87674,0.18668 3.08346,1.56007 2.90845,3.31514 -0.17501,1.75507 -1.53006,2.78178 -3.46681,2.58844 z m 3.84349,-8.20367 -6.03691,-0.75503 1.58173,-15.85565 6.60193,0.59669 z"
     id="path5"
     style="stroke-width:0.166673" />
  <path
     class="cls-2"
     d="m 415.95192,243.99186 c -1.33673,-1.80508 -3.48348,-2.55677 -5.31189,-2.35343 -1.14838,0.12834 -1.76507,1.00671 -1.65007,2.04675 0.37669,3.38347 10.89378,-1.18172 11.93883,8.227 0.47168,4.24351 -1.86508,7.47864 -8.23701,8.187 -4.36184,0.48502 -7.89532,-1.10504 -10.09374,-4.46685 l 3.69181,-3.41514 c 1.5434,1.99175 3.9285,2.98846 6.01692,2.75678 1.14838,-0.12834 1.81674,-1.01337 1.6984,-2.08175 -0.39335,-3.53181 -10.84878,0.63503 -11.84382,-8.32701 -0.48502,-4.36184 2.13342,-7.68864 7.90366,-8.33034 4.23017,-0.47002 7.88365,1.46673 9.85873,4.97354 l -3.97349,2.78511 z"
     id="path6"
     style="stroke-width:0.166673" />
  <path
     class="cls-2"
     d="m 516.09434,251.27215 -8.07033,-1.27838 -0.11834,0.82337 4.32018,4.01849 -4.47185,4.60519 -13.28055,-12.61051 3.63015,-5.35022 5.26355,4.99854 -0.95837,-8.32201 5.41355,-4.47185 1.07505,10.45709 11.5488,1.49673 -4.35518,5.6319 z"
     id="path7"
     style="stroke-width:0.166673" />
  <g
     inkscape:groupmode="layer"
     id="layer1"
     inkscape:label="Sprekk">
    <path
       id="polygon7"
       class="cls-1"
       transform="matrix(0.16667347,0,0,0.16667347,384.4923,199.44004)"
       style="fill:#ffffff"
       d="m 272.67,360.56 -5,-6 v -7 l -1,-2 H 265 l -0.33,-7 -2,-3 -3,-2 1,-8 -3,-1 -0.74,-3.37 -2.26,-0.63 -1,-4 h -3.18 l -1.49,2 h -3.11 l -2.22,1 -1.04,-1 -1.96,2 -2,-1 -2.41,-1 h -1.03 l -3.56,1 -4.91,-3 -2.05,-6.48 4.96,3.48 2,1 4,-1 2,2 7,-2 2,1 4,-4 h 2 l 2.85,-3.64 -0.29,-2.21 h -1.93 l -0.15,-4.08 0.52,-2.07 -0.81,-2.17 -0.19,-3.83 1,2 2.3,2.85 -1.3,2.15 v 2 l 2.26,-0.93 1.74,1.93 -0.93,2.15 0.45,2.21 -1.26,1.82 -1.26,2.82 v 3 l 1.26,1.89 1.74,0.11 3,5 2,1 0.74,7.27 2.26,2.73 v 4 l 4.34,2.26 v 2.22 l 1.66,2.52 -1,7 1,2 4,3 2,2 2.93,9.54 h -8 z" />
    <path
       id="polygon8"
       class="cls-1"
       transform="matrix(0.16667347,0,0,0.16667347,384.4923,199.44004)"
       style="fill:#ffffff"
       d="m 211.67,310.56 -1,-5 v -3.11 l -5,-2.89 -3.78,-5 -6.22,1 v -2.89 l -4,-3.11 -4,-4 -7,2 -5,-1 -2,1 -3,-4 h -4.04 l -0.96,2 -2.15,-2 -1.85,1 -1.26,-1 h -2.67 l -1.07,-2 -7,1 -3,-2 2,4 h 5 l 2,-1 1,2 h 3 l 2.65,0.89 1.35,2.11 3,-1 2,1 4,2 1.37,2.11 0.63,0.89 2.48,-0.89 3.52,-1.11 4,-1 4,5 2,1 1,3 -3,2 v 2 l -4,4 2.85,-0.85 3.15,-2.15 2,-2 2,-2 3.07,-2.17 3.93,1.17 1,3 2,5 2.11,1.36 0.89,3.64 1,3 h 1.67 l 3.33,-1 3.04,-0.26 2.96,0.26 v -5.64 h -2.96 z" />
    <path
       id="polygon9"
       class="cls-1"
       transform="matrix(0.16667347,0,0,0.16667347,384.4923,199.44004)"
       style="fill:#ffffff"
       d="m 386.08,354.23 4.59,-1.67 2,-5 2,-3 -1,-4 3,-4 v -5.74 l 1,4.74 v 3.41 l -2,1.59 1,2 -1,5 -2,4 h 6 v -2 l 1.86,-1.71 2.14,-0.29 3,-3 2,1 3,-4 4,-3 v 7.37 l -3,0.63 -2,3 -1,4 -2,1 -2,-1 -2,-2 -2.14,2.96 -1.86,1.04 h -3 l -1,2 h -4 l -6,2 -6,3 -1,-6 z" />
    <path
       id="polygon10"
       class="cls-1"
       transform="matrix(0.16667347,0,0,0.16667347,384.4923,199.44004)"
       style="fill:#ffffff"
       d="m 438.67,328.56 4,-2 h 2.45 l 3.55,-5 3,3 3,-1 3,-1 h 2 l 1,-3 3,-2 1,2 h 3 l 4,-7 h 2.78 l 2.22,-1 1,-3 7,-1 4,-2 1,-3 h 1.22 l 0.89,-3.02 1.89,-0.98 1.49,-0.86 v -2.18 l 1.21,-1.11 v -2.3 l 2.3,-2.55 -1,-4 2,-2 1,-4 3,-2 v -1.89 l -3,-3.11 7,-4 3,-4 -1,-2 v -4 l -2,-1 v -3 l -1,-1 v -2 -2 l 1,1 v 2 l 1,1 1,3 3,1 1,2 3,-1 h 2 l 1,1 h -2 l -2,1 -2,1 -1,2 -0.3,3.04 -0.7,1.96 -3,3 -2.67,0.67 -1.33,0.33 1,2 1,1 -1,1 v 2 l -2,3 -1,3 -1.15,1.48 2.15,2.52 -0.33,1.5 -1.82,1.76 v 2.59 2.15 h -1.85 v 2 l 0.26,0.98 -4.26,2.02 -0.51,1.52 4.51,0.48 1.85,0.41 1.15,3.59 v 1 l 2,2 3,2 2,1 1,5 -2,-4 -3,-1 -3,-1 -2,-2 -1,-3 -2,-2 -2.51,-0.11 -2.49,0.11 -1,2 v 2 l -4.02,0.63 -1.98,1.37 -1,-2 -2,2 h -2 l 1,2 -2,1 -0.93,1 -0.07,2 h -2 l -3,1 v 1 l 1,1 -2,2 -2,1 h -3 l -5,3 -4,1 -2,3 -3,-2 -2,-1 0.84,2.04 -2.84,-1.04 -1,2 v 1.26 l -4,1.74 -3,1 -1.84,1.55 -5.68,1.63 -3.48,1.82 4,-9 z" />
    <path
       id="polygon11"
       class="cls-1"
       transform="matrix(0.16667347,0,0,0.16667347,384.4923,199.44004)"
       style="fill:#ffffff"
       d="m 723.67,336.56 3.7,-5.56 1.3,-3.44 -1,-4 -2,-4 0.07,-5 0.93,-3 -4,-3 -3,-2.48 -1,-4.52 -4,-2 -1,-2 1,-2 -1,-3.71 -1,-3.29 h 3.15 2.96 l 3.89,-1 h 3.22 l 2.78,-1.33 h 4.19 2.22 1.78 l 2.81,-2.67 h 2.22 l 2.37,-0.83 v -1.1 l -1.59,-2.07 -3,-1 -3,-2 1.12,-2.04 -2.12,-2.96 v -2 l -4,-2 3,-1 2,1 1.12,2.37 -0.49,1.3 1.37,2.33 2,2 4,2 2,1 h 2 l 3,-1 1,-2 1,-3 2.3,-1.33 2.7,-0.67 2.48,-0.63 3.52,-1.37 3,-2 h 4 l -3,3 -1.59,1.67 h -2.82 l -2.59,1.33 -3,1 -2,1 1,3 -3,-1 -1,2 -2,2 h -2 l -2,3 -2,1 -3,1 1,2 -2.68,0.59 -4.32,0.41 -3,1 -4.22,0.94 h -1.93 -2.07 -3.11 l -2.67,2.06 -2,-1 v 3 l 1,3 3,1 2,3 1.63,2.5 2.37,3.5 3,2 1,2 0.3,3 0.7,3 2,5 1,5 0.3,3.17 -1.3,1.83 v 3 l -2,2 v 3 l -1,3 -2,3 -3,3 -7,-8 z" />
    <path
       class="cls-1"
       d="m 512.60919,242.03511 0.16668,-0.83337 0.50002,-0.50002 v -1.26005 l 0.66669,-0.40668 0.33335,-0.6667 0.50002,-0.50002 -0.33335,-0.33334 0.14834,-0.61169 0.8517,-0.22168 -0.33334,0.50002 v 0.33335 l 0.16667,0.50002 -0.66669,0.33334 0.16667,0.50002 h -0.16667 l -0.16668,0.33335 -0.36501,0.36502 h -0.52502 l 0.22167,0.46835 v 0.50002 l -0.16667,0.50002 -0.50002,0.33335 0.33335,0.33334 -0.33335,0.33335 c 0,0 -0.0567,0.56169 0,0.50002 0.0567,-0.0617 -0.50002,-0.50002 -0.50002,-0.50002 z"
       id="path11"
       style="stroke-width:0.166673" />
    <path
       id="polygon12"
       class="cls-1"
       transform="matrix(0.16667347,0,0,0.16667347,384.4923,199.44004)"
       style="fill:#ffffff"
       d="m 782.74,204 1.93,-6.44 4,-4 v -6 l -2,-3 -1.5,-4.71 -1.5,-4.29 -2,-4.89 h -4.18 l 2.18,-4.11 v -6 l 1,-5 3,-2 v -6 h 3.11 l 1.89,-5.93 -2,-3.07 5,-2 v -6.48 l 3,-0.52 3,-7 -3,-4 4,2 1,3 -1,2 -2,4 -2,2 -1,1 2,2 4,-1.08 4,0.08 h 3 l 4,-1 1,-3 2,1 2.04,-0.48 v 4 l -3.04,-1.52 v 2 l -2,1 h -3 l -2,2 -3,-2 -2,2 h -3 l -3,-1 v 2 l -4,1 v 3 l 1,3 -2,1 -1,5 h -2 v 4 l -2,1 -1.93,3.89 1.93,2.11 -1.93,2.63 0.93,3.37 3,2 -1,2.63 2,3.37 1,3 1,3 2.91,1.89 v 3.4 2.67 l 1.09,2.04 -1.09,3 -2.91,2 -1,3 -2,2 -1,2.91 v 3.43 l -4,0.66 z" />
  </g>
</svg>
